# Blender 4.4.1
# www.blender.org
mtllib kusari_tate.mtl
o トーラス.001
v 0.000000 -0.152815 -0.042952
v -0.021511 -0.148204 -0.042952
v -0.037258 -0.135606 -0.042952
v -0.043022 -0.118397 -0.042952
v -0.037258 -0.101188 -0.042952
v -0.021511 -0.088591 -0.042952
v 0.000000 -0.083979 -0.042952
v 0.021511 -0.088591 -0.042952
v 0.037258 -0.101188 -0.042952
v 0.043022 -0.118397 -0.042952
v 0.037258 -0.135606 -0.042952
v 0.021511 -0.148204 -0.042952
v 0.000000 -0.147608 0.092532
v -0.021511 -0.143154 0.091040
v -0.037258 -0.130985 0.086964
v -0.043022 -0.114363 0.081397
v -0.037258 -0.097740 0.075830
v -0.021511 -0.085572 0.071754
v 0.000000 -0.081118 0.070262
v 0.021511 -0.085572 0.071754
v 0.037258 -0.097740 0.075830
v 0.043022 -0.114363 0.081397
v 0.037258 -0.130985 0.086964
v 0.021511 -0.143154 0.091040
v 0.000000 -0.132342 0.138602
v -0.021511 -0.128348 0.135720
v -0.037258 -0.117438 0.127847
v -0.043022 -0.102535 0.117091
v -0.037258 -0.087632 0.106335
v -0.021511 -0.076722 0.098462
v 0.000000 -0.072728 0.095580
v 0.021511 -0.076722 0.098462
v 0.037258 -0.087632 0.106335
v 0.043022 -0.102535 0.117091
v 0.037258 -0.117438 0.127847
v 0.021511 -0.128348 0.135720
v 0.000000 -0.108057 0.178163
v -0.021511 -0.104796 0.174088
v -0.037258 -0.095888 0.162953
v -0.043022 -0.083719 0.147742
v -0.037258 -0.071551 0.132531
v -0.021511 -0.062643 0.121396
v 0.000000 -0.059382 0.117321
v 0.021511 -0.062643 0.121396
v 0.037258 -0.071551 0.132531
v 0.043022 -0.083719 0.147742
v 0.037258 -0.095888 0.162953
v 0.021511 -0.104796 0.174088
v 0.000000 -0.076408 0.208520
v -0.021511 -0.074102 0.203528
v -0.037258 -0.067803 0.189891
v -0.043022 -0.059199 0.171262
v -0.037258 -0.050594 0.152632
v -0.021511 -0.044295 0.138995
v 0.000000 -0.041990 0.134003
v 0.021511 -0.044295 0.138995
v 0.037258 -0.050594 0.152632
v 0.043022 -0.059199 0.171262
v 0.037258 -0.067803 0.189891
v 0.021511 -0.074102 0.203528
v 0.000000 -0.039551 0.227603
v -0.021511 -0.038358 0.222035
v -0.037258 -0.035097 0.206825
v -0.043022 -0.030643 0.186046
v -0.037258 -0.026189 0.165268
v -0.021511 -0.022929 0.150058
v 0.000000 -0.021735 0.144490
v 0.021511 -0.022929 0.150058
v 0.037258 -0.026189 0.165268
v 0.043022 -0.030643 0.186046
v 0.037258 -0.035097 0.206825
v 0.021511 -0.038358 0.222035
v 0.000000 -0.000000 0.234112
v -0.021511 -0.000000 0.228348
v -0.037258 -0.000000 0.212600
v -0.043022 -0.000000 0.191089
v -0.037258 -0.000000 0.169578
v -0.021511 -0.000000 0.153831
v 0.000000 -0.000000 0.148067
v 0.021511 -0.000000 0.153831
v 0.037258 -0.000000 0.169578
v 0.043022 -0.000000 0.191089
v 0.037258 -0.000000 0.212600
v 0.021511 -0.000000 0.228348
v -0.000000 0.039551 0.227603
v -0.021511 0.038358 0.222035
v -0.037258 0.035097 0.206825
v -0.043022 0.030643 0.186046
v -0.037258 0.026189 0.165268
v -0.021511 0.022929 0.150058
v -0.000000 0.021735 0.144490
v 0.021511 0.022929 0.150058
v 0.037258 0.026189 0.165268
v 0.043022 0.030643 0.186046
v 0.037258 0.035097 0.206825
v 0.021511 0.038358 0.222035
v -0.000000 0.076408 0.208520
v -0.021511 0.074102 0.203528
v -0.037258 0.067803 0.189891
v -0.043022 0.059199 0.171262
v -0.037258 0.050594 0.152632
v -0.021511 0.044295 0.138995
v -0.000000 0.041990 0.134003
v 0.021511 0.044295 0.138995
v 0.037258 0.050594 0.152632
v 0.043022 0.059199 0.171262
v 0.037258 0.067803 0.189891
v 0.021511 0.074102 0.203528
v -0.000000 0.108057 0.178163
v -0.021511 0.104796 0.174088
v -0.037258 0.095888 0.162953
v -0.043022 0.083720 0.147742
v -0.037258 0.071551 0.132531
v -0.021511 0.062643 0.121396
v -0.000000 0.059382 0.117321
v 0.021511 0.062643 0.121396
v 0.037258 0.071551 0.132531
v 0.043022 0.083720 0.147742
v 0.037258 0.095888 0.162953
v 0.021511 0.104796 0.174088
v -0.000000 0.132342 0.138602
v -0.021511 0.128348 0.135720
v -0.037258 0.117438 0.127847
v -0.043022 0.102535 0.117091
v -0.037258 0.087632 0.106335
v -0.021511 0.076722 0.098462
v -0.000000 0.072728 0.095580
v 0.021511 0.076722 0.098462
v 0.037258 0.087632 0.106335
v 0.043022 0.102535 0.117091
v 0.037258 0.117438 0.127847
v 0.021511 0.128348 0.135720
v -0.000000 0.147608 0.092532
v -0.021511 0.143154 0.091040
v -0.037258 0.130985 0.086964
v -0.043022 0.114363 0.081397
v -0.037258 0.097740 0.075830
v -0.021511 0.085572 0.071754
v -0.000000 0.081118 0.070262
v 0.021511 0.085572 0.071754
v 0.037258 0.097740 0.075830
v 0.043022 0.114363 0.081397
v 0.037258 0.130985 0.086964
v 0.021511 0.143154 0.091040
v -0.000000 0.152815 -0.042952
v -0.021511 0.148204 -0.042952
v -0.037258 0.135606 -0.042952
v -0.043022 0.118397 -0.042952
v -0.037258 0.101188 -0.042952
v -0.021511 0.088591 -0.042952
v -0.000000 0.083979 -0.042952
v 0.021511 0.088591 -0.042952
v 0.037258 0.101188 -0.042952
v 0.043022 0.118397 -0.042952
v 0.037258 0.135606 -0.042952
v 0.021511 0.148204 -0.042952
v -0.000000 0.147608 -0.092391
v -0.021511 0.143154 -0.090899
v -0.037258 0.130985 -0.086824
v -0.043022 0.114363 -0.081256
v -0.037258 0.097740 -0.075689
v -0.021511 0.085572 -0.071613
v -0.000000 0.081118 -0.070121
v 0.021511 0.085572 -0.071613
v 0.037258 0.097740 -0.075689
v 0.043022 0.114363 -0.081256
v 0.037258 0.130985 -0.086824
v 0.021511 0.143154 -0.090899
v -0.000000 0.132342 -0.138461
v -0.021511 0.128348 -0.135579
v -0.037258 0.117438 -0.127706
v -0.043022 0.102535 -0.116950
v -0.037258 0.087632 -0.106195
v -0.021511 0.076722 -0.098321
v -0.000000 0.072728 -0.095439
v 0.021511 0.076722 -0.098321
v 0.037258 0.087632 -0.106195
v 0.043022 0.102535 -0.116950
v 0.037258 0.117438 -0.127706
v 0.021511 0.128348 -0.135579
v -0.000000 0.108057 -0.178023
v -0.021511 0.104796 -0.173947
v -0.037258 0.095888 -0.162812
v -0.043022 0.083720 -0.147601
v -0.037258 0.071551 -0.132391
v -0.021511 0.062643 -0.121256
v -0.000000 0.059382 -0.117180
v 0.021511 0.062643 -0.121256
v 0.037258 0.071551 -0.132391
v 0.043022 0.083720 -0.147601
v 0.037258 0.095888 -0.162812
v 0.021511 0.104796 -0.173947
v -0.000000 0.076408 -0.208379
v -0.021511 0.074102 -0.203387
v -0.037258 0.067803 -0.189750
v -0.043022 0.059199 -0.171121
v -0.037258 0.050594 -0.152491
v -0.021511 0.044295 -0.138854
v -0.000000 0.041990 -0.133862
v 0.021511 0.044295 -0.138854
v 0.037258 0.050594 -0.152491
v 0.043022 0.059199 -0.171121
v 0.037258 0.067803 -0.189750
v 0.021511 0.074102 -0.203387
v -0.000000 0.039552 -0.227462
v -0.021511 0.038358 -0.221894
v -0.037258 0.035098 -0.206684
v -0.043022 0.030644 -0.185906
v -0.037258 0.026190 -0.165127
v -0.021511 0.022929 -0.149917
v -0.000000 0.021736 -0.144349
v 0.021511 0.022929 -0.149917
v 0.037258 0.026190 -0.165127
v 0.043022 0.030644 -0.185906
v 0.037258 0.035098 -0.206684
v 0.021511 0.038358 -0.221894
v 0.000000 -0.000000 -0.233971
v -0.021511 -0.000000 -0.228207
v -0.037258 -0.000000 -0.212460
v -0.043022 -0.000000 -0.190948
v -0.037258 -0.000000 -0.169437
v -0.021511 -0.000000 -0.153690
v 0.000000 -0.000000 -0.147926
v 0.021511 -0.000000 -0.153690
v 0.037258 -0.000000 -0.169437
v 0.043022 -0.000000 -0.190948
v 0.037258 -0.000000 -0.212460
v 0.021511 -0.000000 -0.228207
v 0.000000 -0.039551 -0.227462
v -0.021511 -0.038358 -0.221894
v -0.037258 -0.035097 -0.206684
v -0.043022 -0.030643 -0.185906
v -0.037258 -0.026189 -0.165127
v -0.021511 -0.022929 -0.149917
v 0.000000 -0.021735 -0.144349
v 0.021511 -0.022929 -0.149917
v 0.037258 -0.026189 -0.165127
v 0.043022 -0.030643 -0.185906
v 0.037258 -0.035097 -0.206684
v 0.021511 -0.038358 -0.221894
v 0.000000 -0.076408 -0.208379
v -0.021511 -0.074102 -0.203387
v -0.037258 -0.067803 -0.189750
v -0.043022 -0.059199 -0.171121
v -0.037258 -0.050594 -0.152491
v -0.021511 -0.044295 -0.138854
v 0.000000 -0.041990 -0.133862
v 0.021511 -0.044295 -0.138854
v 0.037258 -0.050594 -0.152491
v 0.043022 -0.059199 -0.171121
v 0.037258 -0.067803 -0.189750
v 0.021511 -0.074102 -0.203387
v 0.000000 -0.108057 -0.178023
v -0.021511 -0.104796 -0.173947
v -0.037258 -0.095888 -0.162812
v -0.043022 -0.083719 -0.147601
v -0.037258 -0.071551 -0.132391
v -0.021511 -0.062643 -0.121256
v 0.000000 -0.059382 -0.117180
v 0.021511 -0.062643 -0.121256
v 0.037258 -0.071551 -0.132391
v 0.043022 -0.083719 -0.147601
v 0.037258 -0.095888 -0.162812
v 0.021511 -0.104796 -0.173947
v 0.000000 -0.132342 -0.138461
v -0.021511 -0.128348 -0.135579
v -0.037258 -0.117438 -0.127706
v -0.043022 -0.102535 -0.116950
v -0.037258 -0.087632 -0.106195
v -0.021511 -0.076722 -0.098321
v 0.000000 -0.072728 -0.095439
v 0.021511 -0.076722 -0.098321
v 0.037258 -0.087632 -0.106195
v 0.043022 -0.102535 -0.116950
v 0.037258 -0.117438 -0.127706
v 0.021511 -0.128348 -0.135579
v 0.000000 -0.147608 -0.092391
v -0.021511 -0.143154 -0.090899
v -0.037258 -0.130985 -0.086824
v -0.043022 -0.114363 -0.081256
v -0.037258 -0.097740 -0.075689
v -0.021511 -0.085572 -0.071613
v 0.000000 -0.081118 -0.070121
v 0.021511 -0.085572 -0.071613
v 0.037258 -0.097740 -0.075689
v 0.043022 -0.114363 -0.081256
v 0.037258 -0.130985 -0.086824
v 0.021511 -0.143154 -0.090899
vn -0.0000 -0.9995 -0.0328
vn -0.4118 -0.9108 -0.0304
vn -0.8014 -0.5978 -0.0208
vn -0.9998 -0.0176 -0.0010
vn -0.8169 0.5763 0.0216
vn -0.4227 0.9056 0.0356
vn -0.0000 0.9992 0.0400
vn 0.4227 0.9056 0.0356
vn 0.8169 0.5763 0.0216
vn 0.9998 -0.0176 -0.0010
vn 0.8014 -0.5978 -0.0208
vn 0.4118 -0.9108 -0.0304
vn -0.0000 -0.9842 0.1771
vn -0.4127 -0.8966 0.1607
vn -0.7988 -0.5925 0.1047
vn -0.9994 -0.0355 0.0052
vn -0.8306 0.5486 -0.0960
vn -0.4360 0.8869 -0.1528
vn -0.0000 0.9856 -0.1689
vn 0.4360 0.8869 -0.1528
vn 0.8306 0.5486 -0.0960
vn 0.9994 -0.0355 0.0052
vn 0.7988 -0.5925 0.1047
vn 0.4127 -0.8966 0.1607
vn -0.0000 -0.9078 0.4193
vn -0.4272 -0.8208 0.3791
vn -0.8123 -0.5295 0.2445
vn -0.9997 -0.0233 0.0108
vn -0.8351 0.4994 -0.2306
vn -0.4448 0.8131 -0.3756
vn -0.0000 0.9078 -0.4193
vn 0.4448 0.8131 -0.3756
vn 0.8351 0.4994 -0.2306
vn 0.9997 -0.0233 0.0108
vn 0.8123 -0.5295 0.2445
vn 0.4272 -0.8208 0.3791
vn -0.0000 -0.7809 0.6247
vn -0.4456 -0.6990 0.5592
vn -0.8263 -0.4398 0.3518
vn -0.9997 -0.0190 0.0152
vn -0.8479 0.4140 -0.3312
vn -0.4636 0.6919 -0.5535
vn -0.0000 0.7809 -0.6247
vn 0.4636 0.6919 -0.5535
vn 0.8479 0.4140 -0.3312
vn 0.9997 -0.0190 0.0152
vn 0.8263 -0.4398 0.3518
vn 0.4456 -0.6990 0.5592
vn -0.0000 -0.5852 0.8109
vn -0.4666 -0.5176 0.7172
vn -0.8411 -0.3165 0.4386
vn -0.9997 -0.0135 0.0187
vn -0.8613 0.2973 -0.4120
vn -0.4849 0.5118 -0.7092
vn -0.0000 0.5852 -0.8109
vn 0.4849 0.5118 -0.7092
vn 0.8613 0.2973 -0.4120
vn 0.9997 -0.0135 0.0187
vn 0.8411 -0.3165 0.4386
vn 0.4666 -0.5176 0.7172
vn -0.0000 -0.3176 0.9482
vn -0.4840 -0.2779 0.8297
vn -0.8524 -0.1660 0.4958
vn -0.9998 -0.0070 0.0208
vn -0.8715 0.1557 -0.4650
vn -0.5026 0.2746 -0.8198
vn -0.0000 0.3176 -0.9482
vn 0.5026 0.2746 -0.8198
vn 0.8715 0.1557 -0.4650
vn 0.9998 -0.0070 0.0208
vn 0.8524 -0.1660 0.4958
vn 0.4840 -0.2779 0.8297
vn -0.0000 -0.0000 1.0000
vn -0.4909 -0.0000 0.8712
vn -0.8567 -0.0000 0.5158
vn -0.9998 -0.0000 0.0216
vn -0.8753 -0.0000 -0.4835
vn -0.5095 -0.0000 -0.8604
vn -0.0000 -0.0000 -1.0000
vn 0.5095 -0.0000 -0.8604
vn 0.8753 -0.0000 -0.4835
vn 0.9998 -0.0000 0.0216
vn 0.8567 -0.0000 0.5158
vn 0.4909 -0.0000 0.8712
vn -0.0000 0.3176 0.9482
vn -0.4840 0.2779 0.8297
vn -0.8524 0.1660 0.4958
vn -0.9998 0.0070 0.0208
vn -0.8715 -0.1557 -0.4650
vn -0.5026 -0.2746 -0.8198
vn -0.0000 -0.3176 -0.9482
vn 0.5026 -0.2746 -0.8198
vn 0.8715 -0.1557 -0.4650
vn 0.9998 0.0070 0.0208
vn 0.8524 0.1660 0.4958
vn 0.4840 0.2779 0.8297
vn -0.0000 0.5852 0.8109
vn -0.4666 0.5176 0.7172
vn -0.8411 0.3165 0.4386
vn -0.9997 0.0135 0.0187
vn -0.8613 -0.2973 -0.4120
vn -0.4849 -0.5118 -0.7092
vn -0.0000 -0.5852 -0.8109
vn 0.4849 -0.5118 -0.7092
vn 0.8613 -0.2973 -0.4120
vn 0.9997 0.0135 0.0187
vn 0.8411 0.3165 0.4386
vn 0.4666 0.5176 0.7172
vn -0.0000 0.7809 0.6247
vn -0.4456 0.6990 0.5592
vn -0.8263 0.4398 0.3518
vn -0.9997 0.0190 0.0152
vn -0.8479 -0.4140 -0.3312
vn -0.4636 -0.6919 -0.5535
vn -0.0000 -0.7809 -0.6247
vn 0.4636 -0.6919 -0.5535
vn 0.8479 -0.4140 -0.3312
vn 0.9997 0.0190 0.0152
vn 0.8263 0.4398 0.3518
vn 0.4456 0.6990 0.5592
vn -0.0000 0.9078 0.4193
vn -0.4272 0.8208 0.3791
vn -0.8123 0.5295 0.2445
vn -0.9997 0.0233 0.0108
vn -0.8351 -0.4994 -0.2306
vn -0.4448 -0.8131 -0.3756
vn -0.0000 -0.9078 -0.4193
vn 0.4448 -0.8131 -0.3756
vn 0.8351 -0.4994 -0.2306
vn 0.9997 0.0233 0.0108
vn 0.8123 0.5295 0.2445
vn 0.4272 0.8208 0.3791
vn -0.0000 0.9842 0.1771
vn -0.4127 0.8966 0.1607
vn -0.7988 0.5925 0.1047
vn -0.9994 0.0355 0.0052
vn -0.8306 -0.5486 -0.0960
vn -0.4360 -0.8869 -0.1528
vn -0.0000 -0.9856 -0.1689
vn 0.4360 -0.8869 -0.1528
vn 0.8306 -0.5486 -0.0960
vn 0.9994 0.0355 0.0052
vn 0.7988 0.5925 0.1047
vn 0.4127 0.8966 0.1607
vn -0.0000 0.9995 -0.0328
vn -0.4118 0.9108 -0.0304
vn -0.8014 0.5978 -0.0208
vn -0.9998 0.0176 -0.0010
vn -0.8169 -0.5763 0.0216
vn -0.4227 -0.9056 0.0356
vn -0.0000 -0.9992 0.0400
vn 0.4227 -0.9056 0.0356
vn 0.8169 -0.5763 0.0216
vn 0.9998 0.0176 -0.0010
vn 0.8014 0.5978 -0.0208
vn 0.4118 0.9108 -0.0304
vn -0.0000 0.9778 -0.2096
vn -0.4151 0.8896 -0.1907
vn -0.8025 0.5834 -0.1251
vn -0.9996 0.0260 -0.0056
vn -0.8261 -0.5510 0.1181
vn -0.4324 -0.8816 0.1890
vn -0.0000 -0.9778 0.2096
vn 0.4324 -0.8816 0.1890
vn 0.8261 -0.5510 0.1181
vn 0.9996 0.0260 -0.0056
vn 0.8025 0.5834 -0.1251
vn 0.4151 0.8896 -0.1907
vn -0.4272 0.8208 -0.3791
vn -0.8123 0.5295 -0.2445
vn -0.9997 0.0233 -0.0108
vn -0.8351 -0.4994 0.2306
vn -0.4448 -0.8131 0.3756
vn 0.4448 -0.8131 0.3756
vn 0.8351 -0.4994 0.2306
vn 0.9997 0.0233 -0.0108
vn 0.8123 0.5295 -0.2445
vn 0.4272 0.8208 -0.3791
vn -0.4456 0.6990 -0.5592
vn -0.8263 0.4398 -0.3518
vn -0.9997 0.0190 -0.0152
vn -0.8479 -0.4140 0.3312
vn -0.4636 -0.6919 0.5535
vn 0.4636 -0.6919 0.5535
vn 0.8479 -0.4140 0.3312
vn 0.9997 0.0190 -0.0152
vn 0.8263 0.4398 -0.3518
vn 0.4456 0.6990 -0.5592
vn -0.4666 0.5176 -0.7172
vn -0.8411 0.3165 -0.4386
vn -0.9997 0.0135 -0.0187
vn -0.8613 -0.2973 0.4120
vn -0.4849 -0.5118 0.7092
vn 0.4849 -0.5118 0.7092
vn 0.8613 -0.2973 0.4120
vn 0.9997 0.0135 -0.0187
vn 0.8411 0.3165 -0.4386
vn 0.4666 0.5176 -0.7172
vn -0.4840 0.2779 -0.8297
vn -0.8524 0.1660 -0.4958
vn -0.9998 0.0070 -0.0208
vn -0.8715 -0.1557 0.4650
vn -0.5026 -0.2746 0.8198
vn 0.5026 -0.2746 0.8198
vn 0.8715 -0.1557 0.4650
vn 0.9998 0.0070 -0.0208
vn 0.8524 0.1660 -0.4958
vn 0.4840 0.2779 -0.8297
vn -0.4909 -0.0000 -0.8712
vn -0.8567 -0.0000 -0.5158
vn -0.9998 -0.0000 -0.0216
vn -0.8753 -0.0000 0.4835
vn -0.5095 -0.0000 0.8604
vn 0.5095 -0.0000 0.8604
vn 0.8753 -0.0000 0.4835
vn 0.9998 -0.0000 -0.0216
vn 0.8567 -0.0000 -0.5158
vn 0.4909 -0.0000 -0.8712
vn -0.4840 -0.2779 -0.8297
vn -0.8524 -0.1660 -0.4958
vn -0.9998 -0.0070 -0.0208
vn -0.8715 0.1557 0.4650
vn -0.5026 0.2746 0.8198
vn 0.5026 0.2746 0.8198
vn 0.8715 0.1557 0.4650
vn 0.9998 -0.0070 -0.0208
vn 0.8524 -0.1660 -0.4958
vn 0.4840 -0.2779 -0.8297
vn -0.4666 -0.5176 -0.7172
vn -0.8411 -0.3165 -0.4386
vn -0.9997 -0.0135 -0.0187
vn -0.8613 0.2973 0.4120
vn -0.4849 0.5118 0.7092
vn 0.4849 0.5118 0.7092
vn 0.8613 0.2973 0.4120
vn 0.9997 -0.0135 -0.0187
vn 0.8411 -0.3165 -0.4386
vn 0.4666 -0.5176 -0.7172
vn -0.4456 -0.6990 -0.5592
vn -0.8263 -0.4398 -0.3518
vn -0.9997 -0.0190 -0.0152
vn -0.8479 0.4140 0.3312
vn -0.4636 0.6919 0.5535
vn 0.4636 0.6919 0.5535
vn 0.8479 0.4140 0.3312
vn 0.9997 -0.0190 -0.0152
vn 0.8263 -0.4398 -0.3518
vn 0.4456 -0.6990 -0.5592
vn -0.4272 -0.8208 -0.3791
vn -0.8123 -0.5295 -0.2445
vn -0.9997 -0.0233 -0.0108
vn -0.8351 0.4994 0.2306
vn -0.4448 0.8131 0.3756
vn 0.4448 0.8131 0.3756
vn 0.8351 0.4994 0.2306
vn 0.9997 -0.0233 -0.0108
vn 0.8123 -0.5295 -0.2445
vn 0.4272 -0.8208 -0.3791
vn -0.0000 -0.9778 -0.2096
vn -0.4151 -0.8896 -0.1907
vn -0.8025 -0.5834 -0.1251
vn -0.9996 -0.0260 -0.0056
vn -0.8261 0.5510 0.1181
vn -0.4324 0.8816 0.1890
vn -0.0000 0.9778 0.2096
vn 0.4324 0.8816 0.1890
vn 0.8261 0.5510 0.1181
vn 0.9996 -0.0260 -0.0056
vn 0.8025 -0.5834 -0.1251
vn 0.4151 -0.8896 -0.1907
vt 0.500000 0.500000
vt 0.541667 0.500000
vt 0.541667 0.583333
vt 0.500000 0.583333
vt 0.541667 0.666667
vt 0.500000 0.666667
vt 0.541667 0.750000
vt 0.500000 0.750000
vt 0.541667 0.833333
vt 0.500000 0.833333
vt 0.541667 0.916667
vt 0.500000 0.916667
vt 0.541667 1.000000
vt 0.500000 1.000000
vt 0.500000 0.000000
vt 0.541667 0.000000
vt 0.541667 0.083333
vt 0.500000 0.083333
vt 0.541667 0.166667
vt 0.500000 0.166667
vt 0.541667 0.250000
vt 0.500000 0.250000
vt 0.541667 0.333333
vt 0.500000 0.333333
vt 0.541667 0.416667
vt 0.500000 0.416667
vt 0.583333 0.500000
vt 0.583333 0.583333
vt 0.583333 0.666667
vt 0.583333 0.750000
vt 0.583333 0.833333
vt 0.583333 0.916667
vt 0.583333 1.000000
vt 0.583333 0.000000
vt 0.583333 0.083333
vt 0.583333 0.166667
vt 0.583333 0.250000
vt 0.583333 0.333333
vt 0.583333 0.416667
vt 0.625000 0.500000
vt 0.625000 0.583333
vt 0.625000 0.666667
vt 0.625000 0.750000
vt 0.625000 0.833333
vt 0.625000 0.916667
vt 0.625000 1.000000
vt 0.625000 0.000000
vt 0.625000 0.083333
vt 0.625000 0.166667
vt 0.625000 0.250000
vt 0.625000 0.333333
vt 0.625000 0.416667
vt 0.666667 0.500000
vt 0.666667 0.583333
vt 0.666667 0.666667
vt 0.666667 0.750000
vt 0.666667 0.833333
vt 0.666667 0.916667
vt 0.666667 1.000000
vt 0.666667 0.000000
vt 0.666667 0.083333
vt 0.666667 0.166667
vt 0.666667 0.250000
vt 0.666667 0.333333
vt 0.666667 0.416667
vt 0.708333 0.500000
vt 0.708333 0.583333
vt 0.708333 0.666667
vt 0.708333 0.750000
vt 0.708333 0.833333
vt 0.708333 0.916667
vt 0.708333 1.000000
vt 0.708333 0.000000
vt 0.708333 0.083333
vt 0.708333 0.166667
vt 0.708333 0.250000
vt 0.708333 0.333333
vt 0.708333 0.416667
vt 0.750000 0.500000
vt 0.750000 0.583333
vt 0.750000 0.666667
vt 0.750000 0.750000
vt 0.750000 0.833333
vt 0.750000 0.916667
vt 0.750000 1.000000
vt 0.750000 0.000000
vt 0.750000 0.083333
vt 0.750000 0.166667
vt 0.750000 0.250000
vt 0.750000 0.333333
vt 0.750000 0.416667
vt 0.791667 0.500000
vt 0.791667 0.583333
vt 0.791667 0.666667
vt 0.791667 0.750000
vt 0.791667 0.833333
vt 0.791667 0.916667
vt 0.791667 1.000000
vt 0.791667 0.000000
vt 0.791667 0.083333
vt 0.791667 0.166667
vt 0.791667 0.250000
vt 0.791667 0.333333
vt 0.791667 0.416667
vt 0.833333 0.500000
vt 0.833333 0.583333
vt 0.833333 0.666667
vt 0.833333 0.750000
vt 0.833333 0.833333
vt 0.833333 0.916667
vt 0.833333 1.000000
vt 0.833333 0.000000
vt 0.833333 0.083333
vt 0.833333 0.166667
vt 0.833333 0.250000
vt 0.833333 0.333333
vt 0.833333 0.416667
vt 0.875000 0.500000
vt 0.875000 0.583333
vt 0.875000 0.666667
vt 0.875000 0.750000
vt 0.875000 0.833333
vt 0.875000 0.916667
vt 0.875000 1.000000
vt 0.875000 0.000000
vt 0.875000 0.083333
vt 0.875000 0.166667
vt 0.875000 0.250000
vt 0.875000 0.333333
vt 0.875000 0.416667
vt 0.916667 0.500000
vt 0.916667 0.583333
vt 0.916667 0.666667
vt 0.916667 0.750000
vt 0.916667 0.833333
vt 0.916667 0.916667
vt 0.916667 1.000000
vt 0.916667 0.000000
vt 0.916667 0.083333
vt 0.916667 0.166667
vt 0.916667 0.250000
vt 0.916667 0.333333
vt 0.916667 0.416667
vt 0.958333 0.500000
vt 0.958333 0.583333
vt 0.958333 0.666667
vt 0.958333 0.750000
vt 0.958333 0.833333
vt 0.958333 0.916667
vt 0.958333 1.000000
vt 0.958333 0.000000
vt 0.958333 0.083333
vt 0.958333 0.166667
vt 0.958333 0.250000
vt 0.958333 0.333333
vt 0.958333 0.416667
vt 1.000000 0.500000
vt 1.000000 0.583333
vt 1.000000 0.666667
vt 1.000000 0.750000
vt 1.000000 0.833333
vt 1.000000 0.916667
vt 1.000000 1.000000
vt 1.000000 0.000000
vt 1.000000 0.083333
vt 1.000000 0.166667
vt 1.000000 0.250000
vt 1.000000 0.333333
vt 1.000000 0.416667
vt -0.000000 0.500000
vt 0.041667 0.500000
vt 0.041667 0.583333
vt -0.000000 0.583333
vt 0.041667 0.666667
vt -0.000000 0.666667
vt 0.041667 0.750000
vt -0.000000 0.750000
vt 0.041667 0.833333
vt -0.000000 0.833333
vt 0.041667 0.916667
vt -0.000000 0.916667
vt 0.041667 1.000000
vt -0.000000 1.000000
vt -0.000000 0.000000
vt 0.041667 0.000000
vt 0.041667 0.083333
vt -0.000000 0.083333
vt 0.041667 0.166667
vt -0.000000 0.166667
vt 0.041667 0.250000
vt -0.000000 0.250000
vt 0.041667 0.333333
vt -0.000000 0.333333
vt 0.041667 0.416667
vt -0.000000 0.416667
vt 0.083333 0.500000
vt 0.083333 0.583333
vt 0.083333 0.666667
vt 0.083333 0.750000
vt 0.083333 0.833333
vt 0.083333 0.916667
vt 0.083333 1.000000
vt 0.083333 0.000000
vt 0.083333 0.083333
vt 0.083333 0.166667
vt 0.083333 0.250000
vt 0.083333 0.333333
vt 0.083333 0.416667
vt 0.125000 0.500000
vt 0.125000 0.583333
vt 0.125000 0.666667
vt 0.125000 0.750000
vt 0.125000 0.833333
vt 0.125000 0.916667
vt 0.125000 1.000000
vt 0.125000 0.000000
vt 0.125000 0.083333
vt 0.125000 0.166667
vt 0.125000 0.250000
vt 0.125000 0.333333
vt 0.125000 0.416667
vt 0.166667 0.500000
vt 0.166667 0.583333
vt 0.166667 0.666667
vt 0.166667 0.750000
vt 0.166667 0.833333
vt 0.166667 0.916667
vt 0.166667 1.000000
vt 0.166667 0.000000
vt 0.166667 0.083333
vt 0.166667 0.166667
vt 0.166667 0.250000
vt 0.166667 0.333333
vt 0.166667 0.416667
vt 0.208333 0.500000
vt 0.208333 0.583333
vt 0.208333 0.666667
vt 0.208333 0.750000
vt 0.208333 0.833333
vt 0.208333 0.916667
vt 0.208333 1.000000
vt 0.208333 0.000000
vt 0.208333 0.083333
vt 0.208333 0.166667
vt 0.208333 0.250000
vt 0.208333 0.333333
vt 0.208333 0.416667
vt 0.250000 0.500000
vt 0.250000 0.583333
vt 0.250000 0.666667
vt 0.250000 0.750000
vt 0.250000 0.833333
vt 0.250000 0.916667
vt 0.250000 1.000000
vt 0.250000 0.000000
vt 0.250000 0.083333
vt 0.250000 0.166667
vt 0.250000 0.250000
vt 0.250000 0.333333
vt 0.250000 0.416667
vt 0.291667 0.500000
vt 0.291667 0.583333
vt 0.291667 0.666667
vt 0.291667 0.750000
vt 0.291667 0.833333
vt 0.291667 0.916667
vt 0.291667 1.000000
vt 0.291667 0.000000
vt 0.291667 0.083333
vt 0.291667 0.166667
vt 0.291667 0.250000
vt 0.291667 0.333333
vt 0.291667 0.416667
vt 0.333333 0.500000
vt 0.333333 0.583333
vt 0.333333 0.666667
vt 0.333333 0.750000
vt 0.333333 0.833333
vt 0.333333 0.916667
vt 0.333333 1.000000
vt 0.333333 0.000000
vt 0.333333 0.083333
vt 0.333333 0.166667
vt 0.333333 0.250000
vt 0.333333 0.333333
vt 0.333333 0.416667
vt 0.375000 0.500000
vt 0.375000 0.583333
vt 0.375000 0.666667
vt 0.375000 0.750000
vt 0.375000 0.833333
vt 0.375000 0.916667
vt 0.375000 1.000000
vt 0.375000 0.000000
vt 0.375000 0.083333
vt 0.375000 0.166667
vt 0.375000 0.250000
vt 0.375000 0.333333
vt 0.375000 0.416667
vt 0.416667 0.500000
vt 0.416667 0.583333
vt 0.416667 0.666667
vt 0.416667 0.750000
vt 0.416667 0.833333
vt 0.416667 0.916667
vt 0.416667 1.000000
vt 0.416667 0.000000
vt 0.416667 0.083333
vt 0.416667 0.166667
vt 0.416667 0.250000
vt 0.416667 0.333333
vt 0.416667 0.416667
vt 0.458333 0.500000
vt 0.458333 0.583333
vt 0.458333 0.666667
vt 0.458333 0.750000
vt 0.458333 0.833333
vt 0.458333 0.916667
vt 0.458333 1.000000
vt 0.458333 0.000000
vt 0.458333 0.083333
vt 0.458333 0.166667
vt 0.458333 0.250000
vt 0.458333 0.333333
vt 0.458333 0.416667
s 1
usemtl マテリアル
f 1/1/1 13/2/13 14/3/14 2/4/2
f 2/4/2 14/3/14 15/5/15 3/6/3
f 3/6/3 15/5/15 16/7/16 4/8/4
f 4/8/4 16/7/16 17/9/17 5/10/5
f 5/10/5 17/9/17 18/11/18 6/12/6
f 6/12/6 18/11/18 19/13/19 7/14/7
f 7/15/7 19/16/19 20/17/20 8/18/8
f 8/18/8 20/17/20 21/19/21 9/20/9
f 9/20/9 21/19/21 22/21/22 10/22/10
f 10/22/10 22/21/22 23/23/23 11/24/11
f 11/24/11 23/23/23 24/25/24 12/26/12
f 12/26/12 24/25/24 13/2/13 1/1/1
f 13/2/13 25/27/25 26/28/26 14/3/14
f 14/3/14 26/28/26 27/29/27 15/5/15
f 15/5/15 27/29/27 28/30/28 16/7/16
f 16/7/16 28/30/28 29/31/29 17/9/17
f 17/9/17 29/31/29 30/32/30 18/11/18
f 18/11/18 30/32/30 31/33/31 19/13/19
f 19/16/19 31/34/31 32/35/32 20/17/20
f 20/17/20 32/35/32 33/36/33 21/19/21
f 21/19/21 33/36/33 34/37/34 22/21/22
f 22/21/22 34/37/34 35/38/35 23/23/23
f 23/23/23 35/38/35 36/39/36 24/25/24
f 24/25/24 36/39/36 25/27/25 13/2/13
f 25/27/25 37/40/37 38/41/38 26/28/26
f 26/28/26 38/41/38 39/42/39 27/29/27
f 27/29/27 39/42/39 40/43/40 28/30/28
f 28/30/28 40/43/40 41/44/41 29/31/29
f 29/31/29 41/44/41 42/45/42 30/32/30
f 30/32/30 42/45/42 43/46/43 31/33/31
f 31/34/31 43/47/43 44/48/44 32/35/32
f 32/35/32 44/48/44 45/49/45 33/36/33
f 33/36/33 45/49/45 46/50/46 34/37/34
f 34/37/34 46/50/46 47/51/47 35/38/35
f 35/38/35 47/51/47 48/52/48 36/39/36
f 36/39/36 48/52/48 37/40/37 25/27/25
f 37/40/37 49/53/49 50/54/50 38/41/38
f 38/41/38 50/54/50 51/55/51 39/42/39
f 39/42/39 51/55/51 52/56/52 40/43/40
f 40/43/40 52/56/52 53/57/53 41/44/41
f 41/44/41 53/57/53 54/58/54 42/45/42
f 42/45/42 54/58/54 55/59/55 43/46/43
f 43/47/43 55/60/55 56/61/56 44/48/44
f 44/48/44 56/61/56 57/62/57 45/49/45
f 45/49/45 57/62/57 58/63/58 46/50/46
f 46/50/46 58/63/58 59/64/59 47/51/47
f 47/51/47 59/64/59 60/65/60 48/52/48
f 48/52/48 60/65/60 49/53/49 37/40/37
f 49/53/49 61/66/61 62/67/62 50/54/50
f 50/54/50 62/67/62 63/68/63 51/55/51
f 51/55/51 63/68/63 64/69/64 52/56/52
f 52/56/52 64/69/64 65/70/65 53/57/53
f 53/57/53 65/70/65 66/71/66 54/58/54
f 54/58/54 66/71/66 67/72/67 55/59/55
f 55/60/55 67/73/67 68/74/68 56/61/56
f 56/61/56 68/74/68 69/75/69 57/62/57
f 57/62/57 69/75/69 70/76/70 58/63/58
f 58/63/58 70/76/70 71/77/71 59/64/59
f 59/64/59 71/77/71 72/78/72 60/65/60
f 60/65/60 72/78/72 61/66/61 49/53/49
f 61/66/61 73/79/73 74/80/74 62/67/62
f 62/67/62 74/80/74 75/81/75 63/68/63
f 63/68/63 75/81/75 76/82/76 64/69/64
f 64/69/64 76/82/76 77/83/77 65/70/65
f 65/70/65 77/83/77 78/84/78 66/71/66
f 66/71/66 78/84/78 79/85/79 67/72/67
f 67/73/67 79/86/79 80/87/80 68/74/68
f 68/74/68 80/87/80 81/88/81 69/75/69
f 69/75/69 81/88/81 82/89/82 70/76/70
f 70/76/70 82/89/82 83/90/83 71/77/71
f 71/77/71 83/90/83 84/91/84 72/78/72
f 72/78/72 84/91/84 73/79/73 61/66/61
f 73/79/73 85/92/85 86/93/86 74/80/74
f 74/80/74 86/93/86 87/94/87 75/81/75
f 75/81/75 87/94/87 88/95/88 76/82/76
f 76/82/76 88/95/88 89/96/89 77/83/77
f 77/83/77 89/96/89 90/97/90 78/84/78
f 78/84/78 90/97/90 91/98/91 79/85/79
f 79/86/79 91/99/91 92/100/92 80/87/80
f 80/87/80 92/100/92 93/101/93 81/88/81
f 81/88/81 93/101/93 94/102/94 82/89/82
f 82/89/82 94/102/94 95/103/95 83/90/83
f 83/90/83 95/103/95 96/104/96 84/91/84
f 84/91/84 96/104/96 85/92/85 73/79/73
f 85/92/85 97/105/97 98/106/98 86/93/86
f 86/93/86 98/106/98 99/107/99 87/94/87
f 87/94/87 99/107/99 100/108/100 88/95/88
f 88/95/88 100/108/100 101/109/101 89/96/89
f 89/96/89 101/109/101 102/110/102 90/97/90
f 90/97/90 102/110/102 103/111/103 91/98/91
f 91/99/91 103/112/103 104/113/104 92/100/92
f 92/100/92 104/113/104 105/114/105 93/101/93
f 93/101/93 105/114/105 106/115/106 94/102/94
f 94/102/94 106/115/106 107/116/107 95/103/95
f 95/103/95 107/116/107 108/117/108 96/104/96
f 96/104/96 108/117/108 97/105/97 85/92/85
f 97/105/97 109/118/109 110/119/110 98/106/98
f 98/106/98 110/119/110 111/120/111 99/107/99
f 99/107/99 111/120/111 112/121/112 100/108/100
f 100/108/100 112/121/112 113/122/113 101/109/101
f 101/109/101 113/122/113 114/123/114 102/110/102
f 102/110/102 114/123/114 115/124/115 103/111/103
f 103/112/103 115/125/115 116/126/116 104/113/104
f 104/113/104 116/126/116 117/127/117 105/114/105
f 105/114/105 117/127/117 118/128/118 106/115/106
f 106/115/106 118/128/118 119/129/119 107/116/107
f 107/116/107 119/129/119 120/130/120 108/117/108
f 108/117/108 120/130/120 109/118/109 97/105/97
f 109/118/109 121/131/121 122/132/122 110/119/110
f 110/119/110 122/132/122 123/133/123 111/120/111
f 111/120/111 123/133/123 124/134/124 112/121/112
f 112/121/112 124/134/124 125/135/125 113/122/113
f 113/122/113 125/135/125 126/136/126 114/123/114
f 114/123/114 126/136/126 127/137/127 115/124/115
f 115/125/115 127/138/127 128/139/128 116/126/116
f 116/126/116 128/139/128 129/140/129 117/127/117
f 117/127/117 129/140/129 130/141/130 118/128/118
f 118/128/118 130/141/130 131/142/131 119/129/119
f 119/129/119 131/142/131 132/143/132 120/130/120
f 120/130/120 132/143/132 121/131/121 109/118/109
f 121/131/121 133/144/133 134/145/134 122/132/122
f 122/132/122 134/145/134 135/146/135 123/133/123
f 123/133/123 135/146/135 136/147/136 124/134/124
f 124/134/124 136/147/136 137/148/137 125/135/125
f 125/135/125 137/148/137 138/149/138 126/136/126
f 126/136/126 138/149/138 139/150/139 127/137/127
f 127/138/127 139/151/139 140/152/140 128/139/128
f 128/139/128 140/152/140 141/153/141 129/140/129
f 129/140/129 141/153/141 142/154/142 130/141/130
f 130/141/130 142/154/142 143/155/143 131/142/131
f 131/142/131 143/155/143 144/156/144 132/143/132
f 132/143/132 144/156/144 133/144/133 121/131/121
f 133/144/133 145/157/145 146/158/146 134/145/134
f 134/145/134 146/158/146 147/159/147 135/146/135
f 135/146/135 147/159/147 148/160/148 136/147/136
f 136/147/136 148/160/148 149/161/149 137/148/137
f 137/148/137 149/161/149 150/162/150 138/149/138
f 138/149/138 150/162/150 151/163/151 139/150/139
f 139/151/139 151/164/151 152/165/152 140/152/140
f 140/152/140 152/165/152 153/166/153 141/153/141
f 141/153/141 153/166/153 154/167/154 142/154/142
f 142/154/142 154/167/154 155/168/155 143/155/143
f 143/155/143 155/168/155 156/169/156 144/156/144
f 144/156/144 156/169/156 145/157/145 133/144/133
f 145/170/145 157/171/157 158/172/158 146/173/146
f 146/173/146 158/172/158 159/174/159 147/175/147
f 147/175/147 159/174/159 160/176/160 148/177/148
f 148/177/148 160/176/160 161/178/161 149/179/149
f 149/179/149 161/178/161 162/180/162 150/181/150
f 150/181/150 162/180/162 163/182/163 151/183/151
f 151/184/151 163/185/163 164/186/164 152/187/152
f 152/187/152 164/186/164 165/188/165 153/189/153
f 153/189/153 165/188/165 166/190/166 154/191/154
f 154/191/154 166/190/166 167/192/167 155/193/155
f 155/193/155 167/192/167 168/194/168 156/195/156
f 156/195/156 168/194/168 157/171/157 145/170/145
f 157/171/157 169/196/31 170/197/169 158/172/158
f 158/172/158 170/197/169 171/198/170 159/174/159
f 159/174/159 171/198/170 172/199/171 160/176/160
f 160/176/160 172/199/171 173/200/172 161/178/161
f 161/178/161 173/200/172 174/201/173 162/180/162
f 162/180/162 174/201/173 175/202/25 163/182/163
f 163/185/163 175/203/25 176/204/174 164/186/164
f 164/186/164 176/204/174 177/205/175 165/188/165
f 165/188/165 177/205/175 178/206/176 166/190/166
f 166/190/166 178/206/176 179/207/177 167/192/167
f 167/192/167 179/207/177 180/208/178 168/194/168
f 168/194/168 180/208/178 169/196/31 157/171/157
f 169/196/31 181/209/43 182/210/179 170/197/169
f 170/197/169 182/210/179 183/211/180 171/198/170
f 171/198/170 183/211/180 184/212/181 172/199/171
f 172/199/171 184/212/181 185/213/182 173/200/172
f 173/200/172 185/213/182 186/214/183 174/201/173
f 174/201/173 186/214/183 187/215/37 175/202/25
f 175/203/25 187/216/37 188/217/184 176/204/174
f 176/204/174 188/217/184 189/218/185 177/205/175
f 177/205/175 189/218/185 190/219/186 178/206/176
f 178/206/176 190/219/186 191/220/187 179/207/177
f 179/207/177 191/220/187 192/221/188 180/208/178
f 180/208/178 192/221/188 181/209/43 169/196/31
f 181/209/43 193/222/55 194/223/189 182/210/179
f 182/210/179 194/223/189 195/224/190 183/211/180
f 183/211/180 195/224/190 196/225/191 184/212/181
f 184/212/181 196/225/191 197/226/192 185/213/182
f 185/213/182 197/226/192 198/227/193 186/214/183
f 186/214/183 198/227/193 199/228/49 187/215/37
f 187/216/37 199/229/49 200/230/194 188/217/184
f 188/217/184 200/230/194 201/231/195 189/218/185
f 189/218/185 201/231/195 202/232/196 190/219/186
f 190/219/186 202/232/196 203/233/197 191/220/187
f 191/220/187 203/233/197 204/234/198 192/221/188
f 192/221/188 204/234/198 193/222/55 181/209/43
f 193/222/55 205/235/67 206/236/199 194/223/189
f 194/223/189 206/236/199 207/237/200 195/224/190
f 195/224/190 207/237/200 208/238/201 196/225/191
f 196/225/191 208/238/201 209/239/202 197/226/192
f 197/226/192 209/239/202 210/240/203 198/227/193
f 198/227/193 210/240/203 211/241/61 199/228/49
f 199/229/49 211/242/61 212/243/204 200/230/194
f 200/230/194 212/243/204 213/244/205 201/231/195
f 201/231/195 213/244/205 214/245/206 202/232/196
f 202/232/196 214/245/206 215/246/207 203/233/197
f 203/233/197 215/246/207 216/247/208 204/234/198
f 204/234/198 216/247/208 205/235/67 193/222/55
f 205/235/67 217/248/79 218/249/209 206/236/199
f 206/236/199 218/249/209 219/250/210 207/237/200
f 207/237/200 219/250/210 220/251/211 208/238/201
f 208/238/201 220/251/211 221/252/212 209/239/202
f 209/239/202 221/252/212 222/253/213 210/240/203
f 210/240/203 222/253/213 223/254/73 211/241/61
f 211/242/61 223/255/73 224/256/214 212/243/204
f 212/243/204 224/256/214 225/257/215 213/244/205
f 213/244/205 225/257/215 226/258/216 214/245/206
f 214/245/206 226/258/216 227/259/217 215/246/207
f 215/246/207 227/259/217 228/260/218 216/247/208
f 216/247/208 228/260/218 217/248/79 205/235/67
f 217/248/79 229/261/91 230/262/219 218/249/209
f 218/249/209 230/262/219 231/263/220 219/250/210
f 219/250/210 231/263/220 232/264/221 220/251/211
f 220/251/211 232/264/221 233/265/222 221/252/212
f 221/252/212 233/265/222 234/266/223 222/253/213
f 222/253/213 234/266/223 235/267/85 223/254/73
f 223/255/73 235/268/85 236/269/224 224/256/214
f 224/256/214 236/269/224 237/270/225 225/257/215
f 225/257/215 237/270/225 238/271/226 226/258/216
f 226/258/216 238/271/226 239/272/227 227/259/217
f 227/259/217 239/272/227 240/273/228 228/260/218
f 228/260/218 240/273/228 229/261/91 217/248/79
f 229/261/91 241/274/103 242/275/229 230/262/219
f 230/262/219 242/275/229 243/276/230 231/263/220
f 231/263/220 243/276/230 244/277/231 232/264/221
f 232/264/221 244/277/231 245/278/232 233/265/222
f 233/265/222 245/278/232 246/279/233 234/266/223
f 234/266/223 246/279/233 247/280/97 235/267/85
f 235/268/85 247/281/97 248/282/234 236/269/224
f 236/269/224 248/282/234 249/283/235 237/270/225
f 237/270/225 249/283/235 250/284/236 238/271/226
f 238/271/226 250/284/236 251/285/237 239/272/227
f 239/272/227 251/285/237 252/286/238 240/273/228
f 240/273/228 252/286/238 241/274/103 229/261/91
f 241/274/103 253/287/115 254/288/239 242/275/229
f 242/275/229 254/288/239 255/289/240 243/276/230
f 243/276/230 255/289/240 256/290/241 244/277/231
f 244/277/231 256/290/241 257/291/242 245/278/232
f 245/278/232 257/291/242 258/292/243 246/279/233
f 246/279/233 258/292/243 259/293/109 247/280/97
f 247/281/97 259/294/109 260/295/244 248/282/234
f 248/282/234 260/295/244 261/296/245 249/283/235
f 249/283/235 261/296/245 262/297/246 250/284/236
f 250/284/236 262/297/246 263/298/247 251/285/237
f 251/285/237 263/298/247 264/299/248 252/286/238
f 252/286/238 264/299/248 253/287/115 241/274/103
f 253/287/115 265/300/127 266/301/249 254/288/239
f 254/288/239 266/301/249 267/302/250 255/289/240
f 255/289/240 267/302/250 268/303/251 256/290/241
f 256/290/241 268/303/251 269/304/252 257/291/242
f 257/291/242 269/304/252 270/305/253 258/292/243
f 258/292/243 270/305/253 271/306/121 259/293/109
f 259/294/109 271/307/121 272/308/254 260/295/244
f 260/295/244 272/308/254 273/309/255 261/296/245
f 261/296/245 273/309/255 274/310/256 262/297/246
f 262/297/246 274/310/256 275/311/257 263/298/247
f 263/298/247 275/311/257 276/312/258 264/299/248
f 264/299/248 276/312/258 265/300/127 253/287/115
f 265/300/127 277/313/259 278/314/260 266/301/249
f 266/301/249 278/314/260 279/315/261 267/302/250
f 267/302/250 279/315/261 280/316/262 268/303/251
f 268/303/251 280/316/262 281/317/263 269/304/252
f 269/304/252 281/317/263 282/318/264 270/305/253
f 270/305/253 282/318/264 283/319/265 271/306/121
f 271/307/121 283/320/265 284/321/266 272/308/254
f 272/308/254 284/321/266 285/322/267 273/309/255
f 273/309/255 285/322/267 286/323/268 274/310/256
f 274/310/256 286/323/268 287/324/269 275/311/257
f 275/311/257 287/324/269 288/325/270 276/312/258
f 276/312/258 288/325/270 277/313/259 265/300/127
f 277/313/259 1/1/1 2/4/2 278/314/260
f 278/314/260 2/4/2 3/6/3 279/315/261
f 279/315/261 3/6/3 4/8/4 280/316/262
f 280/316/262 4/8/4 5/10/5 281/317/263
f 281/317/263 5/10/5 6/12/6 282/318/264
f 282/318/264 6/12/6 7/14/7 283/319/265
f 283/320/265 7/15/7 8/18/8 284/321/266
f 284/321/266 8/18/8 9/20/9 285/322/267
f 285/322/267 9/20/9 10/22/10 286/323/268
f 286/323/268 10/22/10 11/24/11 287/324/269
f 287/324/269 11/24/11 12/26/12 288/325/270
f 288/325/270 12/26/12 1/1/1 277/313/259
