# Blender 4.4.1
# www.blender.org
mtllib hat.mtl
o プレイヤー
v -0.000000 -0.092127 -0.162992
v -0.000000 0.099258 -0.162992
v 0.031798 -0.092127 -0.159860
v 0.031798 0.099258 -0.159860
v 0.062374 -0.092127 -0.150585
v 0.062374 0.099258 -0.150585
v 0.090553 -0.092127 -0.135523
v 0.090553 0.099258 -0.135523
v 0.115253 -0.092127 -0.115253
v 0.115253 0.099258 -0.115253
v 0.135523 -0.092127 -0.090553
v 0.135523 0.099258 -0.090553
v 0.150585 -0.092127 -0.062374
v 0.150585 0.099258 -0.062374
v 0.159860 -0.092127 -0.031798
v 0.159860 0.099258 -0.031798
v 0.162992 -0.092127 -0.000000
v 0.162992 0.099258 -0.000000
v 0.159860 -0.092127 0.031798
v 0.159860 0.099258 0.031798
v 0.150585 -0.092127 0.062374
v 0.150585 0.099258 0.062374
v 0.135523 -0.092127 0.090553
v 0.135523 0.099258 0.090553
v 0.115253 -0.092127 0.115253
v 0.115253 0.099258 0.115253
v 0.090553 -0.092127 0.135523
v 0.090553 0.099258 0.135523
v 0.062374 -0.092127 0.150585
v 0.062374 0.099258 0.150585
v 0.031798 -0.092127 0.159860
v 0.031798 0.099258 0.159860
v -0.000000 -0.092127 0.162992
v -0.000000 0.099258 0.162992
v -0.031798 -0.092127 0.159860
v -0.031798 0.099258 0.159860
v -0.062374 -0.092127 0.150585
v -0.062374 0.099258 0.150585
v -0.090553 -0.092127 0.135523
v -0.090553 0.099258 0.135523
v -0.115253 -0.092127 0.115253
v -0.115253 0.099258 0.115253
v -0.135523 -0.092127 0.090553
v -0.135523 0.099258 0.090553
v -0.150585 -0.092127 0.062374
v -0.150585 0.099258 0.062374
v -0.159860 -0.092127 0.031798
v -0.159860 0.099258 0.031798
v -0.162992 -0.092127 -0.000000
v -0.162992 0.099258 -0.000000
v -0.159860 -0.092127 -0.031798
v -0.159860 0.099258 -0.031798
v -0.150585 -0.092127 -0.062374
v -0.150585 0.099258 -0.062374
v -0.135523 -0.092127 -0.090553
v -0.135523 0.099258 -0.090553
v -0.115253 -0.092127 -0.115253
v -0.115253 0.099258 -0.115253
v -0.090553 -0.092127 -0.135523
v -0.090553 0.099258 -0.135523
v -0.062374 -0.092127 -0.150585
v -0.062374 0.099258 -0.150585
v -0.031798 -0.092127 -0.159860
v -0.031798 0.099258 -0.159860
v -0.000000 -0.095602 -0.238689
v 0.046566 -0.095602 -0.234103
v 0.091342 -0.095602 -0.220520
v 0.132609 -0.095602 -0.198463
v 0.168779 -0.095602 -0.168779
v 0.198463 -0.095602 -0.132609
v 0.220520 -0.095602 -0.091342
v 0.234103 -0.095602 -0.046566
v 0.238689 -0.095602 -0.000000
v 0.234103 -0.095602 0.046566
v 0.220520 -0.095602 0.091342
v 0.198463 -0.095602 0.132609
v 0.168779 -0.095602 0.168779
v 0.132609 -0.095602 0.198463
v 0.091342 -0.095602 0.220520
v 0.046566 -0.095602 0.234103
v -0.000000 -0.095602 0.238689
v -0.046566 -0.095602 0.234103
v -0.091342 -0.095602 0.220520
v -0.132609 -0.095602 0.198463
v -0.168779 -0.095602 0.168779
v -0.198463 -0.095602 0.132609
v -0.220520 -0.095602 0.091342
v -0.234103 -0.095602 0.046566
v -0.238689 -0.095602 -0.000000
v -0.234103 -0.095602 -0.046566
v -0.220520 -0.095602 -0.091342
v -0.198463 -0.095602 -0.132609
v -0.168779 -0.095602 -0.168779
v -0.132609 -0.095602 -0.198463
v -0.091342 -0.095602 -0.220520
v -0.046566 -0.095602 -0.234103
vn -0.0000 -0.0000 -1.0000
vn 0.1951 -0.0000 -0.9808
vn 0.3827 -0.0000 -0.9239
vn 0.5556 -0.0000 -0.8315
vn 0.7071 -0.0000 -0.7071
vn 0.8315 -0.0000 -0.5556
vn 0.9239 -0.0000 -0.3827
vn 0.9808 -0.0000 -0.1951
vn 1.0000 -0.0000 -0.0000
vn 0.9808 -0.0000 0.1951
vn 0.9239 -0.0000 0.3827
vn 0.8315 -0.0000 0.5556
vn 0.7071 -0.0000 0.7071
vn 0.5556 -0.0000 0.8315
vn 0.3827 -0.0000 0.9239
vn 0.1951 -0.0000 0.9808
vn -0.0000 -0.0000 1.0000
vn -0.1951 -0.0000 0.9808
vn -0.3827 -0.0000 0.9239
vn -0.5556 -0.0000 0.8315
vn -0.7071 -0.0000 0.7071
vn -0.8315 -0.0000 0.5556
vn -0.9239 -0.0000 0.3827
vn -0.9808 -0.0000 0.1951
vn -1.0000 -0.0000 -0.0000
vn -0.9808 -0.0000 -0.1951
vn -0.9239 -0.0000 -0.3827
vn -0.8315 -0.0000 -0.5556
vn -0.7071 -0.0000 -0.7071
vn -0.5556 -0.0000 -0.8315
vn -0.3827 -0.0000 -0.9239
vn -0.0000 1.0000 -0.0000
vn -0.1951 -0.0000 -0.9808
vn 0.0441 0.9989 -0.0134
vn 0.0045 0.9989 0.0459
vn -0.0459 0.9989 -0.0045
vn 0.0217 0.9989 -0.0406
vn 0.0356 0.9989 0.0292
vn -0.0356 0.9989 0.0292
vn -0.0217 0.9989 -0.0406
vn 0.0459 0.9989 -0.0045
vn -0.0045 0.9989 0.0459
vn -0.0441 0.9989 -0.0134
vn 0.0292 0.9989 -0.0356
vn 0.0292 0.9989 0.0356
vn -0.0406 0.9989 0.0217
vn -0.0134 0.9989 -0.0441
vn 0.0459 0.9989 0.0045
vn -0.0134 0.9989 0.0441
vn -0.0406 0.9989 -0.0217
vn 0.0356 0.9989 -0.0292
vn 0.0217 0.9989 0.0406
vn -0.0441 0.9989 0.0134
vn 0.0045 0.9989 -0.0459
vn -0.0045 0.9989 -0.0459
vn 0.0441 0.9989 0.0134
vn -0.0217 0.9989 0.0406
vn -0.0356 0.9989 -0.0292
vn 0.0406 0.9989 -0.0217
vn 0.0134 0.9989 0.0441
vn -0.0459 0.9989 0.0045
vn 0.0134 0.9989 -0.0441
vn 0.0406 0.9989 0.0217
vn -0.0292 0.9989 0.0356
vn -0.0292 0.9989 -0.0356
vt 1.000000 0.500000
vt 1.000000 1.000000
vt 0.968750 1.000000
vt 0.968750 0.500000
vt 0.937500 1.000000
vt 0.937500 0.500000
vt 0.906250 1.000000
vt 0.906250 0.500000
vt 0.875000 1.000000
vt 0.875000 0.500000
vt 0.843750 1.000000
vt 0.843750 0.500000
vt 0.812500 1.000000
vt 0.812500 0.500000
vt 0.781250 1.000000
vt 0.781250 0.500000
vt 0.750000 1.000000
vt 0.750000 0.500000
vt 0.718750 1.000000
vt 0.718750 0.500000
vt 0.687500 1.000000
vt 0.687500 0.500000
vt 0.656250 1.000000
vt 0.656250 0.500000
vt 0.625000 1.000000
vt 0.625000 0.500000
vt 0.593750 1.000000
vt 0.593750 0.500000
vt 0.562500 1.000000
vt 0.562500 0.500000
vt 0.531250 1.000000
vt 0.531250 0.500000
vt 0.500000 1.000000
vt 0.500000 0.500000
vt 0.468750 1.000000
vt 0.468750 0.500000
vt 0.437500 1.000000
vt 0.437500 0.500000
vt 0.406250 1.000000
vt 0.406250 0.500000
vt 0.375000 1.000000
vt 0.375000 0.500000
vt 0.343750 1.000000
vt 0.343750 0.500000
vt 0.312500 1.000000
vt 0.312500 0.500000
vt 0.281250 1.000000
vt 0.281250 0.500000
vt 0.250000 1.000000
vt 0.250000 0.500000
vt 0.218750 1.000000
vt 0.218750 0.500000
vt 0.187500 1.000000
vt 0.187500 0.500000
vt 0.156250 1.000000
vt 0.156250 0.500000
vt 0.125000 1.000000
vt 0.125000 0.500000
vt 0.093750 1.000000
vt 0.093750 0.500000
vt 0.062500 1.000000
vt 0.062500 0.500000
vt 0.296822 0.485388
vt 0.250000 0.490000
vt 0.203178 0.485388
vt 0.158156 0.471731
vt 0.116663 0.449553
vt 0.080294 0.419706
vt 0.050447 0.383337
vt 0.028269 0.341844
vt 0.014612 0.296822
vt 0.010000 0.250000
vt 0.014612 0.203178
vt 0.028269 0.158156
vt 0.050447 0.116663
vt 0.080294 0.080294
vt 0.116663 0.050447
vt 0.158156 0.028269
vt 0.203178 0.014612
vt 0.250000 0.010000
vt 0.296822 0.014612
vt 0.341844 0.028269
vt 0.383337 0.050447
vt 0.419706 0.080294
vt 0.449553 0.116663
vt 0.471731 0.158156
vt 0.485388 0.203178
vt 0.490000 0.250000
vt 0.485388 0.296822
vt 0.471731 0.341844
vt 0.449553 0.383337
vt 0.419706 0.419706
vt 0.383337 0.449553
vt 0.341844 0.471731
vt 0.031250 1.000000
vt 0.031250 0.500000
vt 0.000000 1.000000
vt 0.000000 0.500000
s 1
usemtl 紫
f 1/1/1 2/2/1 4/3/2 3/4/2
f 3/4/2 4/3/2 6/5/3 5/6/3
f 5/6/3 6/5/3 8/7/4 7/8/4
f 7/8/4 8/7/4 10/9/5 9/10/5
f 9/10/5 10/9/5 12/11/6 11/12/6
f 11/12/6 12/11/6 14/13/7 13/14/7
f 13/14/7 14/13/7 16/15/8 15/16/8
f 15/16/8 16/15/8 18/17/9 17/18/9
f 17/18/9 18/17/9 20/19/10 19/20/10
f 19/20/10 20/19/10 22/21/11 21/22/11
f 21/22/11 22/21/11 24/23/12 23/24/12
f 23/24/12 24/23/12 26/25/13 25/26/13
f 25/26/13 26/25/13 28/27/14 27/28/14
f 27/28/14 28/27/14 30/29/15 29/30/15
f 29/30/15 30/29/15 32/31/16 31/32/16
f 31/32/16 32/31/16 34/33/17 33/34/17
f 33/34/17 34/33/17 36/35/18 35/36/18
f 35/36/18 36/35/18 38/37/19 37/38/19
f 37/38/19 38/37/19 40/39/20 39/40/20
f 39/40/20 40/39/20 42/41/21 41/42/21
f 41/42/21 42/41/21 44/43/22 43/44/22
f 43/44/22 44/43/22 46/45/23 45/46/23
f 45/46/23 46/45/23 48/47/24 47/48/24
f 47/48/24 48/47/24 50/49/25 49/50/25
f 49/50/25 50/49/25 52/51/26 51/52/26
f 51/52/26 52/51/26 54/53/27 53/54/27
f 53/54/27 54/53/27 56/55/28 55/56/28
f 55/56/28 56/55/28 58/57/29 57/58/29
f 57/58/29 58/57/29 60/59/30 59/60/30
f 59/60/30 60/59/30 62/61/31 61/62/31
s 0
f 4/63/32 2/64/32 64/65/32 62/66/32 60/67/32 58/68/32 56/69/32 54/70/32 52/71/32 50/72/32 48/73/32 46/74/32 44/75/32 42/76/32 40/77/32 38/78/32 36/79/32 34/80/32 32/81/32 30/82/32 28/83/32 26/84/32 24/85/32 22/86/32 20/87/32 18/88/32 16/89/32 14/90/32 12/91/32 10/92/32 8/93/32 6/94/32
s 1
f 61/62/31 62/61/31 64/95/33 63/96/33
f 63/96/33 64/95/33 2/97/1 1/98/1
s 0
f 13/14/34 15/16/34 72/16/34 71/14/34
f 31/32/35 33/34/35 81/34/35 80/32/35
f 49/50/36 51/52/36 90/52/36 89/50/36
f 5/6/37 7/8/37 68/8/37 67/6/37
f 23/24/38 25/26/38 77/26/38 76/24/38
f 41/42/39 43/44/39 86/44/39 85/42/39
f 59/60/40 61/62/40 95/62/40 94/60/40
f 15/16/41 17/18/41 73/18/41 72/16/41
f 33/34/42 35/36/42 82/36/42 81/34/42
f 51/52/43 53/54/43 91/54/43 90/52/43
f 7/8/44 9/10/44 69/10/44 68/8/44
f 25/26/45 27/28/45 78/28/45 77/26/45
f 43/44/46 45/46/46 87/46/46 86/44/46
f 61/62/47 63/96/47 96/96/47 95/62/47
f 17/18/48 19/20/48 74/20/48 73/18/48
f 35/36/49 37/38/49 83/38/49 82/36/49
f 53/54/50 55/56/50 92/56/50 91/54/50
f 9/10/51 11/12/51 70/12/51 69/10/51
f 27/28/52 29/30/52 79/30/52 78/28/52
f 45/46/53 47/48/53 88/48/53 87/46/53
f 1/1/54 3/4/54 66/4/54 65/1/54
f 63/96/55 1/98/55 65/98/55 96/96/55
f 19/20/56 21/22/56 75/22/56 74/20/56
f 37/38/57 39/40/57 84/40/57 83/38/57
f 55/56/58 57/58/58 93/58/58 92/56/58
f 11/12/59 13/14/59 71/14/59 70/12/59
f 29/30/60 31/32/60 80/32/60 79/30/60
f 47/48/61 49/50/61 89/50/61 88/48/61
f 3/4/62 5/6/62 67/6/62 66/4/62
f 21/22/63 23/24/63 76/24/63 75/22/63
f 39/40/64 41/42/64 85/42/64 84/40/64
f 57/58/65 59/60/65 94/60/65 93/58/65
