# Blender 4.4.1
# www.blender.org
mtllib credit.mtl
o Cube
v 10.000000 5.000000 -0.500000
v 10.000000 -5.000000 -0.500000
v 10.000000 5.000000 0.500000
v 10.000000 -5.000000 0.500000
v -10.000000 5.000000 -0.500000
v -10.000000 -5.000000 -0.500000
v -10.000000 5.000000 0.500000
v -10.000000 -5.000000 0.500000
v 9.594671 -8.561007 -0.264663
v 9.594671 -4.561007 -0.264663
v 9.646304 -8.561007 -0.259577
v 9.646304 -4.561007 -0.259577
v 9.695953 -8.561007 -0.244516
v 9.695953 -4.561007 -0.244516
v 9.741710 -8.561007 -0.220059
v 9.741710 -4.561007 -0.220059
v 9.781816 -8.561007 -0.187145
v 9.781816 -4.561007 -0.187145
v 9.814731 -8.561007 -0.147039
v 9.814731 -4.561007 -0.147039
v 9.839188 -8.561007 -0.101282
v 9.839188 -4.561007 -0.101282
v 9.854248 -8.561007 -0.051633
v 9.854248 -4.561007 -0.051633
v 9.859334 -8.561007 0.000000
v 9.859334 -4.561007 0.000000
v 9.854248 -8.561007 0.051633
v 9.854248 -4.561007 0.051633
v 9.839188 -8.561007 0.101282
v 9.839188 -4.561007 0.101282
v 9.814731 -8.561007 0.147039
v 9.814731 -4.561007 0.147039
v 9.781816 -8.561007 0.187145
v 9.781816 -4.561007 0.187145
v 9.741710 -8.561007 0.220059
v 9.741710 -4.561007 0.220059
v 9.695953 -8.561007 0.244516
v 9.695953 -4.561007 0.244516
v 9.646304 -8.561007 0.259577
v 9.646304 -4.561007 0.259577
v 9.594671 -8.561007 0.264663
v 9.594671 -4.561007 0.264663
v 9.543038 -8.561007 0.259577
v 9.543038 -4.561007 0.259577
v 9.493390 -8.561007 0.244516
v 9.493390 -4.561007 0.244516
v 9.447633 -8.561007 0.220059
v 9.447633 -4.561007 0.220059
v 9.407528 -8.561007 0.187145
v 9.407528 -4.561007 0.187145
v 9.374613 -8.561007 0.147039
v 9.374613 -4.561007 0.147039
v 9.350155 -8.561007 0.101282
v 9.350155 -4.561007 0.101282
v 9.335094 -8.561007 0.051633
v 9.335094 -4.561007 0.051633
v 9.330009 -8.561007 0.000000
v 9.330009 -4.561007 0.000000
v 9.335094 -8.561007 -0.051633
v 9.335094 -4.561007 -0.051633
v 9.350155 -8.561007 -0.101282
v 9.350155 -4.561007 -0.101282
v 9.374613 -8.561007 -0.147039
v 9.374613 -4.561007 -0.147039
v 9.407528 -8.561007 -0.187145
v 9.407528 -4.561007 -0.187145
v 9.447633 -8.561007 -0.220059
v 9.447633 -4.561007 -0.220059
v 9.493390 -8.561007 -0.244516
v 9.493390 -4.561007 -0.244516
v 9.543038 -8.561007 -0.259577
v 9.543038 -4.561007 -0.259577
v 9.999999 -5.331891 -0.606345
v 9.999999 -5.617325 -0.606345
v 9.999999 -5.331891 0.998997
v 9.999999 -5.617325 0.998997
v -9.999999 -5.331891 -0.606345
v -9.999999 -5.617325 -0.606345
v -9.999999 -5.331891 0.998997
v -9.999999 -5.617325 0.998997
v -9.594670 -8.561007 -0.264663
v -9.594670 -4.561007 -0.264663
v -9.543036 -8.561007 -0.259577
v -9.543036 -4.561007 -0.259577
v -9.493387 -8.561007 -0.244516
v -9.493387 -4.561007 -0.244516
v -9.447631 -8.561007 -0.220059
v -9.447631 -4.561007 -0.220059
v -9.407526 -8.561007 -0.187145
v -9.407526 -4.561007 -0.187145
v -9.374611 -8.561007 -0.147039
v -9.374611 -4.561007 -0.147039
v -9.350153 -8.561007 -0.101282
v -9.350153 -4.561007 -0.101282
v -9.335093 -8.561007 -0.051633
v -9.335093 -4.561007 -0.051633
v -9.330007 -8.561007 0.000000
v -9.330007 -4.561007 0.000000
v -9.335093 -8.561007 0.051633
v -9.335093 -4.561007 0.051633
v -9.350153 -8.561007 0.101282
v -9.350153 -4.561007 0.101282
v -9.374611 -8.561007 0.147039
v -9.374611 -4.561007 0.147039
v -9.407526 -8.561007 0.187145
v -9.407526 -4.561007 0.187145
v -9.447631 -8.561007 0.220059
v -9.447631 -4.561007 0.220059
v -9.493387 -8.561007 0.244516
v -9.493387 -4.561007 0.244516
v -9.543036 -8.561007 0.259577
v -9.543036 -4.561007 0.259577
v -9.594670 -8.561007 0.264663
v -9.594670 -4.561007 0.264663
v -9.646302 -8.561007 0.259577
v -9.646302 -4.561007 0.259577
v -9.695951 -8.561007 0.244516
v -9.695951 -4.561007 0.244516
v -9.741708 -8.561007 0.220059
v -9.741708 -4.561007 0.220059
v -9.781815 -8.561007 0.187145
v -9.781815 -4.561007 0.187145
v -9.814728 -8.561007 0.147039
v -9.814728 -4.561007 0.147039
v -9.839186 -8.561007 0.101282
v -9.839186 -4.561007 0.101282
v -9.854246 -8.561007 0.051633
v -9.854246 -4.561007 0.051633
v -9.859332 -8.561007 0.000000
v -9.859332 -4.561007 0.000000
v -9.854246 -8.561007 -0.051633
v -9.854246 -4.561007 -0.051633
v -9.839186 -8.561007 -0.101282
v -9.839186 -4.561007 -0.101282
v -9.814728 -8.561007 -0.147039
v -9.814728 -4.561007 -0.147039
v -9.781815 -8.561007 -0.187145
v -9.781815 -4.561007 -0.187145
v -9.741708 -8.561007 -0.220059
v -9.741708 -4.561007 -0.220059
v -9.695951 -8.561007 -0.244516
v -9.695951 -4.561007 -0.244516
v -9.646302 -8.561007 -0.259577
v -9.646302 -4.561007 -0.259577
v 3.123305 5.103173 -0.496109
v 3.123305 5.003173 -0.496109
v 3.123305 5.103173 3.073383
v 3.123305 5.003173 3.073383
v 2.876694 5.103173 -0.496109
v 2.876694 5.003173 -0.496109
v 2.876694 5.103173 3.073383
v 2.876694 5.003173 3.073383
v 7.123304 5.103173 -0.496106
v 7.123304 5.003173 -0.496106
v 7.123304 5.103173 3.073386
v 7.123304 5.003173 3.073386
v 6.876695 5.103173 -0.496106
v 6.876695 5.003173 -0.496106
v 6.876695 5.103173 3.073386
v 6.876695 5.003173 3.073386
v -2.876694 5.103173 -0.496109
v -2.876694 5.003173 -0.496109
v -2.876694 5.103173 3.073383
v -2.876694 5.003173 3.073383
v -3.123305 5.103173 -0.496109
v -3.123305 5.003173 -0.496109
v -3.123305 5.103173 3.073383
v -3.123305 5.003173 3.073383
v -6.876695 5.103173 -0.496109
v -6.876695 5.003173 -0.496109
v -6.876695 5.103173 3.073383
v -6.876695 5.003173 3.073383
v -7.123304 5.103173 -0.496109
v -7.123304 5.003173 -0.496109
v -7.123304 5.103173 3.073383
v -7.123304 5.003173 3.073383
v 7.169039 5.071923 2.992857
v 7.169039 4.994101 2.930059
v 7.169039 4.908150 3.195812
v 7.169039 4.830327 3.133013
v 6.830960 5.071923 2.992857
v 6.830960 4.994101 2.930059
v 6.830960 4.908150 3.195812
v 6.830960 4.830327 3.133013
v 3.169039 5.071923 2.992862
v 3.169039 4.994101 2.930063
v 3.169039 4.908150 3.195817
v 3.169039 4.830327 3.133018
v 2.830961 5.071923 2.992862
v 2.830961 4.994101 2.930063
v 2.830961 4.908150 3.195817
v 2.830961 4.830327 3.133018
v -6.830960 5.071923 2.992862
v -6.830960 4.994101 2.930063
v -6.830960 4.908150 3.195817
v -6.830960 4.830327 3.133018
v -7.169039 5.071923 2.992862
v -7.169039 4.994101 2.930063
v -7.169039 4.908150 3.195817
v -7.169039 4.830327 3.133018
v -2.830961 5.071923 2.992862
v -2.830961 4.994101 2.930063
v -2.830961 4.908150 3.195817
v -2.830961 4.830327 3.133018
v -3.169039 5.071923 2.992862
v -3.169039 4.994101 2.930063
v -3.169039 4.908150 3.195817
v -3.169039 4.830327 3.133018
v 9.999999 -5.331891 -0.606345
v 9.999999 -5.617325 -0.606345
v 9.999999 -5.331891 0.998997
v 9.999999 -5.617325 0.998997
v -9.999999 -5.331891 -0.606345
v -9.999999 -5.617325 -0.606345
v -9.999999 -5.331891 0.998997
v -9.999999 -5.617325 0.998997
vn -0.0000 1.0000 -0.0000
vn -0.0000 -0.0000 1.0000
vn -1.0000 -0.0000 -0.0000
vn -0.0000 -1.0000 -0.0000
vn 1.0000 -0.0000 -0.0000
vn -0.0000 -0.0000 -1.0000
vn 0.1509 -0.0000 -0.9886
vn 0.3613 -0.0000 -0.9324
vn 0.5435 -0.0000 -0.8394
vn 0.7003 -0.0000 -0.7139
vn 0.8279 -0.0000 -0.5609
vn 0.9223 -0.0000 -0.3864
vn 0.9804 -0.0000 -0.1970
vn 0.9804 -0.0000 0.1970
vn 0.9223 -0.0000 0.3864
vn 0.8279 -0.0000 0.5609
vn 0.7003 -0.0000 0.7139
vn 0.5435 -0.0000 0.8394
vn 0.3613 -0.0000 0.9324
vn 0.1509 -0.0000 0.9886
vn -0.1509 -0.0000 0.9886
vn -0.3613 -0.0000 0.9324
vn -0.5435 -0.0000 0.8394
vn -0.7003 -0.0000 0.7139
vn -0.8279 -0.0000 0.5609
vn -0.9223 -0.0000 0.3864
vn -0.9804 -0.0000 0.1970
vn -0.9804 -0.0000 -0.1970
vn -0.9223 -0.0000 -0.3864
vn -0.8279 -0.0000 -0.5609
vn -0.7003 -0.0000 -0.7139
vn -0.5435 -0.0000 -0.8394
vn -0.3613 -0.0000 -0.9324
vn -0.1509 -0.0000 -0.9886
vn -0.7002 -0.0000 0.7139
vn -0.7002 -0.0000 -0.7139
vn -0.0000 0.7782 0.6280
vn -0.0000 -0.6280 0.7782
vn -0.0000 -0.7782 -0.6280
vn -0.0000 0.6280 -0.7782
vt 0.625000 0.500000
vt 0.875000 0.500000
vt 0.875000 0.750000
vt 0.625000 0.750000
vt 0.375000 0.750000
vt 0.625000 1.000000
vt 0.375000 1.000000
vt 0.375000 0.000000
vt 0.625000 0.000000
vt 0.625000 0.250000
vt 0.375000 0.250000
vt 0.125000 0.500000
vt 0.375000 0.500000
vt 0.125000 0.750000
vt 0.000000 0.000000
s 0
usemtl マテリアル.001
f 1/1/1 5/2/1 7/3/1 3/4/1
f 4/5/2 3/4/2 7/6/2 8/7/2
f 8/8/3 7/9/3 5/10/3 6/11/3
f 6/12/4 2/13/4 4/5/4 8/14/4
f 2/13/5 1/1/5 3/4/5 4/5/5
f 6/11/6 5/10/6 1/1/6 2/13/6
s 1
usemtl マテリアル
f 9/15/6 10/15/6 12/15/7 11/15/7
f 11/15/7 12/15/7 14/15/8 13/15/8
f 13/15/8 14/15/8 16/15/9 15/15/9
f 15/15/9 16/15/9 18/15/10 17/15/10
f 17/15/10 18/15/10 20/15/11 19/15/11
f 19/15/11 20/15/11 22/15/12 21/15/12
f 21/15/12 22/15/12 24/15/13 23/15/13
f 23/15/13 24/15/13 26/15/5 25/15/5
f 25/15/5 26/15/5 28/15/14 27/15/14
f 27/15/14 28/15/14 30/15/15 29/15/15
f 29/15/15 30/15/15 32/15/16 31/15/16
f 31/15/16 32/15/16 34/15/17 33/15/17
f 33/15/17 34/15/17 36/15/18 35/15/18
f 35/15/18 36/15/18 38/15/19 37/15/19
f 37/15/19 38/15/19 40/15/20 39/15/20
f 39/15/20 40/15/20 42/15/2 41/15/2
f 41/15/2 42/15/2 44/15/21 43/15/21
f 43/15/21 44/15/21 46/15/22 45/15/22
f 45/15/22 46/15/22 48/15/23 47/15/23
f 47/15/23 48/15/23 50/15/24 49/15/24
f 49/15/24 50/15/24 52/15/25 51/15/25
f 51/15/25 52/15/25 54/15/26 53/15/26
f 53/15/26 54/15/26 56/15/27 55/15/27
f 55/15/27 56/15/27 58/15/3 57/15/3
f 57/15/3 58/15/3 60/15/28 59/15/28
f 59/15/28 60/15/28 62/15/29 61/15/29
f 61/15/29 62/15/29 64/15/30 63/15/30
f 63/15/30 64/15/30 66/15/31 65/15/31
f 65/15/31 66/15/31 68/15/32 67/15/32
f 67/15/32 68/15/32 70/15/33 69/15/33
f 69/15/33 70/15/33 72/15/34 71/15/34
f 71/15/34 72/15/34 10/15/6 9/15/6
s 0
f 73/1/1 77/2/1 79/3/1 75/4/1
f 76/5/2 75/4/2 79/6/2 80/7/2
f 80/8/3 79/9/3 77/10/3 78/11/3
f 78/12/4 74/13/4 76/5/4 80/14/4
f 74/13/5 73/1/5 75/4/5 76/5/5
f 78/11/6 77/10/6 73/1/6 74/13/6
s 1
f 81/15/6 82/15/6 84/15/7 83/15/7
f 83/15/7 84/15/7 86/15/8 85/15/8
f 85/15/8 86/15/8 88/15/9 87/15/9
f 87/15/9 88/15/9 90/15/10 89/15/10
f 89/15/10 90/15/10 92/15/11 91/15/11
f 91/15/11 92/15/11 94/15/12 93/15/12
f 93/15/12 94/15/12 96/15/13 95/15/13
f 95/15/13 96/15/13 98/15/5 97/15/5
f 97/15/5 98/15/5 100/15/14 99/15/14
f 99/15/14 100/15/14 102/15/15 101/15/15
f 101/15/15 102/15/15 104/15/16 103/15/16
f 103/15/16 104/15/16 106/15/17 105/15/17
f 105/15/17 106/15/17 108/15/18 107/15/18
f 107/15/18 108/15/18 110/15/19 109/15/19
f 109/15/19 110/15/19 112/15/20 111/15/20
f 111/15/20 112/15/20 114/15/2 113/15/2
f 113/15/2 114/15/2 116/15/21 115/15/21
f 115/15/21 116/15/21 118/15/22 117/15/22
f 117/15/22 118/15/22 120/15/23 119/15/23
f 119/15/23 120/15/23 122/15/35 121/15/35
f 121/15/35 122/15/35 124/15/25 123/15/25
f 123/15/25 124/15/25 126/15/26 125/15/26
f 125/15/26 126/15/26 128/15/27 127/15/27
f 127/15/27 128/15/27 130/15/3 129/15/3
f 129/15/3 130/15/3 132/15/28 131/15/28
f 131/15/28 132/15/28 134/15/29 133/15/29
f 133/15/29 134/15/29 136/15/30 135/15/30
f 135/15/30 136/15/30 138/15/36 137/15/36
f 137/15/36 138/15/36 140/15/32 139/15/32
f 139/15/32 140/15/32 142/15/33 141/15/33
f 141/15/33 142/15/33 144/15/34 143/15/34
f 143/15/34 144/15/34 82/15/6 81/15/6
s 0
f 145/1/1 149/2/1 151/3/1 147/4/1
f 148/5/2 147/4/2 151/6/2 152/7/2
f 152/8/3 151/9/3 149/10/3 150/11/3
f 150/12/4 146/13/4 148/5/4 152/14/4
f 146/13/5 145/1/5 147/4/5 148/5/5
f 150/11/6 149/10/6 145/1/6 146/13/6
f 153/1/1 157/2/1 159/3/1 155/4/1
f 156/5/2 155/4/2 159/6/2 160/7/2
f 160/8/3 159/9/3 157/10/3 158/11/3
f 158/12/4 154/13/4 156/5/4 160/14/4
f 154/13/5 153/1/5 155/4/5 156/5/5
f 158/11/6 157/10/6 153/1/6 154/13/6
f 161/1/1 165/2/1 167/3/1 163/4/1
f 164/5/2 163/4/2 167/6/2 168/7/2
f 168/8/3 167/9/3 165/10/3 166/11/3
f 166/12/4 162/13/4 164/5/4 168/14/4
f 162/13/5 161/1/5 163/4/5 164/5/5
f 166/11/6 165/10/6 161/1/6 162/13/6
f 169/1/1 173/2/1 175/3/1 171/4/1
f 172/5/2 171/4/2 175/6/2 176/7/2
f 176/8/3 175/9/3 173/10/3 174/11/3
f 174/12/4 170/13/4 172/5/4 176/14/4
f 170/13/5 169/1/5 171/4/5 172/5/5
f 174/11/6 173/10/6 169/1/6 170/13/6
f 177/1/37 181/2/37 183/3/37 179/4/37
f 180/5/38 179/4/38 183/6/38 184/7/38
f 184/8/3 183/9/3 181/10/3 182/11/3
f 182/12/39 178/13/39 180/5/39 184/14/39
f 178/13/5 177/1/5 179/4/5 180/5/5
f 182/11/40 181/10/40 177/1/40 178/13/40
f 185/1/37 189/2/37 191/3/37 187/4/37
f 188/5/38 187/4/38 191/6/38 192/7/38
f 192/8/3 191/9/3 189/10/3 190/11/3
f 190/12/39 186/13/39 188/5/39 192/14/39
f 186/13/5 185/1/5 187/4/5 188/5/5
f 190/11/40 189/10/40 185/1/40 186/13/40
f 193/1/37 197/2/37 199/3/37 195/4/37
f 196/5/38 195/4/38 199/6/38 200/7/38
f 200/8/3 199/9/3 197/10/3 198/11/3
f 198/12/39 194/13/39 196/5/39 200/14/39
f 194/13/5 193/1/5 195/4/5 196/5/5
f 198/11/40 197/10/40 193/1/40 194/13/40
f 201/1/37 205/2/37 207/3/37 203/4/37
f 204/5/38 203/4/38 207/6/38 208/7/38
f 208/8/3 207/9/3 205/10/3 206/11/3
f 206/12/39 202/13/39 204/5/39 208/14/39
f 202/13/5 201/1/5 203/4/5 204/5/5
f 206/11/40 205/10/40 201/1/40 202/13/40
f 209/1/1 213/2/1 215/3/1 211/4/1
f 212/5/2 211/4/2 215/6/2 216/7/2
f 216/8/3 215/9/3 213/10/3 214/11/3
f 214/12/4 210/13/4 212/5/4 216/14/4
f 210/13/5 209/1/5 211/4/5 212/5/5
f 214/11/6 213/10/6 209/1/6 210/13/6
