# Blender 4.4.1
# www.blender.org
mtllib plan.mtl
o Cube
v 0.010000 1.000000 -1.000000
v 0.010000 -1.000000 -1.000000
v 0.010000 1.000000 1.000000
v 0.010000 -1.000000 1.000000
v -0.010000 1.000000 -1.000000
v -0.010000 -1.000000 -1.000000
v -0.010000 1.000000 1.000000
v -0.010000 -1.000000 1.000000
vn -0.0000 1.0000 -0.0000
vn -0.0000 -0.0000 1.0000
vn -1.0000 -0.0000 -0.0000
vn -0.0000 -1.0000 -0.0000
vn 1.0000 -0.0000 -0.0000
vn -0.0000 -0.0000 -1.0000
vt 0.000000 0.000000
vt 1.000000 0.000000
vt 0.000000 1.000000
vt 1.000000 1.000000
s 0
usemtl Material
f 5/1/1 3/1/1 1/1/1
f 5/1/1 7/1/1 3/1/1
f 3/1/2 8/1/2 4/1/2
f 3/1/2 7/1/2 8/1/2
f 7/3/3 6/2/3 8/1/3
f 7/3/3 5/4/3 6/2/3
f 2/1/4 8/1/4 6/1/4
f 2/1/4 4/1/4 8/1/4
f 1/3/5 4/2/5 2/1/5
f 1/3/5 3/4/5 4/2/5
f 5/1/6 2/1/6 6/1/6
f 5/1/6 1/1/6 2/1/6

