# Blender 4.4.1
# www.blender.org
mtllib pedestal.mtl
o Cube.001
v -0.350000 -0.509356 -0.350000
v -0.350000 -0.010949 -0.350000
v -0.350000 -0.509356 0.350000
v -0.350000 -0.010949 0.350000
v 0.350000 -0.509356 -0.350000
v 0.350000 -0.010949 -0.350000
v 0.350000 -0.509356 0.350000
v 0.350000 -0.010949 0.350000
v -0.499102 -0.523425 -0.500000
v -0.499102 -0.452777 -0.500000
v -0.499102 -0.523425 0.500000
v -0.499102 -0.452777 0.500000
v 0.499102 -0.523425 -0.500000
v 0.499102 -0.452777 -0.500000
v 0.499102 -0.523425 0.500000
v 0.499102 -0.452777 0.500000
v -0.400000 -0.454446 -0.400000
v -0.400000 -0.383798 -0.400000
v -0.400000 -0.454446 0.400000
v -0.400000 -0.383798 0.400000
v 0.400000 -0.454446 -0.400000
v 0.400000 -0.383798 -0.400000
v 0.400000 -0.454446 0.400000
v 0.400000 -0.383798 0.400000
v -0.374965 -0.509356 -0.374725
v -0.374965 -0.010949 -0.374725
v -0.374965 -0.509356 -0.324725
v -0.374965 -0.010949 -0.324725
v -0.324965 -0.509356 -0.374725
v -0.324965 -0.010949 -0.374725
v -0.324965 -0.509356 -0.324725
v -0.324965 -0.010949 -0.324725
v 0.324965 -0.509356 -0.374725
v 0.324965 -0.010949 -0.374725
v 0.324965 -0.509356 -0.324725
v 0.324965 -0.010949 -0.324725
v 0.374965 -0.509356 -0.374725
v 0.374965 -0.010949 -0.374725
v 0.374965 -0.509356 -0.324725
v 0.374965 -0.010949 -0.324725
v 0.324965 -0.509356 0.324725
v 0.324965 -0.010949 0.324725
v 0.324965 -0.509356 0.374725
v 0.324965 -0.010949 0.374725
v 0.374965 -0.509356 0.324725
v 0.374965 -0.010949 0.324725
v 0.374965 -0.509356 0.374725
v 0.374965 -0.010949 0.374725
v -0.374965 -0.509356 0.324725
v -0.374965 -0.010949 0.324725
v -0.374965 -0.509356 0.374725
v -0.374965 -0.010949 0.374725
v -0.324965 -0.509356 0.324725
v -0.324965 -0.010949 0.324725
v -0.324965 -0.509356 0.374725
v -0.324965 -0.010949 0.374725
v -0.400000 -0.072931 -0.400000
v -0.400000 -0.002283 -0.400000
v -0.400000 -0.072931 0.400000
v -0.400000 -0.002283 0.400000
v 0.400000 -0.072931 -0.400000
v 0.400000 -0.002283 -0.400000
v 0.400000 -0.072931 0.400000
v 0.400000 -0.002283 0.400000
vn -0.0000 -0.0000 1.0000
vn 1.0000 -0.0000 -0.0000
vn -0.0000 1.0000 -0.0000
vn -1.0000 -0.0000 -0.0000
vn -0.0000 -0.0000 -1.0000
vn -0.0000 -1.0000 -0.0000
vt 0.625000 0.750000
vt 0.375000 1.000000
vt 0.375000 0.750000
vt 0.625000 0.000000
vt 0.375000 0.250000
vt 0.375000 0.000000
vt 0.375000 0.500000
vt 0.125000 0.750000
vt 0.125000 0.500000
vt 0.625000 0.500000
vt 0.625000 0.250000
vt 0.875000 0.500000
vt 0.625000 1.000000
vt 0.875000 0.750000
s 0
usemtl Material
f 3/1/1 8/2/1 4/3/1
f 7/4/2 6/5/2 8/6/2
f 2/7/3 8/8/3 6/9/3
f 1/10/4 4/3/4 2/7/4
f 5/11/5 2/7/5 6/5/5
f 13/12/6 11/1/6 9/10/6
f 11/1/1 16/2/1 12/3/1
f 15/4/2 14/5/2 16/6/2
f 10/7/3 16/8/3 14/9/3
f 9/10/4 12/3/4 10/7/4
f 13/11/5 10/7/5 14/5/5
f 19/1/1 24/2/1 20/3/1
f 23/4/2 22/5/2 24/6/2
f 18/7/3 24/8/3 22/9/3
f 17/10/4 20/3/4 18/7/4
f 21/11/5 18/7/5 22/5/5
f 27/1/1 32/2/1 28/3/1
f 31/4/2 30/5/2 32/6/2
f 25/10/4 28/3/4 26/7/4
f 29/11/5 26/7/5 30/5/5
f 35/1/1 40/2/1 36/3/1
f 39/4/2 38/5/2 40/6/2
f 33/10/4 36/3/4 34/7/4
f 37/11/5 34/7/5 38/5/5
f 43/1/1 48/2/1 44/3/1
f 47/4/2 46/5/2 48/6/2
f 41/10/4 44/3/4 42/7/4
f 45/11/5 42/7/5 46/5/5
f 51/1/1 56/2/1 52/3/1
f 55/4/2 54/5/2 56/6/2
f 49/10/4 52/3/4 50/7/4
f 53/11/5 50/7/5 54/5/5
f 61/12/6 59/1/6 57/10/6
f 59/1/1 64/2/1 60/3/1
f 63/4/2 62/5/2 64/6/2
f 58/7/3 64/8/3 62/9/3
f 57/10/4 60/3/4 58/7/4
f 61/11/5 58/7/5 62/5/5
f 3/1/1 7/13/1 8/2/1
f 7/4/2 5/11/2 6/5/2
f 2/7/3 4/3/3 8/8/3
f 1/10/4 3/1/4 4/3/4
f 5/11/5 1/10/5 2/7/5
f 13/12/6 15/14/6 11/1/6
f 11/1/1 15/13/1 16/2/1
f 15/4/2 13/11/2 14/5/2
f 10/7/3 12/3/3 16/8/3
f 9/10/4 11/1/4 12/3/4
f 13/11/5 9/10/5 10/7/5
f 19/1/1 23/13/1 24/2/1
f 23/4/2 21/11/2 22/5/2
f 18/7/3 20/3/3 24/8/3
f 17/10/4 19/1/4 20/3/4
f 21/11/5 17/10/5 18/7/5
f 27/1/1 31/13/1 32/2/1
f 31/4/2 29/11/2 30/5/2
f 25/10/4 27/1/4 28/3/4
f 29/11/5 25/10/5 26/7/5
f 35/1/1 39/13/1 40/2/1
f 39/4/2 37/11/2 38/5/2
f 33/10/4 35/1/4 36/3/4
f 37/11/5 33/10/5 34/7/5
f 43/1/1 47/13/1 48/2/1
f 47/4/2 45/11/2 46/5/2
f 41/10/4 43/1/4 44/3/4
f 45/11/5 41/10/5 42/7/5
f 51/1/1 55/13/1 56/2/1
f 55/4/2 53/11/2 54/5/2
f 49/10/4 51/1/4 52/3/4
f 53/11/5 49/10/5 50/7/5
f 61/12/6 63/14/6 59/1/6
f 59/1/1 63/13/1 64/2/1
f 63/4/2 61/11/2 62/5/2
f 58/7/3 60/3/3 64/8/3
f 57/10/4 59/1/4 60/3/4
f 61/11/5 57/10/5 58/7/5
