# Blender 4.4.1
# www.blender.org
mtllib select.mtl
o 立方体.040
v -4.000002 0.000000 3.600001
v -4.000002 0.000000 -3.599998
v -4.000002 11.000000 3.600001
v 3.999995 0.000000 3.600001
v 3.999995 11.000000 3.600001
v 4.000002 11.000000 -3.599998
v -4.000002 11.000000 -3.599998
v 4.000002 0.000000 -3.599998
vn -0.0000 -1.0000 -0.0000
vn -1.0000 -0.0000 -0.0000
vn -0.0000 -0.0000 1.0000
vn 1.0000 -0.0000 -0.0000
vn -0.0000 1.0000 -0.0000
vn -0.0000 -0.0000 -1.0000
vt 0.125000 0.500000
vt 0.375000 0.750000
vt 0.125000 0.750000
vt 0.625000 0.000000
vt 0.375000 0.250000
vt 0.375000 0.000000
vt 0.625000 0.750000
vt 0.625000 1.000000
vt 0.375000 1.000000
vt 0.625000 0.500000
vt 0.875000 0.500000
vt 0.875000 0.750000
vt 0.625000 0.250000
vt 0.375000 0.500000
s 0
f 2/1/1 4/2/1 1/3/1
f 3/4/2 2/5/2 1/6/2
f 5/7/3 3/8/3 1/9/3
f 5/7/3 1/9/3 4/2/3
f 6/10/4 5/7/4 4/2/4
f 7/11/5 5/7/5 6/10/5
f 7/11/5 3/12/5 5/7/5
f 3/4/2 7/13/2 2/5/2
f 7/13/6 8/14/6 2/5/6
f 7/13/6 6/10/6 8/14/6
f 2/1/1 8/14/1 4/2/1
f 6/10/4 4/2/4 8/14/4
