{
	"asset":{
		"generator":"Khronos glTF Blender I/O v4.4.56",
		"version":"2.0"
	},
	"scene":0,
	"scenes":[
		{
			"name":"Scene",
			"nodes":[
				0
			]
		}
	],
	"nodes":[
		{
			"mesh":0,
			"name":"Plane",
			"rotation":[
				0.7071068286895752,
				0,
				0,
				0.7071068286895752
			]
		}
	],
	"materials":[
		{
			"doubleSided":true,
			"name":"Material.001",
			"pbrMetallicRoughness":{
				"baseColorTexture":{
					"index":0
				},
				"metallicFactor":0,
				"roughnessFactor":0.5
			}
		}
	],
	"meshes":[
		{
			"name":"Plane",
			"primitives":[
				{
					"attributes":{
						"POSITION":0,
						"NORMAL":1,
						"TEXCOORD_0":2
					},
					"indices":3,
					"material":0
				}
			]
		}
	],
	"textures":[
		{
			"sampler":0,
			"source":0
		}
	],
	"images":[
		{
			"mimeType":"image/png",
			"name":"grass",
			"uri":"grass.png"
		}
	],
	"accessors":[
		{
			"bufferView":0,
			"componentType":5126,
			"count":1375,
			"max":[
				10,
				10,
				0
			],
			"min":[
				-10,
				-10,
				-3.001210927963257
			],
			"type":"VEC3"
		},
		{
			"bufferView":1,
			"componentType":5126,
			"count":1375,
			"type":"VEC3"
		},
		{
			"bufferView":2,
			"componentType":5126,
			"count":1375,
			"type":"VEC2"
		},
		{
			"bufferView":3,
			"componentType":5123,
			"count":2646,
			"type":"SCALAR"
		}
	],
	"bufferViews":[
		{
			"buffer":0,
			"byteLength":16500,
			"byteOffset":0,
			"target":34962
		},
		{
			"buffer":0,
			"byteLength":16500,
			"byteOffset":16500,
			"target":34962
		},
		{
			"buffer":0,
			"byteLength":11000,
			"byteOffset":33000,
			"target":34962
		},
		{
			"buffer":0,
			"byteLength":5292,
			"byteOffset":44000,
			"target":34963
		}
	],
	"samplers":[
		{
			"magFilter":9729,
			"minFilter":9987
		}
	],
	"buffers":[
		{
			"byteLength":49292,
			"uri":"terrain.bin"
		}
	]
}
