# Player Spawn Symbol Model (Humanoid Silhouette)
o PlayerSpawn
# Head
v -0.25 1.2 -0.25
v  0.25 1.2 -0.25
v  0.25 1.7 -0.25
v -0.25 1.7 -0.25
v -0.25 1.2  0.25
v  0.25 1.2  0.25
v  0.25 1.7  0.25
v -0.25 1.7  0.25
# Body
v -0.4 0.0 -0.25
v  0.4 0.0 -0.25
v  0.3 1.1 -0.25
v -0.3 1.1 -0.25
v -0.4 0.0  0.25
v  0.4 0.0  0.25
v  0.3 1.1  0.25
v -0.3 1.1  0.25
# Shoulders
v -0.7 0.9 0.0
v  0.7 0.9 0.0

# Head Faces
f 1 2 3 4
f 5 8 7 6
f 1 5 6 2
f 2 6 7 3
f 3 7 8 4
f 4 8 5 1
# Body Faces
f 9 10 11 12
f 13 16 15 14
f 9 13 14 10
f 10 14 15 11
f 11 15 16 12
f 12 16 13 9
# Shoulder Spikes
f 12 16 17
f 11 15 18
