{
	"asset":{
		"generator":"Khronos glTF Blender I/O v4.4.56",
		"version":"2.0"
	},
	"scene":0,
	"scenes":[
		{
			"name":"Scene",
			"nodes":[
				0
			]
		}
	],
	"nodes":[
		{
			"mesh":0,
			"name":"PlayerModel",
			"translation":[
				0,
				0.699999988079071,
				0
			]
		}
	],
	"materials":[
		{
			"doubleSided":true,
			"name":"PlayerMaterial",
			"pbrMetallicRoughness":{
				"baseColorTexture":{
					"index":0
				},
				"metallicFactor":0,
				"roughnessFactor":0.5
			}
		}
	],
	"meshes":[
		{
			"name":"\u7403",
			"primitives":[
				{
					"attributes":{
						"POSITION":0,
						"NORMAL":1,
						"TEXCOORD_0":2
					},
					"indices":3,
					"material":0
				}
			]
		}
	],
	"textures":[
		{
			"sampler":0,
			"source":0
		}
	],
	"images":[
		{
			"mimeType":"image/png",
			"name":"Player_Diffuse",
			"uri":"Player_Diffuse.png"
		}
	],
	"accessors":[
		{
			"bufferView":0,
			"componentType":5126,
			"count":91752,
			"max":[
				0.35600000619888306,
				0.2699631154537201,
				0.17499998211860657
			],
			"min":[
				-0.35599997639656067,
				-0.5949999690055847,
				-0.46856066584587097
			],
			"type":"VEC3"
		},
		{
			"bufferView":1,
			"componentType":5126,
			"count":91752,
			"type":"VEC3"
		},
		{
			"bufferView":2,
			"componentType":5126,
			"count":91752,
			"type":"VEC2"
		},
		{
			"bufferView":3,
			"componentType":5125,
			"count":136692,
			"type":"SCALAR"
		}
	],
	"bufferViews":[
		{
			"buffer":0,
			"byteLength":1101024,
			"byteOffset":0,
			"target":34962
		},
		{
			"buffer":0,
			"byteLength":1101024,
			"byteOffset":1101024,
			"target":34962
		},
		{
			"buffer":0,
			"byteLength":734016,
			"byteOffset":2202048,
			"target":34962
		},
		{
			"buffer":0,
			"byteLength":546768,
			"byteOffset":2936064,
			"target":34963
		}
	],
	"samplers":[
		{
			"magFilter":9728,
			"minFilter":9984
		}
	],
	"buffers":[
		{
			"byteLength":3482832,
			"uri":"Player.bin"
		}
	]
}
