# Blender 4.4.1
# www.blender.org
mtllib enemy_2.mtl
o 立方体.002
v 0.325682 0.423987 0.232510
v 0.325682 0.442071 0.232510
v 0.235945 0.423987 0.322246
v 0.235945 0.442071 0.322246
v -0.232510 0.423987 -0.325682
v -0.232510 0.442071 -0.325682
v -0.322246 0.423987 -0.235945
v -0.322246 0.442071 -0.235945
v -0.232681 0.417288 0.325510
v -0.232681 0.448770 0.325510
v -0.325510 0.417288 0.232681
v -0.325510 0.448770 0.232681
v 0.325510 0.417288 -0.232681
v 0.325510 0.448770 -0.232681
v 0.232681 0.417288 -0.325510
v 0.232681 0.448770 -0.325510
vn 0.7071 -0.0000 0.7071
vn -0.7071 -0.0000 0.7071
vn -0.7071 -0.0000 -0.7071
vn 0.7071 -0.0000 -0.7071
vn -0.0000 -1.0000 -0.0000
vn -0.0000 1.0000 -0.0000
vt 0.625000 0.000000
vt 0.375000 0.250000
vt 0.375000 0.000000
vt 0.625000 0.250000
vt 0.375000 0.500000
vt 0.625000 0.500000
vt 0.375000 0.750000
vt 0.625000 0.750000
vt 0.375000 1.000000
vt 0.125000 0.500000
vt 0.125000 0.750000
vt 0.875000 0.500000
vt 0.625000 1.000000
vt 0.875000 0.750000
s 0
usemtl マテリアル.003
f 2/1/1 3/2/1 1/3/1
f 4/4/2 7/5/2 3/2/2
f 8/6/3 5/7/3 7/5/3
f 6/8/4 1/9/4 5/7/4
f 3/10/5 5/7/5 1/11/5
f 4/12/6 6/8/6 8/6/6
f 10/1/2 11/2/2 9/3/2
f 12/4/3 15/5/3 11/2/3
f 16/6/4 13/7/4 15/5/4
f 14/8/1 9/9/1 13/7/1
f 15/5/5 9/11/5 11/10/5
f 12/12/6 14/8/6 16/6/6
f 2/1/1 4/4/1 3/2/1
f 4/4/2 8/6/2 7/5/2
f 8/6/3 6/8/3 5/7/3
f 6/8/4 2/13/4 1/9/4
f 3/10/5 7/5/5 5/7/5
f 4/12/6 2/14/6 6/8/6
f 10/1/2 12/4/2 11/2/2
f 12/4/3 16/6/3 15/5/3
f 16/6/4 14/8/4 13/7/4
f 14/8/1 10/13/1 9/9/1
f 15/5/5 13/7/5 9/11/5
f 12/12/6 10/14/6 14/8/6
