# Blender 4.4.1
# www.blender.org
mtllib base.mtl
o 土台
v 0.000000 0.000000 100.000000
v 19.509033 0.000000 98.078522
v 38.268349 0.000000 92.387955
v 55.557026 0.000000 83.146965
v 70.710678 0.000000 70.710678
v 83.146965 0.000000 55.557026
v 92.387955 0.000000 38.268349
v 98.078522 0.000000 19.509033
v 100.000000 0.000000 0.000000
v 98.078522 0.000000 -19.509033
v 92.387955 0.000000 -38.268349
v 83.146965 0.000000 -55.557026
v 70.710678 0.000000 -70.710678
v 55.557026 0.000000 -83.146965
v 38.268349 0.000000 -92.387955
v 19.509033 0.000000 -98.078522
v 0.000000 0.000000 -100.000000
v -19.509033 0.000000 -98.078522
v -38.268349 0.000000 -92.387955
v -55.557026 0.000000 -83.146965
v -70.710678 0.000000 -70.710678
v -83.146965 0.000000 -55.557026
v -92.387955 0.000000 -38.268349
v -98.078522 0.000000 -19.509033
v -100.000000 0.000000 0.000000
v -98.078522 0.000000 19.509033
v -92.387955 0.000000 38.268349
v -83.146965 0.000000 55.557026
v -70.710678 0.000000 70.710678
v -55.557026 0.000000 83.146965
v -38.268349 0.000000 92.387955
v -19.509033 0.000000 98.078522
vn -0.0000 1.0000 -0.0000
vt 0.000000 0.000000
s 0
f 17/1/1 25/1/1 1/1/1
f 1/1/1 2/1/1 5/1/1
f 2/1/1 3/1/1 5/1/1
f 3/1/1 4/1/1 5/1/1
f 5/1/1 6/1/1 7/1/1
f 7/1/1 8/1/1 5/1/1
f 8/1/1 9/1/1 5/1/1
f 9/1/1 10/1/1 13/1/1
f 10/1/1 11/1/1 13/1/1
f 11/1/1 12/1/1 13/1/1
f 13/1/1 14/1/1 15/1/1
f 15/1/1 16/1/1 13/1/1
f 16/1/1 17/1/1 13/1/1
f 17/1/1 18/1/1 21/1/1
f 18/1/1 19/1/1 21/1/1
f 19/1/1 20/1/1 21/1/1
f 21/1/1 22/1/1 23/1/1
f 23/1/1 24/1/1 21/1/1
f 24/1/1 25/1/1 21/1/1
f 25/1/1 26/1/1 29/1/1
f 26/1/1 27/1/1 29/1/1
f 27/1/1 28/1/1 29/1/1
f 29/1/1 30/1/1 31/1/1
f 31/1/1 32/1/1 29/1/1
f 32/1/1 1/1/1 29/1/1
f 1/1/1 5/1/1 9/1/1
f 9/1/1 13/1/1 17/1/1
f 17/1/1 21/1/1 25/1/1
f 25/1/1 29/1/1 1/1/1
f 1/1/1 9/1/1 17/1/1
