# Blender 4.4.1
# www.blender.org
mtllib door.mtl
o Cube
v -0.500000 0.500000 0.500000
v -0.500000 -0.500000 0.500000
v 0.500000 0.500000 0.500000
v 0.500000 -0.500000 0.500000
vn -0.0000 -0.0000 1.0000
vt 0.625000 0.250000
vt 0.375000 0.500000
vt 0.375000 0.250000
vt 0.625000 0.500000
s 0
usemtl マテリアル
f 3/1/1 2/2/1 4/3/1
f 3/1/1 1/4/1 2/2/1
o Cube.013
v 0.500000 -0.066198 0.505682
v 0.500000 -0.093802 0.505682
v -0.500000 -0.066198 0.505682
v -0.500000 -0.093802 0.505682
v 0.500000 -0.066198 0.485379
v 0.500000 -0.093802 0.485379
v -0.500000 -0.066198 0.485379
v -0.500000 -0.093802 0.485379
v 0.500000 -0.466198 0.505682
v 0.500000 -0.493802 0.505682
v -0.500000 -0.466198 0.505682
v -0.500000 -0.493802 0.505682
v 0.500000 -0.466198 0.485379
v 0.500000 -0.493802 0.485379
v -0.500000 -0.466198 0.485379
v -0.500000 -0.493802 0.485379
v 0.500000 -0.426198 0.505682
v 0.500000 -0.453802 0.505682
v -0.500000 -0.426198 0.505682
v -0.500000 -0.453802 0.505682
v 0.500000 -0.426198 0.485379
v 0.500000 -0.453802 0.485379
v -0.500000 -0.426198 0.485379
v -0.500000 -0.453802 0.485379
v 0.500000 -0.386198 0.505682
v 0.500000 -0.413802 0.505682
v -0.500000 -0.386198 0.505682
v -0.500000 -0.413802 0.505682
v 0.500000 -0.386198 0.485379
v 0.500000 -0.413802 0.485379
v -0.500000 -0.386198 0.485379
v -0.500000 -0.413802 0.485379
v 0.500000 -0.346198 0.505682
v 0.500000 -0.373802 0.505682
v -0.500000 -0.346198 0.505682
v -0.500000 -0.373802 0.505682
v 0.500000 -0.346198 0.485379
v 0.500000 -0.373802 0.485379
v -0.500000 -0.346198 0.485379
v -0.500000 -0.373802 0.485379
v 0.500000 -0.306198 0.505682
v 0.500000 -0.333802 0.505682
v -0.500000 -0.306198 0.505682
v -0.500000 -0.333802 0.505682
v 0.500000 -0.306198 0.485379
v 0.500000 -0.333802 0.485379
v -0.500000 -0.306198 0.485379
v -0.500000 -0.333802 0.485379
v 0.500000 -0.266198 0.505682
v 0.500000 -0.293802 0.505682
v -0.500000 -0.266198 0.505682
v -0.500000 -0.293802 0.505682
v 0.500000 -0.266198 0.485379
v 0.500000 -0.293802 0.485379
v -0.500000 -0.266198 0.485379
v -0.500000 -0.293802 0.485379
v 0.500000 -0.226198 0.505682
v 0.500000 -0.253802 0.505682
v -0.500000 -0.226198 0.505682
v -0.500000 -0.253802 0.505682
v 0.500000 -0.226198 0.485379
v 0.500000 -0.253802 0.485379
v -0.500000 -0.226198 0.485379
v -0.500000 -0.253802 0.485379
v 0.500000 -0.186198 0.505682
v 0.500000 -0.213802 0.505682
v -0.500000 -0.186198 0.505682
v -0.500000 -0.213802 0.505682
v 0.500000 -0.186198 0.485379
v 0.500000 -0.213802 0.485379
v -0.500000 -0.186198 0.485379
v -0.500000 -0.213802 0.485379
v 0.500000 -0.146198 0.505682
v 0.500000 -0.173802 0.505682
v -0.500000 -0.146198 0.505682
v -0.500000 -0.173802 0.505682
v 0.500000 -0.146198 0.485379
v 0.500000 -0.173802 0.485379
v -0.500000 -0.146198 0.485379
v -0.500000 -0.173802 0.485379
v 0.500000 -0.106198 0.505682
v 0.500000 -0.133802 0.505682
v -0.500000 -0.106198 0.505682
v -0.500000 -0.133802 0.505682
v 0.500000 -0.106198 0.485379
v 0.500000 -0.133802 0.485379
v -0.500000 -0.106198 0.485379
v -0.500000 -0.133802 0.485379
v 0.500000 -0.026198 0.505682
v 0.500000 -0.053802 0.505682
v -0.500000 -0.026198 0.505682
v -0.500000 -0.053802 0.505682
v 0.500000 -0.026198 0.485379
v 0.500000 -0.053802 0.485379
v -0.500000 -0.026198 0.485379
v -0.500000 -0.053802 0.485379
v 0.500000 0.013802 0.505682
v 0.500000 -0.013802 0.505682
v -0.500000 0.013802 0.505682
v -0.500000 -0.013802 0.505682
v 0.500000 0.013802 0.485379
v 0.500000 -0.013802 0.485379
v -0.500000 0.013802 0.485379
v -0.500000 -0.013802 0.485379
v 0.500000 0.066198 0.505682
v 0.500000 0.093802 0.505682
v -0.500000 0.066198 0.505682
v -0.500000 0.093802 0.505682
v 0.500000 0.066198 0.485379
v 0.500000 0.093802 0.485379
v -0.500000 0.066198 0.485379
v -0.500000 0.093802 0.485379
v 0.500000 0.466198 0.505682
v 0.500000 0.493802 0.505682
v -0.500000 0.466198 0.505682
v -0.500000 0.493802 0.505682
v 0.500000 0.466198 0.485379
v 0.500000 0.493802 0.485379
v -0.500000 0.466198 0.485379
v -0.500000 0.493802 0.485379
v 0.500000 0.426198 0.505682
v 0.500000 0.453802 0.505682
v -0.500000 0.426198 0.505682
v -0.500000 0.453802 0.505682
v 0.500000 0.426198 0.485379
v 0.500000 0.453802 0.485379
v -0.500000 0.426198 0.485379
v -0.500000 0.453802 0.485379
v 0.500000 0.386198 0.505682
v 0.500000 0.413802 0.505682
v -0.500000 0.386198 0.505682
v -0.500000 0.413802 0.505682
v 0.500000 0.386198 0.485379
v 0.500000 0.413802 0.485379
v -0.500000 0.386198 0.485379
v -0.500000 0.413802 0.485379
v 0.500000 0.346198 0.505682
v 0.500000 0.373802 0.505682
v -0.500000 0.346198 0.505682
v -0.500000 0.373802 0.505682
v 0.500000 0.346198 0.485379
v 0.500000 0.373802 0.485379
v -0.500000 0.346198 0.485379
v -0.500000 0.373802 0.485379
v 0.500000 0.306198 0.505682
v 0.500000 0.333802 0.505682
v -0.500000 0.306198 0.505682
v -0.500000 0.333802 0.505682
v 0.500000 0.306198 0.485379
v 0.500000 0.333802 0.485379
v -0.500000 0.306198 0.485379
v -0.500000 0.333802 0.485379
v 0.500000 0.266198 0.505682
v 0.500000 0.293802 0.505682
v -0.500000 0.266198 0.505682
v -0.500000 0.293802 0.505682
v 0.500000 0.266198 0.485379
v 0.500000 0.293802 0.485379
v -0.500000 0.266198 0.485379
v -0.500000 0.293802 0.485379
v 0.500000 0.226198 0.505682
v 0.500000 0.253802 0.505682
v -0.500000 0.226198 0.505682
v -0.500000 0.253802 0.505682
v 0.500000 0.226198 0.485379
v 0.500000 0.253802 0.485379
v -0.500000 0.226198 0.485379
v -0.500000 0.253802 0.485379
v 0.500000 0.186198 0.505682
v 0.500000 0.213802 0.505682
v -0.500000 0.186198 0.505682
v -0.500000 0.213802 0.505682
v 0.500000 0.186198 0.485379
v 0.500000 0.213802 0.485379
v -0.500000 0.186198 0.485379
v -0.500000 0.213802 0.485379
v 0.500000 0.146198 0.505682
v 0.500000 0.173802 0.505682
v -0.500000 0.146198 0.505682
v -0.500000 0.173802 0.505682
v 0.500000 0.146198 0.485379
v 0.500000 0.173802 0.485379
v -0.500000 0.146198 0.485379
v -0.500000 0.173802 0.485379
v 0.500000 0.106198 0.505682
v 0.500000 0.133802 0.505682
v -0.500000 0.106198 0.505682
v -0.500000 0.133802 0.505682
v 0.500000 0.106198 0.485379
v 0.500000 0.133802 0.485379
v -0.500000 0.106198 0.485379
v -0.500000 0.133802 0.485379
v 0.500000 0.026198 0.505682
v 0.500000 0.053802 0.505682
v -0.500000 0.026198 0.505682
v -0.500000 0.053802 0.505682
v 0.500000 0.026198 0.485379
v 0.500000 0.053802 0.485379
v -0.500000 0.026198 0.485379
v -0.500000 0.053802 0.485379
v 0.500000 -0.013802 0.505682
v 0.500000 0.013802 0.505682
v -0.500000 -0.013802 0.505682
v -0.500000 0.013802 0.505682
v 0.500000 -0.013802 0.485379
v 0.500000 0.013802 0.485379
v -0.500000 -0.013802 0.485379
v -0.500000 0.013802 0.485379
vn -0.0000 1.0000 -0.0000
vn -1.0000 -0.0000 -0.0000
vn -0.0000 -1.0000 -0.0000
vn -0.0000 -0.0000 1.0000
vn 1.0000 -0.0000 -0.0000
vt 0.875000 0.500000
vt 0.625000 0.750000
vt 0.625000 0.500000
vt 0.375000 1.000000
vt 0.375000 0.750000
vt 0.375000 0.500000
vt 0.125000 0.750000
vt 0.125000 0.500000
vt 0.625000 0.250000
vt 0.375000 0.250000
vt 0.875000 0.750000
vt 0.625000 1.000000
s 0
usemtl マテリアル.001
f 9/5/2 7/6/2 5/7/2
f 7/6/3 12/8/3 8/9/3
f 6/10/4 12/11/4 10/12/4
f 5/7/5 8/9/5 6/10/5
f 9/13/6 6/10/6 10/14/6
f 17/5/2 15/6/2 13/7/2
f 15/6/3 20/8/3 16/9/3
f 14/10/4 20/11/4 18/12/4
f 13/7/5 16/9/5 14/10/5
f 17/13/6 14/10/6 18/14/6
f 25/5/2 23/6/2 21/7/2
f 23/6/3 28/8/3 24/9/3
f 22/10/4 28/11/4 26/12/4
f 21/7/5 24/9/5 22/10/5
f 25/13/6 22/10/6 26/14/6
f 33/5/2 31/6/2 29/7/2
f 31/6/3 36/8/3 32/9/3
f 30/10/4 36/11/4 34/12/4
f 29/7/5 32/9/5 30/10/5
f 33/13/6 30/10/6 34/14/6
f 41/5/2 39/6/2 37/7/2
f 39/6/3 44/8/3 40/9/3
f 38/10/4 44/11/4 42/12/4
f 37/7/5 40/9/5 38/10/5
f 41/13/6 38/10/6 42/14/6
f 49/5/2 47/6/2 45/7/2
f 47/6/3 52/8/3 48/9/3
f 46/10/4 52/11/4 50/12/4
f 45/7/5 48/9/5 46/10/5
f 49/13/6 46/10/6 50/14/6
f 57/5/2 55/6/2 53/7/2
f 55/6/3 60/8/3 56/9/3
f 54/10/4 60/11/4 58/12/4
f 53/7/5 56/9/5 54/10/5
f 57/13/6 54/10/6 58/14/6
f 65/5/2 63/6/2 61/7/2
f 63/6/3 68/8/3 64/9/3
f 62/10/4 68/11/4 66/12/4
f 61/7/5 64/9/5 62/10/5
f 65/13/6 62/10/6 66/14/6
f 73/5/2 71/6/2 69/7/2
f 71/6/3 76/8/3 72/9/3
f 70/10/4 76/11/4 74/12/4
f 69/7/5 72/9/5 70/10/5
f 73/13/6 70/10/6 74/14/6
f 81/5/2 79/6/2 77/7/2
f 79/6/3 84/8/3 80/9/3
f 78/10/4 84/11/4 82/12/4
f 77/7/5 80/9/5 78/10/5
f 81/13/6 78/10/6 82/14/6
f 89/5/2 87/6/2 85/7/2
f 87/6/3 92/8/3 88/9/3
f 86/10/4 92/11/4 90/12/4
f 85/7/5 88/9/5 86/10/5
f 89/13/6 86/10/6 90/14/6
f 97/5/2 95/6/2 93/7/2
f 95/6/3 100/8/3 96/9/3
f 94/10/4 100/11/4 98/12/4
f 93/7/5 96/9/5 94/10/5
f 97/13/6 94/10/6 98/14/6
f 105/5/2 103/6/2 101/7/2
f 103/6/3 108/8/3 104/9/3
f 102/10/4 108/11/4 106/12/4
f 101/7/5 104/9/5 102/10/5
f 105/13/6 102/10/6 106/14/6
f 111/6/4 113/5/4 109/7/4
f 116/8/3 111/6/3 112/9/3
f 116/11/2 110/10/2 114/12/2
f 112/9/5 109/7/5 110/10/5
f 110/10/6 113/13/6 114/14/6
f 119/6/4 121/5/4 117/7/4
f 124/8/3 119/6/3 120/9/3
f 124/11/2 118/10/2 122/12/2
f 120/9/5 117/7/5 118/10/5
f 118/10/6 121/13/6 122/14/6
f 127/6/4 129/5/4 125/7/4
f 132/8/3 127/6/3 128/9/3
f 132/11/2 126/10/2 130/12/2
f 128/9/5 125/7/5 126/10/5
f 126/10/6 129/13/6 130/14/6
f 135/6/4 137/5/4 133/7/4
f 140/8/3 135/6/3 136/9/3
f 140/11/2 134/10/2 138/12/2
f 136/9/5 133/7/5 134/10/5
f 134/10/6 137/13/6 138/14/6
f 143/6/4 145/5/4 141/7/4
f 148/8/3 143/6/3 144/9/3
f 148/11/2 142/10/2 146/12/2
f 144/9/5 141/7/5 142/10/5
f 142/10/6 145/13/6 146/14/6
f 151/6/4 153/5/4 149/7/4
f 156/8/3 151/6/3 152/9/3
f 156/11/2 150/10/2 154/12/2
f 152/9/5 149/7/5 150/10/5
f 150/10/6 153/13/6 154/14/6
f 159/6/4 161/5/4 157/7/4
f 164/8/3 159/6/3 160/9/3
f 164/11/2 158/10/2 162/12/2
f 160/9/5 157/7/5 158/10/5
f 158/10/6 161/13/6 162/14/6
f 167/6/4 169/5/4 165/7/4
f 172/8/3 167/6/3 168/9/3
f 172/11/2 166/10/2 170/12/2
f 168/9/5 165/7/5 166/10/5
f 166/10/6 169/13/6 170/14/6
f 175/6/4 177/5/4 173/7/4
f 180/8/3 175/6/3 176/9/3
f 180/11/2 174/10/2 178/12/2
f 176/9/5 173/7/5 174/10/5
f 174/10/6 177/13/6 178/14/6
f 183/6/4 185/5/4 181/7/4
f 188/8/3 183/6/3 184/9/3
f 188/11/2 182/10/2 186/12/2
f 184/9/5 181/7/5 182/10/5
f 182/10/6 185/13/6 186/14/6
f 191/6/4 193/5/4 189/7/4
f 196/8/3 191/6/3 192/9/3
f 196/11/2 190/10/2 194/12/2
f 192/9/5 189/7/5 190/10/5
f 190/10/6 193/13/6 194/14/6
f 199/6/4 201/5/4 197/7/4
f 204/8/3 199/6/3 200/9/3
f 204/11/2 198/10/2 202/12/2
f 200/9/5 197/7/5 198/10/5
f 198/10/6 201/13/6 202/14/6
f 207/6/4 209/5/4 205/7/4
f 212/8/3 207/6/3 208/9/3
f 212/11/2 206/10/2 210/12/2
f 208/9/5 205/7/5 206/10/5
f 206/10/6 209/13/6 210/14/6
f 9/5/2 11/15/2 7/6/2
f 7/6/3 11/16/3 12/8/3
f 6/10/4 8/9/4 12/11/4
f 5/7/5 7/6/5 8/9/5
f 9/13/6 5/7/6 6/10/6
f 17/5/2 19/15/2 15/6/2
f 15/6/3 19/16/3 20/8/3
f 14/10/4 16/9/4 20/11/4
f 13/7/5 15/6/5 16/9/5
f 17/13/6 13/7/6 14/10/6
f 25/5/2 27/15/2 23/6/2
f 23/6/3 27/16/3 28/8/3
f 22/10/4 24/9/4 28/11/4
f 21/7/5 23/6/5 24/9/5
f 25/13/6 21/7/6 22/10/6
f 33/5/2 35/15/2 31/6/2
f 31/6/3 35/16/3 36/8/3
f 30/10/4 32/9/4 36/11/4
f 29/7/5 31/6/5 32/9/5
f 33/13/6 29/7/6 30/10/6
f 41/5/2 43/15/2 39/6/2
f 39/6/3 43/16/3 44/8/3
f 38/10/4 40/9/4 44/11/4
f 37/7/5 39/6/5 40/9/5
f 41/13/6 37/7/6 38/10/6
f 49/5/2 51/15/2 47/6/2
f 47/6/3 51/16/3 52/8/3
f 46/10/4 48/9/4 52/11/4
f 45/7/5 47/6/5 48/9/5
f 49/13/6 45/7/6 46/10/6
f 57/5/2 59/15/2 55/6/2
f 55/6/3 59/16/3 60/8/3
f 54/10/4 56/9/4 60/11/4
f 53/7/5 55/6/5 56/9/5
f 57/13/6 53/7/6 54/10/6
f 65/5/2 67/15/2 63/6/2
f 63/6/3 67/16/3 68/8/3
f 62/10/4 64/9/4 68/11/4
f 61/7/5 63/6/5 64/9/5
f 65/13/6 61/7/6 62/10/6
f 73/5/2 75/15/2 71/6/2
f 71/6/3 75/16/3 76/8/3
f 70/10/4 72/9/4 76/11/4
f 69/7/5 71/6/5 72/9/5
f 73/13/6 69/7/6 70/10/6
f 81/5/2 83/15/2 79/6/2
f 79/6/3 83/16/3 84/8/3
f 78/10/4 80/9/4 84/11/4
f 77/7/5 79/6/5 80/9/5
f 81/13/6 77/7/6 78/10/6
f 89/5/2 91/15/2 87/6/2
f 87/6/3 91/16/3 92/8/3
f 86/10/4 88/9/4 92/11/4
f 85/7/5 87/6/5 88/9/5
f 89/13/6 85/7/6 86/10/6
f 97/5/2 99/15/2 95/6/2
f 95/6/3 99/16/3 100/8/3
f 94/10/4 96/9/4 100/11/4
f 93/7/5 95/6/5 96/9/5
f 97/13/6 93/7/6 94/10/6
f 105/5/2 107/15/2 103/6/2
f 103/6/3 107/16/3 108/8/3
f 102/10/4 104/9/4 108/11/4
f 101/7/5 103/6/5 104/9/5
f 105/13/6 101/7/6 102/10/6
f 111/6/4 115/15/4 113/5/4
f 116/8/3 115/16/3 111/6/3
f 116/11/2 112/9/2 110/10/2
f 112/9/5 111/6/5 109/7/5
f 110/10/6 109/7/6 113/13/6
f 119/6/4 123/15/4 121/5/4
f 124/8/3 123/16/3 119/6/3
f 124/11/2 120/9/2 118/10/2
f 120/9/5 119/6/5 117/7/5
f 118/10/6 117/7/6 121/13/6
f 127/6/4 131/15/4 129/5/4
f 132/8/3 131/16/3 127/6/3
f 132/11/2 128/9/2 126/10/2
f 128/9/5 127/6/5 125/7/5
f 126/10/6 125/7/6 129/13/6
f 135/6/4 139/15/4 137/5/4
f 140/8/3 139/16/3 135/6/3
f 140/11/2 136/9/2 134/10/2
f 136/9/5 135/6/5 133/7/5
f 134/10/6 133/7/6 137/13/6
f 143/6/4 147/15/4 145/5/4
f 148/8/3 147/16/3 143/6/3
f 148/11/2 144/9/2 142/10/2
f 144/9/5 143/6/5 141/7/5
f 142/10/6 141/7/6 145/13/6
f 151/6/4 155/15/4 153/5/4
f 156/8/3 155/16/3 151/6/3
f 156/11/2 152/9/2 150/10/2
f 152/9/5 151/6/5 149/7/5
f 150/10/6 149/7/6 153/13/6
f 159/6/4 163/15/4 161/5/4
f 164/8/3 163/16/3 159/6/3
f 164/11/2 160/9/2 158/10/2
f 160/9/5 159/6/5 157/7/5
f 158/10/6 157/7/6 161/13/6
f 167/6/4 171/15/4 169/5/4
f 172/8/3 171/16/3 167/6/3
f 172/11/2 168/9/2 166/10/2
f 168/9/5 167/6/5 165/7/5
f 166/10/6 165/7/6 169/13/6
f 175/6/4 179/15/4 177/5/4
f 180/8/3 179/16/3 175/6/3
f 180/11/2 176/9/2 174/10/2
f 176/9/5 175/6/5 173/7/5
f 174/10/6 173/7/6 177/13/6
f 183/6/4 187/15/4 185/5/4
f 188/8/3 187/16/3 183/6/3
f 188/11/2 184/9/2 182/10/2
f 184/9/5 183/6/5 181/7/5
f 182/10/6 181/7/6 185/13/6
f 191/6/4 195/15/4 193/5/4
f 196/8/3 195/16/3 191/6/3
f 196/11/2 192/9/2 190/10/2
f 192/9/5 191/6/5 189/7/5
f 190/10/6 189/7/6 193/13/6
f 199/6/4 203/15/4 201/5/4
f 204/8/3 203/16/3 199/6/3
f 204/11/2 200/9/2 198/10/2
f 200/9/5 199/6/5 197/7/5
f 198/10/6 197/7/6 201/13/6
f 207/6/4 211/15/4 209/5/4
f 212/8/3 211/16/3 207/6/3
f 212/11/2 208/9/2 206/10/2
f 208/9/5 207/6/5 205/7/5
f 206/10/6 205/7/6 209/13/6
