# Blender 4.4.1
# www.blender.org
mtllib jewelry.mtl
o 円.001
v 0.000000 0.395296 1.399892
v -1.399996 0.395296 0.000000
v -1.299999 0.395296 0.600001
v -1.049619 0.395296 1.049831
v -0.599999 0.395296 1.299999
v -0.809457 0.842650 0.335288
v -0.334752 0.842650 0.810751
v -0.897695 0.692650 0.898587
v 0.000000 0.692650 1.199997
v -1.199993 0.692650 0.000000
v 0.000000 -0.842650 0.000000
v 1.399996 0.395296 0.000000
v 1.299999 0.395296 0.600001
v 1.049619 0.395296 1.049831
v 0.599999 0.395296 1.299999
v 0.809457 0.842650 0.335288
v 0.334752 0.842650 0.810751
v 0.897695 0.692650 0.898587
v 1.199993 0.692650 0.000000
v 0.000000 0.395296 -1.399892
v -1.299999 0.395296 -0.600001
v -1.049619 0.395296 -1.049831
v -0.599999 0.395296 -1.299999
v -0.809457 0.842650 -0.335288
v -0.334752 0.842650 -0.810751
v -0.897695 0.692650 -0.898587
v 0.000000 0.692650 -1.199997
v 1.299999 0.395296 -0.600001
v 1.049619 0.395296 -1.049831
v 0.599999 0.395296 -1.299999
v 0.809457 0.842650 -0.335288
v 0.334752 0.842650 -0.810751
v 0.897695 0.692650 -0.898587
vn -0.2192 0.9508 0.2189
vn -0.8219 0.5528 0.1370
vn -0.5985 0.7754 0.2013
vn -0.7179 0.5700 0.3996
vn -0.3996 0.5695 0.7183
vn -0.2012 0.7748 0.5993
vn -0.1369 0.5527 0.8221
vn -0.1096 -0.7446 0.6585
vn -0.3185 -0.7555 0.5725
vn -0.5724 -0.7555 0.3186
vn -0.6584 -0.7446 0.1097
vn 0.2192 0.9508 0.2189
vn 0.8219 0.5528 0.1370
vn 0.5985 0.7754 0.2013
vn 0.7179 0.5700 0.3996
vn 0.3996 0.5695 0.7183
vn 0.2012 0.7748 0.5993
vn 0.1369 0.5527 0.8221
vn 0.1096 -0.7446 0.6585
vn 0.3185 -0.7555 0.5725
vn 0.5724 -0.7555 0.3186
vn 0.6584 -0.7446 0.1097
vn -0.2192 0.9508 -0.2189
vn -0.8219 0.5528 -0.1370
vn -0.5985 0.7754 -0.2013
vn -0.7179 0.5700 -0.3996
vn -0.3996 0.5695 -0.7183
vn -0.2012 0.7748 -0.5993
vn -0.1369 0.5527 -0.8221
vn -0.1096 -0.7446 -0.6585
vn -0.3185 -0.7555 -0.5725
vn -0.5724 -0.7555 -0.3186
vn -0.6584 -0.7446 -0.1097
vn 0.2192 0.9508 -0.2189
vn 0.8219 0.5528 -0.1370
vn 0.5985 0.7754 -0.2013
vn 0.7179 0.5700 -0.3996
vn 0.3996 0.5695 -0.7183
vn 0.2012 0.7748 -0.5993
vn 0.1369 0.5527 -0.8221
vn 0.1096 -0.7446 -0.6585
vn 0.3185 -0.7555 -0.5725
vn 0.5724 -0.7555 -0.3186
vn 0.6584 -0.7446 -0.1097
vn -0.3585 0.9335 -0.0000
vn -0.0000 0.9331 -0.3596
vn 0.3585 0.9335 -0.0000
vn -0.0000 0.9331 0.3596
vn -0.0000 1.0000 -0.0000
vt 0.000000 0.000000
s 0
f 7/1/1 6/1/1 8/1/1
f 2/1/2 3/1/2 10/1/2
f 6/1/3 10/1/3 3/1/3 8/1/3
f 3/1/4 4/1/4 8/1/4
f 4/1/5 5/1/5 8/1/5
f 8/1/6 5/1/6 9/1/6 7/1/6
f 5/1/7 1/1/7 9/1/7
f 5/1/8 11/1/8 1/1/8
f 4/1/9 11/1/9 5/1/9
f 3/1/10 11/1/10 4/1/10
f 2/1/11 11/1/11 3/1/11
f 17/1/12 18/1/12 16/1/12
f 12/1/13 19/1/13 13/1/13
f 16/1/14 18/1/14 13/1/14 19/1/14
f 13/1/15 18/1/15 14/1/15
f 14/1/16 18/1/16 15/1/16
f 18/1/17 17/1/17 9/1/17 15/1/17
f 15/1/18 9/1/18 1/1/18
f 15/1/19 1/1/19 11/1/19
f 14/1/20 15/1/20 11/1/20
f 13/1/21 14/1/21 11/1/21
f 12/1/22 13/1/22 11/1/22
f 25/1/23 26/1/23 24/1/23
f 2/1/24 10/1/24 21/1/24
f 24/1/25 26/1/25 21/1/25 10/1/25
f 21/1/26 26/1/26 22/1/26
f 22/1/27 26/1/27 23/1/27
f 26/1/28 25/1/28 27/1/28 23/1/28
f 23/1/29 27/1/29 20/1/29
f 23/1/30 20/1/30 11/1/30
f 22/1/31 23/1/31 11/1/31
f 21/1/32 22/1/32 11/1/32
f 2/1/33 21/1/33 11/1/33
f 32/1/34 31/1/34 33/1/34
f 12/1/35 28/1/35 19/1/35
f 31/1/36 19/1/36 28/1/36 33/1/36
f 28/1/37 29/1/37 33/1/37
f 29/1/38 30/1/38 33/1/38
f 33/1/39 30/1/39 27/1/39 32/1/39
f 30/1/40 20/1/40 27/1/40
f 30/1/41 11/1/41 20/1/41
f 29/1/42 11/1/42 30/1/42
f 28/1/43 11/1/43 29/1/43
f 12/1/44 11/1/44 28/1/44
f 10/1/45 6/1/45 24/1/45
f 27/1/46 25/1/46 32/1/46
f 19/1/47 31/1/47 16/1/47
f 9/1/48 17/1/48 7/1/48
f 7/1/49 17/1/49 16/1/49 31/1/49 32/1/49 25/1/49 24/1/49 6/1/49
