# Blender 4.4.1
# www.blender.org
mtllib background.mtl
o 立方体.028
v -29.254768 1.763282 0.040784
v -29.254768 1.763282 0.540784
v -29.254768 3.263282 0.040784
v -30.754768 1.763282 0.040784
v -30.754768 1.763282 0.540784
v -30.754768 3.263282 0.040784
v -30.754768 3.263282 0.540784
v -29.254768 3.263282 0.540784
v 50.999992 -20.015520 -0.200000
v 50.999992 20.015520 -0.200000
v 50.999992 -20.015520 0.200000
v 50.999992 20.015520 0.200000
v 49.000000 -20.015520 -0.200000
v 49.000000 20.015520 -0.200000
v 49.000000 -20.015520 0.200000
v 49.000000 20.015520 0.200000
v 73.753998 1.763282 0.040785
v 73.753998 1.763282 0.540784
v 73.753998 3.263281 0.040785
v 72.254005 1.763282 0.040785
v 72.254005 1.763282 0.540784
v 72.254005 3.263281 0.040785
v 72.254005 3.263281 0.540784
v 73.753998 3.263281 0.540784
v 1.000004 -20.015518 -0.200000
v 1.000004 20.015520 -0.200000
v 1.000004 -20.015518 0.200000
v 1.000004 20.015520 0.200000
v -1.000010 -20.015518 -0.200000
v -1.000010 20.015520 -0.200000
v -1.000010 -20.015518 0.200000
v -1.000010 20.015520 0.200000
v -68.999985 -20.015518 -0.200000
v -68.999985 20.015520 -0.200000
v -68.999985 -20.015518 0.200000
v -68.999985 20.015520 0.200000
v -70.999985 -20.015518 -0.200000
v -70.999985 20.015520 -0.200000
v -70.999985 -20.015518 0.200000
v -70.999985 20.015520 0.200000
v 107.238434 -14.999992 -0.110000
v -110.000000 -15.000004 -0.110000
v 107.238434 -14.999992 0.290000
v -110.000000 -15.000004 0.290000
v 107.238434 -16.999994 -0.110000
v -110.000000 -17.000002 -0.110000
v 107.238434 -16.999994 0.290000
v -110.000000 -17.000002 0.290000
v 107.808533 17.000002 -0.110000
v -110.000000 16.999994 -0.110000
v 107.808533 17.000002 0.290000
v -110.000000 16.999994 0.290000
v 107.808533 15.000000 -0.110000
v -110.000000 14.999994 -0.110000
v 107.808533 15.000000 0.290000
v -110.000000 14.999994 0.290000
v 107.479568 1.000006 -0.110000
v -110.000000 0.999994 -0.110000
v 107.479568 1.000006 0.290000
v -110.000000 0.999994 0.290000
v 107.479568 -0.999995 -0.110000
v -110.000000 -1.000005 -0.110000
v 107.479568 -0.999995 0.290000
v -110.000000 -1.000005 0.290000
v 0.749990 1.763282 0.040785
v 0.749990 1.763282 0.540784
v 0.749990 3.263281 0.040785
v -0.750004 1.763282 0.040785
v -0.750004 1.763282 0.540784
v -0.750004 3.263281 0.040785
v -0.750004 3.263281 0.540784
v 0.749990 3.263281 0.540784
v 50.749992 1.763282 0.040785
v 50.749992 1.763282 0.540784
v 50.749992 3.263281 0.040785
v 49.249992 1.763282 0.040785
v 49.249992 1.763282 0.540784
v 49.249992 3.263281 0.040785
v 49.249992 3.263281 0.540784
v 50.749992 3.263281 0.540784
v 73.999992 -20.015518 -0.200000
v 73.999992 20.015520 -0.200000
v 73.999992 -20.015518 0.200000
v 73.999992 20.015520 0.200000
v 72.000000 -20.015518 -0.200000
v 72.000000 20.015520 -0.200000
v 72.000000 -20.015518 0.200000
v 72.000000 20.015520 0.200000
v 50.749992 -14.246828 0.040785
v 50.749992 -14.246828 0.540784
v 50.749992 -12.746828 0.040785
v 49.249992 -14.246828 0.040785
v 49.249992 -14.246828 0.540784
v 49.249992 -12.746828 0.040785
v 49.249992 -12.746828 0.540784
v 50.749992 -12.746828 0.540784
v 73.753998 -14.246828 0.040785
v 73.753998 -14.246828 0.540784
v 73.753998 -12.746828 0.040785
v 72.254005 -14.246828 0.040785
v 72.254005 -14.246828 0.540784
v 72.254005 -12.746828 0.040785
v 72.254005 -12.746828 0.540784
v 73.753998 -12.746828 0.540784
v 0.749990 -14.328753 0.040785
v 0.749990 -14.328753 0.540784
v 0.749990 -12.828751 0.040785
v -0.750004 -14.328753 0.040785
v -0.750004 -14.328753 0.540784
v -0.750004 -12.828751 0.040785
v -0.750004 -12.828751 0.540784
v 0.749990 -12.828751 0.540784
v -29.254778 -14.328753 0.040785
v -29.254778 -14.328753 0.540784
v -29.254778 -12.828751 0.040785
v -30.754772 -14.328753 0.040785
v -30.754772 -14.328753 0.540784
v -30.754772 -12.828751 0.040785
v -30.754772 -12.828751 0.540784
v -29.254778 -12.828751 0.540784
v -69.249985 -14.328753 0.040785
v -69.249985 -14.328753 0.540784
v -69.249985 -12.828751 0.040785
v -70.749985 -14.328753 0.040785
v -70.749985 -14.328753 0.540784
v -70.749985 -12.828751 0.040785
v -70.749985 -12.828751 0.540784
v -69.249985 -12.828751 0.540784
v -69.249985 1.729655 0.040785
v -69.249985 1.729655 0.540784
v -69.249985 3.229656 0.040785
v -70.749985 1.729655 0.040785
v -70.749985 1.729655 0.540784
v -70.749985 3.229656 0.040785
v -70.749985 3.229656 0.540784
v -69.249985 3.229656 0.540784
v 109.013969 -20.015518 -0.200000
v 109.013969 20.015520 -0.200000
v 109.013969 -20.015518 0.549559
v 109.013969 20.015520 0.549559
v 107.013954 -20.015518 -0.200000
v 107.013954 20.015520 -0.200000
v 107.013954 -20.015518 0.549559
v 107.013954 20.015520 0.549559
v 105.350395 -20.015518 -0.205469
v 105.350395 20.015520 -0.205469
v 105.350395 -20.015518 0.194531
v 105.350395 20.015520 0.194531
v 104.950386 -20.015518 -0.205469
v 104.950386 20.015520 -0.205469
v 104.950386 -20.015518 0.194531
v 104.950386 20.015520 0.194531
v 75.109436 -20.015518 -0.233346
v 75.109436 20.015520 -0.233346
v 75.109436 -20.015518 0.166654
v 75.109436 20.015520 0.166654
v 74.709442 -20.015518 -0.233346
v 74.709442 20.015520 -0.233346
v 74.709442 -20.015518 0.166654
v 74.709442 20.015520 0.166654
v -29.000004 -20.015518 -0.200000
v -29.000004 20.015520 -0.200000
v -29.000004 -20.015518 0.200000
v -29.000004 20.015520 0.200000
v -31.000010 -20.015518 -0.200000
v -31.000010 20.015520 -0.200000
v -31.000010 -20.015518 0.200000
v -31.000010 20.015520 0.200000
v 27.020859 -20.015518 -0.200000
v 27.020859 20.015520 -0.200000
v 27.020859 -20.015518 0.200000
v 27.020859 20.015520 0.200000
v 25.020859 -20.015518 -0.200000
v 25.020859 20.015520 -0.200000
v 25.020859 -20.015518 0.200000
v 25.020859 20.015520 0.200000
v 26.643234 1.720529 0.040785
v 26.643234 1.720529 0.540784
v 26.643234 3.220528 0.040785
v 25.143230 1.720529 0.040785
v 25.143230 1.720529 0.540784
v 25.143230 3.220528 0.040785
v 25.143230 3.220528 0.540784
v 26.643234 3.220528 0.540784
v 26.643234 -14.330950 0.040785
v 26.643234 -14.330950 0.540784
v 26.643234 -12.830952 0.040785
v 25.143230 -14.330950 0.040785
v 25.143230 -14.330950 0.540784
v 25.143230 -12.830952 0.040785
v 25.143230 -12.830952 0.540784
v 26.643234 -12.830952 0.540784
v 105.252968 -0.566242 -0.372286
v 105.252968 0.566242 -0.372286
v 104.946526 -0.566242 -0.221750
v 104.946526 0.566242 -0.221750
v 74.904411 -0.566242 -0.301931
v 74.904411 0.566242 -0.301931
v 75.079391 -0.566242 -0.215356
v 75.079391 0.566242 -0.215356
v 105.252968 15.352909 -0.372286
v 105.252968 16.485394 -0.372286
v 104.946526 15.352909 -0.221750
v 104.946526 16.485394 -0.221750
v 74.904411 15.352909 -0.301931
v 74.904411 16.485394 -0.301931
v 75.079391 15.352909 -0.215356
v 75.079391 16.485394 -0.215356
v 105.252968 -20.527653 -0.372286
v 105.252968 -19.395166 -0.372286
v 104.946526 -20.527653 -0.221750
v 104.946526 -19.395166 -0.221750
v 74.904411 -20.527653 -0.301931
v 74.904411 -19.395166 -0.301931
v 75.079391 -20.527653 -0.215356
v 75.079391 -19.395166 -0.215356
vn -0.0000 -1.0000 -0.0000
vn 1.0000 -0.0000 -0.0000
vn -1.0000 -0.0000 -0.0000
vn -0.0000 1.0000 -0.0000
vn -0.0000 -0.0000 1.0000
vn -0.0000 -0.0000 -1.0000
vn 0.4409 -0.0000 0.8976
vn -0.4435 -0.0000 0.8963
vn -0.4434 -0.0000 0.8963
vn 0.4409 -0.0000 0.8975
vt 0.375000 0.500000
vt 0.125000 0.750000
vt 0.125000 0.500000
vt 0.625000 0.000000
vt 0.375000 0.250000
vt 0.375000 0.000000
vt 0.625000 0.500000
vt 0.375000 0.750000
vt 0.875000 0.500000
vt 0.625000 0.750000
vt 0.625000 0.250000
vt 0.375000 1.000000
vt 0.875000 0.750000
vt 0.625000 1.000000
s 0
usemtl マテリアル.002
f 5/1/1 1/2/1 2/3/1
f 3/4/2 2/5/2 1/6/2
f 7/7/3 4/8/3 5/1/3
f 8/9/4 6/10/4 7/7/4
f 8/11/5 5/1/5 2/5/5
f 10/4/2 11/5/2 9/6/2
f 12/11/5 15/1/5 11/5/5
f 16/7/3 13/8/3 15/1/3
f 14/10/6 9/12/6 13/8/6
f 15/1/1 9/2/1 11/3/1
f 12/9/4 14/10/4 16/7/4
f 21/1/1 17/2/1 18/3/1
f 19/4/2 18/5/2 17/6/2
f 23/7/3 20/8/3 21/1/3
f 24/9/4 22/10/4 23/7/4
f 24/11/5 21/1/5 18/5/5
f 26/4/2 27/5/2 25/6/2
f 28/11/5 31/1/5 27/5/5
f 32/7/3 29/8/3 31/1/3
f 30/10/6 25/12/6 29/8/6
f 31/1/1 25/2/1 27/3/1
f 28/9/4 30/10/4 32/7/4
f 34/4/2 35/5/2 33/6/2
f 36/11/5 39/1/5 35/5/5
f 40/7/3 37/8/3 39/1/3
f 38/10/6 33/12/6 37/8/6
f 39/1/1 33/2/1 35/3/1
f 36/9/4 38/10/4 40/7/4
f 42/4/4 43/5/4 41/6/4
f 44/11/5 47/1/5 43/5/5
f 48/7/1 45/8/1 47/1/1
f 46/10/6 41/12/6 45/8/6
f 47/1/2 41/2/2 43/3/2
f 44/9/3 46/10/3 48/7/3
f 50/4/4 51/5/4 49/6/4
f 52/11/5 55/1/5 51/5/5
f 56/7/1 53/8/1 55/1/1
f 54/10/6 49/12/6 53/8/6
f 55/1/2 49/2/2 51/3/2
f 52/9/3 54/10/3 56/7/3
f 58/4/4 59/5/4 57/6/4
f 60/11/5 63/1/5 59/5/5
f 64/7/1 61/8/1 63/1/1
f 62/10/6 57/12/6 61/8/6
f 63/1/2 57/2/2 59/3/2
f 60/9/3 62/10/3 64/7/3
f 69/1/1 65/2/1 66/3/1
f 67/4/2 66/5/2 65/6/2
f 71/7/3 68/8/3 69/1/3
f 72/9/4 70/10/4 71/7/4
f 72/11/5 69/1/5 66/5/5
f 77/1/1 73/2/1 74/3/1
f 75/4/2 74/5/2 73/6/2
f 79/7/3 76/8/3 77/1/3
f 80/9/4 78/10/4 79/7/4
f 80/11/5 77/1/5 74/5/5
f 82/4/2 83/5/2 81/6/2
f 84/11/5 87/1/5 83/5/5
f 88/7/3 85/8/3 87/1/3
f 86/10/6 81/12/6 85/8/6
f 87/1/1 81/2/1 83/3/1
f 84/9/4 86/10/4 88/7/4
f 93/1/1 89/2/1 90/3/1
f 91/4/2 90/5/2 89/6/2
f 95/7/3 92/8/3 93/1/3
f 96/9/4 94/10/4 95/7/4
f 96/11/5 93/1/5 90/5/5
f 101/1/1 97/2/1 98/3/1
f 99/4/2 98/5/2 97/6/2
f 103/7/3 100/8/3 101/1/3
f 104/9/4 102/10/4 103/7/4
f 104/11/5 101/1/5 98/5/5
f 109/1/1 105/2/1 106/3/1
f 107/4/2 106/5/2 105/6/2
f 111/7/3 108/8/3 109/1/3
f 112/9/4 110/10/4 111/7/4
f 112/11/5 109/1/5 106/5/5
f 117/1/1 113/2/1 114/3/1
f 115/4/2 114/5/2 113/6/2
f 119/7/3 116/8/3 117/1/3
f 120/9/4 118/10/4 119/7/4
f 120/11/5 117/1/5 114/5/5
f 125/1/1 121/2/1 122/3/1
f 123/4/2 122/5/2 121/6/2
f 127/7/3 124/8/3 125/1/3
f 128/9/4 126/10/4 127/7/4
f 128/11/5 125/1/5 122/5/5
f 133/1/1 129/2/1 130/3/1
f 131/4/2 130/5/2 129/6/2
f 135/7/3 132/8/3 133/1/3
f 136/9/4 134/10/4 135/7/4
f 136/11/5 133/1/5 130/5/5
f 138/4/2 139/5/2 137/6/2
f 140/11/5 143/1/5 139/5/5
f 144/7/3 141/8/3 143/1/3
f 142/10/6 137/12/6 141/8/6
f 143/1/1 137/2/1 139/3/1
f 140/9/4 142/10/4 144/7/4
f 146/4/2 147/5/2 145/6/2
f 148/11/5 151/1/5 147/5/5
f 152/7/3 149/8/3 151/1/3
f 150/10/6 145/12/6 149/8/6
f 151/1/1 145/2/1 147/3/1
f 148/9/4 150/10/4 152/7/4
f 154/4/2 155/5/2 153/6/2
f 156/11/5 159/1/5 155/5/5
f 160/7/3 157/8/3 159/1/3
f 158/10/6 153/12/6 157/8/6
f 159/1/1 153/2/1 155/3/1
f 156/9/4 158/10/4 160/7/4
f 162/4/2 163/5/2 161/6/2
f 164/11/5 167/1/5 163/5/5
f 168/7/3 165/8/3 167/1/3
f 166/10/6 161/12/6 165/8/6
f 167/1/1 161/2/1 163/3/1
f 164/9/4 166/10/4 168/7/4
f 170/4/2 171/5/2 169/6/2
f 172/11/5 175/1/5 171/5/5
f 176/7/3 173/8/3 175/1/3
f 174/10/6 169/12/6 173/8/6
f 175/1/1 169/2/1 171/3/1
f 172/9/4 174/10/4 176/7/4
f 181/1/1 177/2/1 178/3/1
f 179/4/2 178/5/2 177/6/2
f 183/7/3 180/8/3 181/1/3
f 184/9/4 182/10/4 183/7/4
f 184/11/5 181/1/5 178/5/5
f 189/1/1 185/2/1 186/3/1
f 187/4/2 186/5/2 185/6/2
f 191/7/3 188/8/3 189/1/3
f 192/9/4 190/10/4 191/7/4
f 192/11/5 189/1/5 186/5/5
f 194/4/7 195/5/7 193/6/7
f 200/7/8 197/8/8 199/1/8
f 202/4/7 203/5/7 201/6/7
f 208/7/9 205/8/9 207/1/9
f 210/4/7 211/5/7 209/6/7
f 216/7/8 213/8/8 215/1/8
f 5/1/1 4/8/1 1/2/1
f 3/4/2 8/11/2 2/5/2
f 7/7/3 6/10/3 4/8/3
f 8/9/4 3/13/4 6/10/4
f 8/11/5 7/7/5 5/1/5
f 10/4/2 12/11/2 11/5/2
f 12/11/5 16/7/5 15/1/5
f 16/7/3 14/10/3 13/8/3
f 14/10/6 10/14/6 9/12/6
f 15/1/1 13/8/1 9/2/1
f 12/9/4 10/13/4 14/10/4
f 21/1/1 20/8/1 17/2/1
f 19/4/2 24/11/2 18/5/2
f 23/7/3 22/10/3 20/8/3
f 24/9/4 19/13/4 22/10/4
f 24/11/5 23/7/5 21/1/5
f 26/4/2 28/11/2 27/5/2
f 28/11/5 32/7/5 31/1/5
f 32/7/3 30/10/3 29/8/3
f 30/10/6 26/14/6 25/12/6
f 31/1/1 29/8/1 25/2/1
f 28/9/4 26/13/4 30/10/4
f 34/4/2 36/11/2 35/5/2
f 36/11/5 40/7/5 39/1/5
f 40/7/3 38/10/3 37/8/3
f 38/10/6 34/14/6 33/12/6
f 39/1/1 37/8/1 33/2/1
f 36/9/4 34/13/4 38/10/4
f 42/4/4 44/11/4 43/5/4
f 44/11/5 48/7/5 47/1/5
f 48/7/1 46/10/1 45/8/1
f 46/10/6 42/14/6 41/12/6
f 47/1/2 45/8/2 41/2/2
f 44/9/3 42/13/3 46/10/3
f 50/4/4 52/11/4 51/5/4
f 52/11/5 56/7/5 55/1/5
f 56/7/1 54/10/1 53/8/1
f 54/10/6 50/14/6 49/12/6
f 55/1/2 53/8/2 49/2/2
f 52/9/3 50/13/3 54/10/3
f 58/4/4 60/11/4 59/5/4
f 60/11/5 64/7/5 63/1/5
f 64/7/1 62/10/1 61/8/1
f 62/10/6 58/14/6 57/12/6
f 63/1/2 61/8/2 57/2/2
f 60/9/3 58/13/3 62/10/3
f 69/1/1 68/8/1 65/2/1
f 67/4/2 72/11/2 66/5/2
f 71/7/3 70/10/3 68/8/3
f 72/9/4 67/13/4 70/10/4
f 72/11/5 71/7/5 69/1/5
f 77/1/1 76/8/1 73/2/1
f 75/4/2 80/11/2 74/5/2
f 79/7/3 78/10/3 76/8/3
f 80/9/4 75/13/4 78/10/4
f 80/11/5 79/7/5 77/1/5
f 82/4/2 84/11/2 83/5/2
f 84/11/5 88/7/5 87/1/5
f 88/7/3 86/10/3 85/8/3
f 86/10/6 82/14/6 81/12/6
f 87/1/1 85/8/1 81/2/1
f 84/9/4 82/13/4 86/10/4
f 93/1/1 92/8/1 89/2/1
f 91/4/2 96/11/2 90/5/2
f 95/7/3 94/10/3 92/8/3
f 96/9/4 91/13/4 94/10/4
f 96/11/5 95/7/5 93/1/5
f 101/1/1 100/8/1 97/2/1
f 99/4/2 104/11/2 98/5/2
f 103/7/3 102/10/3 100/8/3
f 104/9/4 99/13/4 102/10/4
f 104/11/5 103/7/5 101/1/5
f 109/1/1 108/8/1 105/2/1
f 107/4/2 112/11/2 106/5/2
f 111/7/3 110/10/3 108/8/3
f 112/9/4 107/13/4 110/10/4
f 112/11/5 111/7/5 109/1/5
f 117/1/1 116/8/1 113/2/1
f 115/4/2 120/11/2 114/5/2
f 119/7/3 118/10/3 116/8/3
f 120/9/4 115/13/4 118/10/4
f 120/11/5 119/7/5 117/1/5
f 125/1/1 124/8/1 121/2/1
f 123/4/2 128/11/2 122/5/2
f 127/7/3 126/10/3 124/8/3
f 128/9/4 123/13/4 126/10/4
f 128/11/5 127/7/5 125/1/5
f 133/1/1 132/8/1 129/2/1
f 131/4/2 136/11/2 130/5/2
f 135/7/3 134/10/3 132/8/3
f 136/9/4 131/13/4 134/10/4
f 136/11/5 135/7/5 133/1/5
f 138/4/2 140/11/2 139/5/2
f 140/11/5 144/7/5 143/1/5
f 144/7/3 142/10/3 141/8/3
f 142/10/6 138/14/6 137/12/6
f 143/1/1 141/8/1 137/2/1
f 140/9/4 138/13/4 142/10/4
f 146/4/2 148/11/2 147/5/2
f 148/11/5 152/7/5 151/1/5
f 152/7/3 150/10/3 149/8/3
f 150/10/6 146/14/6 145/12/6
f 151/1/1 149/8/1 145/2/1
f 148/9/4 146/13/4 150/10/4
f 154/4/2 156/11/2 155/5/2
f 156/11/5 160/7/5 159/1/5
f 160/7/3 158/10/3 157/8/3
f 158/10/6 154/14/6 153/12/6
f 159/1/1 157/8/1 153/2/1
f 156/9/4 154/13/4 158/10/4
f 162/4/2 164/11/2 163/5/2
f 164/11/5 168/7/5 167/1/5
f 168/7/3 166/10/3 165/8/3
f 166/10/6 162/14/6 161/12/6
f 167/1/1 165/8/1 161/2/1
f 164/9/4 162/13/4 166/10/4
f 170/4/2 172/11/2 171/5/2
f 172/11/5 176/7/5 175/1/5
f 176/7/3 174/10/3 173/8/3
f 174/10/6 170/14/6 169/12/6
f 175/1/1 173/8/1 169/2/1
f 172/9/4 170/13/4 174/10/4
f 181/1/1 180/8/1 177/2/1
f 179/4/2 184/11/2 178/5/2
f 183/7/3 182/10/3 180/8/3
f 184/9/4 179/13/4 182/10/4
f 184/11/5 183/7/5 181/1/5
f 189/1/1 188/8/1 185/2/1
f 187/4/2 192/11/2 186/5/2
f 191/7/3 190/10/3 188/8/3
f 192/9/4 187/13/4 190/10/4
f 192/11/5 191/7/5 189/1/5
f 194/4/7 196/11/7 195/5/7
f 200/7/8 198/10/8 197/8/8
f 202/4/7 204/11/7 203/5/7
f 208/7/8 206/10/8 205/8/8
f 210/4/10 212/11/10 211/5/10
f 216/7/8 214/10/8 213/8/8
o 円柱
v -110.000000 20.000010 0.000005
v -110.000000 -19.999994 0.000005
v 110.000000 19.999994 -0.000005
v 110.000000 -20.000010 -0.000005
v 74.921524 -20.000008 -0.000003
v 74.892960 -20.000010 -0.000005
v 74.921516 19.999996 -0.000003
v 74.892944 19.999994 -0.000005
v -24.634575 12.187758 0.000001
v -19.199577 12.187757 0.000001
v -12.126648 12.187757 0.000001
v -6.691650 12.187757 0.000000
v 2.985985 7.713912 -0.000000
v -6.691650 7.992990 0.000000
v 2.985985 11.908679 -0.000000
v 21.032257 8.343323 -0.000001
v 21.032257 11.908679 -0.000001
v -46.490158 -3.683526 0.000002
v -43.772675 -3.683526 0.000002
v -24.634575 3.798220 0.000001
v -41.055176 -3.683526 0.000002
v -21.917068 3.798220 0.000001
v -19.199577 3.798220 0.000001
v -12.126648 3.798220 0.000001
v -6.691650 3.798221 0.000000
v -57.717499 -3.683526 0.000003
v -52.282501 -3.683527 0.000002
v 58.210171 13.789446 -0.000003
v 65.283096 13.789446 -0.000003
v 70.718094 13.789448 -0.000003
v 52.775181 13.789446 -0.000002
v 52.775181 9.594687 -0.000002
v 2.985985 3.519142 -0.000000
v 21.032257 3.519142 -0.000001
v 52.775181 5.399909 -0.000002
v 58.210171 5.399910 -0.000003
v 65.283096 5.399909 -0.000003
v 70.718094 5.399910 -0.000003
v 29.195435 -2.894810 -0.000001
v 47.241711 -2.894811 -0.000002
v -57.717499 -12.073061 0.000003
v -52.282501 -12.073063 0.000002
v -46.490158 -12.073063 0.000002
v -41.055176 -12.073060 0.000002
v 29.195435 -11.284347 -0.000001
v 47.241711 -11.284348 -0.000002
vn -0.0000 -0.0000 1.0000
vt 0.801827 0.288681
vt 0.592088 0.262352
vt 0.801827 0.262352
vt 0.300175 0.469583
vt 0.202283 0.513573
vt 0.195306 0.469583
vt 0.572370 0.714735
vt 0.365002 0.821446
vt 0.365002 0.796741
vt 1.000000 0.000000
vt 0.801827 0.237648
vt 0.592088 0.237648
vt 0.405045 0.444879
vt 0.195306 0.412729
vt 0.405045 0.412729
vt 0.405045 0.388025
vt 0.592088 0.313386
vt 0.405045 0.400377
vt 1.000000 0.977629
vt 0.000000 1.000000
vt 0.000000 0.977629
vt 0.592088 0.288681
vt 0.307152 0.513573
vt 0.291417 0.595601
vt 0.412021 0.595601
vt 0.572370 0.632707
vt 0.782109 0.714735
vt 1.000000 0.840552
vt 0.365002 0.739887
vt 0.260133 0.739887
vt 0.365002 0.764592
vt 0.000000 0.840552
vt 0.155264 0.821446
vt 0.155264 0.796741
vt 0.782109 0.632707
vt 0.000000 0.000000
vt 0.155264 0.764592
vt 0.412021 0.513573
vt 0.405044 0.469583
vt 0.155264 0.739887
vt 0.202283 0.595601
vt 0.195306 0.388025
vt 0.195306 0.444879
vt 0.801827 0.313386
vt 0.592088 0.301033
vt 1.000000 1.000000
s 0
usemtl マテリアル.001
f 259/15/11 243/16/11 258/17/11
f 230/18/11 231/19/11 228/20/11
f 256/21/11 254/22/11 253/23/11
f 218/24/11 257/25/11 242/26/11
f 240/27/11 226/28/11 239/29/11
f 236/30/11 237/31/11 238/32/11
f 222/33/11 219/34/11 224/35/11
f 259/15/11 234/36/11 243/16/11
f 230/18/11 229/37/11 231/19/11
f 232/38/11 250/39/11 255/40/11
f 256/21/11 262/41/11 221/42/11
f 232/38/11 255/40/11 256/21/11
f 251/43/11 248/44/11 232/38/11
f 253/23/11 252/45/11 251/43/11
f 223/46/11 246/47/11 254/22/11
f 221/42/11 223/46/11 254/22/11
f 251/43/11 232/38/11 256/21/11
f 256/21/11 221/42/11 254/22/11
f 253/23/11 251/43/11 256/21/11
f 245/48/11 246/47/11 223/46/11
f 218/24/11 221/42/11 262/41/11
f 261/49/11 255/40/11 250/39/11
f 218/24/11 262/41/11 261/49/11
f 245/48/11 223/46/11 217/50/11
f 252/45/11 253/23/11 245/48/11
f 244/51/11 252/45/11 245/48/11
f 261/49/11 250/39/11 249/52/11
f 249/52/11 229/37/11 230/18/11
f 249/52/11 230/18/11 241/53/11
f 244/51/11 245/48/11 217/50/11
f 232/38/11 248/44/11 247/54/11
f 247/54/11 244/51/11 217/50/11
f 261/49/11 249/52/11 241/53/11
f 261/49/11 241/53/11 240/27/11
f 233/55/11 232/38/11 247/54/11
f 228/20/11 231/19/11 233/55/11
f 225/56/11 226/28/11 227/57/11
f 228/20/11 233/55/11 247/54/11
f 227/57/11 228/20/11 247/54/11
f 261/49/11 240/27/11 239/29/11
f 239/29/11 238/32/11 237/31/11
f 239/29/11 237/31/11 260/58/11
f 227/57/11 247/54/11 217/50/11
f 235/59/11 236/30/11 225/56/11
f 225/56/11 227/57/11 217/50/11
f 261/49/11 239/29/11 260/58/11
f 218/24/11 261/49/11 260/58/11
f 225/56/11 217/50/11 218/24/11
f 234/36/11 235/59/11 225/56/11
f 242/26/11 243/16/11 234/36/11
f 242/26/11 234/36/11 225/56/11
f 218/24/11 260/58/11 259/15/11
f 218/24/11 259/15/11 258/17/11
f 242/26/11 225/56/11 218/24/11
f 218/24/11 258/17/11 257/25/11
f 240/27/11 227/57/11 226/28/11
f 236/30/11 235/59/11 237/31/11
f 222/33/11 220/60/11 219/34/11
o 立方体.044
v -52.282501 -12.073063 -0.150000
v -52.282501 -12.073063 0.150000
v -52.282501 -3.683526 -0.150000
v -57.717495 -12.073063 -0.150000
v -57.717495 -12.073063 0.150000
v -57.717495 -3.683526 -0.150000
v -57.717495 -3.683526 0.150000
v -52.282501 -3.683526 0.150000
v 70.718086 5.399909 -0.150000
v 70.718086 13.789444 -0.150000
v 70.718086 5.399909 0.150000
v 70.718086 13.789444 0.150000
v 65.283096 5.399909 -0.150000
v 65.283096 13.789444 -0.150000
v 65.283096 5.399909 0.150000
v 65.283096 13.789444 0.150000
v 58.210175 5.399909 -0.150000
v 58.210175 5.399909 0.150000
v 58.210175 13.789444 -0.150000
v 52.775181 5.399909 -0.150000
v 52.775181 5.399909 0.150000
v 52.775181 13.789444 -0.150000
v 52.775181 13.789444 0.150000
v 58.210175 13.789444 0.150000
v 47.241707 -11.284348 -0.150000
v 47.241707 -11.284348 0.150000
v 47.241707 -2.894811 -0.150000
v 29.195435 -11.284348 -0.150000
v 29.195435 -11.284348 0.150000
v 29.195435 -2.894811 -0.150000
v 29.195435 -2.894811 0.150000
v 47.241707 -2.894811 0.150000
v -6.691656 3.798219 -0.150000
v -6.691656 3.798219 0.150000
v -6.691656 12.187756 -0.150000
v -12.126650 3.798219 -0.150000
v -12.126650 3.798219 0.150000
v -12.126650 12.187756 -0.150000
v -12.126650 12.187756 0.150000
v -6.691656 12.187756 0.150000
v -19.199581 3.798219 -0.150000
v -19.199581 3.798219 0.150000
v -19.199581 12.187756 -0.150000
v -24.634575 3.798219 -0.150000
v -24.634575 3.798219 0.150000
v -24.634575 12.187756 -0.150000
v -24.634575 12.187756 0.150000
v -19.199581 12.187756 0.150000
v -41.055161 -12.073063 -0.150000
v -41.055161 -12.073063 0.150000
v -41.055161 -3.683526 -0.150000
v -46.490154 -12.073063 -0.150000
v -46.490154 -12.073063 0.150000
v -46.490154 -3.683526 -0.150000
v -46.490154 -3.683526 0.150000
v -41.055161 -3.683526 0.150000
v 21.032257 3.519141 -0.150000
v 21.032257 3.519141 0.150000
v 21.032257 11.908676 -0.150000
v 2.985985 3.519141 -0.150000
v 2.985985 3.519141 0.150000
v 2.985985 11.908676 -0.150000
v 2.985985 11.908676 0.150000
v 21.032257 11.908676 0.150000
v -52.690659 -4.210452 -0.150000
v -57.309338 -4.210452 -0.150000
v -52.690659 -11.546135 -0.150000
v -57.309338 -11.546135 -0.150000
v -57.309338 -4.210452 0.150000
v -52.690659 -4.210452 0.150000
v -52.690659 -11.546135 0.150000
v -57.309338 -11.546135 0.150000
v 65.691559 13.383121 0.150000
v 70.309624 13.383121 0.150000
v 70.309624 5.806231 0.150000
v 65.691559 5.806231 0.150000
v 70.309624 13.383121 -0.150000
v 65.691559 13.383121 -0.150000
v 70.309624 5.806231 -0.150000
v 65.691559 5.806231 -0.150000
v 57.780029 13.383121 -0.150000
v 53.161972 13.383121 -0.150000
v 57.780029 5.806231 -0.150000
v 53.161972 5.806231 -0.150000
v 53.161972 13.383121 0.150000
v 57.780029 13.383121 0.150000
v 57.780029 5.806231 0.150000
v 53.161972 5.806231 0.150000
v 29.639221 -10.696327 -0.150000
v 29.639221 -3.482831 -0.150000
v 46.797920 -10.696327 -0.150000
v 46.797920 -3.482831 -0.150000
v 46.797920 -10.696327 0.150000
v 46.797920 -3.482831 0.150000
v 29.639221 -10.696327 0.150000
v 29.639221 -3.482831 0.150000
v -7.056311 11.702206 -0.150000
v -11.761974 11.702206 -0.150000
v -7.056311 4.283767 -0.150000
v -11.761974 4.283767 -0.150000
v -11.761974 11.702206 0.150000
v -7.056311 11.702206 0.150000
v -7.056311 4.283767 0.150000
v -11.761974 4.283767 0.150000
v -19.500353 11.874302 -0.150000
v -24.333794 11.874302 -0.150000
v -19.500353 4.111671 -0.150000
v -24.333794 4.111671 -0.150000
v -24.333794 11.874302 0.150000
v -19.500353 11.874302 0.150000
v -19.500353 4.111671 0.150000
v -24.333794 4.111671 0.150000
v -41.434418 -3.996083 -0.150000
v -46.110912 -3.996083 -0.150000
v -41.434418 -11.760508 -0.150000
v -46.110912 -11.760508 -0.150000
v -46.110912 -3.996083 0.150000
v -41.434418 -3.996083 0.150000
v -41.434418 -11.760508 0.150000
v -46.110912 -11.760508 0.150000
v 3.367588 3.954569 -0.150000
v 3.367588 11.473249 -0.150000
v 20.650658 3.954569 -0.150000
v 20.650658 11.473249 -0.150000
v 20.650658 3.954569 0.150000
v 20.650658 11.473249 0.150000
v 3.367588 3.954569 0.150000
v 3.367588 11.473249 0.150000
v 70.460999 12.181906 -0.121605
v 70.460999 12.354170 -0.121605
v 70.460999 12.181906 0.121605
v 70.460999 12.354170 0.121605
v 65.536850 12.181906 -0.121605
v 65.536850 12.354170 -0.121605
v 65.536850 12.181906 0.121605
v 65.536850 12.354170 0.121605
v 70.460999 6.910017 -0.121605
v 70.460999 7.082280 -0.121605
v 70.460999 6.910017 0.121605
v 70.460999 7.082280 0.121605
v 65.536850 6.910017 -0.121605
v 65.536850 7.082280 -0.121605
v 65.536850 6.910017 0.121605
v 65.536850 7.082280 0.121605
v 70.460999 8.856119 -0.121605
v 70.460999 9.028381 -0.121605
v 70.460999 8.856119 0.121605
v 70.460999 9.028381 0.121605
v 65.536850 8.856119 -0.121605
v 65.536850 9.028381 -0.121605
v 65.536850 8.856119 0.121605
v 65.536850 9.028381 0.121605
v 70.460999 10.856659 -0.121605
v 70.460999 11.028921 -0.121605
v 70.460999 10.856659 0.121605
v 70.460999 11.028921 0.121605
v 65.536850 10.856659 -0.121605
v 65.536850 11.028921 -0.121605
v 65.536850 10.856659 0.121605
v 65.536850 11.028921 0.121605
v 68.974312 5.551133 -0.185090
v 69.146568 5.551133 -0.185090
v 68.974312 5.551133 0.058121
v 69.146568 5.551133 0.058121
v 68.974312 13.449314 -0.185090
v 69.146568 13.449314 -0.185090
v 68.974312 13.449314 0.058121
v 69.146568 13.449314 0.058121
v 66.810455 5.551133 -0.185090
v 66.982712 5.551133 -0.185090
v 66.810455 5.551133 0.058121
v 66.982712 5.551133 0.058121
v 66.810455 13.449314 -0.185090
v 66.982727 13.449314 -0.185090
v 66.810455 13.449314 0.058121
v 66.982727 13.449314 0.058121
v 57.956478 12.181906 -0.121605
v 57.956478 12.354170 -0.121605
v 57.956478 12.181906 0.121605
v 57.956478 12.354170 0.121605
v 53.032330 12.181906 -0.121605
v 53.032330 12.354170 -0.121605
v 53.032330 12.181906 0.121605
v 53.032330 12.354170 0.121605
v 57.956478 6.910017 -0.121605
v 57.956478 7.082280 -0.121605
v 57.956478 6.910017 0.121605
v 57.956478 7.082280 0.121605
v 53.032330 6.910017 -0.121605
v 53.032330 7.082280 -0.121605
v 53.032330 6.910017 0.121605
v 53.032330 7.082280 0.121605
v 57.956478 8.856119 -0.121605
v 57.956478 9.028381 -0.121605
v 57.956478 8.856119 0.121605
v 57.956478 9.028381 0.121605
v 53.032330 8.856119 -0.121605
v 53.032330 9.028381 -0.121605
v 53.032330 8.856119 0.121605
v 53.032330 9.028381 0.121605
v 57.956478 10.856659 -0.121605
v 57.956478 11.028921 -0.121605
v 57.956478 10.856659 0.121605
v 57.956478 11.028921 0.121605
v 53.032330 10.856659 -0.121605
v 53.032330 11.028921 -0.121605
v 53.032330 10.856659 0.121605
v 53.032330 11.028921 0.121605
v 56.469788 5.551133 -0.185090
v 56.642044 5.551133 -0.185090
v 56.469788 5.551133 0.058121
v 56.642044 5.551133 0.058121
v 56.469788 13.449314 -0.185090
v 56.642044 13.449314 -0.185090
v 56.469788 13.449314 0.058121
v 56.642044 13.449314 0.058121
v 54.305927 5.551133 -0.185090
v 54.478188 5.551133 -0.185090
v 54.305927 5.551133 0.058121
v 54.478188 5.551133 0.058121
v 54.305927 13.449314 -0.185090
v 54.478199 13.449314 -0.185090
v 54.305927 13.449314 0.058121
v 54.478199 13.449314 0.058121
v -6.989452 10.744785 -0.121605
v -6.989452 10.917049 -0.121605
v -6.989452 10.744785 0.121605
v -6.989452 10.917049 0.121605
v -11.913599 10.744785 -0.121605
v -11.913599 10.917049 -0.121605
v -11.913599 10.744785 0.121605
v -11.913599 10.917049 0.121605
v -6.989452 5.472896 -0.121605
v -6.989452 5.645159 -0.121605
v -6.989452 5.472896 0.121605
v -6.989452 5.645159 0.121605
v -11.913599 5.472896 -0.121605
v -11.913599 5.645159 -0.121605
v -11.913599 5.472896 0.121605
v -11.913599 5.645159 0.121605
v -6.989452 7.418999 -0.121605
v -6.989452 7.591260 -0.121605
v -6.989452 7.418999 0.121605
v -6.989452 7.591260 0.121605
v -11.913599 7.418999 -0.121605
v -11.913599 7.591260 -0.121605
v -11.913599 7.418999 0.121605
v -11.913599 7.591260 0.121605
v -6.989452 9.419537 -0.121605
v -6.989452 9.591801 -0.121605
v -6.989452 9.419537 0.121605
v -6.989452 9.591801 0.121605
v -11.913599 9.419537 -0.121605
v -11.913599 9.591801 -0.121605
v -11.913599 9.419537 0.121605
v -11.913599 9.591801 0.121605
v -8.476149 4.114012 -0.185090
v -8.303885 4.114012 -0.185090
v -8.476149 4.114012 0.058121
v -8.303885 4.114012 0.058121
v -8.476149 12.012194 -0.185090
v -8.303885 12.012194 -0.185090
v -8.476149 12.012194 0.058121
v -8.303885 12.012194 0.058121
v -10.640000 4.114012 -0.185090
v -10.467736 4.114012 -0.185090
v -10.640000 4.114012 0.058121
v -10.467736 4.114012 0.058121
v -10.640000 12.012194 -0.185090
v -10.467736 12.012194 -0.185090
v -10.640000 12.012194 0.058121
v -10.467736 12.012194 0.058121
v -19.451340 10.744785 -0.121605
v -19.451340 10.917049 -0.121605
v -19.451340 10.744785 0.121605
v -19.451340 10.917049 0.121605
v -24.375486 10.744785 -0.121605
v -24.375486 10.917049 -0.121605
v -24.375486 10.744785 0.121605
v -24.375486 10.917049 0.121605
v -19.451340 5.472896 -0.121605
v -19.451340 5.645159 -0.121605
v -19.451340 5.472896 0.121605
v -19.451340 5.645159 0.121605
v -24.375486 5.472896 -0.121605
v -24.375486 5.645159 -0.121605
v -24.375486 5.472896 0.121605
v -24.375486 5.645159 0.121605
v -19.451340 7.418999 -0.121605
v -19.451340 7.591260 -0.121605
v -19.451340 7.418999 0.121605
v -19.451340 7.591260 0.121605
v -24.375486 7.418999 -0.121605
v -24.375486 7.591260 -0.121605
v -24.375486 7.418999 0.121605
v -24.375486 7.591260 0.121605
v -19.451340 9.419537 -0.121605
v -19.451340 9.591801 -0.121605
v -19.451340 9.419537 0.121605
v -19.451340 9.591801 0.121605
v -24.375486 9.419537 -0.121605
v -24.375486 9.591801 -0.121605
v -24.375486 9.419537 0.121605
v -24.375486 9.591801 0.121605
v -20.938034 4.114012 -0.185090
v -20.765772 4.114012 -0.185090
v -20.938034 4.114012 0.058121
v -20.765772 4.114012 0.058121
v -20.938034 12.012194 -0.185090
v -20.765772 12.012194 -0.185090
v -20.938034 12.012194 0.058121
v -20.765772 12.012194 0.058121
v -23.101889 4.114012 -0.185090
v -22.929625 4.114012 -0.185090
v -23.101889 4.114012 0.058121
v -22.929625 4.114012 0.058121
v -23.101885 12.012194 -0.185090
v -22.929625 12.012194 -0.185090
v -23.101885 12.012194 0.058121
v -22.929625 12.012194 0.058121
v -41.366932 -5.231683 -0.121605
v -41.366932 -5.059421 -0.121605
v -41.366932 -5.231683 0.121605
v -41.366932 -5.059421 0.121605
v -46.291080 -5.231683 -0.121605
v -46.291080 -5.059421 -0.121605
v -46.291080 -5.231683 0.121605
v -46.291080 -5.059421 0.121605
v -41.366932 -10.503574 -0.121605
v -41.366932 -10.331312 -0.121605
v -41.366932 -10.503574 0.121605
v -41.366932 -10.331312 0.121605
v -46.291080 -10.503574 -0.121605
v -46.291080 -10.331312 -0.121605
v -46.291080 -10.503574 0.121605
v -46.291080 -10.331312 0.121605
v -41.366932 -8.557472 -0.121605
v -41.366932 -8.385208 -0.121605
v -41.366932 -8.557472 0.121605
v -41.366932 -8.385208 0.121605
v -46.291080 -8.557472 -0.121605
v -46.291080 -8.385208 -0.121605
v -46.291080 -8.557472 0.121605
v -46.291080 -8.385208 0.121605
v -41.366932 -6.556933 -0.121605
v -41.366932 -6.384670 -0.121605
v -41.366932 -6.556933 0.121605
v -41.366932 -6.384670 0.121605
v -46.291080 -6.556933 -0.121605
v -46.291080 -6.384670 -0.121605
v -46.291080 -6.556933 0.121605
v -46.291080 -6.384670 0.121605
v -42.853630 -11.862457 -0.185090
v -42.681366 -11.862457 -0.185090
v -42.853630 -11.862457 0.058121
v -42.681366 -11.862457 0.058121
v -42.853630 -3.964276 -0.185090
v -42.681366 -3.964276 -0.185090
v -42.853630 -3.964276 0.058121
v -42.681366 -3.964276 0.058121
v -45.017479 -11.862457 -0.185090
v -44.845215 -11.862457 -0.185090
v -45.017479 -11.862457 0.058121
v -44.845215 -11.862457 0.058121
v -45.017479 -3.964276 -0.185090
v -44.845215 -3.964276 -0.185090
v -45.017479 -3.964276 0.058121
v -44.845215 -3.964276 0.058121
v -52.520962 -5.231683 -0.121605
v -52.520962 -5.059421 -0.121605
v -52.520962 -5.231683 0.121605
v -52.520962 -5.059421 0.121605
v -57.445107 -5.231683 -0.121605
v -57.445107 -5.059421 -0.121605
v -57.445107 -5.231683 0.121605
v -57.445107 -5.059421 0.121605
v -52.520962 -10.503574 -0.121605
v -52.520962 -10.331312 -0.121605
v -52.520962 -10.503574 0.121605
v -52.520962 -10.331312 0.121605
v -57.445107 -10.503574 -0.121605
v -57.445107 -10.331312 -0.121605
v -57.445107 -10.503574 0.121605
v -57.445107 -10.331312 0.121605
v -52.520962 -8.557472 -0.121605
v -52.520962 -8.385208 -0.121605
v -52.520962 -8.557472 0.121605
v -52.520962 -8.385208 0.121605
v -57.445107 -8.557472 -0.121605
v -57.445107 -8.385208 -0.121605
v -57.445107 -8.557472 0.121605
v -57.445107 -8.385208 0.121605
v -52.520962 -6.556933 -0.121605
v -52.520962 -6.384670 -0.121605
v -52.520962 -6.556933 0.121605
v -52.520962 -6.384670 0.121605
v -57.445107 -6.556933 -0.121605
v -57.445107 -6.384670 -0.121605
v -57.445107 -6.556933 0.121605
v -57.445107 -6.384670 0.121605
v -54.007656 -11.862457 -0.185090
v -53.835392 -11.862457 -0.185090
v -54.007656 -11.862457 0.058121
v -53.835392 -11.862457 0.058121
v -54.007656 -3.964276 -0.185090
v -53.835392 -3.964276 -0.185090
v -54.007656 -3.964276 0.058121
v -53.835392 -3.964276 0.058121
v -56.171509 -11.862457 -0.185090
v -55.999245 -11.862457 -0.185090
v -56.171509 -11.862457 0.058121
v -55.999245 -11.862457 0.058121
v -56.171509 -3.964276 -0.185090
v -55.999245 -3.964276 -0.185090
v -56.171509 -3.964276 0.058121
v -55.999245 -3.964276 0.058121
v 1.800977 3.965913 0.040784
v 1.800977 4.184169 0.040784
v 1.800977 3.965913 0.651158
v 1.800977 4.184169 0.651158
v -1.800972 3.965913 0.040784
v -1.800972 4.184169 0.040784
v -1.800972 3.965913 0.651158
v -1.800972 4.184169 0.651158
v 1.500004 1.013282 -0.099174
v 1.500004 1.013282 0.400826
v 1.500004 4.013282 -0.099174
v 1.500004 4.013282 0.400826
v -1.499999 4.013282 0.400826
v -1.499999 1.013282 0.400826
v -1.499999 4.013282 -0.099174
v -1.499999 1.013282 -0.099174
v 1.800977 0.981062 0.040784
v 1.800977 0.981062 0.651158
v 1.800977 1.199318 0.040784
v -1.800972 0.981062 0.040784
v -1.800972 0.981062 0.651158
v -1.800972 1.199318 0.040784
v -1.800972 1.199318 0.651158
v 1.800977 1.199318 0.651158
v 1.669003 3.761147 0.040784
v 1.669003 3.761147 0.540784
v 1.669003 3.979403 0.040784
v -1.668998 3.761147 0.040784
v -1.668998 3.761147 0.540784
v -1.668998 3.979403 0.040784
v -1.668998 3.979403 0.540784
v 1.669003 3.979403 0.540784
v 1.669003 1.185827 0.040784
v 1.669003 1.185827 0.540784
v 1.669003 1.404083 0.040784
v -1.668998 1.185827 0.040784
v -1.668998 1.185827 0.540784
v -1.668998 1.404083 0.040784
v -1.668998 1.404083 0.540784
v 1.669003 1.404083 0.540784
v 74.801003 3.965913 0.040784
v 74.801003 4.184169 0.040784
v 74.801003 3.965913 0.651158
v 74.801003 4.184169 0.651158
v 71.199036 3.965913 0.040784
v 71.199036 4.184169 0.040784
v 71.199036 3.965913 0.651158
v 71.199036 4.184169 0.651158
v 74.500023 1.013282 -0.099174
v 74.500023 1.013282 0.400826
v 74.500023 4.013282 -0.099174
v 74.500023 4.013282 0.400826
v 71.500015 4.013282 0.400826
v 71.500015 1.013282 0.400826
v 71.500015 4.013282 -0.099174
v 71.500015 1.013282 -0.099174
v 74.801003 0.981062 0.040784
v 74.801003 0.981062 0.651158
v 74.801003 1.199318 0.040784
v 71.199036 0.981062 0.040784
v 71.199036 0.981062 0.651158
v 71.199036 1.199318 0.040784
v 71.199036 1.199318 0.651158
v 74.801003 1.199318 0.651158
v 74.669022 3.761147 0.040784
v 74.669022 3.761147 0.540784
v 74.669022 3.979403 0.040784
v 71.331017 3.761147 0.040784
v 71.331017 3.761147 0.540784
v 71.331017 3.979403 0.040784
v 71.331017 3.979403 0.540784
v 74.669022 3.979403 0.540784
v 74.669022 1.185827 0.040784
v 74.669022 1.185827 0.540784
v 74.669022 1.404083 0.040784
v 71.331017 1.185827 0.040784
v 71.331017 1.185827 0.540784
v 71.331017 1.404083 0.040784
v 71.331017 1.404083 0.540784
v 74.669022 1.404083 0.540784
v 51.800987 3.965913 0.040784
v 51.800987 4.184169 0.040784
v 51.800987 3.965913 0.651158
v 51.800987 4.184169 0.651158
v 48.199024 3.965913 0.040784
v 48.199024 4.184169 0.040784
v 48.199024 3.965913 0.651158
v 48.199024 4.184169 0.651158
v 51.500008 1.013282 -0.099174
v 51.500008 1.013282 0.400826
v 51.500008 4.013282 -0.099174
v 51.500008 4.013282 0.400826
v 48.500004 4.013282 0.400826
v 48.500004 1.013282 0.400826
v 48.500004 4.013282 -0.099174
v 48.500004 1.013282 -0.099174
v 51.800987 0.981062 0.040784
v 51.800987 0.981062 0.651158
v 51.800987 1.199318 0.040784
v 48.199024 0.981062 0.040784
v 48.199024 0.981062 0.651158
v 48.199024 1.199318 0.040784
v 48.199024 1.199318 0.651158
v 51.800987 1.199318 0.651158
v 51.669010 3.761147 0.040784
v 51.669010 3.761147 0.540784
v 51.669010 3.979403 0.040784
v 48.331001 3.761147 0.040784
v 48.331001 3.761147 0.540784
v 48.331001 3.979403 0.040784
v 48.331001 3.979403 0.540784
v 51.669010 3.979403 0.540784
v 51.669010 1.185827 0.040784
v 51.669010 1.185827 0.540784
v 51.669010 1.404083 0.040784
v 48.331001 1.185827 0.040784
v 48.331001 1.185827 0.540784
v 48.331001 1.404083 0.040784
v 48.331001 1.404083 0.540784
v 51.669010 1.404083 0.540784
v 1.800977 -12.041077 0.040784
v 1.800977 -11.822821 0.040784
v 1.800977 -12.041077 0.651158
v 1.800977 -11.822821 0.651158
v -1.800972 -12.041077 0.040784
v -1.800972 -11.822821 0.040784
v -1.800972 -12.041077 0.651158
v -1.800972 -11.822821 0.651158
v 1.500004 -14.993708 -0.099174
v 1.500004 -14.993708 0.400826
v 1.500004 -11.993708 -0.099174
v 1.500004 -11.993708 0.400826
v -1.499999 -11.993708 0.400826
v -1.499999 -14.993708 0.400826
v -1.499999 -11.993708 -0.099174
v -1.499999 -14.993708 -0.099174
v 1.800977 -15.025928 0.040784
v 1.800977 -15.025928 0.651158
v 1.800977 -14.807671 0.040784
v -1.800972 -15.025928 0.040784
v -1.800972 -15.025928 0.651158
v -1.800972 -14.807671 0.040784
v -1.800972 -14.807671 0.651158
v 1.800977 -14.807671 0.651158
v 1.669003 -12.245842 0.040784
v 1.669003 -12.245842 0.540784
v 1.669003 -12.027586 0.040784
v -1.668998 -12.245842 0.040784
v -1.668998 -12.245842 0.540784
v -1.668998 -12.027586 0.040784
v -1.668998 -12.027586 0.540784
v 1.669003 -12.027586 0.540784
v 1.669003 -14.821161 0.040784
v 1.669003 -14.821161 0.540784
v 1.669003 -14.602905 0.040784
v -1.668998 -14.821161 0.040784
v -1.668998 -14.821161 0.540784
v -1.668998 -14.602905 0.040784
v -1.668998 -14.602905 0.540784
v 1.669003 -14.602905 0.540784
v 74.801003 -12.041077 0.040784
v 74.801003 -11.822821 0.040784
v 74.801003 -12.041077 0.651158
v 74.801003 -11.822821 0.651158
v 71.199036 -12.041077 0.040784
v 71.199036 -11.822821 0.040784
v 71.199036 -12.041077 0.651158
v 71.199036 -11.822821 0.651158
v 74.500023 -14.993708 -0.099174
v 74.500023 -14.993708 0.400826
v 74.500023 -11.993708 -0.099174
v 74.500023 -11.993708 0.400826
v 71.500015 -11.993708 0.400826
v 71.500015 -14.993708 0.400826
v 71.500015 -11.993708 -0.099174
v 71.500015 -14.993708 -0.099174
v 74.801003 -15.025928 0.040784
v 74.801003 -15.025928 0.651158
v 74.801003 -14.807671 0.040784
v 71.199036 -15.025928 0.040784
v 71.199036 -15.025928 0.651158
v 71.199036 -14.807671 0.040784
v 71.199036 -14.807671 0.651158
v 74.801003 -14.807671 0.651158
v 74.669022 -12.245842 0.040784
v 74.669022 -12.245842 0.540784
v 74.669022 -12.027586 0.040784
v 71.331017 -12.245842 0.040784
v 71.331017 -12.245842 0.540784
v 71.331017 -12.027586 0.040784
v 71.331017 -12.027586 0.540784
v 74.669022 -12.027586 0.540784
v 74.669022 -14.821161 0.040784
v 74.669022 -14.821161 0.540784
v 74.669022 -14.602905 0.040784
v 71.331017 -14.821161 0.040784
v 71.331017 -14.821161 0.540784
v 71.331017 -14.602905 0.040784
v 71.331017 -14.602905 0.540784
v 74.669022 -14.602905 0.540784
v 51.800987 -12.041077 0.040784
v 51.800987 -11.822821 0.040784
v 51.800987 -12.041077 0.651158
v 51.800987 -11.822821 0.651158
v 48.199024 -12.041077 0.040784
v 48.199024 -11.822821 0.040784
v 48.199024 -12.041077 0.651158
v 48.199024 -11.822821 0.651158
v 51.500008 -14.993708 -0.099174
v 51.500008 -14.993708 0.400826
v 51.500008 -11.993708 -0.099174
v 51.500008 -11.993708 0.400826
v 48.500004 -11.993708 0.400826
v 48.500004 -14.993708 0.400826
v 48.500004 -11.993708 -0.099174
v 48.500004 -14.993708 -0.099174
v 51.800987 -15.025928 0.040784
v 51.800987 -15.025928 0.651158
v 51.800987 -14.807671 0.040784
v 48.199024 -15.025928 0.040784
v 48.199024 -15.025928 0.651158
v 48.199024 -14.807671 0.040784
v 48.199024 -14.807671 0.651158
v 51.800987 -14.807671 0.651158
v 51.669010 -12.245842 0.040784
v 51.669010 -12.245842 0.540784
v 51.669010 -12.027586 0.040784
v 48.331001 -12.245842 0.040784
v 48.331001 -12.245842 0.540784
v 48.331001 -12.027586 0.040784
v 48.331001 -12.027586 0.540784
v 51.669010 -12.027586 0.540784
v 51.669010 -14.821161 0.040784
v 51.669010 -14.821161 0.540784
v 51.669010 -14.602905 0.040784
v 48.331001 -14.821161 0.040784
v 48.331001 -14.821161 0.540784
v 48.331001 -14.602905 0.040784
v 48.331001 -14.602905 0.540784
v 51.669010 -14.602905 0.540784
v -28.199024 3.965913 0.040784
v -28.199024 4.184169 0.040784
v -28.199024 3.965913 0.651158
v -28.199024 4.184169 0.651158
v -31.800980 3.965913 0.040784
v -31.800980 4.184169 0.040784
v -31.800980 3.965913 0.651158
v -31.800980 4.184169 0.651158
v -28.500000 1.013282 -0.099174
v -28.500000 1.013282 0.400826
v -28.500000 4.013282 -0.099174
v -28.500000 4.013282 0.400826
v -31.500004 4.013282 0.400826
v -31.500004 1.013282 0.400826
v -31.500004 4.013282 -0.099174
v -31.500004 1.013282 -0.099174
v -28.199024 0.981062 0.040784
v -28.199024 0.981062 0.651158
v -28.199024 1.199318 0.040784
v -31.800980 0.981062 0.040784
v -31.800980 0.981062 0.651158
v -31.800980 1.199318 0.040784
v -31.800980 1.199318 0.651158
v -28.199024 1.199318 0.651158
v -28.330997 3.761147 0.040784
v -28.330997 3.761147 0.540784
v -28.330997 3.979403 0.040784
v -31.669006 3.761147 0.040784
v -31.669006 3.761147 0.540784
v -31.669006 3.979403 0.040784
v -31.669006 3.979403 0.540784
v -28.330997 3.979403 0.540784
v -28.330997 1.185827 0.040784
v -28.330997 1.185827 0.540784
v -28.330997 1.404083 0.040784
v -31.669006 1.185827 0.040784
v -31.669006 1.185827 0.540784
v -31.669006 1.404083 0.040784
v -31.669006 1.404083 0.540784
v -28.330997 1.404083 0.540784
v -68.199028 3.965913 0.040784
v -68.199028 4.184169 0.040784
v -68.199028 3.965913 0.651158
v -68.199028 4.184169 0.651158
v -71.800980 3.965913 0.040784
v -71.800980 4.184169 0.040784
v -71.800980 3.965913 0.651158
v -71.800980 4.184169 0.651158
v -68.500008 1.013282 -0.099174
v -68.500008 1.013282 0.400826
v -68.500008 4.013282 -0.099174
v -68.500008 4.013282 0.400826
v -71.500008 4.013282 0.400826
v -71.500008 1.013282 0.400826
v -71.500008 4.013282 -0.099174
v -71.500008 1.013282 -0.099174
v -68.199028 0.981062 0.040784
v -68.199028 0.981062 0.651158
v -68.199028 1.199318 0.040784
v -71.800980 0.981062 0.040784
v -71.800980 0.981062 0.651158
v -71.800980 1.199318 0.040784
v -71.800980 1.199318 0.651158
v -68.199028 1.199318 0.651158
v -68.331009 3.761147 0.040784
v -68.331009 3.761147 0.540784
v -68.331009 3.979403 0.040784
v -71.669006 3.761147 0.040784
v -71.669006 3.761147 0.540784
v -71.669006 3.979403 0.040784
v -71.669006 3.979403 0.540784
v -68.331009 3.979403 0.540784
v -68.331009 1.185827 0.040784
v -68.331009 1.185827 0.540784
v -68.331009 1.404083 0.040784
v -71.669006 1.185827 0.040784
v -71.669006 1.185827 0.540784
v -71.669006 1.404083 0.040784
v -71.669006 1.404083 0.540784
v -68.331009 1.404083 0.540784
v -28.199024 -12.056955 0.040784
v -28.199024 -11.838699 0.040784
v -28.199024 -12.056955 0.651158
v -28.199024 -11.838699 0.651158
v -31.800980 -12.056955 0.040784
v -31.800980 -11.838699 0.040784
v -31.800980 -12.056955 0.651158
v -31.800980 -11.838699 0.651158
v -28.500000 -15.009586 -0.099174
v -28.500000 -15.009586 0.400826
v -28.500000 -12.009586 -0.099174
v -28.500000 -12.009586 0.400826
v -31.500004 -12.009586 0.400826
v -31.500004 -15.009586 0.400826
v -31.500004 -12.009586 -0.099174
v -31.500004 -15.009586 -0.099174
v -28.199024 -15.041805 0.040784
v -28.199024 -15.041805 0.651158
v -28.199024 -14.823549 0.040784
v -31.800980 -15.041805 0.040784
v -31.800980 -15.041805 0.651158
v -31.800980 -14.823549 0.040784
v -31.800980 -14.823549 0.651158
v -28.199024 -14.823549 0.651158
v -28.330997 -12.261721 0.040784
v -28.330997 -12.261721 0.540784
v -28.330997 -12.043465 0.040784
v -31.669006 -12.261721 0.040784
v -31.669006 -12.261721 0.540784
v -31.669006 -12.043465 0.040784
v -31.669006 -12.043465 0.540784
v -28.330997 -12.043465 0.540784
v -28.330997 -14.837040 0.040784
v -28.330997 -14.837040 0.540784
v -28.330997 -14.618784 0.040784
v -31.669006 -14.837040 0.040784
v -31.669006 -14.837040 0.540784
v -31.669006 -14.618784 0.040784
v -31.669006 -14.618784 0.540784
v -28.330997 -14.618784 0.540784
v -68.199028 -12.056955 0.040784
v -68.199028 -11.838699 0.040784
v -68.199028 -12.056955 0.651158
v -68.199028 -11.838699 0.651158
v -71.800980 -12.056955 0.040784
v -71.800980 -11.838699 0.040784
v -71.800980 -12.056955 0.651158
v -71.800980 -11.838699 0.651158
v -68.500008 -15.009586 -0.099174
v -68.500008 -15.009586 0.400826
v -68.500008 -12.009586 -0.099174
v -68.500008 -12.009586 0.400826
v -71.500008 -12.009586 0.400826
v -71.500008 -15.009586 0.400826
v -71.500008 -12.009586 -0.099174
v -71.500008 -15.009586 -0.099174
v -68.199028 -15.041805 0.040784
v -68.199028 -15.041805 0.651158
v -68.199028 -14.823549 0.040784
v -71.800980 -15.041805 0.040784
v -71.800980 -15.041805 0.651158
v -71.800980 -14.823549 0.040784
v -71.800980 -14.823549 0.651158
v -68.199028 -14.823549 0.651158
v -68.331009 -12.261721 0.040784
v -68.331009 -12.261721 0.540784
v -68.331009 -12.043465 0.040784
v -71.669006 -12.261721 0.040784
v -71.669006 -12.261721 0.540784
v -71.669006 -12.043465 0.040784
v -71.669006 -12.043465 0.540784
v -68.331009 -12.043465 0.540784
v -68.331009 -14.837040 0.040784
v -68.331009 -14.837040 0.540784
v -68.331009 -14.618784 0.040784
v -71.669006 -14.837040 0.040784
v -71.669006 -14.837040 0.540784
v -71.669006 -14.618784 0.040784
v -71.669006 -14.618784 0.540784
v -68.331009 -14.618784 0.540784
v 27.784004 3.965913 0.040784
v 27.784004 4.184169 0.040784
v 27.784004 3.965913 0.651158
v 27.784004 4.184169 0.651158
v 24.182043 3.965913 0.040784
v 24.182043 4.184169 0.040784
v 24.182043 3.965913 0.651158
v 24.182043 4.184169 0.651158
v 27.483025 1.013282 -0.099174
v 27.483025 1.013282 0.400826
v 27.483025 4.013282 -0.099174
v 27.483025 4.013282 0.400826
v 24.483023 4.013282 0.400826
v 24.483023 1.013282 0.400826
v 24.483023 4.013282 -0.099174
v 24.483023 1.013282 -0.099174
v 27.784004 0.981062 0.040784
v 27.784004 0.981062 0.651158
v 27.784004 1.199318 0.040784
v 24.182043 0.981062 0.040784
v 24.182043 0.981062 0.651158
v 24.182043 1.199318 0.040784
v 24.182043 1.199318 0.651158
v 27.784004 1.199318 0.651158
v 27.652029 3.761147 0.040784
v 27.652029 3.761147 0.540784
v 27.652029 3.979403 0.040784
v 24.314018 3.761147 0.040784
v 24.314018 3.761147 0.540784
v 24.314018 3.979403 0.040784
v 24.314018 3.979403 0.540784
v 27.652029 3.979403 0.540784
v 27.652029 1.185827 0.040784
v 27.652029 1.185827 0.540784
v 27.652029 1.404083 0.040784
v 24.314018 1.185827 0.040784
v 24.314018 1.185827 0.540784
v 24.314018 1.404083 0.040784
v 24.314018 1.404083 0.540784
v 27.652029 1.404083 0.540784
v 27.784004 -12.041668 0.040784
v 27.784004 -11.823412 0.040784
v 27.784004 -12.041668 0.651158
v 27.784004 -11.823412 0.651158
v 24.182043 -12.041668 0.040784
v 24.182043 -11.823412 0.040784
v 24.182043 -12.041668 0.651158
v 24.182043 -11.823412 0.651158
v 27.483025 -14.994299 -0.099174
v 27.483025 -14.994299 0.400826
v 27.483025 -11.994299 -0.099174
v 27.483025 -11.994299 0.400826
v 24.483023 -11.994299 0.400826
v 24.483023 -14.994299 0.400826
v 24.483023 -11.994299 -0.099174
v 24.483023 -14.994299 -0.099174
v 27.784004 -15.026520 0.040784
v 27.784004 -15.026520 0.651158
v 27.784004 -14.808264 0.040784
v 24.182043 -15.026520 0.040784
v 24.182043 -15.026520 0.651158
v 24.182043 -14.808264 0.040784
v 24.182043 -14.808264 0.651158
v 27.784004 -14.808264 0.651158
v 27.652029 -12.246433 0.040784
v 27.652029 -12.246433 0.540784
v 27.652029 -12.028177 0.040784
v 24.314018 -12.246433 0.040784
v 24.314018 -12.246433 0.540784
v 24.314018 -12.028177 0.040784
v 24.314018 -12.028177 0.540784
v 27.652029 -12.028177 0.540784
v 27.652029 -14.821754 0.040784
v 27.652029 -14.821754 0.540784
v 27.652029 -14.603498 0.040784
v 24.314018 -14.821754 0.040784
v 24.314018 -14.821754 0.540784
v 24.314018 -14.603498 0.040784
v 24.314018 -14.603498 0.540784
v 27.652029 -14.603498 0.540784
vn -0.0000 -1.0000 -0.0000
vn 1.0000 -0.0000 -0.0000
vn -0.0000 -0.0000 -1.0000
vn -1.0000 -0.0000 -0.0000
vn -0.0000 1.0000 -0.0000
vn -0.0000 -0.0000 1.0000
vt 0.375000 0.500000
vt 0.125000 0.750000
vt 0.125000 0.500000
vt 0.625000 0.000000
vt 0.375000 0.250000
vt 0.375000 0.000000
vt 0.625000 0.750000
vt 0.625000 1.000000
vt 0.609298 0.768775
vt 0.375000 1.000000
vt 0.390702 0.768775
vt 0.390702 0.981225
vt 0.625000 0.500000
vt 0.375000 0.750000
vt 0.875000 0.500000
vt 0.625000 0.250000
vt 0.609298 0.268775
vt 0.390702 0.481225
vt 0.612892 0.268789
vt 0.387108 0.481211
vt 0.612892 0.768789
vt 0.387108 0.768789
vt 0.387108 0.981211
vt 0.612892 0.980214
vt 0.612892 0.767792
vt 0.387108 0.767792
vt 0.387108 0.482208
vt 0.612892 0.482208
vt 0.387108 0.269786
vt 0.607478 0.756148
vt 0.392522 0.756148
vt 0.392522 0.993852
vt 0.607478 0.256148
vt 0.392522 0.493852
vt 0.610531 0.983227
vt 0.389469 0.766774
vt 0.610531 0.483226
vt 0.610531 0.266773
vt 0.389469 0.266773
vt 0.615659 0.986165
vt 0.384341 0.763835
vt 0.615659 0.486165
vt 0.384341 0.263835
vt 0.615686 0.982555
vt 0.615686 0.767445
vt 0.384314 0.767445
vt 0.615686 0.482555
vt 0.384314 0.482555
vt 0.384314 0.267445
vt 0.387975 0.755286
vt 0.387975 0.994714
vt 0.612025 0.994714
vt 0.387975 0.255286
vt 0.612025 0.255286
vt 0.612025 0.494714
vt 0.375000 0.215132
vt 0.625000 0.034868
vt 0.375000 0.034868
vt 0.375000 0.715132
vt 0.625000 0.534868
vt 0.375000 0.534868
vt 0.125000 0.715132
vt 0.875000 0.715132
vt 0.875000 0.534868
vt 0.125000 0.718921
vt 0.375000 0.531079
vt 0.125000 0.531079
vt 0.375000 0.031079
vt 0.625000 0.218921
vt 0.625000 0.031079
vt 0.375000 0.718921
vt 0.625000 0.531079
vt 0.875000 0.718921
vt 0.625000 0.718921
vt 0.625000 0.028404
vt 0.375000 0.221596
vt 0.625000 0.221596
vt 0.625000 0.528404
vt 0.375000 0.721596
vt 0.625000 0.721596
vt 0.125000 0.721596
vt 0.375000 0.528404
vt 0.125000 0.528404
vt 0.875000 0.721596
vt 0.125000 0.726188
vt 0.375000 0.523812
vt 0.125000 0.523812
vt 0.375000 0.023812
vt 0.625000 0.226188
vt 0.625000 0.023812
vt 0.375000 0.726188
vt 0.625000 0.523812
vt 0.875000 0.726188
vt 0.625000 0.726188
vt 0.125000 0.726662
vt 0.375000 0.523338
vt 0.125000 0.523338
vt 0.625000 0.023338
vt 0.375000 0.226662
vt 0.625000 0.226662
vt 0.625000 0.523338
vt 0.375000 0.726662
vt 0.625000 0.726662
vt 0.875000 0.726662
vt 0.125000 0.720426
vt 0.375000 0.529574
vt 0.125000 0.529574
vt 0.625000 0.029574
vt 0.375000 0.220426
vt 0.625000 0.220426
vt 0.625000 0.529574
vt 0.375000 0.720426
vt 0.625000 0.720426
vt 0.875000 0.720425
vt 0.125000 0.725704
vt 0.375000 0.524296
vt 0.125000 0.524296
vt 0.625000 0.024296
vt 0.375000 0.225704
vt 0.625000 0.225704
vt 0.625000 0.524296
vt 0.375000 0.725704
vt 0.625000 0.725704
vt 0.875000 0.725704
vt 0.125000 0.722375
vt 0.375000 0.527625
vt 0.125000 0.527625
vt 0.625000 0.027625
vt 0.375000 0.222375
vt 0.625000 0.222375
vt 0.625000 0.527625
vt 0.375000 0.722375
vt 0.625000 0.722375
vt 0.875000 0.722375
vt 0.609298 0.981225
vt 0.875000 0.750000
vt 0.390702 0.268775
vt 0.609298 0.481225
vt 0.387108 0.268789
vt 0.612892 0.481211
vt 0.612892 0.981211
vt 0.387108 0.980214
vt 0.612892 0.269786
vt 0.607478 0.993852
vt 0.392522 0.256148
vt 0.607478 0.493852
vt 0.389469 0.983227
vt 0.610531 0.766774
vt 0.389469 0.483226
vt 0.384341 0.986165
vt 0.615659 0.763836
vt 0.615659 0.263835
vt 0.384341 0.486165
vt 0.384314 0.982555
vt 0.615686 0.267445
vt 0.612025 0.755286
vt 0.387975 0.494714
vt 0.625000 0.215132
vt 0.625000 0.715132
vt 0.125000 0.534868
vt 0.375000 0.218921
vt 0.875000 0.531079
vt 0.375000 0.028404
vt 0.875000 0.528404
vt 0.375000 0.226188
vt 0.875000 0.523812
vt 0.375000 0.023338
vt 0.875000 0.523338
vt 0.375000 0.029574
vt 0.875000 0.529574
vt 0.375000 0.024296
vt 0.875000 0.524296
vt 0.375000 0.027625
vt 0.875000 0.527625
s 0
usemtl マテリアル
f 267/61/12 263/62/12 264/63/12
f 265/64/13 264/65/13 263/66/13
f 268/67/14 265/68/14 328/69/14
f 263/70/14 330/71/14 329/72/14
f 269/73/15 266/74/15 267/61/15
f 270/75/16 268/67/16 269/73/16
f 270/76/17 269/73/17 332/77/17
f 264/65/17 334/78/17 267/61/17
f 272/64/13 273/65/13 271/66/13
f 274/76/17 278/73/17 336/79/17
f 273/65/17 338/80/17 277/61/17
f 278/73/15 275/74/15 277/61/15
f 276/67/14 272/68/14 340/81/14
f 271/70/14 342/82/14 341/83/14
f 277/61/12 271/62/12 273/63/12
f 274/75/16 276/67/16 278/73/16
f 283/61/12 279/62/12 280/63/12
f 281/64/13 280/65/13 279/66/13
f 281/68/14 279/70/14 343/84/14
f 282/74/14 344/85/14 346/86/14
f 285/73/15 282/74/15 283/61/15
f 286/75/16 284/67/16 285/73/16
f 285/73/17 350/87/17 347/88/17
f 280/65/17 286/76/17 349/89/17
f 291/61/12 287/62/12 288/63/12
f 289/64/13 288/65/13 287/66/13
f 292/67/14 289/68/14 352/90/14
f 287/70/14 351/91/14 353/92/14
f 293/73/15 290/74/15 291/61/15
f 294/75/16 292/67/16 293/73/16
f 294/76/17 293/73/17 356/93/17
f 288/65/17 357/94/17 291/61/17
f 299/61/12 295/62/12 296/63/12
f 297/64/13 296/65/13 295/66/13
f 295/70/14 359/95/14 297/68/14
f 298/74/14 300/67/14 362/96/14
f 301/73/15 298/74/15 299/61/15
f 302/75/16 300/67/16 301/73/16
f 301/73/17 299/61/17 363/97/17
f 296/65/17 364/98/17 365/99/17
f 307/61/12 303/62/12 304/63/12
f 305/64/13 304/65/13 303/66/13
f 303/70/14 367/100/14 305/68/14
f 306/74/14 308/67/14 370/101/14
f 309/73/15 306/74/15 307/61/15
f 310/75/16 308/67/16 309/73/16
f 309/73/17 307/61/17 371/102/17
f 310/76/17 373/103/17 304/65/17
f 315/61/12 311/62/12 312/63/12
f 313/64/13 312/65/13 311/66/13
f 313/68/14 311/70/14 375/104/14
f 314/74/14 376/105/14 378/106/14
f 317/73/15 314/74/15 315/61/15
f 318/75/16 316/67/16 317/73/16
f 379/107/17 315/61/17 382/108/17
f 312/65/17 318/76/17 381/109/17
f 323/61/12 319/62/12 320/63/12
f 321/64/13 320/65/13 319/66/13
f 322/74/14 324/67/14 383/110/14
f 321/68/14 385/111/14 386/112/14
f 325/73/15 322/74/15 323/61/15
f 326/75/16 324/67/16 325/73/16
f 387/113/17 326/76/17 388/114/17
f 325/73/17 323/61/17 390/115/17
f 337/116/15 339/117/15 341/118/15
f 342/119/13 335/120/13 338/121/13
f 338/121/16 341/122/16 342/119/16
f 335/120/12 339/123/12 336/124/12
f 385/125/16 389/126/16 387/127/16
f 385/128/15 388/129/15 386/130/15
f 383/131/13 390/132/13 389/126/13
f 386/133/12 390/132/12 384/134/12
f 343/135/15 349/136/15 348/137/15
f 347/138/13 346/139/13 344/140/13
f 345/141/16 350/142/16 349/143/16
f 343/144/12 347/138/12 344/140/12
f 353/145/16 357/146/16 355/147/16
f 353/148/15 356/149/15 354/150/15
f 351/151/13 358/152/13 357/146/13
f 354/153/12 358/152/12 352/154/12
f 361/155/16 366/156/16 365/157/16
f 359/158/15 365/159/15 364/160/15
f 363/161/13 362/162/13 360/163/13
f 359/164/12 363/161/12 360/163/12
f 369/165/16 374/166/16 373/167/16
f 367/168/15 373/169/15 372/170/15
f 371/171/13 370/172/13 368/173/13
f 367/174/12 371/171/12 368/173/12
f 377/175/16 382/176/16 381/177/16
f 375/178/15 381/179/15 380/180/15
f 379/181/13 378/182/13 376/183/13
f 375/184/12 379/181/12 376/183/12
f 329/185/16 334/186/16 333/187/16
f 327/188/15 333/189/15 332/190/15
f 331/191/13 330/192/13 328/193/13
f 327/194/12 331/191/12 328/193/12
f 392/64/13 393/65/13 391/66/13
f 394/76/17 397/61/17 393/65/17
f 398/73/15 395/74/15 397/61/15
f 396/67/14 391/70/14 395/74/14
f 397/61/12 391/62/12 393/63/12
f 394/75/16 396/67/16 398/73/16
f 400/64/13 401/65/13 399/66/13
f 402/76/17 405/61/17 401/65/17
f 406/73/15 403/74/15 405/61/15
f 404/67/14 399/70/14 403/74/14
f 405/61/12 399/62/12 401/63/12
f 402/75/16 404/67/16 406/73/16
f 408/64/13 409/65/13 407/66/13
f 410/76/17 413/61/17 409/65/17
f 414/73/15 411/74/15 413/61/15
f 412/67/14 407/70/14 411/74/14
f 413/61/12 407/62/12 409/63/12
f 410/75/16 412/67/16 414/73/16
f 416/64/13 417/65/13 415/66/13
f 418/76/17 421/61/17 417/65/17
f 422/73/15 419/74/15 421/61/15
f 420/67/14 415/70/14 419/74/14
f 421/61/12 415/62/12 417/63/12
f 418/75/16 420/67/16 422/73/16
f 424/64/12 425/65/12 423/66/12
f 426/76/17 429/61/17 425/65/17
f 430/73/16 427/74/16 429/61/16
f 428/67/14 423/70/14 427/74/14
f 429/61/15 423/62/15 425/63/15
f 426/75/13 428/67/13 430/73/13
f 432/64/12 433/65/12 431/66/12
f 434/76/17 437/61/17 433/65/17
f 438/73/16 435/74/16 437/61/16
f 436/67/14 431/70/14 435/74/14
f 437/61/15 431/62/15 433/63/15
f 434/75/13 436/67/13 438/73/13
f 440/64/13 441/65/13 439/66/13
f 442/76/17 445/61/17 441/65/17
f 446/73/15 443/74/15 445/61/15
f 444/67/14 439/70/14 443/74/14
f 445/61/12 439/62/12 441/63/12
f 442/75/16 444/67/16 446/73/16
f 448/64/13 449/65/13 447/66/13
f 450/76/17 453/61/17 449/65/17
f 454/73/15 451/74/15 453/61/15
f 452/67/14 447/70/14 451/74/14
f 453/61/12 447/62/12 449/63/12
f 450/75/16 452/67/16 454/73/16
f 456/64/13 457/65/13 455/66/13
f 458/76/17 461/61/17 457/65/17
f 462/73/15 459/74/15 461/61/15
f 460/67/14 455/70/14 459/74/14
f 461/61/12 455/62/12 457/63/12
f 458/75/16 460/67/16 462/73/16
f 464/64/13 465/65/13 463/66/13
f 466/76/17 469/61/17 465/65/17
f 470/73/15 467/74/15 469/61/15
f 468/67/14 463/70/14 467/74/14
f 469/61/12 463/62/12 465/63/12
f 466/75/16 468/67/16 470/73/16
f 472/64/12 473/65/12 471/66/12
f 474/76/17 477/61/17 473/65/17
f 478/73/16 475/74/16 477/61/16
f 476/67/14 471/70/14 475/74/14
f 477/61/15 471/62/15 473/63/15
f 474/75/13 476/67/13 478/73/13
f 480/64/12 481/65/12 479/66/12
f 482/76/17 485/61/17 481/65/17
f 486/73/16 483/74/16 485/61/16
f 484/67/14 479/70/14 483/74/14
f 485/61/15 479/62/15 481/63/15
f 482/75/13 484/67/13 486/73/13
f 488/64/13 489/65/13 487/66/13
f 490/76/17 493/61/17 489/65/17
f 494/73/15 491/74/15 493/61/15
f 492/67/14 487/70/14 491/74/14
f 493/61/12 487/62/12 489/63/12
f 490/75/16 492/67/16 494/73/16
f 496/64/13 497/65/13 495/66/13
f 498/76/17 501/61/17 497/65/17
f 502/73/15 499/74/15 501/61/15
f 500/67/14 495/70/14 499/74/14
f 501/61/12 495/62/12 497/63/12
f 498/75/16 500/67/16 502/73/16
f 504/64/13 505/65/13 503/66/13
f 506/76/17 509/61/17 505/65/17
f 510/73/15 507/74/15 509/61/15
f 508/67/14 503/70/14 507/74/14
f 509/61/12 503/62/12 505/63/12
f 506/75/16 508/67/16 510/73/16
f 512/64/13 513/65/13 511/66/13
f 514/76/17 517/61/17 513/65/17
f 518/73/15 515/74/15 517/61/15
f 516/67/14 511/70/14 515/74/14
f 517/61/12 511/62/12 513/63/12
f 514/75/16 516/67/16 518/73/16
f 520/64/12 521/65/12 519/66/12
f 522/76/17 525/61/17 521/65/17
f 526/73/16 523/74/16 525/61/16
f 524/67/14 519/70/14 523/74/14
f 525/61/15 519/62/15 521/63/15
f 522/75/13 524/67/13 526/73/13
f 528/64/12 529/65/12 527/66/12
f 530/76/17 533/61/17 529/65/17
f 534/73/16 531/74/16 533/61/16
f 532/67/14 527/70/14 531/74/14
f 533/61/15 527/62/15 529/63/15
f 530/75/13 532/67/13 534/73/13
f 536/64/13 537/65/13 535/66/13
f 538/76/17 541/61/17 537/65/17
f 542/73/15 539/74/15 541/61/15
f 540/67/14 535/70/14 539/74/14
f 541/61/12 535/62/12 537/63/12
f 538/75/16 540/67/16 542/73/16
f 544/64/13 545/65/13 543/66/13
f 546/76/17 549/61/17 545/65/17
f 550/73/15 547/74/15 549/61/15
f 548/67/14 543/70/14 547/74/14
f 549/61/12 543/62/12 545/63/12
f 546/75/16 548/67/16 550/73/16
f 552/64/13 553/65/13 551/66/13
f 554/76/17 557/61/17 553/65/17
f 558/73/15 555/74/15 557/61/15
f 556/67/14 551/70/14 555/74/14
f 557/61/12 551/62/12 553/63/12
f 554/75/16 556/67/16 558/73/16
f 560/64/13 561/65/13 559/66/13
f 562/76/17 565/61/17 561/65/17
f 566/73/15 563/74/15 565/61/15
f 564/67/14 559/70/14 563/74/14
f 565/61/12 559/62/12 561/63/12
f 562/75/16 564/67/16 566/73/16
f 568/64/12 569/65/12 567/66/12
f 570/76/17 573/61/17 569/65/17
f 574/73/16 571/74/16 573/61/16
f 572/67/14 567/70/14 571/74/14
f 573/61/15 567/62/15 569/63/15
f 570/75/13 572/67/13 574/73/13
f 576/64/12 577/65/12 575/66/12
f 578/76/17 581/61/17 577/65/17
f 582/73/16 579/74/16 581/61/16
f 579/74/14 576/68/14 575/70/14
f 581/61/15 575/62/15 577/63/15
f 578/75/13 580/67/13 582/73/13
f 584/64/13 585/65/13 583/66/13
f 586/76/17 589/61/17 585/65/17
f 590/73/15 587/74/15 589/61/15
f 588/67/14 583/70/14 587/74/14
f 589/61/12 583/62/12 585/63/12
f 586/75/16 588/67/16 590/73/16
f 592/64/13 593/65/13 591/66/13
f 594/76/17 597/61/17 593/65/17
f 598/73/15 595/74/15 597/61/15
f 596/67/14 591/70/14 595/74/14
f 597/61/12 591/62/12 593/63/12
f 594/75/16 596/67/16 598/73/16
f 600/64/13 601/65/13 599/66/13
f 602/76/17 605/61/17 601/65/17
f 606/73/15 603/74/15 605/61/15
f 604/67/14 599/70/14 603/74/14
f 605/61/12 599/62/12 601/63/12
f 602/75/16 604/67/16 606/73/16
f 608/64/13 609/65/13 607/66/13
f 610/76/17 613/61/17 609/65/17
f 614/73/15 611/74/15 613/61/15
f 612/67/14 607/70/14 611/74/14
f 613/61/12 607/62/12 609/63/12
f 610/75/16 612/67/16 614/73/16
f 616/64/12 617/65/12 615/66/12
f 618/76/17 621/61/17 617/65/17
f 622/73/16 619/74/16 621/61/16
f 620/67/14 615/70/14 619/74/14
f 621/61/15 615/62/15 617/63/15
f 618/75/13 620/67/13 622/73/13
f 624/64/12 625/65/12 623/66/12
f 626/76/17 629/61/17 625/65/17
f 630/73/16 627/74/16 629/61/16
f 628/67/14 623/70/14 627/74/14
f 629/61/15 623/62/15 625/63/15
f 626/75/13 628/67/13 630/73/13
f 632/64/13 633/65/13 631/66/13
f 634/76/17 637/61/17 633/65/17
f 638/73/15 635/74/15 637/61/15
f 636/67/14 631/70/14 635/74/14
f 637/61/12 631/62/12 633/63/12
f 634/75/16 636/67/16 638/73/16
f 640/64/13 641/65/13 639/66/13
f 642/76/17 645/61/17 641/65/17
f 646/73/15 643/74/15 645/61/15
f 644/67/14 639/70/14 643/74/14
f 645/61/12 639/62/12 641/63/12
f 642/75/16 644/67/16 646/73/16
f 648/64/13 649/65/13 647/66/13
f 650/76/17 653/61/17 649/65/17
f 654/73/15 651/74/15 653/61/15
f 652/67/14 647/70/14 651/74/14
f 653/61/12 647/62/12 649/63/12
f 650/75/16 652/67/16 654/73/16
f 656/64/13 657/65/13 655/66/13
f 658/76/17 661/61/17 657/65/17
f 662/73/15 659/74/15 661/61/15
f 660/67/14 655/70/14 659/74/14
f 661/61/12 655/62/12 657/63/12
f 658/75/16 660/67/16 662/73/16
f 664/64/12 665/65/12 663/66/12
f 666/76/17 669/61/17 665/65/17
f 670/73/16 667/74/16 669/61/16
f 668/67/14 663/70/14 667/74/14
f 669/61/15 663/62/15 665/63/15
f 666/75/13 668/67/13 670/73/13
f 672/64/12 673/65/12 671/66/12
f 674/76/17 677/61/17 673/65/17
f 678/73/16 675/74/16 677/61/16
f 676/67/14 671/70/14 675/74/14
f 677/61/15 671/62/15 673/63/15
f 674/75/13 676/67/13 678/73/13
f 680/64/13 681/65/13 679/66/13
f 682/76/17 685/61/17 681/65/17
f 686/73/15 683/74/15 685/61/15
f 684/67/14 679/70/14 683/74/14
f 685/61/12 679/62/12 681/63/12
f 682/75/16 684/67/16 686/73/16
f 689/64/13 688/65/13 687/66/13
f 690/76/17 692/61/17 688/65/17
f 691/73/15 694/74/15 692/61/15
f 699/61/12 695/62/12 696/63/12
f 697/64/13 696/65/13 695/66/13
f 700/67/14 695/70/14 698/74/14
f 701/73/15 698/74/15 699/61/15
f 702/75/16 700/67/16 701/73/16
f 702/76/17 699/61/17 696/65/17
f 707/61/12 703/62/12 704/63/12
f 705/64/13 704/65/13 703/66/13
f 708/67/14 703/70/14 706/74/14
f 709/73/15 706/74/15 707/61/15
f 710/75/16 708/67/16 709/73/16
f 710/76/17 707/61/17 704/65/17
f 715/61/12 711/62/12 712/63/12
f 713/64/13 712/65/13 711/66/13
f 716/67/14 711/70/14 714/74/14
f 717/73/15 714/74/15 715/61/15
f 718/75/16 716/67/16 717/73/16
f 718/76/17 715/61/17 712/65/17
f 720/64/13 721/65/13 719/66/13
f 722/76/17 725/61/17 721/65/17
f 726/73/15 723/74/15 725/61/15
f 724/67/14 719/70/14 723/74/14
f 725/61/12 719/62/12 721/63/12
f 722/75/16 724/67/16 726/73/16
f 729/64/13 728/65/13 727/66/13
f 730/76/17 732/61/17 728/65/17
f 731/73/15 734/74/15 732/61/15
f 739/61/12 735/62/12 736/63/12
f 737/64/13 736/65/13 735/66/13
f 740/67/14 735/70/14 738/74/14
f 741/73/15 738/74/15 739/61/15
f 742/75/16 740/67/16 741/73/16
f 742/76/17 739/61/17 736/65/17
f 747/61/12 743/62/12 744/63/12
f 745/64/13 744/65/13 743/66/13
f 748/67/14 743/70/14 746/74/14
f 749/73/15 746/74/15 747/61/15
f 750/75/16 748/67/16 749/73/16
f 750/76/17 747/61/17 744/65/17
f 755/61/12 751/62/12 752/63/12
f 753/64/13 752/65/13 751/66/13
f 756/67/14 751/70/14 754/74/14
f 757/73/15 754/74/15 755/61/15
f 758/75/16 756/67/16 757/73/16
f 758/76/17 755/61/17 752/65/17
f 760/64/13 761/65/13 759/66/13
f 762/76/17 765/61/17 761/65/17
f 766/73/15 763/74/15 765/61/15
f 764/67/14 759/70/14 763/74/14
f 765/61/12 759/62/12 761/63/12
f 762/75/16 764/67/16 766/73/16
f 769/64/13 768/65/13 767/66/13
f 770/76/17 772/61/17 768/65/17
f 771/73/15 774/74/15 772/61/15
f 779/61/12 775/62/12 776/63/12
f 777/64/13 776/65/13 775/66/13
f 780/67/14 775/70/14 778/74/14
f 781/73/15 778/74/15 779/61/15
f 782/75/16 780/67/16 781/73/16
f 782/76/17 779/61/17 776/65/17
f 787/61/12 783/62/12 784/63/12
f 785/64/13 784/65/13 783/66/13
f 788/67/14 783/70/14 786/74/14
f 789/73/15 786/74/15 787/61/15
f 790/75/16 788/67/16 789/73/16
f 790/76/17 787/61/17 784/65/17
f 795/61/12 791/62/12 792/63/12
f 793/64/13 792/65/13 791/66/13
f 796/67/14 791/70/14 794/74/14
f 797/73/15 794/74/15 795/61/15
f 798/75/16 796/67/16 797/73/16
f 798/76/17 795/61/17 792/65/17
f 800/64/13 801/65/13 799/66/13
f 802/76/17 805/61/17 801/65/17
f 806/73/15 803/74/15 805/61/15
f 804/67/14 799/70/14 803/74/14
f 805/61/12 799/62/12 801/63/12
f 802/75/16 804/67/16 806/73/16
f 809/64/13 808/65/13 807/66/13
f 810/76/17 812/61/17 808/65/17
f 811/73/15 814/74/15 812/61/15
f 819/61/12 815/62/12 816/63/12
f 817/64/13 816/65/13 815/66/13
f 820/67/14 815/70/14 818/74/14
f 821/73/15 818/74/15 819/61/15
f 822/75/16 820/67/16 821/73/16
f 822/76/17 819/61/17 816/65/17
f 827/61/12 823/62/12 824/63/12
f 825/64/13 824/65/13 823/66/13
f 828/67/14 823/70/14 826/74/14
f 829/73/15 826/74/15 827/61/15
f 830/75/16 828/67/16 829/73/16
f 830/76/17 827/61/17 824/65/17
f 835/61/12 831/62/12 832/63/12
f 833/64/13 832/65/13 831/66/13
f 836/67/14 831/70/14 834/74/14
f 837/73/15 834/74/15 835/61/15
f 838/75/16 836/67/16 837/73/16
f 838/76/17 835/61/17 832/65/17
f 840/64/13 841/65/13 839/66/13
f 842/76/17 845/61/17 841/65/17
f 846/73/15 843/74/15 845/61/15
f 844/67/14 839/70/14 843/74/14
f 845/61/12 839/62/12 841/63/12
f 842/75/16 844/67/16 846/73/16
f 849/64/13 848/65/13 847/66/13
f 850/76/17 852/61/17 848/65/17
f 851/73/15 854/74/15 852/61/15
f 859/61/12 855/62/12 856/63/12
f 857/64/13 856/65/13 855/66/13
f 860/67/14 855/70/14 858/74/14
f 861/73/15 858/74/15 859/61/15
f 862/75/16 860/67/16 861/73/16
f 862/76/17 859/61/17 856/65/17
f 867/61/12 863/62/12 864/63/12
f 865/64/13 864/65/13 863/66/13
f 868/67/14 863/70/14 866/74/14
f 869/73/15 866/74/15 867/61/15
f 870/75/16 868/67/16 869/73/16
f 870/76/17 867/61/17 864/65/17
f 875/61/12 871/62/12 872/63/12
f 873/64/13 872/65/13 871/66/13
f 876/67/14 871/70/14 874/74/14
f 877/73/15 874/74/15 875/61/15
f 878/75/16 876/67/16 877/73/16
f 878/76/17 875/61/17 872/65/17
f 880/64/13 881/65/13 879/66/13
f 882/76/17 885/61/17 881/65/17
f 886/73/15 883/74/15 885/61/15
f 884/67/14 879/70/14 883/74/14
f 885/61/12 879/62/12 881/63/12
f 882/75/16 884/67/16 886/73/16
f 889/64/13 888/65/13 887/66/13
f 890/76/17 892/61/17 888/65/17
f 891/73/15 894/74/15 892/61/15
f 899/61/12 895/62/12 896/63/12
f 897/64/13 896/65/13 895/66/13
f 900/67/14 895/70/14 898/74/14
f 901/73/15 898/74/15 899/61/15
f 902/75/16 900/67/16 901/73/16
f 902/76/17 899/61/17 896/65/17
f 907/61/12 903/62/12 904/63/12
f 905/64/13 904/65/13 903/66/13
f 908/67/14 903/70/14 906/74/14
f 909/73/15 906/74/15 907/61/15
f 910/75/16 908/67/16 909/73/16
f 910/76/17 907/61/17 904/65/17
f 915/61/12 911/62/12 912/63/12
f 913/64/13 912/65/13 911/66/13
f 916/67/14 911/70/14 914/74/14
f 917/73/15 914/74/15 915/61/15
f 918/75/16 916/67/16 917/73/16
f 918/76/17 915/61/17 912/65/17
f 920/64/13 921/65/13 919/66/13
f 922/76/17 925/61/17 921/65/17
f 926/73/15 923/74/15 925/61/15
f 924/67/14 919/70/14 923/74/14
f 925/61/12 919/62/12 921/63/12
f 922/75/16 924/67/16 926/73/16
f 929/64/13 928/65/13 927/66/13
f 930/76/17 932/61/17 928/65/17
f 931/73/15 934/74/15 932/61/15
f 939/61/12 935/62/12 936/63/12
f 937/64/13 936/65/13 935/66/13
f 940/67/14 935/70/14 938/74/14
f 941/73/15 938/74/15 939/61/15
f 942/75/16 940/67/16 941/73/16
f 942/76/17 939/61/17 936/65/17
f 947/61/12 943/62/12 944/63/12
f 945/64/13 944/65/13 943/66/13
f 948/67/14 943/70/14 946/74/14
f 949/73/15 946/74/15 947/61/15
f 950/75/16 948/67/16 949/73/16
f 950/76/17 947/61/17 944/65/17
f 955/61/12 951/62/12 952/63/12
f 953/64/13 952/65/13 951/66/13
f 956/67/14 951/70/14 954/74/14
f 957/73/15 954/74/15 955/61/15
f 958/75/16 956/67/16 957/73/16
f 958/76/17 955/61/17 952/65/17
f 960/64/13 961/65/13 959/66/13
f 962/76/17 965/61/17 961/65/17
f 966/73/15 963/74/15 965/61/15
f 964/67/14 959/70/14 963/74/14
f 965/61/12 959/62/12 961/63/12
f 962/75/16 964/67/16 966/73/16
f 969/64/13 968/65/13 967/66/13
f 970/76/17 972/61/17 968/65/17
f 971/73/15 974/74/15 972/61/15
f 979/61/12 975/62/12 976/63/12
f 977/64/13 976/65/13 975/66/13
f 980/67/14 975/70/14 978/74/14
f 981/73/15 978/74/15 979/61/15
f 982/75/16 980/67/16 981/73/16
f 982/76/17 979/61/17 976/65/17
f 987/61/12 983/62/12 984/63/12
f 985/64/13 984/65/13 983/66/13
f 988/67/14 983/70/14 986/74/14
f 989/73/15 986/74/15 987/61/15
f 990/75/16 988/67/16 989/73/16
f 990/76/17 987/61/17 984/65/17
f 995/61/12 991/62/12 992/63/12
f 993/64/13 992/65/13 991/66/13
f 996/67/14 991/70/14 994/74/14
f 997/73/15 994/74/15 995/61/15
f 998/75/16 996/67/16 997/73/16
f 998/76/17 995/61/17 992/65/17
f 1000/64/13 1001/65/13 999/66/13
f 1002/76/17 1005/61/17 1001/65/17
f 1006/73/15 1003/74/15 1005/61/15
f 1004/67/14 999/70/14 1003/74/14
f 1005/61/12 999/62/12 1001/63/12
f 1002/75/16 1004/67/16 1006/73/16
f 1009/64/13 1008/65/13 1007/66/13
f 1010/76/17 1012/61/17 1008/65/17
f 1011/73/15 1014/74/15 1012/61/15
f 1019/61/12 1015/62/12 1016/63/12
f 1017/64/13 1016/65/13 1015/66/13
f 1020/67/14 1015/70/14 1018/74/14
f 1021/73/15 1018/74/15 1019/61/15
f 1022/75/16 1020/67/16 1021/73/16
f 1022/76/17 1019/61/17 1016/65/17
f 1027/61/12 1023/62/12 1024/63/12
f 1025/64/13 1024/65/13 1023/66/13
f 1028/67/14 1023/70/14 1026/74/14
f 1029/73/15 1026/74/15 1027/61/15
f 1030/75/16 1028/67/16 1029/73/16
f 1030/76/17 1027/61/17 1024/65/17
f 1035/61/12 1031/62/12 1032/63/12
f 1033/64/13 1032/65/13 1031/66/13
f 1036/67/14 1031/70/14 1034/74/14
f 1037/73/15 1034/74/15 1035/61/15
f 1038/75/16 1036/67/16 1037/73/16
f 1038/76/17 1035/61/17 1032/65/17
f 1040/64/13 1041/65/13 1039/66/13
f 1042/76/17 1045/61/17 1041/65/17
f 1046/73/15 1043/74/15 1045/61/15
f 1044/67/14 1039/70/14 1043/74/14
f 1045/61/12 1039/62/12 1041/63/12
f 1042/75/16 1044/67/16 1046/73/16
f 1049/64/13 1048/65/13 1047/66/13
f 1050/76/17 1052/61/17 1048/65/17
f 1051/73/15 1054/74/15 1052/61/15
f 1059/61/12 1055/62/12 1056/63/12
f 1057/64/13 1056/65/13 1055/66/13
f 1060/67/14 1055/70/14 1058/74/14
f 1061/73/15 1058/74/15 1059/61/15
f 1062/75/16 1060/67/16 1061/73/16
f 1062/76/17 1059/61/17 1056/65/17
f 1067/61/12 1063/62/12 1064/63/12
f 1065/64/13 1064/65/13 1063/66/13
f 1068/67/14 1063/70/14 1066/74/14
f 1069/73/15 1066/74/15 1067/61/15
f 1070/75/16 1068/67/16 1069/73/16
f 1070/76/17 1067/61/17 1064/65/17
f 1075/61/12 1071/62/12 1072/63/12
f 1073/64/13 1072/65/13 1071/66/13
f 1076/67/14 1071/70/14 1074/74/14
f 1077/73/15 1074/74/15 1075/61/15
f 1078/75/16 1076/67/16 1077/73/16
f 1078/76/17 1075/61/17 1072/65/17
f 1080/64/13 1081/65/13 1079/66/13
f 1082/76/17 1085/61/17 1081/65/17
f 1086/73/15 1083/74/15 1085/61/15
f 1085/61/12 1079/62/12 1081/63/12
f 1082/75/16 1084/67/16 1086/73/16
f 1089/64/13 1088/65/13 1087/66/13
f 1090/76/17 1092/61/17 1088/65/17
f 1091/73/15 1094/74/15 1092/61/15
f 1099/61/12 1095/62/12 1096/63/12
f 1097/64/13 1096/65/13 1095/66/13
f 1101/73/15 1098/74/15 1099/61/15
f 1102/75/16 1100/67/16 1101/73/16
f 1102/76/17 1099/61/17 1096/65/17
f 1107/61/12 1103/62/12 1104/63/12
f 1105/64/13 1104/65/13 1103/66/13
f 1109/73/15 1106/74/15 1107/61/15
f 1110/76/17 1107/61/17 1104/65/17
f 1113/64/13 1112/65/13 1111/66/13
f 1116/67/14 1111/70/14 1114/74/14
f 1117/73/15 1114/74/15 1115/61/15
f 1118/75/16 1116/67/16 1117/73/16
f 1118/76/17 1115/61/17 1112/65/17
f 1120/64/13 1121/65/13 1119/66/13
f 1122/76/17 1125/61/17 1121/65/17
f 1126/73/15 1123/74/15 1125/61/15
f 1125/61/12 1119/62/12 1121/63/12
f 1122/75/16 1124/67/16 1126/73/16
f 1129/64/13 1128/65/13 1127/66/13
f 1130/76/17 1132/61/17 1128/65/17
f 1131/73/15 1134/74/15 1132/61/15
f 1139/61/12 1135/62/12 1136/63/12
f 1137/64/13 1136/65/13 1135/66/13
f 1141/73/15 1138/74/15 1139/61/15
f 1142/75/16 1140/67/16 1141/73/16
f 1142/76/17 1139/61/17 1136/65/17
f 1147/61/12 1143/62/12 1144/63/12
f 1145/64/13 1144/65/13 1143/66/13
f 1149/73/15 1146/74/15 1147/61/15
f 1150/76/17 1147/61/17 1144/65/17
f 1153/64/13 1152/65/13 1151/66/13
f 1156/67/14 1151/70/14 1154/74/14
f 1157/73/15 1154/74/15 1155/61/15
f 1158/75/16 1156/67/16 1157/73/16
f 1158/76/17 1155/61/17 1152/65/17
f 267/61/12 266/74/12 263/62/12
f 265/64/13 270/76/13 264/65/13
f 328/69/14 330/71/14 266/74/14
f 265/68/14 263/70/14 329/72/14
f 265/68/14 329/72/14 327/195/14
f 328/69/14 266/74/14 268/67/14
f 265/68/14 327/195/14 328/69/14
f 263/70/14 266/74/14 330/71/14
f 269/73/15 268/67/15 266/74/15
f 270/75/16 265/196/16 268/67/16
f 333/197/17 264/65/17 270/76/17
f 269/73/17 267/61/17 334/78/17
f 269/73/17 334/78/17 331/198/17
f 332/77/17 333/197/17 270/76/17
f 269/73/17 331/198/17 332/77/17
f 264/65/17 333/197/17 334/78/17
f 272/64/13 274/76/13 273/65/13
f 337/199/17 273/65/17 274/76/17
f 278/73/17 277/61/17 338/80/17
f 278/73/17 338/80/17 335/200/17
f 336/79/17 337/199/17 274/76/17
f 278/73/17 335/200/17 336/79/17
f 273/65/17 337/199/17 338/80/17
f 278/73/15 276/67/15 275/74/15
f 340/81/14 342/82/14 275/74/14
f 272/68/14 271/70/14 341/83/14
f 272/68/14 341/83/14 339/201/14
f 340/81/14 275/74/14 276/67/14
f 272/68/14 339/201/14 340/81/14
f 271/70/14 275/74/14 342/82/14
f 277/61/12 275/74/12 271/62/12
f 274/75/16 272/196/16 276/67/16
f 283/61/12 282/74/12 279/62/12
f 281/64/13 286/76/13 280/65/13
f 343/84/14 344/85/14 284/67/14
f 279/70/14 282/74/14 346/86/14
f 279/70/14 346/86/14 345/202/14
f 343/84/14 284/67/14 281/68/14
f 279/70/14 345/202/14 343/84/14
f 282/74/14 284/67/14 344/85/14
f 285/73/15 284/67/15 282/74/15
f 286/75/16 281/196/16 284/67/16
f 285/73/17 283/61/17 350/87/17
f 350/87/17 283/61/17 280/65/17
f 286/76/17 285/73/17 347/88/17
f 286/76/17 347/88/17 348/203/17
f 349/89/17 350/87/17 280/65/17
f 286/76/17 348/203/17 349/89/17
f 291/61/12 290/74/12 287/62/12
f 289/64/13 294/76/13 288/65/13
f 352/90/14 351/91/14 290/74/14
f 289/68/14 287/70/14 353/92/14
f 289/68/14 353/92/14 354/204/14
f 352/90/14 290/74/14 292/67/14
f 289/68/14 354/204/14 352/90/14
f 287/70/14 290/74/14 351/91/14
f 293/73/15 292/67/15 290/74/15
f 294/75/16 289/196/16 292/67/16
f 356/93/17 355/205/17 288/65/17
f 293/73/17 291/61/17 357/94/17
f 293/73/17 357/94/17 358/206/17
f 356/93/17 288/65/17 294/76/17
f 293/73/17 358/206/17 356/93/17
f 288/65/17 355/205/17 357/94/17
f 299/61/12 298/74/12 295/62/12
f 297/64/13 302/76/13 296/65/13
f 295/70/14 361/207/14 359/95/14
f 362/96/14 361/207/14 295/70/14
f 300/67/14 297/68/14 359/95/14
f 300/67/14 359/95/14 360/208/14
f 362/96/14 295/70/14 298/74/14
f 300/67/14 360/208/14 362/96/14
f 301/73/15 300/67/15 298/74/15
f 302/75/16 297/196/16 300/67/16
f 363/97/17 364/98/17 302/76/17
f 299/61/17 296/65/17 365/99/17
f 299/61/17 365/99/17 366/209/17
f 363/97/17 302/76/17 301/73/17
f 299/61/17 366/209/17 363/97/17
f 296/65/17 302/76/17 364/98/17
f 307/61/12 306/74/12 303/62/12
f 305/64/13 310/76/13 304/65/13
f 303/70/14 369/210/14 367/100/14
f 370/101/14 369/210/14 303/70/14
f 308/67/14 305/68/14 367/100/14
f 308/67/14 367/100/14 368/211/14
f 370/101/14 303/70/14 306/74/14
f 308/67/14 368/211/14 370/101/14
f 309/73/15 308/67/15 306/74/15
f 310/75/16 305/196/16 308/67/16
f 371/102/17 372/212/17 310/76/17
f 307/61/17 304/65/17 373/103/17
f 307/61/17 373/103/17 374/213/17
f 371/102/17 310/76/17 309/73/17
f 307/61/17 374/213/17 371/102/17
f 310/76/17 372/212/17 373/103/17
f 315/61/12 314/74/12 311/62/12
f 313/64/13 318/76/13 312/65/13
f 375/104/14 376/105/14 316/67/14
f 311/70/14 314/74/14 378/106/14
f 311/70/14 378/106/14 377/214/14
f 375/104/14 316/67/14 313/68/14
f 311/70/14 377/214/14 375/104/14
f 314/74/14 316/67/14 376/105/14
f 317/73/15 316/67/15 314/74/15
f 318/75/16 313/196/16 316/67/16
f 379/107/17 317/73/17 315/61/17
f 382/108/17 315/61/17 312/65/17
f 318/76/17 317/73/17 379/107/17
f 318/76/17 379/107/17 380/215/17
f 381/109/17 382/108/17 312/65/17
f 318/76/17 380/215/17 381/109/17
f 323/61/12 322/74/12 319/62/12
f 321/64/13 326/76/13 320/65/13
f 383/110/14 385/111/14 319/70/14
f 324/67/14 321/68/14 386/112/14
f 324/67/14 386/112/14 384/216/14
f 383/110/14 319/70/14 322/74/14
f 324/67/14 384/216/14 383/110/14
f 321/68/14 319/70/14 385/111/14
f 325/73/15 324/67/15 322/74/15
f 326/75/16 321/196/16 324/67/16
f 387/113/17 320/65/17 326/76/17
f 390/115/17 388/114/17 326/76/17
f 323/61/17 320/65/17 387/113/17
f 323/61/17 387/113/17 389/217/17
f 390/115/17 326/76/17 325/73/17
f 323/61/17 389/217/17 390/115/17
f 337/116/15 336/218/15 339/117/15
f 342/119/13 340/219/13 335/120/13
f 338/121/16 337/220/16 341/122/16
f 335/120/12 340/219/12 339/123/12
f 385/125/16 383/131/16 389/126/16
f 385/128/15 387/221/15 388/129/15
f 383/131/13 384/134/13 390/132/13
f 386/133/12 388/222/12 390/132/12
f 343/135/15 345/223/15 349/136/15
f 347/138/13 350/142/13 346/139/13
f 345/141/16 346/139/16 350/142/16
f 343/144/12 348/224/12 347/138/12
f 353/145/16 351/151/16 357/146/16
f 353/148/15 355/225/15 356/149/15
f 351/151/13 352/154/13 358/152/13
f 354/153/12 356/226/12 358/152/12
f 361/155/16 362/162/16 366/156/16
f 359/158/15 361/227/15 365/159/15
f 363/161/13 366/156/13 362/162/13
f 359/164/12 364/228/12 363/161/12
f 369/165/16 370/172/16 374/166/16
f 367/168/15 369/229/15 373/169/15
f 371/171/13 374/166/13 370/172/13
f 367/174/12 372/230/12 371/171/12
f 377/175/16 378/182/16 382/176/16
f 375/178/15 377/231/15 381/179/15
f 379/181/13 382/176/13 378/182/13
f 375/184/12 380/232/12 379/181/12
f 329/185/16 330/192/16 334/186/16
f 327/188/15 329/233/15 333/189/15
f 331/191/13 334/186/13 330/192/13
f 327/194/12 332/234/12 331/191/12
f 392/64/13 394/76/13 393/65/13
f 394/76/17 398/73/17 397/61/17
f 398/73/15 396/67/15 395/74/15
f 396/67/14 392/68/14 391/70/14
f 397/61/12 395/74/12 391/62/12
f 394/75/16 392/196/16 396/67/16
f 400/64/13 402/76/13 401/65/13
f 402/76/17 406/73/17 405/61/17
f 406/73/15 404/67/15 403/74/15
f 404/67/14 400/68/14 399/70/14
f 405/61/12 403/74/12 399/62/12
f 402/75/16 400/196/16 404/67/16
f 408/64/13 410/76/13 409/65/13
f 410/76/17 414/73/17 413/61/17
f 414/73/15 412/67/15 411/74/15
f 412/67/14 408/68/14 407/70/14
f 413/61/12 411/74/12 407/62/12
f 410/75/16 408/196/16 412/67/16
f 416/64/13 418/76/13 417/65/13
f 418/76/17 422/73/17 421/61/17
f 422/73/15 420/67/15 419/74/15
f 420/67/14 416/68/14 415/70/14
f 421/61/12 419/74/12 415/62/12
f 418/75/16 416/196/16 420/67/16
f 424/64/12 426/76/12 425/65/12
f 426/76/17 430/73/17 429/61/17
f 430/73/16 428/67/16 427/74/16
f 428/67/14 424/68/14 423/70/14
f 429/61/15 427/74/15 423/62/15
f 426/75/13 424/196/13 428/67/13
f 432/64/12 434/76/12 433/65/12
f 434/76/17 438/73/17 437/61/17
f 438/73/16 436/67/16 435/74/16
f 436/67/14 432/68/14 431/70/14
f 437/61/15 435/74/15 431/62/15
f 434/75/13 432/196/13 436/67/13
f 440/64/13 442/76/13 441/65/13
f 442/76/17 446/73/17 445/61/17
f 446/73/15 444/67/15 443/74/15
f 444/67/14 440/68/14 439/70/14
f 445/61/12 443/74/12 439/62/12
f 442/75/16 440/196/16 444/67/16
f 448/64/13 450/76/13 449/65/13
f 450/76/17 454/73/17 453/61/17
f 454/73/15 452/67/15 451/74/15
f 452/67/14 448/68/14 447/70/14
f 453/61/12 451/74/12 447/62/12
f 450/75/16 448/196/16 452/67/16
f 456/64/13 458/76/13 457/65/13
f 458/76/17 462/73/17 461/61/17
f 462/73/15 460/67/15 459/74/15
f 460/67/14 456/68/14 455/70/14
f 461/61/12 459/74/12 455/62/12
f 458/75/16 456/196/16 460/67/16
f 464/64/13 466/76/13 465/65/13
f 466/76/17 470/73/17 469/61/17
f 470/73/15 468/67/15 467/74/15
f 468/67/14 464/68/14 463/70/14
f 469/61/12 467/74/12 463/62/12
f 466/75/16 464/196/16 468/67/16
f 472/64/12 474/76/12 473/65/12
f 474/76/17 478/73/17 477/61/17
f 478/73/16 476/67/16 475/74/16
f 476/67/14 472/68/14 471/70/14
f 477/61/15 475/74/15 471/62/15
f 474/75/13 472/196/13 476/67/13
f 480/64/12 482/76/12 481/65/12
f 482/76/17 486/73/17 485/61/17
f 486/73/16 484/67/16 483/74/16
f 484/67/14 480/68/14 479/70/14
f 485/61/15 483/74/15 479/62/15
f 482/75/13 480/196/13 484/67/13
f 488/64/13 490/76/13 489/65/13
f 490/76/17 494/73/17 493/61/17
f 494/73/15 492/67/15 491/74/15
f 492/67/14 488/68/14 487/70/14
f 493/61/12 491/74/12 487/62/12
f 490/75/16 488/196/16 492/67/16
f 496/64/13 498/76/13 497/65/13
f 498/76/17 502/73/17 501/61/17
f 502/73/15 500/67/15 499/74/15
f 500/67/14 496/68/14 495/70/14
f 501/61/12 499/74/12 495/62/12
f 498/75/16 496/196/16 500/67/16
f 504/64/13 506/76/13 505/65/13
f 506/76/17 510/73/17 509/61/17
f 510/73/15 508/67/15 507/74/15
f 508/67/14 504/68/14 503/70/14
f 509/61/12 507/74/12 503/62/12
f 506/75/16 504/196/16 508/67/16
f 512/64/13 514/76/13 513/65/13
f 514/76/17 518/73/17 517/61/17
f 518/73/15 516/67/15 515/74/15
f 516/67/14 512/68/14 511/70/14
f 517/61/12 515/74/12 511/62/12
f 514/75/16 512/196/16 516/67/16
f 520/64/12 522/76/12 521/65/12
f 522/76/17 526/73/17 525/61/17
f 526/73/16 524/67/16 523/74/16
f 524/67/14 520/68/14 519/70/14
f 525/61/15 523/74/15 519/62/15
f 522/75/13 520/196/13 524/67/13
f 528/64/12 530/76/12 529/65/12
f 530/76/17 534/73/17 533/61/17
f 534/73/16 532/67/16 531/74/16
f 532/67/14 528/68/14 527/70/14
f 533/61/15 531/74/15 527/62/15
f 530/75/13 528/196/13 532/67/13
f 536/64/13 538/76/13 537/65/13
f 538/76/17 542/73/17 541/61/17
f 542/73/15 540/67/15 539/74/15
f 540/67/14 536/68/14 535/70/14
f 541/61/12 539/74/12 535/62/12
f 538/75/16 536/196/16 540/67/16
f 544/64/13 546/76/13 545/65/13
f 546/76/17 550/73/17 549/61/17
f 550/73/15 548/67/15 547/74/15
f 548/67/14 544/68/14 543/70/14
f 549/61/12 547/74/12 543/62/12
f 546/75/16 544/196/16 548/67/16
f 552/64/13 554/76/13 553/65/13
f 554/76/17 558/73/17 557/61/17
f 558/73/15 556/67/15 555/74/15
f 556/67/14 552/68/14 551/70/14
f 557/61/12 555/74/12 551/62/12
f 554/75/16 552/196/16 556/67/16
f 560/64/13 562/76/13 561/65/13
f 562/76/17 566/73/17 565/61/17
f 566/73/15 564/67/15 563/74/15
f 564/67/14 560/68/14 559/70/14
f 565/61/12 563/74/12 559/62/12
f 562/75/16 560/196/16 564/67/16
f 568/64/12 570/76/12 569/65/12
f 570/76/17 574/73/17 573/61/17
f 574/73/16 572/67/16 571/74/16
f 572/67/14 568/68/14 567/70/14
f 573/61/15 571/74/15 567/62/15
f 570/75/13 568/196/13 572/67/13
f 576/64/12 578/76/12 577/65/12
f 578/76/17 582/73/17 581/61/17
f 582/73/16 580/67/16 579/74/16
f 579/74/14 580/67/14 576/68/14
f 581/61/15 579/74/15 575/62/15
f 578/75/13 576/196/13 580/67/13
f 584/64/13 586/76/13 585/65/13
f 586/76/17 590/73/17 589/61/17
f 590/73/15 588/67/15 587/74/15
f 588/67/14 584/68/14 583/70/14
f 589/61/12 587/74/12 583/62/12
f 586/75/16 584/196/16 588/67/16
f 592/64/13 594/76/13 593/65/13
f 594/76/17 598/73/17 597/61/17
f 598/73/15 596/67/15 595/74/15
f 596/67/14 592/68/14 591/70/14
f 597/61/12 595/74/12 591/62/12
f 594/75/16 592/196/16 596/67/16
f 600/64/13 602/76/13 601/65/13
f 602/76/17 606/73/17 605/61/17
f 606/73/15 604/67/15 603/74/15
f 604/67/14 600/68/14 599/70/14
f 605/61/12 603/74/12 599/62/12
f 602/75/16 600/196/16 604/67/16
f 608/64/13 610/76/13 609/65/13
f 610/76/17 614/73/17 613/61/17
f 614/73/15 612/67/15 611/74/15
f 612/67/14 608/68/14 607/70/14
f 613/61/12 611/74/12 607/62/12
f 610/75/16 608/196/16 612/67/16
f 616/64/12 618/76/12 617/65/12
f 618/76/17 622/73/17 621/61/17
f 622/73/16 620/67/16 619/74/16
f 620/67/14 616/68/14 615/70/14
f 621/61/15 619/74/15 615/62/15
f 618/75/13 616/196/13 620/67/13
f 624/64/12 626/76/12 625/65/12
f 626/76/17 630/73/17 629/61/17
f 630/73/16 628/67/16 627/74/16
f 628/67/14 624/68/14 623/70/14
f 629/61/15 627/74/15 623/62/15
f 626/75/13 624/196/13 628/67/13
f 632/64/13 634/76/13 633/65/13
f 634/76/17 638/73/17 637/61/17
f 638/73/15 636/67/15 635/74/15
f 636/67/14 632/68/14 631/70/14
f 637/61/12 635/74/12 631/62/12
f 634/75/16 632/196/16 636/67/16
f 640/64/13 642/76/13 641/65/13
f 642/76/17 646/73/17 645/61/17
f 646/73/15 644/67/15 643/74/15
f 644/67/14 640/68/14 639/70/14
f 645/61/12 643/74/12 639/62/12
f 642/75/16 640/196/16 644/67/16
f 648/64/13 650/76/13 649/65/13
f 650/76/17 654/73/17 653/61/17
f 654/73/15 652/67/15 651/74/15
f 652/67/14 648/68/14 647/70/14
f 653/61/12 651/74/12 647/62/12
f 650/75/16 648/196/16 652/67/16
f 656/64/13 658/76/13 657/65/13
f 658/76/17 662/73/17 661/61/17
f 662/73/15 660/67/15 659/74/15
f 660/67/14 656/68/14 655/70/14
f 661/61/12 659/74/12 655/62/12
f 658/75/16 656/196/16 660/67/16
f 664/64/12 666/76/12 665/65/12
f 666/76/17 670/73/17 669/61/17
f 670/73/16 668/67/16 667/74/16
f 668/67/14 664/68/14 663/70/14
f 669/61/15 667/74/15 663/62/15
f 666/75/13 664/196/13 668/67/13
f 672/64/12 674/76/12 673/65/12
f 674/76/17 678/73/17 677/61/17
f 678/73/16 676/67/16 675/74/16
f 676/67/14 672/68/14 671/70/14
f 677/61/15 675/74/15 671/62/15
f 674/75/13 672/196/13 676/67/13
f 680/64/13 682/76/13 681/65/13
f 682/76/17 686/73/17 685/61/17
f 686/73/15 684/67/15 683/74/15
f 684/67/14 680/68/14 679/70/14
f 685/61/12 683/74/12 679/62/12
f 682/75/16 680/196/16 684/67/16
f 689/64/13 690/76/13 688/65/13
f 690/76/17 691/73/17 692/61/17
f 691/73/15 693/67/15 694/74/15
f 699/61/12 698/74/12 695/62/12
f 697/64/13 702/76/13 696/65/13
f 700/67/14 697/68/14 695/70/14
f 701/73/15 700/67/15 698/74/15
f 702/75/16 697/196/16 700/67/16
f 702/76/17 701/73/17 699/61/17
f 707/61/12 706/74/12 703/62/12
f 705/64/13 710/76/13 704/65/13
f 708/67/14 705/68/14 703/70/14
f 709/73/15 708/67/15 706/74/15
f 710/75/16 705/196/16 708/67/16
f 710/76/17 709/73/17 707/61/17
f 715/61/12 714/74/12 711/62/12
f 713/64/13 718/76/13 712/65/13
f 716/67/14 713/68/14 711/70/14
f 717/73/15 716/67/15 714/74/15
f 718/75/16 713/196/16 716/67/16
f 718/76/17 717/73/17 715/61/17
f 720/64/13 722/76/13 721/65/13
f 722/76/17 726/73/17 725/61/17
f 726/73/15 724/67/15 723/74/15
f 724/67/14 720/68/14 719/70/14
f 725/61/12 723/74/12 719/62/12
f 722/75/16 720/196/16 724/67/16
f 729/64/13 730/76/13 728/65/13
f 730/76/17 731/73/17 732/61/17
f 731/73/15 733/67/15 734/74/15
f 739/61/12 738/74/12 735/62/12
f 737/64/13 742/76/13 736/65/13
f 740/67/14 737/68/14 735/70/14
f 741/73/15 740/67/15 738/74/15
f 742/75/16 737/196/16 740/67/16
f 742/76/17 741/73/17 739/61/17
f 747/61/12 746/74/12 743/62/12
f 745/64/13 750/76/13 744/65/13
f 748/67/14 745/68/14 743/70/14
f 749/73/15 748/67/15 746/74/15
f 750/75/16 745/196/16 748/67/16
f 750/76/17 749/73/17 747/61/17
f 755/61/12 754/74/12 751/62/12
f 753/64/13 758/76/13 752/65/13
f 756/67/14 753/68/14 751/70/14
f 757/73/15 756/67/15 754/74/15
f 758/75/16 753/196/16 756/67/16
f 758/76/17 757/73/17 755/61/17
f 760/64/13 762/76/13 761/65/13
f 762/76/17 766/73/17 765/61/17
f 766/73/15 764/67/15 763/74/15
f 764/67/14 760/68/14 759/70/14
f 765/61/12 763/74/12 759/62/12
f 762/75/16 760/196/16 764/67/16
f 769/64/13 770/76/13 768/65/13
f 770/76/17 771/73/17 772/61/17
f 771/73/15 773/67/15 774/74/15
f 779/61/12 778/74/12 775/62/12
f 777/64/13 782/76/13 776/65/13
f 780/67/14 777/68/14 775/70/14
f 781/73/15 780/67/15 778/74/15
f 782/75/16 777/196/16 780/67/16
f 782/76/17 781/73/17 779/61/17
f 787/61/12 786/74/12 783/62/12
f 785/64/13 790/76/13 784/65/13
f 788/67/14 785/68/14 783/70/14
f 789/73/15 788/67/15 786/74/15
f 790/75/16 785/196/16 788/67/16
f 790/76/17 789/73/17 787/61/17
f 795/61/12 794/74/12 791/62/12
f 793/64/13 798/76/13 792/65/13
f 796/67/14 793/68/14 791/70/14
f 797/73/15 796/67/15 794/74/15
f 798/75/16 793/196/16 796/67/16
f 798/76/17 797/73/17 795/61/17
f 800/64/13 802/76/13 801/65/13
f 802/76/17 806/73/17 805/61/17
f 806/73/15 804/67/15 803/74/15
f 804/67/14 800/68/14 799/70/14
f 805/61/12 803/74/12 799/62/12
f 802/75/16 800/196/16 804/67/16
f 809/64/13 810/76/13 808/65/13
f 810/76/17 811/73/17 812/61/17
f 811/73/15 813/67/15 814/74/15
f 819/61/12 818/74/12 815/62/12
f 817/64/13 822/76/13 816/65/13
f 820/67/14 817/68/14 815/70/14
f 821/73/15 820/67/15 818/74/15
f 822/75/16 817/196/16 820/67/16
f 822/76/17 821/73/17 819/61/17
f 827/61/12 826/74/12 823/62/12
f 825/64/13 830/76/13 824/65/13
f 828/67/14 825/68/14 823/70/14
f 829/73/15 828/67/15 826/74/15
f 830/75/16 825/196/16 828/67/16
f 830/76/17 829/73/17 827/61/17
f 835/61/12 834/74/12 831/62/12
f 833/64/13 838/76/13 832/65/13
f 836/67/14 833/68/14 831/70/14
f 837/73/15 836/67/15 834/74/15
f 838/75/16 833/196/16 836/67/16
f 838/76/17 837/73/17 835/61/17
f 840/64/13 842/76/13 841/65/13
f 842/76/17 846/73/17 845/61/17
f 846/73/15 844/67/15 843/74/15
f 844/67/14 840/68/14 839/70/14
f 845/61/12 843/74/12 839/62/12
f 842/75/16 840/196/16 844/67/16
f 849/64/13 850/76/13 848/65/13
f 850/76/17 851/73/17 852/61/17
f 851/73/15 853/67/15 854/74/15
f 859/61/12 858/74/12 855/62/12
f 857/64/13 862/76/13 856/65/13
f 860/67/14 857/68/14 855/70/14
f 861/73/15 860/67/15 858/74/15
f 862/75/16 857/196/16 860/67/16
f 862/76/17 861/73/17 859/61/17
f 867/61/12 866/74/12 863/62/12
f 865/64/13 870/76/13 864/65/13
f 868/67/14 865/68/14 863/70/14
f 869/73/15 868/67/15 866/74/15
f 870/75/16 865/196/16 868/67/16
f 870/76/17 869/73/17 867/61/17
f 875/61/12 874/74/12 871/62/12
f 873/64/13 878/76/13 872/65/13
f 876/67/14 873/68/14 871/70/14
f 877/73/15 876/67/15 874/74/15
f 878/75/16 873/196/16 876/67/16
f 878/76/17 877/73/17 875/61/17
f 880/64/13 882/76/13 881/65/13
f 882/76/17 886/73/17 885/61/17
f 886/73/15 884/67/15 883/74/15
f 884/67/14 880/68/14 879/70/14
f 885/61/12 883/74/12 879/62/12
f 882/75/16 880/196/16 884/67/16
f 889/64/13 890/76/13 888/65/13
f 890/76/17 891/73/17 892/61/17
f 891/73/15 893/67/15 894/74/15
f 899/61/12 898/74/12 895/62/12
f 897/64/13 902/76/13 896/65/13
f 900/67/14 897/68/14 895/70/14
f 901/73/15 900/67/15 898/74/15
f 902/75/16 897/196/16 900/67/16
f 902/76/17 901/73/17 899/61/17
f 907/61/12 906/74/12 903/62/12
f 905/64/13 910/76/13 904/65/13
f 908/67/14 905/68/14 903/70/14
f 909/73/15 908/67/15 906/74/15
f 910/75/16 905/196/16 908/67/16
f 910/76/17 909/73/17 907/61/17
f 915/61/12 914/74/12 911/62/12
f 913/64/13 918/76/13 912/65/13
f 916/67/14 913/68/14 911/70/14
f 917/73/15 916/67/15 914/74/15
f 918/75/16 913/196/16 916/67/16
f 918/76/17 917/73/17 915/61/17
f 920/64/13 922/76/13 921/65/13
f 922/76/17 926/73/17 925/61/17
f 926/73/15 924/67/15 923/74/15
f 924/67/14 920/68/14 919/70/14
f 925/61/12 923/74/12 919/62/12
f 922/75/16 920/196/16 924/67/16
f 929/64/13 930/76/13 928/65/13
f 930/76/17 931/73/17 932/61/17
f 931/73/15 933/67/15 934/74/15
f 939/61/12 938/74/12 935/62/12
f 937/64/13 942/76/13 936/65/13
f 940/67/14 937/68/14 935/70/14
f 941/73/15 940/67/15 938/74/15
f 942/75/16 937/196/16 940/67/16
f 942/76/17 941/73/17 939/61/17
f 947/61/12 946/74/12 943/62/12
f 945/64/13 950/76/13 944/65/13
f 948/67/14 945/68/14 943/70/14
f 949/73/15 948/67/15 946/74/15
f 950/75/16 945/196/16 948/67/16
f 950/76/17 949/73/17 947/61/17
f 955/61/12 954/74/12 951/62/12
f 953/64/13 958/76/13 952/65/13
f 956/67/14 953/68/14 951/70/14
f 957/73/15 956/67/15 954/74/15
f 958/75/16 953/196/16 956/67/16
f 958/76/17 957/73/17 955/61/17
f 960/64/13 962/76/13 961/65/13
f 962/76/17 966/73/17 965/61/17
f 966/73/15 964/67/15 963/74/15
f 964/67/14 960/68/14 959/70/14
f 965/61/12 963/74/12 959/62/12
f 962/75/16 960/196/16 964/67/16
f 969/64/13 970/76/13 968/65/13
f 970/76/17 971/73/17 972/61/17
f 971/73/15 973/67/15 974/74/15
f 979/61/12 978/74/12 975/62/12
f 977/64/13 982/76/13 976/65/13
f 980/67/14 977/68/14 975/70/14
f 981/73/15 980/67/15 978/74/15
f 982/75/16 977/196/16 980/67/16
f 982/76/17 981/73/17 979/61/17
f 987/61/12 986/74/12 983/62/12
f 985/64/13 990/76/13 984/65/13
f 988/67/14 985/68/14 983/70/14
f 989/73/15 988/67/15 986/74/15
f 990/75/16 985/196/16 988/67/16
f 990/76/17 989/73/17 987/61/17
f 995/61/12 994/74/12 991/62/12
f 993/64/13 998/76/13 992/65/13
f 996/67/14 993/68/14 991/70/14
f 997/73/15 996/67/15 994/74/15
f 998/75/16 993/196/16 996/67/16
f 998/76/17 997/73/17 995/61/17
f 1000/64/13 1002/76/13 1001/65/13
f 1002/76/17 1006/73/17 1005/61/17
f 1006/73/15 1004/67/15 1003/74/15
f 1004/67/14 1000/68/14 999/70/14
f 1005/61/12 1003/74/12 999/62/12
f 1002/75/16 1000/196/16 1004/67/16
f 1009/64/13 1010/76/13 1008/65/13
f 1010/76/17 1011/73/17 1012/61/17
f 1011/73/15 1013/67/15 1014/74/15
f 1019/61/12 1018/74/12 1015/62/12
f 1017/64/13 1022/76/13 1016/65/13
f 1020/67/14 1017/68/14 1015/70/14
f 1021/73/15 1020/67/15 1018/74/15
f 1022/75/16 1017/196/16 1020/67/16
f 1022/76/17 1021/73/17 1019/61/17
f 1027/61/12 1026/74/12 1023/62/12
f 1025/64/13 1030/76/13 1024/65/13
f 1028/67/14 1025/68/14 1023/70/14
f 1029/73/15 1028/67/15 1026/74/15
f 1030/75/16 1025/196/16 1028/67/16
f 1030/76/17 1029/73/17 1027/61/17
f 1035/61/12 1034/74/12 1031/62/12
f 1033/64/13 1038/76/13 1032/65/13
f 1036/67/14 1033/68/14 1031/70/14
f 1037/73/15 1036/67/15 1034/74/15
f 1038/75/16 1033/196/16 1036/67/16
f 1038/76/17 1037/73/17 1035/61/17
f 1040/64/13 1042/76/13 1041/65/13
f 1042/76/17 1046/73/17 1045/61/17
f 1046/73/15 1044/67/15 1043/74/15
f 1044/67/14 1040/68/14 1039/70/14
f 1045/61/12 1043/74/12 1039/62/12
f 1042/75/16 1040/196/16 1044/67/16
f 1049/64/13 1050/76/13 1048/65/13
f 1050/76/17 1051/73/17 1052/61/17
f 1051/73/15 1053/67/15 1054/74/15
f 1059/61/12 1058/74/12 1055/62/12
f 1057/64/13 1062/76/13 1056/65/13
f 1060/67/14 1057/68/14 1055/70/14
f 1061/73/15 1060/67/15 1058/74/15
f 1062/75/16 1057/196/16 1060/67/16
f 1062/76/17 1061/73/17 1059/61/17
f 1067/61/12 1066/74/12 1063/62/12
f 1065/64/13 1070/76/13 1064/65/13
f 1068/67/14 1065/68/14 1063/70/14
f 1069/73/15 1068/67/15 1066/74/15
f 1070/75/16 1065/196/16 1068/67/16
f 1070/76/17 1069/73/17 1067/61/17
f 1075/61/12 1074/74/12 1071/62/12
f 1073/64/13 1078/76/13 1072/65/13
f 1076/67/14 1073/68/14 1071/70/14
f 1077/73/15 1076/67/15 1074/74/15
f 1078/75/16 1073/196/16 1076/67/16
f 1078/76/17 1077/73/17 1075/61/17
f 1080/64/13 1082/76/13 1081/65/13
f 1082/76/17 1086/73/17 1085/61/17
f 1086/73/15 1084/67/15 1083/74/15
f 1085/61/12 1083/74/12 1079/62/12
f 1082/75/16 1080/196/16 1084/67/16
f 1089/64/13 1090/76/13 1088/65/13
f 1090/76/17 1091/73/17 1092/61/17
f 1091/73/15 1093/67/15 1094/74/15
f 1099/61/12 1098/74/12 1095/62/12
f 1097/64/13 1102/76/13 1096/65/13
f 1101/73/15 1100/67/15 1098/74/15
f 1102/75/16 1097/196/16 1100/67/16
f 1102/76/17 1101/73/17 1099/61/17
f 1107/61/12 1106/74/12 1103/62/12
f 1105/64/13 1110/76/13 1104/65/13
f 1109/73/15 1108/67/15 1106/74/15
f 1110/76/17 1109/73/17 1107/61/17
f 1113/64/13 1118/76/13 1112/65/13
f 1116/67/14 1113/68/14 1111/70/14
f 1117/73/15 1116/67/15 1114/74/15
f 1118/75/16 1113/196/16 1116/67/16
f 1118/76/17 1117/73/17 1115/61/17
f 1120/64/13 1122/76/13 1121/65/13
f 1122/76/17 1126/73/17 1125/61/17
f 1126/73/15 1124/67/15 1123/74/15
f 1125/61/12 1123/74/12 1119/62/12
f 1122/75/16 1120/196/16 1124/67/16
f 1129/64/13 1130/76/13 1128/65/13
f 1130/76/17 1131/73/17 1132/61/17
f 1131/73/15 1133/67/15 1134/74/15
f 1139/61/12 1138/74/12 1135/62/12
f 1137/64/13 1142/76/13 1136/65/13
f 1141/73/15 1140/67/15 1138/74/15
f 1142/75/16 1137/196/16 1140/67/16
f 1142/76/17 1141/73/17 1139/61/17
f 1147/61/12 1146/74/12 1143/62/12
f 1145/64/13 1150/76/13 1144/65/13
f 1149/73/15 1148/67/15 1146/74/15
f 1150/76/17 1149/73/17 1147/61/17
f 1153/64/13 1158/76/13 1152/65/13
f 1156/67/14 1153/68/14 1151/70/14
f 1157/73/15 1156/67/15 1154/74/15
f 1158/75/16 1153/196/16 1156/67/16
f 1158/76/17 1157/73/17 1155/61/17
