# Blender 4.4.1
# www.blender.org
mtllib Block.mtl
o Cube.001
v 0.500000 0.500000 -0.500000
v 0.500000 -0.500000 -0.500000
v 0.500000 0.500000 0.500000
v -0.500000 0.500000 -0.500000
v -0.500000 -0.500000 -0.500000
v -0.500000 0.500000 0.500000
v -0.500000 -0.500000 0.500000
v 0.500000 -0.500000 0.500000
vn -0.0000 -0.0000 -1.0000
vn 1.0000 -0.0000 -0.0000
vn -0.0000 1.0000 -0.0000
vn -1.0000 -0.0000 -0.0000
vn -0.0000 -0.0000 1.0000
vn -0.0000 -1.0000 -0.0000
vt 0.625000 0.250000
vt 0.375000 0.500000
vt 0.375000 0.250000
vt 0.625000 0.500000
vt 0.375000 0.750000
vt 0.875000 0.500000
vt 0.625000 0.750000
vt 0.625000 0.000000
vt 0.375000 0.000000
vt 0.375000 1.000000
vt 0.125000 0.750000
vt 0.125000 0.500000
vt 0.875000 0.750000
vt 0.625000 1.000000
s 0
usemtl マテリアル.019
f 4/1/1 2/2/1 5/3/1
f 1/4/2 8/5/2 2/2/2
f 4/6/3 3/7/3 1/4/3
f 6/8/4 5/3/4 7/9/4
f 3/7/5 7/10/5 8/5/5
f 2/2/6 7/11/6 5/12/6
f 4/1/1 1/4/1 2/2/1
f 1/4/2 3/7/2 8/5/2
f 4/6/3 6/13/3 3/7/3
f 6/8/4 4/1/4 5/3/4
f 3/7/5 6/14/5 7/10/5
f 2/2/6 8/5/6 7/11/6
o Cube.024
v 0.457830 -0.519400 0.047000
v 0.257830 -0.519400 0.047000
v 0.457830 -0.519400 0.423000
v 0.457830 0.519400 0.047000
v 0.257830 0.519400 0.047000
v 0.457830 0.519400 0.423000
v 0.257830 0.519400 0.423000
v 0.257830 -0.519400 0.423000
v 0.530000 0.452105 -0.459000
v 0.530000 0.252105 -0.459000
v 0.530000 0.452105 -0.051000
v -0.530000 0.452105 -0.459000
v -0.530000 0.252105 -0.459000
v -0.530000 0.452105 -0.051000
v -0.530000 0.252105 -0.051000
v 0.530000 0.252105 -0.051000
v -0.040765 -0.519400 -0.423000
v -0.240765 -0.519400 -0.423000
v -0.040765 -0.519400 -0.047000
v -0.040765 0.519400 -0.423000
v -0.240765 0.519400 -0.423000
v -0.040765 0.519400 -0.047000
v -0.240765 0.519400 -0.047000
v -0.240765 -0.519400 -0.047000
v 0.530000 -0.035040 0.051000
v 0.530000 -0.235040 0.051000
v 0.530000 -0.035040 0.459000
v -0.530000 -0.035040 0.051000
v -0.530000 -0.235040 0.051000
v -0.530000 -0.035040 0.459000
v -0.530000 -0.235040 0.459000
v 0.530000 -0.235040 0.459000
v 0.530000 -0.275895 -0.510000
v 0.530000 -0.475895 -0.510000
v 0.530000 -0.275895 -0.306000
v -0.530000 -0.275895 -0.510000
v -0.530000 -0.475895 -0.510000
v -0.530000 -0.275895 -0.306000
v -0.530000 -0.475895 -0.306000
v 0.530000 -0.475895 -0.306000
v 0.530000 0.457830 0.051000
v 0.530000 0.257830 0.051000
v 0.530000 0.457830 0.459000
v -0.530000 0.457830 0.051000
v -0.530000 0.257830 0.051000
v -0.530000 0.457830 0.459000
v -0.530000 0.257830 0.459000
v 0.530000 0.257830 0.459000
v 0.530000 0.216975 -0.204000
v 0.530000 0.016975 -0.204000
v 0.530000 0.216975 0.204000
v -0.530000 0.216975 -0.204000
v -0.530000 0.016975 -0.204000
v -0.530000 0.216975 0.204000
v -0.530000 0.016975 0.204000
v 0.530000 0.016975 0.204000
v 0.530000 0.216975 0.306000
v 0.530000 0.016975 0.306000
v 0.530000 0.216975 0.510000
v -0.530000 0.216975 0.306000
v -0.530000 0.016975 0.306000
v -0.530000 0.216975 0.510000
v -0.530000 0.016975 0.510000
v 0.530000 0.016975 0.510000
v 0.530000 0.216975 -0.510000
v 0.530000 0.016975 -0.510000
v 0.530000 0.216975 -0.306000
v -0.530000 0.216975 -0.510000
v -0.530000 0.016975 -0.510000
v -0.530000 0.216975 -0.306000
v -0.530000 0.016975 -0.306000
v 0.530000 0.016975 -0.306000
v 0.530000 -0.275895 0.306000
v 0.530000 -0.475895 0.306000
v 0.530000 -0.275895 0.510000
v -0.530000 -0.275895 0.306000
v -0.530000 -0.475895 0.306000
v -0.530000 -0.275895 0.510000
v -0.530000 -0.475895 0.510000
v 0.530000 -0.475895 0.510000
v 0.530000 -0.275895 -0.204000
v 0.530000 -0.475895 -0.204000
v 0.530000 -0.275895 0.204000
v -0.530000 -0.275895 -0.204000
v -0.530000 -0.475895 -0.204000
v -0.530000 -0.275895 0.204000
v -0.530000 -0.475895 0.204000
v 0.530000 -0.475895 0.204000
v 0.530000 -0.040765 -0.459000
v 0.530000 -0.240765 -0.459000
v 0.530000 -0.040765 -0.051000
v -0.530000 -0.040765 -0.459000
v -0.530000 -0.240765 -0.459000
v -0.530000 -0.040765 -0.051000
v -0.530000 -0.240765 -0.051000
v 0.530000 -0.240765 -0.051000
v 0.294000 0.216975 -0.519400
v 0.294000 0.016975 -0.519400
v 0.490000 0.216975 -0.519400
v 0.294000 0.216975 0.519400
v 0.294000 0.016975 0.519400
v 0.490000 0.216975 0.519400
v 0.490000 0.016975 0.519400
v 0.490000 0.016975 -0.519400
v 0.049000 -0.035040 -0.519400
v 0.049000 -0.235040 -0.519400
v 0.441000 -0.035040 -0.519400
v 0.049000 -0.035040 0.519400
v 0.049000 -0.235040 0.519400
v 0.441000 -0.035040 0.519400
v 0.441000 -0.235040 0.519400
v 0.441000 -0.235040 -0.519400
v -0.441000 -0.040765 -0.519400
v -0.441000 -0.240765 -0.519400
v -0.049000 -0.040765 -0.519400
v -0.441000 -0.040765 0.519400
v -0.441000 -0.240765 0.519400
v -0.049000 -0.040765 0.519400
v -0.049000 -0.240765 0.519400
v -0.049000 -0.240765 -0.519400
v -0.196000 -0.275895 -0.519400
v -0.196000 -0.475895 -0.519400
v 0.196000 -0.275895 -0.519400
v -0.196000 -0.275895 0.519400
v -0.196000 -0.475895 0.519400
v 0.196000 -0.275895 0.519400
v 0.196000 -0.475895 0.519400
v 0.196000 -0.475895 -0.519400
v 0.294000 -0.275895 -0.519400
v 0.294000 -0.475895 -0.519400
v 0.490000 -0.275895 -0.519400
v 0.294000 -0.275895 0.519400
v 0.294000 -0.475895 0.519400
v 0.490000 -0.275895 0.519400
v 0.490000 -0.475895 0.519400
v 0.490000 -0.475895 -0.519400
v -0.490000 -0.275895 -0.519400
v -0.490000 -0.475895 -0.519400
v -0.294000 -0.275895 -0.519400
v -0.490000 -0.275895 0.519400
v -0.490000 -0.475895 0.519400
v -0.294000 -0.275895 0.519400
v -0.294000 -0.475895 0.519400
v -0.294000 -0.475895 -0.519400
v -0.490000 0.216975 -0.519400
v -0.490000 0.016975 -0.519400
v -0.294000 0.216975 -0.519400
v -0.490000 0.216975 0.519400
v -0.490000 0.016975 0.519400
v -0.294000 0.216975 0.519400
v -0.294000 0.016975 0.519400
v -0.294000 0.016975 -0.519400
v -0.196000 0.216975 -0.519400
v -0.196000 0.016975 -0.519400
v 0.196000 0.216975 -0.519400
v -0.196000 0.216975 0.519400
v -0.196000 0.016975 0.519400
v 0.196000 0.216975 0.519400
v 0.196000 0.016975 0.519400
v 0.196000 0.016975 -0.519400
v -0.441000 0.452105 -0.519400
v -0.441000 0.252105 -0.519400
v -0.049000 0.452105 -0.519400
v -0.441000 0.452105 0.519400
v -0.441000 0.252105 0.519400
v -0.049000 0.452105 0.519400
v -0.049000 0.252105 0.519400
v -0.049000 0.252105 -0.519400
v 0.049000 0.457830 -0.519400
v 0.049000 0.257830 -0.519400
v 0.441000 0.457830 -0.519400
v 0.049000 0.457830 0.519400
v 0.049000 0.257830 0.519400
v 0.441000 0.457830 0.519400
v 0.441000 0.257830 0.519400
v 0.441000 0.257830 -0.519400
v -0.275895 -0.519400 -0.470000
v -0.475895 -0.519400 -0.470000
v -0.275895 -0.519400 -0.282000
v -0.275895 0.519400 -0.470000
v -0.475895 0.519400 -0.470000
v -0.275895 0.519400 -0.282000
v -0.475895 0.519400 -0.282000
v -0.475895 -0.519400 -0.282000
v -0.035040 -0.519400 0.047000
v -0.235040 -0.519400 0.047000
v -0.035040 -0.519400 0.423000
v -0.035040 0.519400 0.047000
v -0.235040 0.519400 0.047000
v -0.035040 0.519400 0.423000
v -0.235040 0.519400 0.423000
v -0.235040 -0.519400 0.423000
v 0.452105 -0.519400 -0.423000
v 0.252105 -0.519400 -0.423000
v 0.452105 -0.519400 -0.047000
v 0.452105 0.519400 -0.423000
v 0.252105 0.519400 -0.423000
v 0.452105 0.519400 -0.047000
v 0.252105 0.519400 -0.047000
v 0.252105 -0.519400 -0.047000
v 0.216975 -0.519400 -0.188000
v 0.016975 -0.519400 -0.188000
v 0.216975 -0.519400 0.188000
v 0.216975 0.519400 -0.188000
v 0.016975 0.519400 -0.188000
v 0.216975 0.519400 0.188000
v 0.016975 0.519400 0.188000
v 0.016975 -0.519400 0.188000
v 0.216975 -0.519400 0.282000
v 0.016975 -0.519400 0.282000
v 0.216975 -0.519400 0.470000
v 0.216975 0.519400 0.282000
v 0.016975 0.519400 0.282000
v 0.216975 0.519400 0.470000
v 0.016975 0.519400 0.470000
v 0.016975 -0.519400 0.470000
v 0.216975 -0.519400 -0.470000
v 0.016975 -0.519400 -0.470000
v 0.216975 -0.519400 -0.282000
v 0.216975 0.519400 -0.470000
v 0.016975 0.519400 -0.470000
v 0.216975 0.519400 -0.282000
v 0.016975 0.519400 -0.282000
v 0.016975 -0.519400 -0.282000
v -0.275895 -0.519400 0.282000
v -0.475895 -0.519400 0.282000
v -0.275895 -0.519400 0.470000
v -0.275895 0.519400 0.282000
v -0.475895 0.519400 0.282000
v -0.275895 0.519400 0.470000
v -0.475895 0.519400 0.470000
v -0.475895 -0.519400 0.470000
v -0.275895 -0.519400 -0.188000
v -0.475895 -0.519400 -0.188000
v -0.275895 -0.519400 0.188000
v -0.275895 0.519400 -0.188000
v -0.475895 0.519400 -0.188000
v -0.275895 0.519400 0.188000
v -0.475895 0.519400 0.188000
v -0.475895 -0.519400 0.188000
vn -0.0000 -1.0000 -0.0000
vn -0.0000 -0.0000 -1.0000
vn 1.0000 -0.0000 -0.0000
vn -0.0000 1.0000 -0.0000
vn -0.0000 -0.0000 1.0000
vn -1.0000 -0.0000 -0.0000
vt 0.625000 0.500000
vt 0.375000 0.750000
vt 0.375000 0.500000
vt 0.625000 0.250000
vt 0.375000 0.250000
vt 0.875000 0.500000
vt 0.625000 0.750000
vt 0.625000 0.000000
vt 0.375000 0.000000
vt 0.375000 1.000000
vt 0.125000 0.750000
vt 0.125000 0.500000
vt 0.875000 0.750000
vt 0.625000 1.000000
s 0
usemtl マテリアル.018
f 9/15/7 16/16/7 10/17/7
f 12/18/8 10/17/8 13/19/8
f 12/20/9 11/21/9 9/15/9
f 14/22/10 13/19/10 15/23/10
f 11/21/11 15/24/11 16/16/11
f 10/17/12 15/25/12 13/26/12
f 17/15/9 24/16/9 18/17/9
f 20/18/8 18/17/8 21/19/8
f 20/20/10 19/21/10 17/15/10
f 22/22/12 21/19/12 23/23/12
f 19/21/11 23/24/11 24/16/11
f 18/17/7 23/25/7 21/26/7
f 28/18/8 26/17/8 29/19/8
f 25/15/7 32/16/7 26/17/7
f 28/20/9 27/21/9 25/15/9
f 30/22/10 29/19/10 31/23/10
f 27/21/11 31/24/11 32/16/11
f 26/17/12 31/25/12 29/26/12
f 36/18/8 34/17/8 37/19/8
f 33/15/9 40/16/9 34/17/9
f 36/20/10 35/21/10 33/15/10
f 38/22/12 37/19/12 39/23/12
f 35/21/11 39/24/11 40/16/11
f 34/17/7 39/25/7 37/26/7
f 44/18/8 42/17/8 45/19/8
f 42/17/9 43/21/9 48/16/9
f 44/20/10 43/21/10 41/15/10
f 46/22/12 45/19/12 47/23/12
f 43/21/11 47/24/11 48/16/11
f 42/17/7 47/25/7 45/26/7
f 49/15/9 56/16/9 50/17/9
f 52/18/8 50/17/8 53/19/8
f 52/20/10 51/21/10 49/15/10
f 54/22/12 53/19/12 55/23/12
f 51/21/11 55/24/11 56/16/11
f 50/17/7 55/25/7 53/26/7
f 57/15/9 64/16/9 58/17/9
f 60/18/8 58/17/8 61/19/8
f 60/20/10 59/21/10 57/15/10
f 62/22/12 61/19/12 63/23/12
f 59/21/11 63/24/11 64/16/11
f 58/17/7 63/25/7 61/26/7
f 65/15/9 72/16/9 66/17/9
f 68/18/8 66/17/8 69/19/8
f 68/20/10 67/21/10 65/15/10
f 70/22/12 69/19/12 71/23/12
f 67/21/11 71/24/11 72/16/11
f 66/17/7 71/25/7 69/26/7
f 73/15/9 80/16/9 74/17/9
f 76/18/8 74/17/8 77/19/8
f 76/20/10 75/21/10 73/15/10
f 78/22/12 77/19/12 79/23/12
f 75/21/11 79/24/11 80/16/11
f 74/17/7 79/25/7 77/26/7
f 81/15/9 88/16/9 82/17/9
f 84/18/8 82/17/8 85/19/8
f 84/20/10 83/21/10 81/15/10
f 87/23/12 84/18/12 85/19/12
f 83/21/11 87/24/11 88/16/11
f 82/17/7 87/25/7 85/26/7
f 89/15/9 96/16/9 90/17/9
f 92/18/8 90/17/8 93/19/8
f 92/20/10 91/21/10 89/15/10
f 94/22/12 93/19/12 95/23/12
f 91/21/11 95/24/11 96/16/11
f 90/17/7 95/25/7 93/26/7
f 97/15/9 104/16/9 98/17/9
f 100/18/8 98/17/8 101/19/8
f 100/20/10 99/21/10 97/15/10
f 102/22/12 101/19/12 103/23/12
f 99/21/11 103/24/11 104/16/11
f 98/17/7 103/25/7 101/26/7
f 105/15/8 112/16/8 106/17/8
f 108/18/12 106/17/12 109/19/12
f 108/20/10 107/21/10 105/15/10
f 110/22/11 109/19/11 111/23/11
f 107/21/9 111/24/9 112/16/9
f 106/17/7 111/25/7 109/26/7
f 113/15/8 120/16/8 114/17/8
f 116/18/12 114/17/12 117/19/12
f 116/20/10 115/21/10 113/15/10
f 118/22/11 117/19/11 119/23/11
f 115/21/9 119/24/9 120/16/9
f 114/17/7 119/25/7 117/26/7
f 121/15/8 128/16/8 122/17/8
f 124/18/12 122/17/12 125/19/12
f 124/20/10 123/21/10 121/15/10
f 126/22/11 125/19/11 127/23/11
f 123/21/9 127/24/9 128/16/9
f 122/17/7 127/25/7 125/26/7
f 129/15/8 136/16/8 130/17/8
f 132/18/12 130/17/12 133/19/12
f 132/20/10 131/21/10 129/15/10
f 134/22/11 133/19/11 135/23/11
f 131/21/9 135/24/9 136/16/9
f 133/26/7 136/16/7 135/25/7
f 137/15/8 144/16/8 138/17/8
f 140/18/12 138/17/12 141/19/12
f 140/20/10 139/21/10 137/15/10
f 143/23/11 140/18/11 141/19/11
f 139/21/9 143/24/9 144/16/9
f 138/17/7 143/25/7 141/26/7
f 146/17/8 147/21/8 152/16/8
f 148/18/12 146/17/12 149/19/12
f 148/20/10 147/21/10 145/15/10
f 150/22/11 149/19/11 151/23/11
f 147/21/9 151/24/9 152/16/9
f 146/17/7 151/25/7 149/26/7
f 153/15/8 160/16/8 154/17/8
f 156/18/12 154/17/12 157/19/12
f 156/20/10 155/21/10 153/15/10
f 158/22/11 157/19/11 159/23/11
f 155/21/9 159/24/9 160/16/9
f 154/17/7 159/25/7 157/26/7
f 161/15/8 168/16/8 162/17/8
f 164/18/12 162/17/12 165/19/12
f 164/20/10 163/21/10 161/15/10
f 166/22/11 165/19/11 167/23/11
f 163/21/9 167/24/9 168/16/9
f 165/26/7 168/16/7 167/25/7
f 169/15/8 176/16/8 170/17/8
f 172/18/12 170/17/12 173/19/12
f 172/20/10 171/21/10 169/15/10
f 174/22/11 173/19/11 175/23/11
f 171/21/9 175/24/9 176/16/9
f 170/17/7 175/25/7 173/26/7
f 177/15/8 184/16/8 178/17/8
f 180/18/12 178/17/12 181/19/12
f 180/20/10 179/21/10 177/15/10
f 182/22/11 181/19/11 183/23/11
f 179/21/9 183/24/9 184/16/9
f 178/17/7 183/25/7 181/26/7
f 186/17/7 187/21/7 192/16/7
f 188/18/8 186/17/8 189/19/8
f 188/20/9 187/21/9 185/15/9
f 190/22/10 189/19/10 191/23/10
f 187/21/11 191/24/11 192/16/11
f 186/17/12 191/25/12 189/26/12
f 193/15/7 200/16/7 194/17/7
f 196/18/8 194/17/8 197/19/8
f 196/20/9 195/21/9 193/15/9
f 198/22/10 197/19/10 199/23/10
f 195/21/11 199/24/11 200/16/11
f 194/17/12 199/25/12 197/26/12
f 201/15/7 208/16/7 202/17/7
f 204/18/8 202/17/8 205/19/8
f 204/20/9 203/21/9 201/15/9
f 206/22/10 205/19/10 207/23/10
f 203/21/11 207/24/11 208/16/11
f 202/17/12 207/25/12 205/26/12
f 209/15/7 216/16/7 210/17/7
f 213/19/8 209/15/8 210/17/8
f 212/20/9 211/21/9 209/15/9
f 214/22/10 213/19/10 215/23/10
f 211/21/11 215/24/11 216/16/11
f 210/17/12 215/25/12 213/26/12
f 217/15/7 224/16/7 218/17/7
f 221/19/8 217/15/8 218/17/8
f 220/20/9 219/21/9 217/15/9
f 222/22/10 221/19/10 223/23/10
f 219/21/11 223/24/11 224/16/11
f 218/17/12 223/25/12 221/26/12
f 225/15/7 232/16/7 226/17/7
f 229/19/8 225/15/8 226/17/8
f 228/20/9 227/21/9 225/15/9
f 230/22/10 229/19/10 231/23/10
f 227/21/11 231/24/11 232/16/11
f 226/17/12 231/25/12 229/26/12
f 233/15/7 240/16/7 234/17/7
f 236/18/8 234/17/8 237/19/8
f 236/20/9 235/21/9 233/15/9
f 239/23/10 236/18/10 237/19/10
f 235/21/11 239/24/11 240/16/11
f 234/17/12 239/25/12 237/26/12
f 241/15/7 248/16/7 242/17/7
f 244/18/8 242/17/8 245/19/8
f 244/20/9 243/21/9 241/15/9
f 246/22/10 245/19/10 247/23/10
f 243/21/11 247/24/11 248/16/11
f 242/17/12 247/25/12 245/26/12
f 9/15/7 11/21/7 16/16/7
f 12/18/8 9/15/8 10/17/8
f 12/20/9 14/27/9 11/21/9
f 14/22/10 12/18/10 13/19/10
f 11/21/11 14/28/11 15/24/11
f 10/17/12 16/16/12 15/25/12
f 17/15/9 19/21/9 24/16/9
f 20/18/8 17/15/8 18/17/8
f 20/20/10 22/27/10 19/21/10
f 22/22/12 20/18/12 21/19/12
f 19/21/11 22/28/11 23/24/11
f 18/17/7 24/16/7 23/25/7
f 28/18/8 25/15/8 26/17/8
f 25/15/7 27/21/7 32/16/7
f 28/20/9 30/27/9 27/21/9
f 30/22/10 28/18/10 29/19/10
f 27/21/11 30/28/11 31/24/11
f 26/17/12 32/16/12 31/25/12
f 36/18/8 33/15/8 34/17/8
f 33/15/9 35/21/9 40/16/9
f 36/20/10 38/27/10 35/21/10
f 38/22/12 36/18/12 37/19/12
f 35/21/11 38/28/11 39/24/11
f 34/17/7 40/16/7 39/25/7
f 44/18/8 41/15/8 42/17/8
f 42/17/9 41/15/9 43/21/9
f 44/20/10 46/27/10 43/21/10
f 46/22/12 44/18/12 45/19/12
f 43/21/11 46/28/11 47/24/11
f 42/17/7 48/16/7 47/25/7
f 49/15/9 51/21/9 56/16/9
f 52/18/8 49/15/8 50/17/8
f 52/20/10 54/27/10 51/21/10
f 54/22/12 52/18/12 53/19/12
f 51/21/11 54/28/11 55/24/11
f 50/17/7 56/16/7 55/25/7
f 57/15/9 59/21/9 64/16/9
f 60/18/8 57/15/8 58/17/8
f 60/20/10 62/27/10 59/21/10
f 62/22/12 60/18/12 61/19/12
f 59/21/11 62/28/11 63/24/11
f 58/17/7 64/16/7 63/25/7
f 65/15/9 67/21/9 72/16/9
f 68/18/8 65/15/8 66/17/8
f 68/20/10 70/27/10 67/21/10
f 70/22/12 68/18/12 69/19/12
f 67/21/11 70/28/11 71/24/11
f 66/17/7 72/16/7 71/25/7
f 73/15/9 75/21/9 80/16/9
f 76/18/8 73/15/8 74/17/8
f 76/20/10 78/27/10 75/21/10
f 78/22/12 76/18/12 77/19/12
f 75/21/11 78/28/11 79/24/11
f 74/17/7 80/16/7 79/25/7
f 81/15/9 83/21/9 88/16/9
f 84/18/8 81/15/8 82/17/8
f 84/20/10 86/27/10 83/21/10
f 87/23/12 86/22/12 84/18/12
f 83/21/11 86/28/11 87/24/11
f 82/17/7 88/16/7 87/25/7
f 89/15/9 91/21/9 96/16/9
f 92/18/8 89/15/8 90/17/8
f 92/20/10 94/27/10 91/21/10
f 94/22/12 92/18/12 93/19/12
f 91/21/11 94/28/11 95/24/11
f 90/17/7 96/16/7 95/25/7
f 97/15/9 99/21/9 104/16/9
f 100/18/8 97/15/8 98/17/8
f 100/20/10 102/27/10 99/21/10
f 102/22/12 100/18/12 101/19/12
f 99/21/11 102/28/11 103/24/11
f 98/17/7 104/16/7 103/25/7
f 105/15/8 107/21/8 112/16/8
f 108/18/12 105/15/12 106/17/12
f 108/20/10 110/27/10 107/21/10
f 110/22/11 108/18/11 109/19/11
f 107/21/9 110/28/9 111/24/9
f 106/17/7 112/16/7 111/25/7
f 113/15/8 115/21/8 120/16/8
f 116/18/12 113/15/12 114/17/12
f 116/20/10 118/27/10 115/21/10
f 118/22/11 116/18/11 117/19/11
f 115/21/9 118/28/9 119/24/9
f 114/17/7 120/16/7 119/25/7
f 121/15/8 123/21/8 128/16/8
f 124/18/12 121/15/12 122/17/12
f 124/20/10 126/27/10 123/21/10
f 126/22/11 124/18/11 125/19/11
f 123/21/9 126/28/9 127/24/9
f 122/17/7 128/16/7 127/25/7
f 129/15/8 131/21/8 136/16/8
f 132/18/12 129/15/12 130/17/12
f 132/20/10 134/27/10 131/21/10
f 134/22/11 132/18/11 133/19/11
f 131/21/9 134/28/9 135/24/9
f 133/26/7 130/17/7 136/16/7
f 137/15/8 139/21/8 144/16/8
f 140/18/12 137/15/12 138/17/12
f 140/20/10 142/27/10 139/21/10
f 143/23/11 142/22/11 140/18/11
f 139/21/9 142/28/9 143/24/9
f 138/17/7 144/16/7 143/25/7
f 146/17/8 145/15/8 147/21/8
f 148/18/12 145/15/12 146/17/12
f 148/20/10 150/27/10 147/21/10
f 150/22/11 148/18/11 149/19/11
f 147/21/9 150/28/9 151/24/9
f 146/17/7 152/16/7 151/25/7
f 153/15/8 155/21/8 160/16/8
f 156/18/12 153/15/12 154/17/12
f 156/20/10 158/27/10 155/21/10
f 158/22/11 156/18/11 157/19/11
f 155/21/9 158/28/9 159/24/9
f 154/17/7 160/16/7 159/25/7
f 161/15/8 163/21/8 168/16/8
f 164/18/12 161/15/12 162/17/12
f 164/20/10 166/27/10 163/21/10
f 166/22/11 164/18/11 165/19/11
f 163/21/9 166/28/9 167/24/9
f 165/26/7 162/17/7 168/16/7
f 169/15/8 171/21/8 176/16/8
f 172/18/12 169/15/12 170/17/12
f 172/20/10 174/27/10 171/21/10
f 174/22/11 172/18/11 173/19/11
f 171/21/9 174/28/9 175/24/9
f 170/17/7 176/16/7 175/25/7
f 177/15/8 179/21/8 184/16/8
f 180/18/12 177/15/12 178/17/12
f 180/20/10 182/27/10 179/21/10
f 182/22/11 180/18/11 181/19/11
f 179/21/9 182/28/9 183/24/9
f 178/17/7 184/16/7 183/25/7
f 186/17/7 185/15/7 187/21/7
f 188/18/8 185/15/8 186/17/8
f 188/20/9 190/27/9 187/21/9
f 190/22/10 188/18/10 189/19/10
f 187/21/11 190/28/11 191/24/11
f 186/17/12 192/16/12 191/25/12
f 193/15/7 195/21/7 200/16/7
f 196/18/8 193/15/8 194/17/8
f 196/20/9 198/27/9 195/21/9
f 198/22/10 196/18/10 197/19/10
f 195/21/11 198/28/11 199/24/11
f 194/17/12 200/16/12 199/25/12
f 201/15/7 203/21/7 208/16/7
f 204/18/8 201/15/8 202/17/8
f 204/20/9 206/27/9 203/21/9
f 206/22/10 204/18/10 205/19/10
f 203/21/11 206/28/11 207/24/11
f 202/17/12 208/16/12 207/25/12
f 209/15/7 211/21/7 216/16/7
f 213/19/8 212/18/8 209/15/8
f 212/20/9 214/27/9 211/21/9
f 214/22/10 212/18/10 213/19/10
f 211/21/11 214/28/11 215/24/11
f 210/17/12 216/16/12 215/25/12
f 217/15/7 219/21/7 224/16/7
f 221/19/8 220/18/8 217/15/8
f 220/20/9 222/27/9 219/21/9
f 222/22/10 220/18/10 221/19/10
f 219/21/11 222/28/11 223/24/11
f 218/17/12 224/16/12 223/25/12
f 225/15/7 227/21/7 232/16/7
f 229/19/8 228/18/8 225/15/8
f 228/20/9 230/27/9 227/21/9
f 230/22/10 228/18/10 229/19/10
f 227/21/11 230/28/11 231/24/11
f 226/17/12 232/16/12 231/25/12
f 233/15/7 235/21/7 240/16/7
f 236/18/8 233/15/8 234/17/8
f 236/20/9 238/27/9 235/21/9
f 239/23/10 238/22/10 236/18/10
f 235/21/11 238/28/11 239/24/11
f 234/17/12 240/16/12 239/25/12
f 241/15/7 243/21/7 248/16/7
f 244/18/8 241/15/8 242/17/8
f 244/20/9 246/27/9 243/21/9
f 246/22/10 244/18/10 245/19/10
f 243/21/11 246/28/11 247/24/11
f 242/17/12 248/16/12 247/25/12
