# Blender 4.4.1
# www.blender.org
mtllib callingCard.mtl
o 立方体
v -4.280000 -2.699000 0.010000
v -4.280000 2.699000 0.010000
v -4.280000 -2.699000 -0.010000
v -4.280000 2.699000 -0.010000
v 4.280000 -2.699000 0.010000
v 4.280000 2.699000 0.010000
v 4.280000 -2.699000 -0.010000
v 4.280000 2.699000 -0.010000
vn -1.0000 -0.0000 -0.0000
vn -0.0000 -0.0000 -1.0000
vn 1.0000 -0.0000 -0.0000
vn -0.0000 -0.0000 1.0000
vn -0.0000 -1.0000 -0.0000
vn -0.0000 1.0000 -0.0000
vt 0.000089 0.001934
vt 0.001934 0.500000
vt 0.000089 0.500000
vt 0.001934 0.001934
vt 0.791753 0.500000
vt 0.791753 0.001934
vt 0.793598 0.500000
vt 0.791753 0.999911
vt 0.001934 0.501845
vt 0.791753 0.501845
vt 0.791753 0.000089
vt 0.793598 0.001934
vt 0.001934 0.999911
vt 0.001934 0.000089
s 0
usemtl マテリアル
f 2/1/1 3/2/1 1/3/1
f 4/4/2 7/5/2 3/2/2
f 8/6/3 5/7/3 7/5/3
f 6/8/4 1/9/4 5/10/4
f 7/5/5 1/9/5 3/2/5
f 4/4/6 6/11/6 8/6/6
f 2/1/1 4/4/1 3/2/1
f 4/4/2 8/6/2 7/5/2
f 8/6/3 6/12/3 5/7/3
f 6/8/4 2/13/4 1/9/4
f 7/5/5 5/10/5 1/9/5
f 4/4/6 2/14/6 6/11/6
