# Blender 4.4.1
# www.blender.org
mtllib kusari_2.mtl
o nirenn
v 0.000000 -0.152815 0.097970
v -0.021511 -0.148204 0.097970
v -0.037258 -0.135606 0.097970
v -0.043022 -0.118397 0.097970
v -0.037258 -0.101188 0.097970
v -0.021511 -0.088591 0.097970
v 0.000000 -0.083979 0.097970
v 0.021511 -0.088591 0.097970
v 0.037258 -0.101188 0.097970
v 0.043022 -0.118397 0.097970
v 0.037258 -0.135606 0.097970
v 0.021511 -0.148204 0.097970
v 0.000000 -0.147608 0.233454
v -0.021511 -0.143154 0.231962
v -0.037258 -0.130985 0.227886
v -0.043022 -0.114363 0.222319
v -0.037258 -0.097740 0.216751
v -0.021511 -0.085572 0.212676
v 0.000000 -0.081118 0.211184
v 0.021511 -0.085572 0.212676
v 0.037258 -0.097740 0.216751
v 0.043022 -0.114363 0.222319
v 0.037258 -0.130985 0.227886
v 0.021511 -0.143154 0.231962
v 0.000000 -0.132342 0.279524
v -0.021511 -0.128348 0.276642
v -0.037258 -0.117438 0.268768
v -0.043022 -0.102535 0.258013
v -0.037258 -0.087632 0.247257
v -0.021511 -0.076722 0.239384
v 0.000000 -0.072728 0.236502
v 0.021511 -0.076722 0.239384
v 0.037258 -0.087632 0.247257
v 0.043022 -0.102535 0.258013
v 0.037258 -0.117438 0.268768
v 0.021511 -0.128348 0.276642
v 0.000000 -0.108057 0.319085
v -0.021511 -0.104796 0.315010
v -0.037258 -0.095888 0.303875
v -0.043022 -0.083719 0.288664
v -0.037258 -0.071551 0.273453
v -0.021511 -0.062643 0.262318
v 0.000000 -0.059382 0.258243
v 0.021511 -0.062643 0.262318
v 0.037258 -0.071551 0.273453
v 0.043022 -0.083719 0.288664
v 0.037258 -0.095888 0.303875
v 0.021511 -0.104796 0.315010
v 0.000000 -0.076408 0.349442
v -0.021511 -0.074102 0.344450
v -0.037258 -0.067803 0.330813
v -0.043022 -0.059199 0.312183
v -0.037258 -0.050594 0.293554
v -0.021511 -0.044295 0.279917
v -0.000000 -0.041990 0.274925
v 0.021511 -0.044295 0.279917
v 0.037258 -0.050594 0.293554
v 0.043022 -0.059199 0.312183
v 0.037258 -0.067803 0.330813
v 0.021511 -0.074102 0.344450
v -0.000000 -0.039551 0.368525
v -0.021511 -0.038358 0.362957
v -0.037258 -0.035097 0.347746
v -0.043022 -0.030643 0.326968
v -0.037258 -0.026189 0.306190
v -0.021511 -0.022929 0.290979
v -0.000000 -0.021735 0.285412
v 0.021511 -0.022929 0.290979
v 0.037258 -0.026189 0.306190
v 0.043022 -0.030643 0.326968
v 0.037258 -0.035097 0.347746
v 0.021511 -0.038358 0.362957
v -0.000000 -0.000000 0.375033
v -0.021511 -0.000000 0.369269
v -0.037258 -0.000000 0.353522
v -0.043022 -0.000000 0.332011
v -0.037258 -0.000000 0.310500
v -0.021511 -0.000000 0.294753
v -0.000000 -0.000000 0.288989
v 0.021511 -0.000000 0.294753
v 0.037258 -0.000000 0.310500
v 0.043022 -0.000000 0.332011
v 0.037258 -0.000000 0.353522
v 0.021511 -0.000000 0.369269
v -0.000000 0.039551 0.368525
v -0.021511 0.038358 0.362957
v -0.037258 0.035097 0.347746
v -0.043022 0.030643 0.326968
v -0.037258 0.026189 0.306190
v -0.021511 0.022929 0.290979
v -0.000000 0.021735 0.285412
v 0.021511 0.022929 0.290979
v 0.037258 0.026189 0.306190
v 0.043022 0.030643 0.326968
v 0.037258 0.035097 0.347746
v 0.021511 0.038358 0.362957
v -0.000000 0.076408 0.349442
v -0.021511 0.074102 0.344450
v -0.037258 0.067803 0.330813
v -0.043022 0.059199 0.312183
v -0.037258 0.050594 0.293554
v -0.021511 0.044295 0.279917
v -0.000000 0.041990 0.274925
v 0.021511 0.044295 0.279917
v 0.037258 0.050594 0.293554
v 0.043022 0.059199 0.312183
v 0.037258 0.067803 0.330813
v 0.021511 0.074102 0.344450
v -0.000000 0.108057 0.319085
v -0.021511 0.104796 0.315010
v -0.037258 0.095888 0.303875
v -0.043022 0.083720 0.288664
v -0.037258 0.071551 0.273453
v -0.021511 0.062643 0.262318
v -0.000000 0.059382 0.258243
v 0.021511 0.062643 0.262318
v 0.037258 0.071551 0.273453
v 0.043022 0.083720 0.288664
v 0.037258 0.095888 0.303875
v 0.021511 0.104796 0.315010
v -0.000000 0.132342 0.279524
v -0.021511 0.128348 0.276642
v -0.037258 0.117438 0.268768
v -0.043022 0.102535 0.258013
v -0.037258 0.087632 0.247257
v -0.021511 0.076722 0.239384
v -0.000000 0.072728 0.236502
v 0.021511 0.076722 0.239384
v 0.037258 0.087632 0.247257
v 0.043022 0.102535 0.258013
v 0.037258 0.117438 0.268768
v 0.021511 0.128348 0.276642
v -0.000000 0.147608 0.233454
v -0.021511 0.143154 0.231962
v -0.037258 0.130985 0.227886
v -0.043022 0.114363 0.222319
v -0.037258 0.097740 0.216751
v -0.021511 0.085572 0.212676
v -0.000000 0.081118 0.211184
v 0.021511 0.085572 0.212676
v 0.037258 0.097740 0.216751
v 0.043022 0.114363 0.222319
v 0.037258 0.130985 0.227886
v 0.021511 0.143154 0.231962
v -0.000000 0.152815 0.097970
v -0.021511 0.148204 0.097970
v -0.037258 0.135606 0.097970
v -0.043022 0.118397 0.097970
v -0.037258 0.101188 0.097970
v -0.021511 0.088591 0.097970
v -0.000000 0.083979 0.097970
v 0.021511 0.088591 0.097970
v 0.037258 0.101188 0.097970
v 0.043022 0.118397 0.097970
v 0.037258 0.135606 0.097970
v 0.021511 0.148204 0.097970
v -0.000000 0.147608 0.048531
v -0.021511 0.143154 0.050023
v -0.037258 0.130985 0.054098
v -0.043022 0.114363 0.059666
v -0.037258 0.097740 0.065233
v -0.021511 0.085572 0.069309
v -0.000000 0.081118 0.070801
v 0.021511 0.085572 0.069309
v 0.037258 0.097740 0.065233
v 0.043022 0.114363 0.059666
v 0.037258 0.130985 0.054098
v 0.021511 0.143154 0.050023
v -0.000000 0.132342 0.002461
v -0.021511 0.128348 0.005343
v -0.037258 0.117438 0.013216
v -0.043022 0.102535 0.023972
v -0.037258 0.087632 0.034727
v -0.021511 0.076722 0.042601
v -0.000000 0.072728 0.045483
v 0.021511 0.076722 0.042601
v 0.037258 0.087632 0.034727
v 0.043022 0.102535 0.023972
v 0.037258 0.117438 0.013216
v 0.021511 0.128348 0.005343
v -0.000000 0.108057 -0.037101
v -0.021511 0.104796 -0.033025
v -0.037258 0.095888 -0.021890
v -0.043022 0.083720 -0.006679
v -0.037258 0.071551 0.008531
v -0.021511 0.062643 0.019666
v -0.000000 0.059382 0.023742
v 0.021511 0.062643 0.019666
v 0.037258 0.071551 0.008531
v 0.043022 0.083720 -0.006679
v 0.037258 0.095888 -0.021890
v 0.021511 0.104796 -0.033025
v -0.000000 0.076408 -0.067457
v -0.021511 0.074102 -0.062465
v -0.037258 0.067803 -0.048828
v -0.043022 0.059199 -0.030199
v -0.037258 0.050594 -0.011570
v -0.021511 0.044295 0.002068
v -0.000000 0.041990 0.007060
v 0.021511 0.044295 0.002068
v 0.037258 0.050594 -0.011570
v 0.043022 0.059199 -0.030199
v 0.037258 0.067803 -0.048828
v 0.021511 0.074102 -0.062465
v -0.000000 0.039552 -0.086540
v -0.021511 0.038358 -0.080972
v -0.037258 0.035098 -0.065762
v -0.043022 0.030644 -0.044984
v -0.037258 0.026190 -0.024206
v -0.021511 0.022929 -0.008995
v -0.000000 0.021736 -0.003427
v 0.021511 0.022929 -0.008995
v 0.037258 0.026190 -0.024206
v 0.043022 0.030644 -0.044984
v 0.037258 0.035098 -0.065762
v 0.021511 0.038358 -0.080972
v -0.000000 -0.000000 -0.093049
v -0.021511 -0.000000 -0.087285
v -0.037258 -0.000000 -0.071538
v -0.043022 -0.000000 -0.050027
v -0.037258 -0.000000 -0.028515
v -0.021511 -0.000000 -0.012768
v -0.000000 -0.000000 -0.007004
v 0.021511 -0.000000 -0.012768
v 0.037258 -0.000000 -0.028515
v 0.043022 -0.000000 -0.050027
v 0.037258 -0.000000 -0.071538
v 0.021511 -0.000000 -0.087285
v -0.000000 -0.039551 -0.086540
v -0.021511 -0.038358 -0.080973
v -0.037258 -0.035097 -0.065762
v -0.043022 -0.030643 -0.044984
v -0.037258 -0.026189 -0.024206
v -0.021511 -0.022929 -0.008995
v -0.000000 -0.021735 -0.003427
v 0.021511 -0.022929 -0.008995
v 0.037258 -0.026189 -0.024206
v 0.043022 -0.030643 -0.044984
v 0.037258 -0.035097 -0.065762
v 0.021511 -0.038358 -0.080973
v 0.000000 -0.076408 -0.067457
v -0.021511 -0.074102 -0.062465
v -0.037258 -0.067803 -0.048828
v -0.043022 -0.059199 -0.030199
v -0.037258 -0.050594 -0.011570
v -0.021511 -0.044295 0.002068
v -0.000000 -0.041990 0.007060
v 0.021511 -0.044295 0.002068
v 0.037258 -0.050594 -0.011570
v 0.043022 -0.059199 -0.030199
v 0.037258 -0.067803 -0.048828
v 0.021511 -0.074102 -0.062465
v 0.000000 -0.108057 -0.037101
v -0.021511 -0.104796 -0.033025
v -0.037258 -0.095888 -0.021890
v -0.043022 -0.083719 -0.006679
v -0.037258 -0.071551 0.008531
v -0.021511 -0.062643 0.019666
v 0.000000 -0.059382 0.023742
v 0.021511 -0.062643 0.019666
v 0.037258 -0.071551 0.008531
v 0.043022 -0.083719 -0.006679
v 0.037258 -0.095888 -0.021890
v 0.021511 -0.104796 -0.033025
v 0.000000 -0.132342 0.002461
v -0.021511 -0.128348 0.005343
v -0.037258 -0.117438 0.013216
v -0.043022 -0.102535 0.023972
v -0.037258 -0.087632 0.034727
v -0.021511 -0.076722 0.042601
v 0.000000 -0.072728 0.045483
v 0.021511 -0.076722 0.042601
v 0.037258 -0.087632 0.034727
v 0.043022 -0.102535 0.023972
v 0.037258 -0.117438 0.013216
v 0.021511 -0.128348 0.005343
v 0.000000 -0.147608 0.048531
v -0.021511 -0.143154 0.050023
v -0.037258 -0.130985 0.054098
v -0.043022 -0.114363 0.059666
v -0.037258 -0.097740 0.065233
v -0.021511 -0.085572 0.069309
v 0.000000 -0.081118 0.070801
v 0.021511 -0.085572 0.069309
v 0.037258 -0.097740 0.065233
v 0.043022 -0.114363 0.059666
v 0.037258 -0.130985 0.054098
v 0.021511 -0.143154 0.050023
v -0.152815 -0.000000 -0.186296
v -0.148204 0.021511 -0.186296
v -0.135606 0.037258 -0.186296
v -0.118397 0.043022 -0.186296
v -0.101188 0.037258 -0.186296
v -0.088591 0.021511 -0.186296
v -0.083979 -0.000000 -0.186296
v -0.088591 -0.021511 -0.186296
v -0.101188 -0.037258 -0.186296
v -0.118397 -0.043022 -0.186296
v -0.135606 -0.037258 -0.186296
v -0.148204 -0.021511 -0.186296
v -0.147608 -0.000000 -0.050812
v -0.143154 0.021511 -0.052304
v -0.130985 0.037258 -0.056379
v -0.114363 0.043022 -0.061947
v -0.097740 0.037258 -0.067514
v -0.085572 0.021511 -0.071590
v -0.081118 -0.000000 -0.073082
v -0.085572 -0.021511 -0.071590
v -0.097740 -0.037258 -0.067514
v -0.114363 -0.043022 -0.061947
v -0.130985 -0.037258 -0.056379
v -0.143154 -0.021511 -0.052304
v -0.132342 -0.000000 -0.004742
v -0.128348 0.021511 -0.007624
v -0.117438 0.037258 -0.015497
v -0.102535 0.043022 -0.026253
v -0.087632 0.037258 -0.037008
v -0.076722 0.021511 -0.044882
v -0.072728 -0.000000 -0.047764
v -0.076722 -0.021511 -0.044882
v -0.087632 -0.037258 -0.037008
v -0.102535 -0.043022 -0.026253
v -0.117438 -0.037258 -0.015497
v -0.128348 -0.021511 -0.007624
v -0.108057 -0.000000 0.034820
v -0.104796 0.021511 0.030744
v -0.095888 0.037258 0.019609
v -0.083719 0.043022 0.004398
v -0.071551 0.037258 -0.010812
v -0.062643 0.021511 -0.021947
v -0.059382 -0.000000 -0.026023
v -0.062643 -0.021511 -0.021947
v -0.071551 -0.037258 -0.010812
v -0.083719 -0.043022 0.004398
v -0.095888 -0.037258 0.019609
v -0.104796 -0.021511 0.030744
v -0.076408 -0.000000 0.065176
v -0.074102 0.021511 0.060184
v -0.067803 0.037258 0.046547
v -0.059199 0.043022 0.027918
v -0.050594 0.037258 0.009289
v -0.044295 0.021511 -0.004349
v -0.041990 -0.000000 -0.009341
v -0.044295 -0.021511 -0.004349
v -0.050594 -0.037258 0.009289
v -0.059199 -0.043022 0.027918
v -0.067803 -0.037258 0.046547
v -0.074102 -0.021511 0.060184
v -0.039551 -0.000000 0.084259
v -0.038358 0.021511 0.078691
v -0.035097 0.037258 0.063481
v -0.030643 0.043022 0.042703
v -0.026189 0.037258 0.021924
v -0.022929 0.021511 0.006714
v -0.021735 -0.000000 0.001146
v -0.022929 -0.021511 0.006714
v -0.026189 -0.037258 0.021924
v -0.030643 -0.043022 0.042703
v -0.035097 -0.037258 0.063481
v -0.038358 -0.021511 0.078691
v -0.000000 -0.000000 0.090768
v -0.000000 0.021511 0.085004
v -0.000000 0.037258 0.069257
v -0.000000 0.043022 0.047745
v -0.000000 0.037258 0.026234
v -0.000000 0.021511 0.010487
v -0.000000 -0.000000 0.004723
v -0.000000 -0.021511 0.010487
v -0.000000 -0.037258 0.026234
v -0.000000 -0.043022 0.047745
v -0.000000 -0.037258 0.069257
v -0.000000 -0.021511 0.085004
v 0.039551 -0.000000 0.084259
v 0.038358 0.021511 0.078691
v 0.035097 0.037258 0.063481
v 0.030643 0.043022 0.042703
v 0.026189 0.037258 0.021924
v 0.022929 0.021511 0.006714
v 0.021735 -0.000000 0.001146
v 0.022929 -0.021511 0.006714
v 0.026189 -0.037258 0.021924
v 0.030643 -0.043022 0.042703
v 0.035097 -0.037258 0.063481
v 0.038358 -0.021511 0.078691
v 0.076408 -0.000000 0.065176
v 0.074102 0.021511 0.060184
v 0.067803 0.037258 0.046547
v 0.059199 0.043022 0.027918
v 0.050594 0.037258 0.009289
v 0.044295 0.021511 -0.004349
v 0.041990 -0.000000 -0.009341
v 0.044295 -0.021511 -0.004349
v 0.050594 -0.037258 0.009289
v 0.059199 -0.043022 0.027918
v 0.067803 -0.037258 0.046547
v 0.074102 -0.021511 0.060184
v 0.108057 -0.000000 0.034820
v 0.104796 0.021511 0.030744
v 0.095888 0.037258 0.019609
v 0.083720 0.043022 0.004398
v 0.071551 0.037258 -0.010812
v 0.062643 0.021511 -0.021947
v 0.059382 -0.000000 -0.026023
v 0.062643 -0.021511 -0.021947
v 0.071551 -0.037258 -0.010812
v 0.083720 -0.043022 0.004398
v 0.095888 -0.037258 0.019609
v 0.104796 -0.021511 0.030744
v 0.132342 -0.000000 -0.004742
v 0.128348 0.021511 -0.007624
v 0.117438 0.037258 -0.015497
v 0.102535 0.043022 -0.026253
v 0.087632 0.037258 -0.037008
v 0.076722 0.021511 -0.044882
v 0.072728 -0.000000 -0.047764
v 0.076722 -0.021511 -0.044882
v 0.087632 -0.037258 -0.037008
v 0.102535 -0.043022 -0.026253
v 0.117438 -0.037258 -0.015497
v 0.128348 -0.021511 -0.007624
v 0.147608 -0.000000 -0.050812
v 0.143154 0.021511 -0.052304
v 0.130985 0.037258 -0.056379
v 0.114363 0.043022 -0.061947
v 0.097740 0.037258 -0.067514
v 0.085572 0.021511 -0.071590
v 0.081118 -0.000000 -0.073082
v 0.085572 -0.021511 -0.071590
v 0.097740 -0.037258 -0.067514
v 0.114363 -0.043022 -0.061947
v 0.130985 -0.037258 -0.056379
v 0.143154 -0.021511 -0.052304
v 0.152815 -0.000000 -0.186296
v 0.148204 0.021511 -0.186296
v 0.135606 0.037258 -0.186296
v 0.118397 0.043022 -0.186296
v 0.101188 0.037258 -0.186296
v 0.088591 0.021511 -0.186296
v 0.083979 -0.000000 -0.186296
v 0.088591 -0.021511 -0.186296
v 0.101188 -0.037258 -0.186296
v 0.118397 -0.043022 -0.186296
v 0.135606 -0.037258 -0.186296
v 0.148204 -0.021511 -0.186296
v 0.147608 -0.000000 -0.235735
v 0.143154 0.021511 -0.234243
v 0.130985 0.037258 -0.230167
v 0.114363 0.043022 -0.224600
v 0.097740 0.037258 -0.219032
v 0.085572 0.021511 -0.214957
v 0.081118 -0.000000 -0.213465
v 0.085572 -0.021511 -0.214957
v 0.097740 -0.037258 -0.219032
v 0.114363 -0.043022 -0.224600
v 0.130985 -0.037258 -0.230167
v 0.143154 -0.021511 -0.234243
v 0.132342 -0.000000 -0.281805
v 0.128348 0.021511 -0.278923
v 0.117438 0.037258 -0.271049
v 0.102535 0.043022 -0.260294
v 0.087632 0.037258 -0.249538
v 0.076722 0.021511 -0.241665
v 0.072728 -0.000000 -0.238783
v 0.076722 -0.021511 -0.241665
v 0.087632 -0.037258 -0.249538
v 0.102535 -0.043022 -0.260294
v 0.117438 -0.037258 -0.271049
v 0.128348 -0.021511 -0.278923
v 0.108057 -0.000000 -0.321366
v 0.104796 0.021511 -0.317291
v 0.095888 0.037258 -0.306156
v 0.083720 0.043022 -0.290945
v 0.071551 0.037258 -0.275734
v 0.062643 0.021511 -0.264599
v 0.059382 -0.000000 -0.260524
v 0.062643 -0.021511 -0.264599
v 0.071551 -0.037258 -0.275734
v 0.083720 -0.043022 -0.290945
v 0.095888 -0.037258 -0.306156
v 0.104796 -0.021511 -0.317291
v 0.076408 -0.000000 -0.351723
v 0.074102 0.021511 -0.346731
v 0.067803 0.037258 -0.333094
v 0.059199 0.043022 -0.314464
v 0.050594 0.037258 -0.295835
v 0.044295 0.021511 -0.282198
v 0.041990 -0.000000 -0.277206
v 0.044295 -0.021511 -0.282198
v 0.050594 -0.037258 -0.295835
v 0.059199 -0.043022 -0.314464
v 0.067803 -0.037258 -0.333094
v 0.074102 -0.021511 -0.346731
v 0.039551 -0.000000 -0.370806
v 0.038358 0.021511 -0.365238
v 0.035097 0.037258 -0.350028
v 0.030644 0.043022 -0.329249
v 0.026190 0.037258 -0.308471
v 0.022929 0.021511 -0.293261
v 0.021736 -0.000000 -0.287693
v 0.022929 -0.021511 -0.293261
v 0.026190 -0.037258 -0.308471
v 0.030643 -0.043022 -0.329249
v 0.035097 -0.037258 -0.350028
v 0.038358 -0.021511 -0.365238
v -0.000000 -0.000000 -0.377314
v -0.000000 0.021511 -0.371551
v -0.000000 0.037258 -0.355803
v -0.000000 0.043022 -0.334292
v -0.000000 0.037258 -0.312781
v -0.000000 0.021511 -0.297034
v -0.000000 -0.000000 -0.291270
v -0.000000 -0.021511 -0.297034
v -0.000000 -0.037258 -0.312781
v -0.000000 -0.043022 -0.334292
v -0.000000 -0.037258 -0.355803
v -0.000000 -0.021511 -0.371551
v -0.039551 -0.000000 -0.370806
v -0.038358 0.021511 -0.365238
v -0.035097 0.037258 -0.350028
v -0.030643 0.043022 -0.329249
v -0.026189 0.037258 -0.308471
v -0.022929 0.021511 -0.293261
v -0.021735 -0.000000 -0.287693
v -0.022929 -0.021511 -0.293261
v -0.026189 -0.037258 -0.308471
v -0.030643 -0.043022 -0.329249
v -0.035097 -0.037258 -0.350028
v -0.038358 -0.021511 -0.365238
v -0.076408 -0.000000 -0.351723
v -0.074102 0.021511 -0.346731
v -0.067803 0.037258 -0.333094
v -0.059199 0.043022 -0.314464
v -0.050594 0.037258 -0.295835
v -0.044295 0.021511 -0.282198
v -0.041990 -0.000000 -0.277206
v -0.044295 -0.021511 -0.282198
v -0.050594 -0.037258 -0.295835
v -0.059199 -0.043022 -0.314464
v -0.067803 -0.037258 -0.333094
v -0.074102 -0.021511 -0.346731
v -0.108057 -0.000000 -0.321366
v -0.104796 0.021511 -0.317291
v -0.095888 0.037258 -0.306156
v -0.083719 0.043022 -0.290945
v -0.071551 0.037258 -0.275734
v -0.062643 0.021511 -0.264599
v -0.059382 -0.000000 -0.260524
v -0.062643 -0.021511 -0.264599
v -0.071551 -0.037258 -0.275734
v -0.083719 -0.043022 -0.290945
v -0.095888 -0.037258 -0.306156
v -0.104796 -0.021511 -0.317291
v -0.132342 -0.000000 -0.281805
v -0.128348 0.021511 -0.278923
v -0.117438 0.037258 -0.271050
v -0.102535 0.043022 -0.260294
v -0.087632 0.037258 -0.249538
v -0.076722 0.021511 -0.241665
v -0.072728 -0.000000 -0.238783
v -0.076722 -0.021511 -0.241665
v -0.087632 -0.037258 -0.249538
v -0.102535 -0.043022 -0.260294
v -0.117438 -0.037258 -0.271050
v -0.128348 -0.021511 -0.278923
v -0.147608 -0.000000 -0.235735
v -0.143154 0.021511 -0.234243
v -0.130985 0.037258 -0.230167
v -0.114363 0.043022 -0.224600
v -0.097740 0.037258 -0.219032
v -0.085572 0.021511 -0.214957
v -0.081118 -0.000000 -0.213465
v -0.085572 -0.021511 -0.214957
v -0.097740 -0.037258 -0.219032
v -0.114363 -0.043022 -0.224600
v -0.130985 -0.037258 -0.230167
v -0.143154 -0.021511 -0.234243
vn -0.0000 -0.9995 -0.0328
vn -0.4118 -0.9108 -0.0304
vn -0.8014 -0.5978 -0.0208
vn -0.9998 -0.0176 -0.0010
vn -0.8169 0.5763 0.0216
vn -0.4227 0.9056 0.0356
vn -0.0000 0.9992 0.0400
vn 0.4227 0.9056 0.0356
vn 0.8169 0.5763 0.0216
vn 0.9998 -0.0176 -0.0010
vn 0.8014 -0.5978 -0.0208
vn 0.4118 -0.9108 -0.0304
vn -0.0000 -0.9842 0.1771
vn -0.4127 -0.8966 0.1607
vn -0.7988 -0.5925 0.1047
vn -0.9994 -0.0355 0.0052
vn -0.8306 0.5486 -0.0960
vn -0.4360 0.8869 -0.1528
vn -0.0000 0.9856 -0.1689
vn 0.4360 0.8869 -0.1528
vn 0.8306 0.5486 -0.0960
vn 0.9994 -0.0355 0.0052
vn 0.7988 -0.5925 0.1047
vn 0.4127 -0.8966 0.1607
vn -0.0000 -0.9078 0.4193
vn -0.4272 -0.8208 0.3791
vn -0.8123 -0.5295 0.2445
vn -0.9997 -0.0233 0.0108
vn -0.8351 0.4994 -0.2306
vn -0.4448 0.8131 -0.3756
vn -0.0000 0.9078 -0.4193
vn 0.4448 0.8131 -0.3756
vn 0.8351 0.4994 -0.2306
vn 0.9997 -0.0233 0.0108
vn 0.8123 -0.5295 0.2445
vn 0.4272 -0.8208 0.3791
vn -0.0000 -0.7809 0.6247
vn -0.4456 -0.6990 0.5592
vn -0.8263 -0.4398 0.3518
vn -0.9997 -0.0190 0.0152
vn -0.8479 0.4140 -0.3312
vn -0.4636 0.6919 -0.5535
vn -0.0000 0.7809 -0.6247
vn 0.4636 0.6919 -0.5535
vn 0.8479 0.4140 -0.3312
vn 0.9997 -0.0190 0.0152
vn 0.8263 -0.4398 0.3518
vn 0.4456 -0.6990 0.5592
vn -0.0000 -0.5852 0.8109
vn -0.4666 -0.5176 0.7172
vn -0.8411 -0.3165 0.4386
vn -0.9997 -0.0135 0.0187
vn -0.8613 0.2973 -0.4120
vn -0.4849 0.5118 -0.7092
vn -0.0000 0.5852 -0.8109
vn 0.4849 0.5118 -0.7092
vn 0.8613 0.2973 -0.4120
vn 0.9997 -0.0135 0.0187
vn 0.8411 -0.3165 0.4386
vn 0.4666 -0.5176 0.7172
vn -0.0000 -0.3176 0.9482
vn -0.4840 -0.2779 0.8297
vn -0.8524 -0.1660 0.4958
vn -0.9998 -0.0070 0.0208
vn -0.8715 0.1557 -0.4650
vn -0.5026 0.2746 -0.8198
vn -0.0000 0.3176 -0.9482
vn 0.5026 0.2746 -0.8198
vn 0.8715 0.1557 -0.4650
vn 0.9998 -0.0070 0.0208
vn 0.8524 -0.1660 0.4958
vn 0.4840 -0.2779 0.8297
vn -0.0000 -0.0000 1.0000
vn -0.4909 -0.0000 0.8712
vn -0.8567 -0.0000 0.5158
vn -0.9998 -0.0000 0.0216
vn -0.8753 -0.0000 -0.4835
vn -0.5095 -0.0000 -0.8604
vn -0.0000 -0.0000 -1.0000
vn 0.5095 -0.0000 -0.8604
vn 0.8753 -0.0000 -0.4835
vn 0.9998 -0.0000 0.0216
vn 0.8567 -0.0000 0.5158
vn 0.4909 -0.0000 0.8712
vn -0.0000 0.3176 0.9482
vn -0.4840 0.2779 0.8297
vn -0.8524 0.1660 0.4958
vn -0.9998 0.0070 0.0208
vn -0.8715 -0.1557 -0.4650
vn -0.5026 -0.2746 -0.8198
vn -0.0000 -0.3176 -0.9482
vn 0.5026 -0.2746 -0.8198
vn 0.8715 -0.1557 -0.4650
vn 0.9998 0.0070 0.0208
vn 0.8524 0.1660 0.4958
vn 0.4840 0.2779 0.8297
vn -0.0000 0.5852 0.8109
vn -0.4666 0.5176 0.7172
vn -0.8411 0.3165 0.4386
vn -0.9997 0.0135 0.0187
vn -0.8613 -0.2973 -0.4120
vn -0.4849 -0.5118 -0.7092
vn -0.0000 -0.5852 -0.8109
vn 0.4849 -0.5118 -0.7092
vn 0.8613 -0.2973 -0.4120
vn 0.9997 0.0135 0.0187
vn 0.8411 0.3165 0.4386
vn 0.4666 0.5176 0.7172
vn -0.0000 0.7809 0.6247
vn -0.4456 0.6990 0.5592
vn -0.8263 0.4398 0.3518
vn -0.9997 0.0190 0.0152
vn -0.8479 -0.4140 -0.3312
vn -0.4636 -0.6919 -0.5535
vn -0.0000 -0.7809 -0.6247
vn 0.4636 -0.6919 -0.5535
vn 0.8479 -0.4140 -0.3312
vn 0.9997 0.0190 0.0152
vn 0.8263 0.4398 0.3518
vn 0.4456 0.6990 0.5592
vn -0.0000 0.9078 0.4193
vn -0.4272 0.8208 0.3791
vn -0.8123 0.5295 0.2445
vn -0.9997 0.0233 0.0108
vn -0.8351 -0.4994 -0.2306
vn -0.4448 -0.8131 -0.3756
vn -0.0000 -0.9078 -0.4193
vn 0.4448 -0.8131 -0.3756
vn 0.8351 -0.4994 -0.2306
vn 0.9997 0.0233 0.0108
vn 0.8123 0.5295 0.2445
vn 0.4272 0.8208 0.3791
vn -0.0000 0.9842 0.1771
vn -0.4127 0.8966 0.1607
vn -0.7988 0.5925 0.1047
vn -0.9994 0.0355 0.0052
vn -0.8306 -0.5486 -0.0960
vn -0.4360 -0.8869 -0.1528
vn -0.0000 -0.9856 -0.1689
vn 0.4360 -0.8869 -0.1528
vn 0.8306 -0.5486 -0.0960
vn 0.9994 0.0355 0.0052
vn 0.7988 0.5925 0.1047
vn 0.4127 0.8966 0.1607
vn -0.0000 0.9995 -0.0328
vn -0.4118 0.9108 -0.0304
vn -0.8014 0.5978 -0.0208
vn -0.9998 0.0176 -0.0010
vn -0.8169 -0.5763 0.0216
vn -0.4227 -0.9056 0.0356
vn -0.0000 -0.9992 0.0400
vn 0.4227 -0.9056 0.0356
vn 0.8169 -0.5763 0.0216
vn 0.9998 0.0176 -0.0010
vn 0.8014 0.5978 -0.0208
vn 0.4118 0.9108 -0.0304
vn -0.0000 0.9778 -0.2096
vn -0.4151 0.8896 -0.1907
vn -0.8025 0.5834 -0.1251
vn -0.9996 0.0260 -0.0056
vn -0.8261 -0.5510 0.1181
vn -0.4324 -0.8816 0.1890
vn -0.0000 -0.9778 0.2096
vn 0.4324 -0.8816 0.1890
vn 0.8261 -0.5510 0.1181
vn 0.9996 0.0260 -0.0056
vn 0.8025 0.5834 -0.1251
vn 0.4151 0.8896 -0.1907
vn -0.4272 0.8208 -0.3791
vn -0.8123 0.5295 -0.2445
vn -0.9997 0.0233 -0.0108
vn -0.8351 -0.4994 0.2306
vn -0.4448 -0.8131 0.3756
vn 0.4448 -0.8131 0.3756
vn 0.8351 -0.4994 0.2306
vn 0.9997 0.0233 -0.0108
vn 0.8123 0.5295 -0.2445
vn 0.4272 0.8208 -0.3791
vn -0.4456 0.6990 -0.5592
vn -0.8263 0.4398 -0.3518
vn -0.9997 0.0190 -0.0152
vn -0.8479 -0.4140 0.3312
vn -0.4636 -0.6919 0.5535
vn 0.4636 -0.6919 0.5535
vn 0.8479 -0.4140 0.3312
vn 0.9997 0.0190 -0.0152
vn 0.8263 0.4398 -0.3518
vn 0.4456 0.6990 -0.5592
vn -0.4666 0.5176 -0.7172
vn -0.8411 0.3165 -0.4386
vn -0.9997 0.0135 -0.0187
vn -0.8613 -0.2973 0.4120
vn -0.4849 -0.5118 0.7092
vn 0.4849 -0.5118 0.7092
vn 0.8613 -0.2973 0.4120
vn 0.9997 0.0135 -0.0187
vn 0.8411 0.3165 -0.4386
vn 0.4666 0.5176 -0.7172
vn -0.4840 0.2779 -0.8297
vn -0.8524 0.1660 -0.4958
vn -0.9998 0.0070 -0.0208
vn -0.8715 -0.1557 0.4650
vn -0.5026 -0.2746 0.8198
vn 0.5026 -0.2746 0.8198
vn 0.8715 -0.1557 0.4650
vn 0.9998 0.0070 -0.0208
vn 0.8524 0.1660 -0.4958
vn 0.4840 0.2779 -0.8297
vn -0.4909 -0.0000 -0.8712
vn -0.8567 -0.0000 -0.5158
vn -0.9998 -0.0000 -0.0216
vn -0.8753 -0.0000 0.4835
vn -0.5095 -0.0000 0.8604
vn 0.5095 -0.0000 0.8604
vn 0.8753 -0.0000 0.4835
vn 0.9998 -0.0000 -0.0216
vn 0.8567 -0.0000 -0.5158
vn 0.4909 -0.0000 -0.8712
vn -0.4840 -0.2779 -0.8297
vn -0.8524 -0.1660 -0.4958
vn -0.9998 -0.0070 -0.0208
vn -0.8715 0.1557 0.4650
vn -0.5026 0.2746 0.8198
vn 0.5026 0.2746 0.8198
vn 0.8715 0.1557 0.4650
vn 0.9998 -0.0070 -0.0208
vn 0.8524 -0.1660 -0.4958
vn 0.4840 -0.2779 -0.8297
vn -0.4666 -0.5176 -0.7172
vn -0.8411 -0.3165 -0.4386
vn -0.9997 -0.0135 -0.0187
vn -0.8613 0.2973 0.4120
vn -0.4849 0.5118 0.7092
vn 0.4849 0.5118 0.7092
vn 0.8613 0.2973 0.4120
vn 0.9997 -0.0135 -0.0187
vn 0.8411 -0.3165 -0.4386
vn 0.4666 -0.5176 -0.7172
vn -0.4456 -0.6990 -0.5592
vn -0.8263 -0.4398 -0.3518
vn -0.9997 -0.0190 -0.0152
vn -0.8479 0.4140 0.3312
vn -0.4636 0.6919 0.5535
vn 0.4636 0.6919 0.5535
vn 0.8479 0.4140 0.3312
vn 0.9997 -0.0190 -0.0152
vn 0.8263 -0.4398 -0.3518
vn 0.4456 -0.6990 -0.5592
vn -0.4272 -0.8208 -0.3791
vn -0.8123 -0.5295 -0.2445
vn -0.9997 -0.0233 -0.0108
vn -0.8351 0.4994 0.2306
vn -0.4448 0.8131 0.3756
vn 0.4448 0.8131 0.3756
vn 0.8351 0.4994 0.2306
vn 0.9997 -0.0233 -0.0108
vn 0.8123 -0.5295 -0.2445
vn 0.4272 -0.8208 -0.3791
vn -0.0000 -0.9778 -0.2096
vn -0.4151 -0.8896 -0.1907
vn -0.8025 -0.5834 -0.1251
vn -0.9996 -0.0260 -0.0056
vn -0.8261 0.5510 0.1181
vn -0.4324 0.8816 0.1890
vn -0.0000 0.9778 0.2096
vn 0.4324 0.8816 0.1890
vn 0.8261 0.5510 0.1181
vn 0.9996 -0.0260 -0.0056
vn 0.8025 -0.5834 -0.1251
vn 0.4151 -0.8896 -0.1907
vn -0.9994 -0.0000 -0.0333
vn -0.9014 0.4320 -0.0305
vn -0.5658 0.8243 -0.0200
vn -0.0133 0.9999 -0.0007
vn 0.5505 0.8346 0.0213
vn 0.8980 0.4385 0.0358
vn 0.9992 -0.0000 0.0401
vn 0.8980 -0.4385 0.0358
vn 0.5505 -0.8346 0.0213
vn -0.0133 -0.9999 -0.0007
vn -0.5658 -0.8243 -0.0200
vn -0.9014 -0.4320 -0.0305
vn -0.9836 -0.0000 0.1804
vn -0.8872 0.4321 0.1621
vn -0.5621 0.8210 0.1000
vn -0.0287 0.9996 0.0011
vn 0.5305 0.8425 -0.0936
vn 0.8822 0.4455 -0.1524
vn 0.9855 -0.0000 -0.1698
vn 0.8822 -0.4455 -0.1524
vn 0.5305 -0.8425 -0.0936
vn -0.0287 -0.9996 0.0011
vn -0.5621 -0.8210 0.1000
vn -0.8872 -0.4321 0.1621
vn -0.9057 -0.0000 0.4239
vn -0.8109 0.4460 0.3789
vn -0.5047 0.8313 0.2331
vn -0.0221 0.9997 0.0057
vn 0.4802 0.8482 -0.2234
vn 0.8075 0.4570 -0.3729
vn 0.9078 -0.0000 -0.4193
vn 0.8075 -0.4570 -0.3729
vn 0.4802 -0.8482 -0.2234
vn -0.0221 -0.9997 0.0057
vn -0.5047 -0.8313 0.2331
vn -0.8109 -0.4460 0.3789
vn -0.7765 -0.0000 0.6301
vn -0.6890 0.4624 0.5580
vn -0.4225 0.8411 0.3378
vn -0.0219 0.9997 0.0111
vn 0.3982 0.8593 -0.3211
vn 0.6870 0.4752 -0.5498
vn 0.7807 -0.0000 -0.6249
vn 0.6870 -0.4752 -0.5498
vn 0.3982 -0.8593 -0.3211
vn -0.0219 -0.9997 0.0111
vn -0.4225 -0.8411 0.3378
vn -0.6890 -0.4624 0.5580
vn -0.5793 -0.0000 0.8151
vn -0.5088 0.4805 0.7143
vn -0.3071 0.8514 0.4252
vn -0.0186 0.9997 0.0179
vn 0.2857 0.8711 -0.3995
vn 0.5078 0.4961 -0.7043
vn 0.5848 -0.0000 -0.8112
vn 0.5078 -0.4961 -0.7043
vn 0.2857 -0.8711 -0.3995
vn -0.0186 -0.9997 0.0179
vn -0.3071 -0.8514 0.4252
vn -0.5088 -0.4805 0.7143
vn -0.3129 -0.0000 0.9498
vn -0.2726 0.4949 0.8251
vn -0.1626 0.8594 0.4848
vn -0.0110 0.9997 0.0239
vn 0.1494 0.8802 -0.4505
vn 0.2722 0.5134 -0.8139
vn 0.3172 -0.0000 -0.9484
vn 0.2722 -0.5134 -0.8139
vn 0.1494 -0.8802 -0.4505
vn -0.0110 -0.9997 0.0239
vn -0.1626 -0.8594 0.4848
vn -0.2726 -0.4949 0.8251
vn -0.0000 0.5004 0.8658
vn -0.0000 0.8624 0.5062
vn -0.0000 0.9997 0.0264
vn -0.0000 0.8836 -0.4682
vn -0.0000 0.5202 -0.8540
vn -0.0000 -0.5202 -0.8540
vn -0.0000 -0.8836 -0.4682
vn -0.0000 -0.9997 0.0264
vn -0.0000 -0.8624 0.5062
vn -0.0000 -0.5004 0.8658
vn 0.3129 -0.0000 0.9498
vn 0.2726 0.4949 0.8251
vn 0.1626 0.8594 0.4848
vn 0.0110 0.9997 0.0239
vn -0.1494 0.8802 -0.4505
vn -0.2722 0.5134 -0.8139
vn -0.3172 -0.0000 -0.9484
vn -0.2722 -0.5134 -0.8139
vn -0.1494 -0.8802 -0.4505
vn 0.0110 -0.9997 0.0239
vn 0.1626 -0.8594 0.4848
vn 0.2726 -0.4949 0.8251
vn 0.5793 -0.0000 0.8151
vn 0.5089 0.4805 0.7143
vn 0.3071 0.8514 0.4252
vn 0.0186 0.9997 0.0179
vn -0.2857 0.8711 -0.3995
vn -0.5078 0.4961 -0.7043
vn -0.5848 -0.0000 -0.8112
vn -0.5078 -0.4961 -0.7043
vn -0.2857 -0.8711 -0.3995
vn 0.0186 -0.9997 0.0179
vn 0.3071 -0.8514 0.4252
vn 0.5089 -0.4805 0.7143
vn 0.7765 -0.0000 0.6301
vn 0.6890 0.4624 0.5580
vn 0.4225 0.8411 0.3378
vn 0.0219 0.9997 0.0111
vn -0.3981 0.8593 -0.3211
vn -0.6870 0.4752 -0.5498
vn -0.7807 -0.0000 -0.6249
vn -0.6870 -0.4752 -0.5498
vn -0.3981 -0.8593 -0.3211
vn 0.0219 -0.9997 0.0111
vn 0.4225 -0.8411 0.3378
vn 0.6890 -0.4624 0.5580
vn 0.9057 -0.0000 0.4239
vn 0.8109 0.4460 0.3789
vn 0.5047 0.8313 0.2331
vn 0.0221 0.9997 0.0057
vn -0.4802 0.8482 -0.2234
vn -0.8075 0.4570 -0.3729
vn -0.9078 -0.0000 -0.4194
vn -0.8075 -0.4570 -0.3729
vn -0.4802 -0.8482 -0.2234
vn 0.0221 -0.9997 0.0057
vn 0.5047 -0.8313 0.2331
vn 0.8109 -0.4460 0.3789
vn 0.9836 -0.0000 0.1804
vn 0.8872 0.4321 0.1621
vn 0.5621 0.8210 0.1000
vn 0.0287 0.9996 0.0011
vn -0.5305 0.8425 -0.0936
vn -0.8822 0.4455 -0.1524
vn -0.9855 -0.0000 -0.1698
vn -0.8822 -0.4455 -0.1524
vn -0.5305 -0.8425 -0.0936
vn 0.0287 -0.9996 0.0011
vn 0.5621 -0.8210 0.1000
vn 0.8872 -0.4321 0.1621
vn 0.9994 -0.0000 -0.0333
vn 0.9014 0.4320 -0.0305
vn 0.5659 0.8243 -0.0200
vn 0.0133 0.9999 -0.0007
vn -0.5505 0.8346 0.0213
vn -0.8980 0.4385 0.0358
vn -0.9992 -0.0000 0.0401
vn -0.8980 -0.4385 0.0358
vn -0.5505 -0.8346 0.0213
vn 0.0133 -0.9999 -0.0007
vn 0.5659 -0.8243 -0.0200
vn 0.9014 -0.4320 -0.0305
vn 0.9772 -0.0000 -0.2121
vn 0.8801 0.4348 -0.1908
vn 0.5535 0.8244 -0.1187
vn 0.0212 0.9998 -0.0022
vn -0.5295 0.8406 0.1142
vn -0.8756 0.4450 0.1876
vn -0.9778 -0.0000 0.2096
vn -0.8756 -0.4450 0.1876
vn -0.5295 -0.8406 0.1142
vn 0.0212 -0.9998 -0.0022
vn 0.5535 -0.8244 -0.1187
vn 0.8801 -0.4348 -0.1908
vn 0.9057 -0.0000 -0.4239
vn 0.8109 0.4460 -0.3789
vn 0.5047 0.8313 -0.2331
vn 0.0221 0.9997 -0.0057
vn -0.4802 0.8482 0.2234
vn -0.8075 0.4570 0.3729
vn -0.9078 -0.0000 0.4194
vn -0.8075 -0.4570 0.3729
vn -0.4802 -0.8482 0.2234
vn 0.0221 -0.9997 -0.0057
vn 0.5047 -0.8313 -0.2331
vn 0.8109 -0.4460 -0.3789
vn 0.7765 -0.0000 -0.6301
vn 0.6890 0.4624 -0.5580
vn 0.4225 0.8411 -0.3378
vn 0.0219 0.9997 -0.0111
vn -0.3982 0.8593 0.3211
vn -0.6870 0.4752 0.5498
vn -0.7807 -0.0000 0.6249
vn -0.6870 -0.4752 0.5498
vn -0.3982 -0.8593 0.3211
vn 0.0219 -0.9997 -0.0111
vn 0.4225 -0.8411 -0.3378
vn 0.6890 -0.4624 -0.5580
vn 0.5793 -0.0000 -0.8151
vn 0.5088 0.4805 -0.7143
vn 0.3071 0.8514 -0.4252
vn 0.0186 0.9997 -0.0179
vn -0.2857 0.8711 0.3995
vn -0.5078 0.4961 0.7043
vn -0.5848 -0.0000 0.8112
vn -0.5078 -0.4961 0.7043
vn -0.2857 -0.8711 0.3995
vn 0.0186 -0.9997 -0.0179
vn 0.3071 -0.8514 -0.4252
vn 0.5089 -0.4805 -0.7143
vn 0.3129 -0.0000 -0.9498
vn 0.2726 0.4949 -0.8251
vn 0.1626 0.8594 -0.4848
vn 0.0110 0.9997 -0.0239
vn -0.1494 0.8802 0.4505
vn -0.2722 0.5134 0.8139
vn -0.3172 -0.0000 0.9484
vn -0.2722 -0.5134 0.8139
vn -0.1494 -0.8802 0.4505
vn 0.0110 -0.9997 -0.0239
vn 0.1626 -0.8594 -0.4848
vn 0.2726 -0.4949 -0.8251
vn -0.0000 0.5004 -0.8658
vn -0.0000 0.8624 -0.5063
vn -0.0000 0.9997 -0.0264
vn -0.0000 0.8836 0.4682
vn -0.0000 0.5202 0.8540
vn -0.0000 -0.5202 0.8540
vn -0.0000 -0.8836 0.4682
vn -0.0000 -0.9997 -0.0264
vn -0.0000 -0.8624 -0.5063
vn -0.0000 -0.5004 -0.8658
vn -0.3129 -0.0000 -0.9498
vn -0.2726 0.4949 -0.8251
vn -0.1626 0.8594 -0.4848
vn -0.0110 0.9997 -0.0239
vn 0.1494 0.8802 0.4505
vn 0.2722 0.5134 0.8139
vn 0.3172 -0.0000 0.9484
vn 0.2722 -0.5134 0.8139
vn 0.1494 -0.8802 0.4505
vn -0.0110 -0.9997 -0.0239
vn -0.1626 -0.8594 -0.4848
vn -0.2726 -0.4949 -0.8251
vn -0.5793 -0.0000 -0.8151
vn -0.5089 0.4805 -0.7143
vn -0.3071 0.8514 -0.4252
vn -0.0186 0.9997 -0.0179
vn 0.2857 0.8711 0.3995
vn 0.5078 0.4961 0.7043
vn 0.5848 -0.0000 0.8112
vn 0.5078 -0.4961 0.7043
vn 0.2857 -0.8711 0.3995
vn -0.0186 -0.9997 -0.0179
vn -0.3071 -0.8514 -0.4252
vn -0.5089 -0.4805 -0.7143
vn -0.7765 -0.0000 -0.6301
vn -0.6890 0.4624 -0.5580
vn -0.4225 0.8411 -0.3378
vn -0.0219 0.9997 -0.0111
vn 0.3981 0.8593 0.3211
vn 0.6870 0.4752 0.5498
vn 0.7807 -0.0000 0.6249
vn 0.6870 -0.4752 0.5498
vn 0.3982 -0.8593 0.3211
vn -0.0219 -0.9997 -0.0111
vn -0.4225 -0.8411 -0.3378
vn -0.6890 -0.4624 -0.5580
vn -0.9057 -0.0000 -0.4239
vn -0.8109 0.4460 -0.3789
vn -0.5047 0.8313 -0.2331
vn -0.0221 0.9997 -0.0057
vn 0.4802 0.8482 0.2234
vn 0.8075 0.4570 0.3729
vn 0.9078 -0.0000 0.4193
vn 0.8075 -0.4570 0.3729
vn 0.4802 -0.8482 0.2234
vn -0.0221 -0.9997 -0.0057
vn -0.5047 -0.8313 -0.2331
vn -0.8109 -0.4460 -0.3789
vn -0.9772 -0.0000 -0.2121
vn -0.8801 0.4348 -0.1908
vn -0.5535 0.8244 -0.1187
vn -0.0212 0.9998 -0.0022
vn 0.5295 0.8406 0.1142
vn 0.8756 0.4450 0.1876
vn 0.9778 -0.0000 0.2096
vn 0.8756 -0.4450 0.1876
vn 0.5295 -0.8406 0.1142
vn -0.0212 -0.9998 -0.0022
vn -0.5535 -0.8244 -0.1187
vn -0.8801 -0.4348 -0.1908
vt 0.500000 0.500000
vt 0.541667 0.500000
vt 0.541667 0.583333
vt 0.500000 0.583333
vt 0.541667 0.666667
vt 0.500000 0.666667
vt 0.541667 0.750000
vt 0.500000 0.750000
vt 0.541667 0.833333
vt 0.500000 0.833333
vt 0.541667 0.916667
vt 0.500000 0.916667
vt 0.541667 1.000000
vt 0.500000 1.000000
vt 0.500000 0.000000
vt 0.541667 0.000000
vt 0.541667 0.083333
vt 0.500000 0.083333
vt 0.541667 0.166667
vt 0.500000 0.166667
vt 0.541667 0.250000
vt 0.500000 0.250000
vt 0.541667 0.333333
vt 0.500000 0.333333
vt 0.541667 0.416667
vt 0.500000 0.416667
vt 0.583333 0.500000
vt 0.583333 0.583333
vt 0.583333 0.666667
vt 0.583333 0.750000
vt 0.583333 0.833333
vt 0.583333 0.916667
vt 0.583333 1.000000
vt 0.583333 0.000000
vt 0.583333 0.083333
vt 0.583333 0.166667
vt 0.583333 0.250000
vt 0.583333 0.333333
vt 0.583333 0.416667
vt 0.625000 0.500000
vt 0.625000 0.583333
vt 0.625000 0.666667
vt 0.625000 0.750000
vt 0.625000 0.833333
vt 0.625000 0.916667
vt 0.625000 1.000000
vt 0.625000 0.000000
vt 0.625000 0.083333
vt 0.625000 0.166667
vt 0.625000 0.250000
vt 0.625000 0.333333
vt 0.625000 0.416667
vt 0.666667 0.500000
vt 0.666667 0.583333
vt 0.666667 0.666667
vt 0.666667 0.750000
vt 0.666667 0.833333
vt 0.666667 0.916667
vt 0.666667 1.000000
vt 0.666667 0.000000
vt 0.666667 0.083333
vt 0.666667 0.166667
vt 0.666667 0.250000
vt 0.666667 0.333333
vt 0.666667 0.416667
vt 0.708333 0.500000
vt 0.708333 0.583333
vt 0.708333 0.666667
vt 0.708333 0.750000
vt 0.708333 0.833333
vt 0.708333 0.916667
vt 0.708333 1.000000
vt 0.708333 0.000000
vt 0.708333 0.083333
vt 0.708333 0.166667
vt 0.708333 0.250000
vt 0.708333 0.333333
vt 0.708333 0.416667
vt 0.750000 0.500000
vt 0.750000 0.583333
vt 0.750000 0.666667
vt 0.750000 0.750000
vt 0.750000 0.833333
vt 0.750000 0.916667
vt 0.750000 1.000000
vt 0.750000 0.000000
vt 0.750000 0.083333
vt 0.750000 0.166667
vt 0.750000 0.250000
vt 0.750000 0.333333
vt 0.750000 0.416667
vt 0.791667 0.500000
vt 0.791667 0.583333
vt 0.791667 0.666667
vt 0.791667 0.750000
vt 0.791667 0.833333
vt 0.791667 0.916667
vt 0.791667 1.000000
vt 0.791667 0.000000
vt 0.791667 0.083333
vt 0.791667 0.166667
vt 0.791667 0.250000
vt 0.791667 0.333333
vt 0.791667 0.416667
vt 0.833333 0.500000
vt 0.833333 0.583333
vt 0.833333 0.666667
vt 0.833333 0.750000
vt 0.833333 0.833333
vt 0.833333 0.916667
vt 0.833333 1.000000
vt 0.833333 0.000000
vt 0.833333 0.083333
vt 0.833333 0.166667
vt 0.833333 0.250000
vt 0.833333 0.333333
vt 0.833333 0.416667
vt 0.875000 0.500000
vt 0.875000 0.583333
vt 0.875000 0.666667
vt 0.875000 0.750000
vt 0.875000 0.833333
vt 0.875000 0.916667
vt 0.875000 1.000000
vt 0.875000 0.000000
vt 0.875000 0.083333
vt 0.875000 0.166667
vt 0.875000 0.250000
vt 0.875000 0.333333
vt 0.875000 0.416667
vt 0.916667 0.500000
vt 0.916667 0.583333
vt 0.916667 0.666667
vt 0.916667 0.750000
vt 0.916667 0.833333
vt 0.916667 0.916667
vt 0.916667 1.000000
vt 0.916667 0.000000
vt 0.916667 0.083333
vt 0.916667 0.166667
vt 0.916667 0.250000
vt 0.916667 0.333333
vt 0.916667 0.416667
vt 0.958333 0.500000
vt 0.958333 0.583333
vt 0.958333 0.666667
vt 0.958333 0.750000
vt 0.958333 0.833333
vt 0.958333 0.916667
vt 0.958333 1.000000
vt 0.958333 0.000000
vt 0.958333 0.083333
vt 0.958333 0.166667
vt 0.958333 0.250000
vt 0.958333 0.333333
vt 0.958333 0.416667
vt 1.000000 0.500000
vt 1.000000 0.583333
vt 1.000000 0.666667
vt 1.000000 0.750000
vt 1.000000 0.833333
vt 1.000000 0.916667
vt 1.000000 1.000000
vt 1.000000 0.000000
vt 1.000000 0.083333
vt 1.000000 0.166667
vt 1.000000 0.250000
vt 1.000000 0.333333
vt 1.000000 0.416667
vt -0.000000 0.500000
vt 0.041667 0.500000
vt 0.041667 0.583333
vt -0.000000 0.583333
vt 0.041667 0.666667
vt -0.000000 0.666667
vt 0.041667 0.750000
vt -0.000000 0.750000
vt 0.041667 0.833333
vt -0.000000 0.833333
vt 0.041667 0.916667
vt -0.000000 0.916667
vt 0.041667 1.000000
vt -0.000000 1.000000
vt -0.000000 0.000000
vt 0.041667 0.000000
vt 0.041667 0.083333
vt -0.000000 0.083333
vt 0.041667 0.166667
vt -0.000000 0.166667
vt 0.041667 0.250000
vt -0.000000 0.250000
vt 0.041667 0.333333
vt -0.000000 0.333333
vt 0.041667 0.416667
vt -0.000000 0.416667
vt 0.083333 0.500000
vt 0.083333 0.583333
vt 0.083333 0.666667
vt 0.083333 0.750000
vt 0.083333 0.833333
vt 0.083333 0.916667
vt 0.083333 1.000000
vt 0.083333 0.000000
vt 0.083333 0.083333
vt 0.083333 0.166667
vt 0.083333 0.250000
vt 0.083333 0.333333
vt 0.083333 0.416667
vt 0.125000 0.500000
vt 0.125000 0.583333
vt 0.125000 0.666667
vt 0.125000 0.750000
vt 0.125000 0.833333
vt 0.125000 0.916667
vt 0.125000 1.000000
vt 0.125000 0.000000
vt 0.125000 0.083333
vt 0.125000 0.166667
vt 0.125000 0.250000
vt 0.125000 0.333333
vt 0.125000 0.416667
vt 0.166667 0.500000
vt 0.166667 0.583333
vt 0.166667 0.666667
vt 0.166667 0.750000
vt 0.166667 0.833333
vt 0.166667 0.916667
vt 0.166667 1.000000
vt 0.166667 0.000000
vt 0.166667 0.083333
vt 0.166667 0.166667
vt 0.166667 0.250000
vt 0.166667 0.333333
vt 0.166667 0.416667
vt 0.208333 0.500000
vt 0.208333 0.583333
vt 0.208333 0.666667
vt 0.208333 0.750000
vt 0.208333 0.833333
vt 0.208333 0.916667
vt 0.208333 1.000000
vt 0.208333 0.000000
vt 0.208333 0.083333
vt 0.208333 0.166667
vt 0.208333 0.250000
vt 0.208333 0.333333
vt 0.208333 0.416667
vt 0.250000 0.500000
vt 0.250000 0.583333
vt 0.250000 0.666667
vt 0.250000 0.750000
vt 0.250000 0.833333
vt 0.250000 0.916667
vt 0.250000 1.000000
vt 0.250000 0.000000
vt 0.250000 0.083333
vt 0.250000 0.166667
vt 0.250000 0.250000
vt 0.250000 0.333333
vt 0.250000 0.416667
vt 0.291667 0.500000
vt 0.291667 0.583333
vt 0.291667 0.666667
vt 0.291667 0.750000
vt 0.291667 0.833333
vt 0.291667 0.916667
vt 0.291667 1.000000
vt 0.291667 0.000000
vt 0.291667 0.083333
vt 0.291667 0.166667
vt 0.291667 0.250000
vt 0.291667 0.333333
vt 0.291667 0.416667
vt 0.333333 0.500000
vt 0.333333 0.583333
vt 0.333333 0.666667
vt 0.333333 0.750000
vt 0.333333 0.833333
vt 0.333333 0.916667
vt 0.333333 1.000000
vt 0.333333 0.000000
vt 0.333333 0.083333
vt 0.333333 0.166667
vt 0.333333 0.250000
vt 0.333333 0.333333
vt 0.333333 0.416667
vt 0.375000 0.500000
vt 0.375000 0.583333
vt 0.375000 0.666667
vt 0.375000 0.750000
vt 0.375000 0.833333
vt 0.375000 0.916667
vt 0.375000 1.000000
vt 0.375000 0.000000
vt 0.375000 0.083333
vt 0.375000 0.166667
vt 0.375000 0.250000
vt 0.375000 0.333333
vt 0.375000 0.416667
vt 0.416667 0.500000
vt 0.416667 0.583333
vt 0.416667 0.666667
vt 0.416667 0.750000
vt 0.416667 0.833333
vt 0.416667 0.916667
vt 0.416667 1.000000
vt 0.416667 0.000000
vt 0.416667 0.083333
vt 0.416667 0.166667
vt 0.416667 0.250000
vt 0.416667 0.333333
vt 0.416667 0.416667
vt 0.458333 0.500000
vt 0.458333 0.583333
vt 0.458333 0.666667
vt 0.458333 0.750000
vt 0.458333 0.833333
vt 0.458333 0.916667
vt 0.458333 1.000000
vt 0.458333 0.000000
vt 0.458333 0.083333
vt 0.458333 0.166667
vt 0.458333 0.250000
vt 0.458333 0.333333
vt 0.458333 0.416667
s 1
usemtl マテリアル
f 1/1/1 13/2/13 14/3/14 2/4/2
f 2/4/2 14/3/14 15/5/15 3/6/3
f 3/6/3 15/5/15 16/7/16 4/8/4
f 4/8/4 16/7/16 17/9/17 5/10/5
f 5/10/5 17/9/17 18/11/18 6/12/6
f 6/12/6 18/11/18 19/13/19 7/14/7
f 7/15/7 19/16/19 20/17/20 8/18/8
f 8/18/8 20/17/20 21/19/21 9/20/9
f 9/20/9 21/19/21 22/21/22 10/22/10
f 10/22/10 22/21/22 23/23/23 11/24/11
f 11/24/11 23/23/23 24/25/24 12/26/12
f 12/26/12 24/25/24 13/2/13 1/1/1
f 13/2/13 25/27/25 26/28/26 14/3/14
f 14/3/14 26/28/26 27/29/27 15/5/15
f 15/5/15 27/29/27 28/30/28 16/7/16
f 16/7/16 28/30/28 29/31/29 17/9/17
f 17/9/17 29/31/29 30/32/30 18/11/18
f 18/11/18 30/32/30 31/33/31 19/13/19
f 19/16/19 31/34/31 32/35/32 20/17/20
f 20/17/20 32/35/32 33/36/33 21/19/21
f 21/19/21 33/36/33 34/37/34 22/21/22
f 22/21/22 34/37/34 35/38/35 23/23/23
f 23/23/23 35/38/35 36/39/36 24/25/24
f 24/25/24 36/39/36 25/27/25 13/2/13
f 25/27/25 37/40/37 38/41/38 26/28/26
f 26/28/26 38/41/38 39/42/39 27/29/27
f 27/29/27 39/42/39 40/43/40 28/30/28
f 28/30/28 40/43/40 41/44/41 29/31/29
f 29/31/29 41/44/41 42/45/42 30/32/30
f 30/32/30 42/45/42 43/46/43 31/33/31
f 31/34/31 43/47/43 44/48/44 32/35/32
f 32/35/32 44/48/44 45/49/45 33/36/33
f 33/36/33 45/49/45 46/50/46 34/37/34
f 34/37/34 46/50/46 47/51/47 35/38/35
f 35/38/35 47/51/47 48/52/48 36/39/36
f 36/39/36 48/52/48 37/40/37 25/27/25
f 37/40/37 49/53/49 50/54/50 38/41/38
f 38/41/38 50/54/50 51/55/51 39/42/39
f 39/42/39 51/55/51 52/56/52 40/43/40
f 40/43/40 52/56/52 53/57/53 41/44/41
f 41/44/41 53/57/53 54/58/54 42/45/42
f 42/45/42 54/58/54 55/59/55 43/46/43
f 43/47/43 55/60/55 56/61/56 44/48/44
f 44/48/44 56/61/56 57/62/57 45/49/45
f 45/49/45 57/62/57 58/63/58 46/50/46
f 46/50/46 58/63/58 59/64/59 47/51/47
f 47/51/47 59/64/59 60/65/60 48/52/48
f 48/52/48 60/65/60 49/53/49 37/40/37
f 49/53/49 61/66/61 62/67/62 50/54/50
f 50/54/50 62/67/62 63/68/63 51/55/51
f 51/55/51 63/68/63 64/69/64 52/56/52
f 52/56/52 64/69/64 65/70/65 53/57/53
f 53/57/53 65/70/65 66/71/66 54/58/54
f 54/58/54 66/71/66 67/72/67 55/59/55
f 55/60/55 67/73/67 68/74/68 56/61/56
f 56/61/56 68/74/68 69/75/69 57/62/57
f 57/62/57 69/75/69 70/76/70 58/63/58
f 58/63/58 70/76/70 71/77/71 59/64/59
f 59/64/59 71/77/71 72/78/72 60/65/60
f 60/65/60 72/78/72 61/66/61 49/53/49
f 61/66/61 73/79/73 74/80/74 62/67/62
f 62/67/62 74/80/74 75/81/75 63/68/63
f 63/68/63 75/81/75 76/82/76 64/69/64
f 64/69/64 76/82/76 77/83/77 65/70/65
f 65/70/65 77/83/77 78/84/78 66/71/66
f 66/71/66 78/84/78 79/85/79 67/72/67
f 67/73/67 79/86/79 80/87/80 68/74/68
f 68/74/68 80/87/80 81/88/81 69/75/69
f 69/75/69 81/88/81 82/89/82 70/76/70
f 70/76/70 82/89/82 83/90/83 71/77/71
f 71/77/71 83/90/83 84/91/84 72/78/72
f 72/78/72 84/91/84 73/79/73 61/66/61
f 73/79/73 85/92/85 86/93/86 74/80/74
f 74/80/74 86/93/86 87/94/87 75/81/75
f 75/81/75 87/94/87 88/95/88 76/82/76
f 76/82/76 88/95/88 89/96/89 77/83/77
f 77/83/77 89/96/89 90/97/90 78/84/78
f 78/84/78 90/97/90 91/98/91 79/85/79
f 79/86/79 91/99/91 92/100/92 80/87/80
f 80/87/80 92/100/92 93/101/93 81/88/81
f 81/88/81 93/101/93 94/102/94 82/89/82
f 82/89/82 94/102/94 95/103/95 83/90/83
f 83/90/83 95/103/95 96/104/96 84/91/84
f 84/91/84 96/104/96 85/92/85 73/79/73
f 85/92/85 97/105/97 98/106/98 86/93/86
f 86/93/86 98/106/98 99/107/99 87/94/87
f 87/94/87 99/107/99 100/108/100 88/95/88
f 88/95/88 100/108/100 101/109/101 89/96/89
f 89/96/89 101/109/101 102/110/102 90/97/90
f 90/97/90 102/110/102 103/111/103 91/98/91
f 91/99/91 103/112/103 104/113/104 92/100/92
f 92/100/92 104/113/104 105/114/105 93/101/93
f 93/101/93 105/114/105 106/115/106 94/102/94
f 94/102/94 106/115/106 107/116/107 95/103/95
f 95/103/95 107/116/107 108/117/108 96/104/96
f 96/104/96 108/117/108 97/105/97 85/92/85
f 97/105/97 109/118/109 110/119/110 98/106/98
f 98/106/98 110/119/110 111/120/111 99/107/99
f 99/107/99 111/120/111 112/121/112 100/108/100
f 100/108/100 112/121/112 113/122/113 101/109/101
f 101/109/101 113/122/113 114/123/114 102/110/102
f 102/110/102 114/123/114 115/124/115 103/111/103
f 103/112/103 115/125/115 116/126/116 104/113/104
f 104/113/104 116/126/116 117/127/117 105/114/105
f 105/114/105 117/127/117 118/128/118 106/115/106
f 106/115/106 118/128/118 119/129/119 107/116/107
f 107/116/107 119/129/119 120/130/120 108/117/108
f 108/117/108 120/130/120 109/118/109 97/105/97
f 109/118/109 121/131/121 122/132/122 110/119/110
f 110/119/110 122/132/122 123/133/123 111/120/111
f 111/120/111 123/133/123 124/134/124 112/121/112
f 112/121/112 124/134/124 125/135/125 113/122/113
f 113/122/113 125/135/125 126/136/126 114/123/114
f 114/123/114 126/136/126 127/137/127 115/124/115
f 115/125/115 127/138/127 128/139/128 116/126/116
f 116/126/116 128/139/128 129/140/129 117/127/117
f 117/127/117 129/140/129 130/141/130 118/128/118
f 118/128/118 130/141/130 131/142/131 119/129/119
f 119/129/119 131/142/131 132/143/132 120/130/120
f 120/130/120 132/143/132 121/131/121 109/118/109
f 121/131/121 133/144/133 134/145/134 122/132/122
f 122/132/122 134/145/134 135/146/135 123/133/123
f 123/133/123 135/146/135 136/147/136 124/134/124
f 124/134/124 136/147/136 137/148/137 125/135/125
f 125/135/125 137/148/137 138/149/138 126/136/126
f 126/136/126 138/149/138 139/150/139 127/137/127
f 127/138/127 139/151/139 140/152/140 128/139/128
f 128/139/128 140/152/140 141/153/141 129/140/129
f 129/140/129 141/153/141 142/154/142 130/141/130
f 130/141/130 142/154/142 143/155/143 131/142/131
f 131/142/131 143/155/143 144/156/144 132/143/132
f 132/143/132 144/156/144 133/144/133 121/131/121
f 133/144/133 145/157/145 146/158/146 134/145/134
f 134/145/134 146/158/146 147/159/147 135/146/135
f 135/146/135 147/159/147 148/160/148 136/147/136
f 136/147/136 148/160/148 149/161/149 137/148/137
f 137/148/137 149/161/149 150/162/150 138/149/138
f 138/149/138 150/162/150 151/163/151 139/150/139
f 139/151/139 151/164/151 152/165/152 140/152/140
f 140/152/140 152/165/152 153/166/153 141/153/141
f 141/153/141 153/166/153 154/167/154 142/154/142
f 142/154/142 154/167/154 155/168/155 143/155/143
f 143/155/143 155/168/155 156/169/156 144/156/144
f 144/156/144 156/169/156 145/157/145 133/144/133
f 145/170/145 157/171/157 158/172/158 146/173/146
f 146/173/146 158/172/158 159/174/159 147/175/147
f 147/175/147 159/174/159 160/176/160 148/177/148
f 148/177/148 160/176/160 161/178/161 149/179/149
f 149/179/149 161/178/161 162/180/162 150/181/150
f 150/181/150 162/180/162 163/182/163 151/183/151
f 151/184/151 163/185/163 164/186/164 152/187/152
f 152/187/152 164/186/164 165/188/165 153/189/153
f 153/189/153 165/188/165 166/190/166 154/191/154
f 154/191/154 166/190/166 167/192/167 155/193/155
f 155/193/155 167/192/167 168/194/168 156/195/156
f 156/195/156 168/194/168 157/171/157 145/170/145
f 157/171/157 169/196/31 170/197/169 158/172/158
f 158/172/158 170/197/169 171/198/170 159/174/159
f 159/174/159 171/198/170 172/199/171 160/176/160
f 160/176/160 172/199/171 173/200/172 161/178/161
f 161/178/161 173/200/172 174/201/173 162/180/162
f 162/180/162 174/201/173 175/202/25 163/182/163
f 163/185/163 175/203/25 176/204/174 164/186/164
f 164/186/164 176/204/174 177/205/175 165/188/165
f 165/188/165 177/205/175 178/206/176 166/190/166
f 166/190/166 178/206/176 179/207/177 167/192/167
f 167/192/167 179/207/177 180/208/178 168/194/168
f 168/194/168 180/208/178 169/196/31 157/171/157
f 169/196/31 181/209/43 182/210/179 170/197/169
f 170/197/169 182/210/179 183/211/180 171/198/170
f 171/198/170 183/211/180 184/212/181 172/199/171
f 172/199/171 184/212/181 185/213/182 173/200/172
f 173/200/172 185/213/182 186/214/183 174/201/173
f 174/201/173 186/214/183 187/215/37 175/202/25
f 175/203/25 187/216/37 188/217/184 176/204/174
f 176/204/174 188/217/184 189/218/185 177/205/175
f 177/205/175 189/218/185 190/219/186 178/206/176
f 178/206/176 190/219/186 191/220/187 179/207/177
f 179/207/177 191/220/187 192/221/188 180/208/178
f 180/208/178 192/221/188 181/209/43 169/196/31
f 181/209/43 193/222/55 194/223/189 182/210/179
f 182/210/179 194/223/189 195/224/190 183/211/180
f 183/211/180 195/224/190 196/225/191 184/212/181
f 184/212/181 196/225/191 197/226/192 185/213/182
f 185/213/182 197/226/192 198/227/193 186/214/183
f 186/214/183 198/227/193 199/228/49 187/215/37
f 187/216/37 199/229/49 200/230/194 188/217/184
f 188/217/184 200/230/194 201/231/195 189/218/185
f 189/218/185 201/231/195 202/232/196 190/219/186
f 190/219/186 202/232/196 203/233/197 191/220/187
f 191/220/187 203/233/197 204/234/198 192/221/188
f 192/221/188 204/234/198 193/222/55 181/209/43
f 193/222/55 205/235/67 206/236/199 194/223/189
f 194/223/189 206/236/199 207/237/200 195/224/190
f 195/224/190 207/237/200 208/238/201 196/225/191
f 196/225/191 208/238/201 209/239/202 197/226/192
f 197/226/192 209/239/202 210/240/203 198/227/193
f 198/227/193 210/240/203 211/241/61 199/228/49
f 199/229/49 211/242/61 212/243/204 200/230/194
f 200/230/194 212/243/204 213/244/205 201/231/195
f 201/231/195 213/244/205 214/245/206 202/232/196
f 202/232/196 214/245/206 215/246/207 203/233/197
f 203/233/197 215/246/207 216/247/208 204/234/198
f 204/234/198 216/247/208 205/235/67 193/222/55
f 205/235/67 217/248/79 218/249/209 206/236/199
f 206/236/199 218/249/209 219/250/210 207/237/200
f 207/237/200 219/250/210 220/251/211 208/238/201
f 208/238/201 220/251/211 221/252/212 209/239/202
f 209/239/202 221/252/212 222/253/213 210/240/203
f 210/240/203 222/253/213 223/254/73 211/241/61
f 211/242/61 223/255/73 224/256/214 212/243/204
f 212/243/204 224/256/214 225/257/215 213/244/205
f 213/244/205 225/257/215 226/258/216 214/245/206
f 214/245/206 226/258/216 227/259/217 215/246/207
f 215/246/207 227/259/217 228/260/218 216/247/208
f 216/247/208 228/260/218 217/248/79 205/235/67
f 217/248/79 229/261/91 230/262/219 218/249/209
f 218/249/209 230/262/219 231/263/220 219/250/210
f 219/250/210 231/263/220 232/264/221 220/251/211
f 220/251/211 232/264/221 233/265/222 221/252/212
f 221/252/212 233/265/222 234/266/223 222/253/213
f 222/253/213 234/266/223 235/267/85 223/254/73
f 223/255/73 235/268/85 236/269/224 224/256/214
f 224/256/214 236/269/224 237/270/225 225/257/215
f 225/257/215 237/270/225 238/271/226 226/258/216
f 226/258/216 238/271/226 239/272/227 227/259/217
f 227/259/217 239/272/227 240/273/228 228/260/218
f 228/260/218 240/273/228 229/261/91 217/248/79
f 229/261/91 241/274/103 242/275/229 230/262/219
f 230/262/219 242/275/229 243/276/230 231/263/220
f 231/263/220 243/276/230 244/277/231 232/264/221
f 232/264/221 244/277/231 245/278/232 233/265/222
f 233/265/222 245/278/232 246/279/233 234/266/223
f 234/266/223 246/279/233 247/280/97 235/267/85
f 235/268/85 247/281/97 248/282/234 236/269/224
f 236/269/224 248/282/234 249/283/235 237/270/225
f 237/270/225 249/283/235 250/284/236 238/271/226
f 238/271/226 250/284/236 251/285/237 239/272/227
f 239/272/227 251/285/237 252/286/238 240/273/228
f 240/273/228 252/286/238 241/274/103 229/261/91
f 241/274/103 253/287/115 254/288/239 242/275/229
f 242/275/229 254/288/239 255/289/240 243/276/230
f 243/276/230 255/289/240 256/290/241 244/277/231
f 244/277/231 256/290/241 257/291/242 245/278/232
f 245/278/232 257/291/242 258/292/243 246/279/233
f 246/279/233 258/292/243 259/293/109 247/280/97
f 247/281/97 259/294/109 260/295/244 248/282/234
f 248/282/234 260/295/244 261/296/245 249/283/235
f 249/283/235 261/296/245 262/297/246 250/284/236
f 250/284/236 262/297/246 263/298/247 251/285/237
f 251/285/237 263/298/247 264/299/248 252/286/238
f 252/286/238 264/299/248 253/287/115 241/274/103
f 253/287/115 265/300/127 266/301/249 254/288/239
f 254/288/239 266/301/249 267/302/250 255/289/240
f 255/289/240 267/302/250 268/303/251 256/290/241
f 256/290/241 268/303/251 269/304/252 257/291/242
f 257/291/242 269/304/252 270/305/253 258/292/243
f 258/292/243 270/305/253 271/306/121 259/293/109
f 259/294/109 271/307/121 272/308/254 260/295/244
f 260/295/244 272/308/254 273/309/255 261/296/245
f 261/296/245 273/309/255 274/310/256 262/297/246
f 262/297/246 274/310/256 275/311/257 263/298/247
f 263/298/247 275/311/257 276/312/258 264/299/248
f 264/299/248 276/312/258 265/300/127 253/287/115
f 265/300/127 277/313/259 278/314/260 266/301/249
f 266/301/249 278/314/260 279/315/261 267/302/250
f 267/302/250 279/315/261 280/316/262 268/303/251
f 268/303/251 280/316/262 281/317/263 269/304/252
f 269/304/252 281/317/263 282/318/264 270/305/253
f 270/305/253 282/318/264 283/319/265 271/306/121
f 271/307/121 283/320/265 284/321/266 272/308/254
f 272/308/254 284/321/266 285/322/267 273/309/255
f 273/309/255 285/322/267 286/323/268 274/310/256
f 274/310/256 286/323/268 287/324/269 275/311/257
f 275/311/257 287/324/269 288/325/270 276/312/258
f 276/312/258 288/325/270 277/313/259 265/300/127
f 277/313/259 1/1/1 2/4/2 278/314/260
f 278/314/260 2/4/2 3/6/3 279/315/261
f 279/315/261 3/6/3 4/8/4 280/316/262
f 280/316/262 4/8/4 5/10/5 281/317/263
f 281/317/263 5/10/5 6/12/6 282/318/264
f 282/318/264 6/12/6 7/14/7 283/319/265
f 283/320/265 7/15/7 8/18/8 284/321/266
f 284/321/266 8/18/8 9/20/9 285/322/267
f 285/322/267 9/20/9 10/22/10 286/323/268
f 286/323/268 10/22/10 11/24/11 287/324/269
f 287/324/269 11/24/11 12/26/12 288/325/270
f 288/325/270 12/26/12 1/1/1 277/313/259
f 289/1/271 302/3/284 290/4/272
f 290/4/272 303/5/285 291/6/273
f 291/6/273 304/7/286 292/8/274
f 292/8/274 305/9/287 293/10/275
f 293/10/275 306/11/288 294/12/276
f 294/12/276 307/13/289 295/14/277
f 307/16/289 296/18/278 295/15/277
f 308/17/290 297/20/279 296/18/278
f 309/19/291 298/22/280 297/20/279
f 310/21/292 299/24/281 298/22/280
f 311/23/293 300/26/282 299/24/281
f 312/25/294 289/1/271 300/26/282
f 313/27/295 302/3/284 301/2/283
f 314/28/296 303/5/285 302/3/284
f 303/5/285 316/30/298 304/7/286
f 316/30/298 305/9/287 304/7/286
f 317/31/299 306/11/288 305/9/287
f 306/11/288 319/33/301 307/13/289
f 319/34/301 308/17/290 307/16/289
f 308/17/290 321/36/303 309/19/291
f 309/19/291 322/37/304 310/21/292
f 322/37/304 311/23/293 310/21/292
f 311/23/293 324/39/306 312/25/294
f 324/39/306 301/2/283 312/25/294
f 325/40/307 314/28/296 313/27/295
f 326/41/308 315/29/297 314/28/296
f 315/29/297 328/43/310 316/30/298
f 328/43/310 317/31/299 316/30/298
f 329/44/311 318/32/300 317/31/299
f 318/32/300 331/46/313 319/33/301
f 331/47/313 320/35/302 319/34/301
f 320/35/302 333/49/315 321/36/303
f 321/36/303 334/50/316 322/37/304
f 334/50/316 323/38/305 322/37/304
f 323/38/305 336/52/318 324/39/306
f 324/39/306 325/40/307 313/27/295
f 337/53/319 326/41/308 325/40/307
f 326/41/308 339/55/321 327/42/309
f 327/42/309 340/56/322 328/43/310
f 328/43/310 341/57/323 329/44/311
f 329/44/311 342/58/324 330/45/312
f 342/58/324 331/46/313 330/45/312
f 331/47/313 344/61/326 332/48/314
f 344/61/326 333/49/315 332/48/314
f 345/62/327 334/50/316 333/49/315
f 346/63/328 335/51/317 334/50/316
f 347/64/329 336/52/318 335/51/317
f 336/52/318 337/53/319 325/40/307
f 349/66/331 338/54/320 337/53/319
f 338/54/320 351/68/333 339/55/321
f 351/68/333 340/56/322 339/55/321
f 352/69/334 341/57/323 340/56/322
f 353/70/335 342/58/324 341/57/323
f 354/71/336 343/59/325 342/58/324
f 355/73/337 344/61/326 343/60/325
f 344/61/326 357/75/339 345/62/327
f 345/62/327 358/76/340 346/63/328
f 346/63/328 359/77/341 347/64/329
f 359/77/341 348/65/330 347/64/329
f 348/65/330 349/66/331 337/53/319
f 349/66/331 362/80/343 350/67/332
f 362/80/343 351/68/333 350/67/332
f 363/81/344 352/69/334 351/68/333
f 352/69/334 365/83/346 353/70/335
f 365/83/346 354/71/336 353/70/335
f 366/84/347 355/72/337 354/71/336
f 367/86/79 356/74/338 355/73/337
f 368/87/348 357/75/339 356/74/338
f 369/88/349 358/76/340 357/75/339
f 358/76/340 371/90/351 359/77/341
f 359/77/341 372/91/352 360/78/342
f 372/91/352 349/66/331 360/78/342
f 361/79/73 374/93/354 362/80/343
f 374/93/354 363/81/344 362/80/343
f 363/81/344 376/95/356 364/82/345
f 376/95/356 365/83/346 364/82/345
f 365/83/346 378/97/358 366/84/347
f 366/84/347 379/98/359 367/85/79
f 379/99/359 368/87/348 367/86/79
f 380/100/360 369/88/349 368/87/348
f 369/88/349 382/102/362 370/89/350
f 382/102/362 371/90/351 370/89/350
f 371/90/351 384/104/364 372/91/352
f 384/104/364 361/79/73 372/91/352
f 385/105/365 374/93/354 373/92/353
f 374/93/354 387/107/367 375/94/355
f 375/94/355 388/108/368 376/95/356
f 388/108/368 377/96/357 376/95/356
f 377/96/357 390/110/370 378/97/358
f 390/110/370 379/98/359 378/97/358
f 379/99/359 392/113/372 380/100/360
f 392/113/372 381/101/361 380/100/360
f 381/101/361 394/115/374 382/102/362
f 394/115/374 383/103/363 382/102/362
f 395/116/375 384/104/364 383/103/363
f 384/104/364 385/105/365 373/92/353
f 385/105/365 398/119/378 386/106/366
f 386/106/366 399/120/379 387/107/367
f 399/120/379 388/108/368 387/107/367
f 388/108/368 401/122/381 389/109/369
f 389/109/369 402/123/382 390/110/370
f 402/123/382 391/111/371 390/110/370
f 391/112/371 404/126/384 392/113/372
f 404/126/384 393/114/373 392/113/372
f 405/127/385 394/115/374 393/114/373
f 394/115/374 407/129/387 395/116/375
f 407/129/387 396/117/376 395/116/375
f 408/130/388 385/105/365 396/117/376
f 409/131/389 398/119/378 397/118/377
f 398/119/378 411/133/391 399/120/379
f 411/133/391 400/121/380 399/120/379
f 400/121/380 413/135/393 401/122/381
f 413/135/393 402/123/382 401/122/381
f 402/123/382 415/137/395 403/124/383
f 415/138/395 404/126/384 403/125/383
f 404/126/384 417/140/397 405/127/385
f 417/140/397 406/128/386 405/127/385
f 406/128/386 419/142/399 407/129/387
f 419/142/399 408/130/388 407/129/387
f 408/130/388 409/131/389 397/118/377
f 421/144/401 410/132/390 409/131/389
f 422/145/402 411/133/391 410/132/390
f 423/146/403 412/134/392 411/133/391
f 412/134/392 425/148/405 413/135/393
f 425/148/405 414/136/394 413/135/393
f 414/136/394 427/150/407 415/137/395
f 427/151/407 416/139/396 415/138/395
f 416/139/396 429/153/409 417/140/397
f 429/153/409 418/141/398 417/140/397
f 418/141/398 431/155/411 419/142/399
f 419/142/399 432/156/412 420/143/400
f 420/143/400 421/144/401 409/131/389
f 433/157/413 422/145/402 421/144/401
f 434/158/414 423/146/403 422/145/402
f 435/159/415 424/147/404 423/146/403
f 436/160/416 425/148/405 424/147/404
f 437/161/417 426/149/406 425/148/405
f 438/162/418 427/150/407 426/149/406
f 427/151/407 440/165/420 428/152/408
f 428/152/408 441/166/421 429/153/409
f 429/153/409 442/167/422 430/154/410
f 430/154/410 443/168/423 431/155/411
f 431/155/411 444/169/424 432/156/412
f 432/156/412 433/157/413 421/144/401
f 433/170/413 446/172/426 434/173/414
f 446/172/426 435/175/415 434/173/414
f 435/175/415 448/176/428 436/177/416
f 448/176/428 437/179/417 436/177/416
f 437/179/417 450/180/430 438/181/418
f 450/180/430 439/183/419 438/181/418
f 451/185/431 440/187/420 439/184/419
f 452/186/432 441/189/421 440/187/420
f 441/189/421 454/190/434 442/191/422
f 454/190/434 443/193/423 442/191/422
f 443/193/423 456/194/436 444/195/424
f 456/194/436 433/170/413 444/195/424
f 445/171/425 458/197/438 446/172/426
f 446/172/426 459/198/439 447/174/427
f 447/174/427 460/199/440 448/176/428
f 460/199/440 449/178/429 448/176/428
f 449/178/429 462/201/442 450/180/430
f 462/201/442 451/182/431 450/180/430
f 451/185/431 464/204/444 452/186/432
f 464/204/444 453/188/433 452/186/432
f 453/188/433 466/206/446 454/190/434
f 466/206/446 455/192/435 454/190/434
f 467/207/447 456/194/436 455/192/435
f 468/208/448 445/171/425 456/194/436
f 469/209/449 458/197/438 457/196/437
f 470/210/450 459/198/439 458/197/438
f 471/211/451 460/199/440 459/198/439
f 472/212/452 461/200/441 460/199/440
f 473/213/453 462/201/442 461/200/441
f 474/214/454 463/202/443 462/201/442
f 463/203/443 476/217/456 464/204/444
f 464/204/444 477/218/457 465/205/445
f 465/205/445 478/219/458 466/206/446
f 478/219/458 467/207/447 466/206/446
f 467/207/447 480/221/460 468/208/448
f 468/208/448 469/209/449 457/196/437
f 481/222/461 470/210/450 469/209/449
f 482/223/462 471/211/451 470/210/450
f 483/224/463 472/212/452 471/211/451
f 472/212/452 485/226/465 473/213/453
f 473/213/453 486/227/466 474/214/454
f 474/214/454 487/228/467 475/215/455
f 487/229/467 476/217/456 475/216/455
f 488/230/468 477/218/457 476/217/456
f 489/231/469 478/219/458 477/218/457
f 478/219/458 491/233/471 479/220/459
f 491/233/471 480/221/460 479/220/459
f 480/221/460 481/222/461 469/209/449
f 481/222/461 494/236/474 482/223/462
f 482/223/462 495/237/475 483/224/463
f 495/237/475 484/225/464 483/224/463
f 496/238/476 485/226/465 484/225/464
f 485/226/465 498/240/478 486/227/466
f 498/240/478 487/228/467 486/227/466
f 499/242/479 488/230/468 487/229/467
f 500/243/480 489/231/469 488/230/468
f 489/231/469 502/245/482 490/232/470
f 490/232/470 503/246/483 491/233/471
f 503/246/483 492/234/472 491/233/471
f 504/247/484 481/222/461 492/234/472
f 505/248/79 494/236/474 493/235/473
f 494/236/474 507/250/486 495/237/475
f 495/237/475 508/251/487 496/238/476
f 508/251/487 497/239/477 496/238/476
f 497/239/477 510/253/489 498/240/478
f 510/253/489 499/241/479 498/240/478
f 499/242/479 512/256/490 500/243/480
f 512/256/490 501/244/481 500/243/480
f 513/257/491 502/245/482 501/244/481
f 514/258/492 503/246/483 502/245/482
f 515/259/493 504/247/484 503/246/483
f 504/247/484 505/248/79 493/235/473
f 517/261/495 506/249/485 505/248/79
f 518/262/496 507/250/486 506/249/485
f 519/263/497 508/251/487 507/250/486
f 520/264/498 509/252/488 508/251/487
f 521/265/499 510/253/489 509/252/488
f 522/266/500 511/254/73 510/253/489
f 511/255/73 524/269/502 512/256/490
f 524/269/502 513/257/491 512/256/490
f 525/270/503 514/258/492 513/257/491
f 514/258/492 527/272/505 515/259/493
f 515/259/493 528/273/506 516/260/494
f 528/273/506 505/248/79 516/260/494
f 517/261/495 530/275/508 518/262/496
f 530/275/508 519/263/497 518/262/496
f 519/263/497 532/277/510 520/264/498
f 520/264/498 533/278/511 521/265/499
f 521/265/499 534/279/512 522/266/500
f 522/266/500 535/280/513 523/267/501
f 535/281/513 524/269/502 523/268/501
f 536/282/514 525/270/503 524/269/502
f 537/283/515 526/271/504 525/270/503
f 538/284/516 527/272/505 526/271/504
f 527/272/505 540/286/518 528/273/506
f 540/286/518 517/261/495 528/273/506
f 541/287/519 530/275/508 529/274/507
f 530/275/508 543/289/521 531/276/509
f 531/276/509 544/290/522 532/277/510
f 544/290/522 533/278/511 532/277/510
f 545/291/523 534/279/512 533/278/511
f 534/279/512 547/293/525 535/280/513
f 547/294/525 536/282/514 535/281/513
f 536/282/514 549/296/527 537/283/515
f 537/283/515 550/297/528 538/284/516
f 550/297/528 539/285/517 538/284/516
f 551/298/529 540/286/518 539/285/517
f 540/286/518 541/287/519 529/274/507
f 553/300/531 542/288/520 541/287/519
f 542/288/520 555/302/533 543/289/521
f 555/302/533 544/290/522 543/289/521
f 556/303/534 545/291/523 544/290/522
f 557/304/535 546/292/524 545/291/523
f 558/305/536 547/293/525 546/292/524
f 547/294/525 560/308/538 548/295/526
f 548/295/526 561/309/539 549/296/527
f 549/296/527 562/310/540 550/297/528
f 550/297/528 563/311/541 551/298/529
f 563/311/541 552/299/530 551/298/529
f 552/299/530 553/300/531 541/287/519
f 553/300/531 566/314/544 554/301/532
f 566/314/544 555/302/533 554/301/532
f 567/315/545 556/303/534 555/302/533
f 556/303/534 569/317/547 557/304/535
f 569/317/547 558/305/536 557/304/535
f 570/318/548 559/306/537 558/305/536
f 571/320/549 560/308/538 559/307/537
f 560/308/538 573/322/551 561/309/539
f 573/322/551 562/310/540 561/309/539
f 562/310/540 575/324/553 563/311/541
f 563/311/541 576/325/554 564/312/542
f 576/325/554 553/300/531 564/312/542
f 565/313/543 290/4/272 566/314/544
f 290/4/272 567/315/545 566/314/544
f 567/315/545 292/8/274 568/316/546
f 568/316/546 293/10/275 569/317/547
f 293/10/275 570/318/548 569/317/547
f 294/12/276 571/319/549 570/318/548
f 295/15/277 572/321/550 571/320/549
f 296/18/278 573/322/551 572/321/550
f 297/20/279 574/323/552 573/322/551
f 298/22/280 575/324/553 574/323/552
f 575/324/553 300/26/282 576/325/554
f 300/26/282 565/313/543 576/325/554
f 289/1/271 301/2/283 302/3/284
f 290/4/272 302/3/284 303/5/285
f 291/6/273 303/5/285 304/7/286
f 292/8/274 304/7/286 305/9/287
f 293/10/275 305/9/287 306/11/288
f 294/12/276 306/11/288 307/13/289
f 307/16/289 308/17/290 296/18/278
f 308/17/290 309/19/291 297/20/279
f 309/19/291 310/21/292 298/22/280
f 310/21/292 311/23/293 299/24/281
f 311/23/293 312/25/294 300/26/282
f 312/25/294 301/2/283 289/1/271
f 313/27/295 314/28/296 302/3/284
f 314/28/296 315/29/297 303/5/285
f 303/5/285 315/29/297 316/30/298
f 316/30/298 317/31/299 305/9/287
f 317/31/299 318/32/300 306/11/288
f 306/11/288 318/32/300 319/33/301
f 319/34/301 320/35/302 308/17/290
f 308/17/290 320/35/302 321/36/303
f 309/19/291 321/36/303 322/37/304
f 322/37/304 323/38/305 311/23/293
f 311/23/293 323/38/305 324/39/306
f 324/39/306 313/27/295 301/2/283
f 325/40/307 326/41/308 314/28/296
f 326/41/308 327/42/309 315/29/297
f 315/29/297 327/42/309 328/43/310
f 328/43/310 329/44/311 317/31/299
f 329/44/311 330/45/312 318/32/300
f 318/32/300 330/45/312 331/46/313
f 331/47/313 332/48/314 320/35/302
f 320/35/302 332/48/314 333/49/315
f 321/36/303 333/49/315 334/50/316
f 334/50/316 335/51/317 323/38/305
f 323/38/305 335/51/317 336/52/318
f 324/39/306 336/52/318 325/40/307
f 337/53/319 338/54/320 326/41/308
f 326/41/308 338/54/320 339/55/321
f 327/42/309 339/55/321 340/56/322
f 328/43/310 340/56/322 341/57/323
f 329/44/311 341/57/323 342/58/324
f 342/58/324 343/59/325 331/46/313
f 331/47/313 343/60/325 344/61/326
f 344/61/326 345/62/327 333/49/315
f 345/62/327 346/63/328 334/50/316
f 346/63/328 347/64/329 335/51/317
f 347/64/329 348/65/330 336/52/318
f 336/52/318 348/65/330 337/53/319
f 349/66/331 350/67/332 338/54/320
f 338/54/320 350/67/332 351/68/333
f 351/68/333 352/69/334 340/56/322
f 352/69/334 353/70/335 341/57/323
f 353/70/335 354/71/336 342/58/324
f 354/71/336 355/72/337 343/59/325
f 355/73/337 356/74/338 344/61/326
f 344/61/326 356/74/338 357/75/339
f 345/62/327 357/75/339 358/76/340
f 346/63/328 358/76/340 359/77/341
f 359/77/341 360/78/342 348/65/330
f 348/65/330 360/78/342 349/66/331
f 349/66/331 361/79/73 362/80/343
f 362/80/343 363/81/344 351/68/333
f 363/81/344 364/82/345 352/69/334
f 352/69/334 364/82/345 365/83/346
f 365/83/346 366/84/347 354/71/336
f 366/84/347 367/85/79 355/72/337
f 367/86/79 368/87/348 356/74/338
f 368/87/348 369/88/349 357/75/339
f 369/88/349 370/89/350 358/76/340
f 358/76/340 370/89/350 371/90/351
f 359/77/341 371/90/351 372/91/352
f 372/91/352 361/79/73 349/66/331
f 361/79/73 373/92/353 374/93/354
f 374/93/354 375/94/355 363/81/344
f 363/81/344 375/94/355 376/95/356
f 376/95/356 377/96/357 365/83/346
f 365/83/346 377/96/357 378/97/358
f 366/84/347 378/97/358 379/98/359
f 379/99/359 380/100/360 368/87/348
f 380/100/360 381/101/361 369/88/349
f 369/88/349 381/101/361 382/102/362
f 382/102/362 383/103/363 371/90/351
f 371/90/351 383/103/363 384/104/364
f 384/104/364 373/92/353 361/79/73
f 385/105/365 386/106/366 374/93/354
f 374/93/354 386/106/366 387/107/367
f 375/94/355 387/107/367 388/108/368
f 388/108/368 389/109/369 377/96/357
f 377/96/357 389/109/369 390/110/370
f 390/110/370 391/111/371 379/98/359
f 379/99/359 391/112/371 392/113/372
f 392/113/372 393/114/373 381/101/361
f 381/101/361 393/114/373 394/115/374
f 394/115/374 395/116/375 383/103/363
f 395/116/375 396/117/376 384/104/364
f 384/104/364 396/117/376 385/105/365
f 385/105/365 397/118/377 398/119/378
f 386/106/366 398/119/378 399/120/379
f 399/120/379 400/121/380 388/108/368
f 388/108/368 400/121/380 401/122/381
f 389/109/369 401/122/381 402/123/382
f 402/123/382 403/124/383 391/111/371
f 391/112/371 403/125/383 404/126/384
f 404/126/384 405/127/385 393/114/373
f 405/127/385 406/128/386 394/115/374
f 394/115/374 406/128/386 407/129/387
f 407/129/387 408/130/388 396/117/376
f 408/130/388 397/118/377 385/105/365
f 409/131/389 410/132/390 398/119/378
f 398/119/378 410/132/390 411/133/391
f 411/133/391 412/134/392 400/121/380
f 400/121/380 412/134/392 413/135/393
f 413/135/393 414/136/394 402/123/382
f 402/123/382 414/136/394 415/137/395
f 415/138/395 416/139/396 404/126/384
f 404/126/384 416/139/396 417/140/397
f 417/140/397 418/141/398 406/128/386
f 406/128/386 418/141/398 419/142/399
f 419/142/399 420/143/400 408/130/388
f 408/130/388 420/143/400 409/131/389
f 421/144/401 422/145/402 410/132/390
f 422/145/402 423/146/403 411/133/391
f 423/146/403 424/147/404 412/134/392
f 412/134/392 424/147/404 425/148/405
f 425/148/405 426/149/406 414/136/394
f 414/136/394 426/149/406 427/150/407
f 427/151/407 428/152/408 416/139/396
f 416/139/396 428/152/408 429/153/409
f 429/153/409 430/154/410 418/141/398
f 418/141/398 430/154/410 431/155/411
f 419/142/399 431/155/411 432/156/412
f 420/143/400 432/156/412 421/144/401
f 433/157/413 434/158/414 422/145/402
f 434/158/414 435/159/415 423/146/403
f 435/159/415 436/160/416 424/147/404
f 436/160/416 437/161/417 425/148/405
f 437/161/417 438/162/418 426/149/406
f 438/162/418 439/163/419 427/150/407
f 427/151/407 439/164/419 440/165/420
f 428/152/408 440/165/420 441/166/421
f 429/153/409 441/166/421 442/167/422
f 430/154/410 442/167/422 443/168/423
f 431/155/411 443/168/423 444/169/424
f 432/156/412 444/169/424 433/157/413
f 433/170/413 445/171/425 446/172/426
f 446/172/426 447/174/427 435/175/415
f 435/175/415 447/174/427 448/176/428
f 448/176/428 449/178/429 437/179/417
f 437/179/417 449/178/429 450/180/430
f 450/180/430 451/182/431 439/183/419
f 451/185/431 452/186/432 440/187/420
f 452/186/432 453/188/433 441/189/421
f 441/189/421 453/188/433 454/190/434
f 454/190/434 455/192/435 443/193/423
f 443/193/423 455/192/435 456/194/436
f 456/194/436 445/171/425 433/170/413
f 445/171/425 457/196/437 458/197/438
f 446/172/426 458/197/438 459/198/439
f 447/174/427 459/198/439 460/199/440
f 460/199/440 461/200/441 449/178/429
f 449/178/429 461/200/441 462/201/442
f 462/201/442 463/202/443 451/182/431
f 451/185/431 463/203/443 464/204/444
f 464/204/444 465/205/445 453/188/433
f 453/188/433 465/205/445 466/206/446
f 466/206/446 467/207/447 455/192/435
f 467/207/447 468/208/448 456/194/436
f 468/208/448 457/196/437 445/171/425
f 469/209/449 470/210/450 458/197/438
f 470/210/450 471/211/451 459/198/439
f 471/211/451 472/212/452 460/199/440
f 472/212/452 473/213/453 461/200/441
f 473/213/453 474/214/454 462/201/442
f 474/214/454 475/215/455 463/202/443
f 463/203/443 475/216/455 476/217/456
f 464/204/444 476/217/456 477/218/457
f 465/205/445 477/218/457 478/219/458
f 478/219/458 479/220/459 467/207/447
f 467/207/447 479/220/459 480/221/460
f 468/208/448 480/221/460 469/209/449
f 481/222/461 482/223/462 470/210/450
f 482/223/462 483/224/463 471/211/451
f 483/224/463 484/225/464 472/212/452
f 472/212/452 484/225/464 485/226/465
f 473/213/453 485/226/465 486/227/466
f 474/214/454 486/227/466 487/228/467
f 487/229/467 488/230/468 476/217/456
f 488/230/468 489/231/469 477/218/457
f 489/231/469 490/232/470 478/219/458
f 478/219/458 490/232/470 491/233/471
f 491/233/471 492/234/472 480/221/460
f 480/221/460 492/234/472 481/222/461
f 481/222/461 493/235/473 494/236/474
f 482/223/462 494/236/474 495/237/475
f 495/237/475 496/238/476 484/225/464
f 496/238/476 497/239/477 485/226/465
f 485/226/465 497/239/477 498/240/478
f 498/240/478 499/241/479 487/228/467
f 499/242/479 500/243/480 488/230/468
f 500/243/480 501/244/481 489/231/469
f 489/231/469 501/244/481 502/245/482
f 490/232/470 502/245/482 503/246/483
f 503/246/483 504/247/484 492/234/472
f 504/247/484 493/235/473 481/222/461
f 505/248/79 506/249/485 494/236/474
f 494/236/474 506/249/485 507/250/486
f 495/237/475 507/250/486 508/251/487
f 508/251/487 509/252/488 497/239/477
f 497/239/477 509/252/488 510/253/489
f 510/253/489 511/254/73 499/241/479
f 499/242/479 511/255/73 512/256/490
f 512/256/490 513/257/491 501/244/481
f 513/257/491 514/258/492 502/245/482
f 514/258/492 515/259/493 503/246/483
f 515/259/493 516/260/494 504/247/484
f 504/247/484 516/260/494 505/248/79
f 517/261/495 518/262/496 506/249/485
f 518/262/496 519/263/497 507/250/486
f 519/263/497 520/264/498 508/251/487
f 520/264/498 521/265/499 509/252/488
f 521/265/499 522/266/500 510/253/489
f 522/266/500 523/267/501 511/254/73
f 511/255/73 523/268/501 524/269/502
f 524/269/502 525/270/503 513/257/491
f 525/270/503 526/271/504 514/258/492
f 514/258/492 526/271/504 527/272/505
f 515/259/493 527/272/505 528/273/506
f 528/273/506 517/261/495 505/248/79
f 517/261/495 529/274/507 530/275/508
f 530/275/508 531/276/509 519/263/497
f 519/263/497 531/276/509 532/277/510
f 520/264/498 532/277/510 533/278/511
f 521/265/499 533/278/511 534/279/512
f 522/266/500 534/279/512 535/280/513
f 535/281/513 536/282/514 524/269/502
f 536/282/514 537/283/515 525/270/503
f 537/283/515 538/284/516 526/271/504
f 538/284/516 539/285/517 527/272/505
f 527/272/505 539/285/517 540/286/518
f 540/286/518 529/274/507 517/261/495
f 541/287/519 542/288/520 530/275/508
f 530/275/508 542/288/520 543/289/521
f 531/276/509 543/289/521 544/290/522
f 544/290/522 545/291/523 533/278/511
f 545/291/523 546/292/524 534/279/512
f 534/279/512 546/292/524 547/293/525
f 547/294/525 548/295/526 536/282/514
f 536/282/514 548/295/526 549/296/527
f 537/283/515 549/296/527 550/297/528
f 550/297/528 551/298/529 539/285/517
f 551/298/529 552/299/530 540/286/518
f 540/286/518 552/299/530 541/287/519
f 553/300/531 554/301/532 542/288/520
f 542/288/520 554/301/532 555/302/533
f 555/302/533 556/303/534 544/290/522
f 556/303/534 557/304/535 545/291/523
f 557/304/535 558/305/536 546/292/524
f 558/305/536 559/306/537 547/293/525
f 547/294/525 559/307/537 560/308/538
f 548/295/526 560/308/538 561/309/539
f 549/296/527 561/309/539 562/310/540
f 550/297/528 562/310/540 563/311/541
f 563/311/541 564/312/542 552/299/530
f 552/299/530 564/312/542 553/300/531
f 553/300/531 565/313/543 566/314/544
f 566/314/544 567/315/545 555/302/533
f 567/315/545 568/316/546 556/303/534
f 556/303/534 568/316/546 569/317/547
f 569/317/547 570/318/548 558/305/536
f 570/318/548 571/319/549 559/306/537
f 571/320/549 572/321/550 560/308/538
f 560/308/538 572/321/550 573/322/551
f 573/322/551 574/323/552 562/310/540
f 562/310/540 574/323/552 575/324/553
f 563/311/541 575/324/553 576/325/554
f 576/325/554 565/313/543 553/300/531
f 565/313/543 289/1/271 290/4/272
f 290/4/272 291/6/273 567/315/545
f 567/315/545 291/6/273 292/8/274
f 568/316/546 292/8/274 293/10/275
f 293/10/275 294/12/276 570/318/548
f 294/12/276 295/14/277 571/319/549
f 295/15/277 296/18/278 572/321/550
f 296/18/278 297/20/279 573/322/551
f 297/20/279 298/22/280 574/323/552
f 298/22/280 299/24/281 575/324/553
f 575/324/553 299/24/281 300/26/282
f 300/26/282 289/1/271 565/313/543
